solid OpenSCAD_Model
  facet normal -1 -0 -0
    outer loop
      vertex -5 -14.5 5.5039
      vertex -5 -14.5 8.5
      vertex -5 -10.6461 0
    endloop
  endfacet
  facet normal -1 0 -0
    outer loop
      vertex -5 -10.6461 0
      vertex -5 -14.5 8.5
      vertex -5 -2.665 8.5
    endloop
  endfacet
  facet normal -1 0 -0
    outer loop
      vertex -5 -2.665 8.5
      vertex -5 -2.665 18
      vertex -5 -2.20151 18
    endloop
  endfacet
  facet normal -1 0 0
    outer loop
      vertex -5 -2.665 8.5
      vertex -5 -2.20151 18
      vertex -5 -2.03672 17.6021
    endloop
  endfacet
  facet normal -1 0 0
    outer loop
      vertex -5 -2.665 8.5
      vertex -5 -2.03672 17.6021
      vertex -5 -1.71284 16.98
    endloop
  endfacet
  facet normal -1 -0 0
    outer loop
      vertex -5 -2.665 8.5
      vertex -5 2.50016 13.4449
      vertex -5 -10.6461 0
    endloop
  endfacet
  facet normal -1 0 0
    outer loop
      vertex -5 -1.71284 16.98
      vertex -5 -1.33598 16.3884
      vertex -5 -2.665 8.5
    endloop
  endfacet
  facet normal -1 0 0
    outer loop
      vertex -5 -1.33598 16.3884
      vertex -5 -0.908997 15.832
      vertex -5 -2.665 8.5
    endloop
  endfacet
  facet normal -1 0 0
    outer loop
      vertex -5 -0.908997 15.832
      vertex -5 -0.435139 15.3149
      vertex -5 -2.665 8.5
    endloop
  endfacet
  facet normal -1 0 0
    outer loop
      vertex -5 -0.435139 15.3149
      vertex -5 0.081988 14.841
      vertex -5 -2.665 8.5
    endloop
  endfacet
  facet normal -1 0 0
    outer loop
      vertex -5 0.081988 14.841
      vertex -5 0.638445 14.414
      vertex -5 -2.665 8.5
    endloop
  endfacet
  facet normal -1 0 0
    outer loop
      vertex -5 0.638445 14.414
      vertex -5 1.23 14.0372
      vertex -5 -2.665 8.5
    endloop
  endfacet
  facet normal -1 0 0
    outer loop
      vertex -5 1.23 14.0372
      vertex -5 1.85215 13.7133
      vertex -5 -2.665 8.5
    endloop
  endfacet
  facet normal -1 0 0
    outer loop
      vertex -5 1.85215 13.7133
      vertex -5 2.50016 13.4449
      vertex -5 -2.665 8.5
    endloop
  endfacet
  facet normal -1 0 0
    outer loop
      vertex -5 2.50016 13.4449
      vertex -5 3.16909 13.234
      vertex -5 -10.6461 0
    endloop
  endfacet
  facet normal -1 0 0
    outer loop
      vertex -5 3.16909 13.234
      vertex -5 3.85387 13.0821
      vertex -5 -10.6461 0
    endloop
  endfacet
  facet normal -1 0 0
    outer loop
      vertex -5 3.85387 13.0821
      vertex -5 4.54927 12.9906
      vertex -5 -10.6461 0
    endloop
  endfacet
  facet normal -1 0 0
    outer loop
      vertex -5 4.54927 12.9906
      vertex -5 5.25 12.96
      vertex -5 -10.6461 0
    endloop
  endfacet
  facet normal -1 -0 0
    outer loop
      vertex -5 5.25 12.96
      vertex -5 5.95073 12.9906
      vertex -5 -10.6461 0
    endloop
  endfacet
  facet normal -1 -0 0
    outer loop
      vertex -5 5.95073 12.9906
      vertex -5 6.64613 13.0821
      vertex -5 -10.6461 0
    endloop
  endfacet
  facet normal -1 -0 0
    outer loop
      vertex -5 6.64613 13.0821
      vertex -5 7.3309 13.234
      vertex -5 -10.6461 0
    endloop
  endfacet
  facet normal -1 -0 0
    outer loop
      vertex -5 7.3309 13.234
      vertex -5 7.99984 13.4449
      vertex -5 -10.6461 0
    endloop
  endfacet
  facet normal -1 -0 0
    outer loop
      vertex -5 7.99984 13.4449
      vertex -5 8.64785 13.7133
      vertex -5 -10.6461 0
    endloop
  endfacet
  facet normal -1 -0 0
    outer loop
      vertex -5 8.64785 13.7133
      vertex -5 9.27 14.0372
      vertex -5 -10.6461 0
    endloop
  endfacet
  facet normal -1 -0 0
    outer loop
      vertex -5 9.27 14.0372
      vertex -5 9.86155 14.414
      vertex -5 -10.6461 0
    endloop
  endfacet
  facet normal -1 0 0
    outer loop
      vertex -5 9.86155 14.414
      vertex -5 13.165 8.5
      vertex -5 -10.6461 0
    endloop
  endfacet
  facet normal -1 0 0
    outer loop
      vertex -5 10.418 14.841
      vertex -5 13.165 8.5
      vertex -5 9.86155 14.414
    endloop
  endfacet
  facet normal -1 0 0
    outer loop
      vertex -5 10.9351 15.3149
      vertex -5 13.165 8.5
      vertex -5 10.418 14.841
    endloop
  endfacet
  facet normal -1 -0 0
    outer loop
      vertex -5 11.836 16.3884
      vertex -5 13.165 18
      vertex -5 11.409 15.832
    endloop
  endfacet
  facet normal -1 -0 0
    outer loop
      vertex -5 12.2128 16.98
      vertex -5 13.165 18
      vertex -5 11.836 16.3884
    endloop
  endfacet
  facet normal -1 0 0
    outer loop
      vertex -5 12.5367 17.6021
      vertex -5 12.7015 18
      vertex -5 13.165 18
    endloop
  endfacet
  facet normal -1 -0 0
    outer loop
      vertex -5 12.5367 17.6021
      vertex -5 13.165 18
      vertex -5 12.2128 16.98
    endloop
  endfacet
  facet normal -1 -0 0
    outer loop
      vertex -5 11.409 15.832
      vertex -5 13.165 18
      vertex -5 13.165 8.5
    endloop
  endfacet
  facet normal -1 0 0
    outer loop
      vertex -5 11.409 15.832
      vertex -5 13.165 8.5
      vertex -5 10.9351 15.3149
    endloop
  endfacet
  facet normal -1 0 0
    outer loop
      vertex -5 13.165 8.5
      vertex -5 25 8.5
      vertex -5 -10.6461 0
    endloop
  endfacet
  facet normal -1 0 0
    outer loop
      vertex -5 -10.6461 0
      vertex -5 25 8.5
      vertex -5 25 5.5039
    endloop
  endfacet
  facet normal -1 -0 0
    outer loop
      vertex -5 -10.6461 0
      vertex -5 25 5.5039
      vertex -5 21.1461 0
    endloop
  endfacet
  facet normal 0 -1 0
    outer loop
      vertex -5 -14.5 8.5
      vertex -5 -14.5 5.5039
      vertex 5 -14.5 5.5039
    endloop
  endfacet
  facet normal 0 -1 0
    outer loop
      vertex 5 -14.5 8.5
      vertex -5 -14.5 8.5
      vertex 5 -14.5 5.5039
    endloop
  endfacet
  facet normal -0 -0.819152 -0.573576
    outer loop
      vertex -5 -10.6461 0
      vertex 5 -10.6461 0
      vertex 5 -14.5 5.5039
    endloop
  endfacet
  facet normal -0 -0.819152 -0.573576
    outer loop
      vertex -5 -14.5 5.5039
      vertex -5 -10.6461 0
      vertex 5 -14.5 5.5039
    endloop
  endfacet
  facet normal -0 -0 -1
    outer loop
      vertex 1.7 -5.75 0
      vertex -5 21.1461 0
      vertex 5 -10.6461 0
    endloop
  endfacet
  facet normal 0 -0 -1
    outer loop
      vertex 0 17.95 0
      vertex -5 21.1461 0
      vertex 5 21.1461 0
    endloop
  endfacet
  facet normal 0 -0 -1
    outer loop
      vertex -5 -10.6461 0
      vertex -5 21.1461 0
      vertex -1.7 -5.75 0
    endloop
  endfacet
  facet normal 0 0 -1
    outer loop
      vertex -5 -10.6461 0
      vertex -1.7 -5.75 0
      vertex -1.47224 -6.6 0
    endloop
  endfacet
  facet normal 0 0 -1
    outer loop
      vertex -5 -10.6461 0
      vertex -1.47224 -6.6 0
      vertex -0.85 -7.22224 0
    endloop
  endfacet
  facet normal -0 0 -1
    outer loop
      vertex -5 -10.6461 0
      vertex -0.85 -7.22224 0
      vertex 5 -10.6461 0
    endloop
  endfacet
  facet normal 0 0 -1
    outer loop
      vertex 0.85 -7.22224 0
      vertex 5 -10.6461 0
      vertex 0 -7.45 0
    endloop
  endfacet
  facet normal -0 0 -1
    outer loop
      vertex 1.7 16.25 0
      vertex 5 21.1461 0
      vertex 1.47224 15.4 0
    endloop
  endfacet
  facet normal -0 -0 -1
    outer loop
      vertex 0.85 -4.27776 0
      vertex -5 21.1461 0
      vertex 1.47224 -4.9 0
    endloop
  endfacet
  facet normal -0 -0 -1
    outer loop
      vertex 0 -4.05 0
      vertex -5 21.1461 0
      vertex 0.85 -4.27776 0
    endloop
  endfacet
  facet normal -0 0 -1
    outer loop
      vertex 0.85 -7.22224 0
      vertex 1.47224 -6.6 0
      vertex 5 -10.6461 0
    endloop
  endfacet
  facet normal -0 -0 -1
    outer loop
      vertex 1.47224 -4.9 0
      vertex -5 21.1461 0
      vertex 1.7 -5.75 0
    endloop
  endfacet
  facet normal -0 0 -1
    outer loop
      vertex 1.47224 -6.6 0
      vertex 1.7 -5.75 0
      vertex 5 -10.6461 0
    endloop
  endfacet
  facet normal 0 -0 -1
    outer loop
      vertex -0.85 -4.27776 0
      vertex -5 21.1461 0
      vertex 0 -4.05 0
    endloop
  endfacet
  facet normal 0 -0 -1
    outer loop
      vertex -1.47224 -4.9 0
      vertex -5 21.1461 0
      vertex -0.85 -4.27776 0
    endloop
  endfacet
  facet normal 0 -0 -1
    outer loop
      vertex -1.7 -5.75 0
      vertex -5 21.1461 0
      vertex -1.47224 -4.9 0
    endloop
  endfacet
  facet normal 0 0 -1
    outer loop
      vertex 5 -10.6461 0
      vertex -5 21.1461 0
      vertex -1.7 16.25 0
    endloop
  endfacet
  facet normal 0 0 -1
    outer loop
      vertex 5 -10.6461 0
      vertex -1.7 16.25 0
      vertex -1.47224 15.4 0
    endloop
  endfacet
  facet normal 0 0 -1
    outer loop
      vertex 5 -10.6461 0
      vertex -1.47224 15.4 0
      vertex -0.85 14.7778 0
    endloop
  endfacet
  facet normal 0 0 -1
    outer loop
      vertex 5 -10.6461 0
      vertex -0.85 14.7778 0
      vertex 0 14.55 0
    endloop
  endfacet
  facet normal 0 0 -1
    outer loop
      vertex 5 -10.6461 0
      vertex 0 14.55 0
      vertex 0.85 14.7778 0
    endloop
  endfacet
  facet normal 0 0 -1
    outer loop
      vertex 5 -10.6461 0
      vertex 0.85 14.7778 0
      vertex 1.47224 15.4 0
    endloop
  endfacet
  facet normal 0 0 -1
    outer loop
      vertex 5 -10.6461 0
      vertex 1.47224 15.4 0
      vertex 5 21.1461 0
    endloop
  endfacet
  facet normal -0 0 -1
    outer loop
      vertex 1.47224 17.1 0
      vertex 5 21.1461 0
      vertex 1.7 16.25 0
    endloop
  endfacet
  facet normal -0 0 -1
    outer loop
      vertex 0.85 17.7222 0
      vertex 5 21.1461 0
      vertex 1.47224 17.1 0
    endloop
  endfacet
  facet normal -0 0 -1
    outer loop
      vertex 0 17.95 0
      vertex 5 21.1461 0
      vertex 0.85 17.7222 0
    endloop
  endfacet
  facet normal 0 -0 -1
    outer loop
      vertex -0.85 17.7222 0
      vertex -5 21.1461 0
      vertex 0 17.95 0
    endloop
  endfacet
  facet normal 0 -0 -1
    outer loop
      vertex -1.47224 17.1 0
      vertex -5 21.1461 0
      vertex -0.85 17.7222 0
    endloop
  endfacet
  facet normal 0 -0 -1
    outer loop
      vertex -1.7 16.25 0
      vertex -5 21.1461 0
      vertex -1.47224 17.1 0
    endloop
  endfacet
  facet normal 0 0 -1
    outer loop
      vertex 0 -7.45 0
      vertex 5 -10.6461 0
      vertex -0.85 -7.22224 0
    endloop
  endfacet
  facet normal 0 0.819152 -0.573576
    outer loop
      vertex 5 25 5.5039
      vertex 5 21.1461 0
      vertex -5 25 5.5039
    endloop
  endfacet
  facet normal 0 0.819152 -0.573576
    outer loop
      vertex -5 25 5.5039
      vertex 5 21.1461 0
      vertex -5 21.1461 0
    endloop
  endfacet
  facet normal 0 1 0
    outer loop
      vertex -5 25 5.5039
      vertex -5 25 8.5
      vertex 5 25 5.5039
    endloop
  endfacet
  facet normal 0 1 0
    outer loop
      vertex 5 25 5.5039
      vertex -5 25 8.5
      vertex 5 25 8.5
    endloop
  endfacet
  facet normal 0 -0 1
    outer loop
      vertex 0 14.55 8.5
      vertex -5 13.165 8.5
      vertex 5 13.165 8.5
    endloop
  endfacet
  facet normal 0 0 1
    outer loop
      vertex 5 25 8.5
      vertex -5 25 8.5
      vertex 5 13.165 8.5
    endloop
  endfacet
  facet normal 0 -0 1
    outer loop
      vertex -5 25 8.5
      vertex -5 13.165 8.5
      vertex -1.47224 15.4 8.5
    endloop
  endfacet
  facet normal 0 -0 1
    outer loop
      vertex 0.85 14.7778 8.5
      vertex 0 14.55 8.5
      vertex 5 13.165 8.5
    endloop
  endfacet
  facet normal 0 0 1
    outer loop
      vertex -5 25 8.5
      vertex -1.47224 15.4 8.5
      vertex -1.7 16.25 8.5
    endloop
  endfacet
  facet normal 0 0 1
    outer loop
      vertex -5 25 8.5
      vertex -1.7 16.25 8.5
      vertex -1.47224 17.1 8.5
    endloop
  endfacet
  facet normal 0 0 1
    outer loop
      vertex -5 25 8.5
      vertex -1.47224 17.1 8.5
      vertex -0.85 17.7222 8.5
    endloop
  endfacet
  facet normal 0 -0 1
    outer loop
      vertex 1.7 16.25 8.5
      vertex 1.47224 15.4 8.5
      vertex 5 13.165 8.5
    endloop
  endfacet
  facet normal 0 0 1
    outer loop
      vertex -5 25 8.5
      vertex -0.85 17.7222 8.5
      vertex 0 17.95 8.5
    endloop
  endfacet
  facet normal 0 -0 1
    outer loop
      vertex 1.47224 15.4 8.5
      vertex 0.85 14.7778 8.5
      vertex 5 13.165 8.5
    endloop
  endfacet
  facet normal 0 0 1
    outer loop
      vertex -5 25 8.5
      vertex 0 17.95 8.5
      vertex 0.85 17.7222 8.5
    endloop
  endfacet
  facet normal 0 0 1
    outer loop
      vertex -5 25 8.5
      vertex 1.47224 17.1 8.5
      vertex 5 13.165 8.5
    endloop
  endfacet
  facet normal 0 0 1
    outer loop
      vertex -5 25 8.5
      vertex 0.85 17.7222 8.5
      vertex 1.47224 17.1 8.5
    endloop
  endfacet
  facet normal 0 -0 1
    outer loop
      vertex -0.85 14.7778 8.5
      vertex -5 13.165 8.5
      vertex 0 14.55 8.5
    endloop
  endfacet
  facet normal 0 -0 1
    outer loop
      vertex -1.47224 15.4 8.5
      vertex -5 13.165 8.5
      vertex -0.85 14.7778 8.5
    endloop
  endfacet
  facet normal 0 0 1
    outer loop
      vertex 1.47224 17.1 8.5
      vertex 1.7 16.25 8.5
      vertex 5 13.165 8.5
    endloop
  endfacet
  facet normal 0 1 0
    outer loop
      vertex -5 13.165 8.5
      vertex -5 13.165 18
      vertex 5 13.165 8.5
    endloop
  endfacet
  facet normal 0 1 0
    outer loop
      vertex 5 13.165 8.5
      vertex -5 13.165 18
      vertex 5 13.165 18
    endloop
  endfacet
  facet normal 0 -0 1
    outer loop
      vertex -5 13.165 18
      vertex -5 12.7015 18
      vertex 5 12.7015 18
    endloop
  endfacet
  facet normal 0 0 1
    outer loop
      vertex 5 13.165 18
      vertex -5 13.165 18
      vertex 5 12.7015 18
    endloop
  endfacet
  facet normal -1.63651e-16 -0.92388 0.382683
    outer loop
      vertex 5 12.5367 17.6021
      vertex 5 12.7015 18
      vertex -5 12.7015 18
    endloop
  endfacet
  facet normal -1.35956e-16 -0.92388 0.382683
    outer loop
      vertex -5 12.5367 17.6021
      vertex 5 12.5367 17.6021
      vertex -5 12.7015 18
    endloop
  endfacet
  facet normal -1.66943e-16 -0.88701 0.461749
    outer loop
      vertex 5 12.2128 16.98
      vertex 5 12.5367 17.6021
      vertex -5 12.5367 17.6021
    endloop
  endfacet
  facet normal -1.64046e-16 -0.88701 0.461749
    outer loop
      vertex -5 12.2128 16.98
      vertex 5 12.2128 16.98
      vertex -5 12.5367 17.6021
    endloop
  endfacet
  facet normal -1.91675e-16 -0.843392 0.5373
    outer loop
      vertex 5 11.836 16.3884
      vertex 5 12.2128 16.98
      vertex -5 12.2128 16.98
    endloop
  endfacet
  facet normal -1.90887e-16 -0.843392 0.5373
    outer loop
      vertex -5 11.836 16.3884
      vertex 5 11.836 16.3884
      vertex -5 12.2128 16.98
    endloop
  endfacet
  facet normal -2.16408e-16 -0.793353 0.608762
    outer loop
      vertex 5 11.409 15.832
      vertex 5 11.836 16.3884
      vertex -5 11.836 16.3884
    endloop
  endfacet
  facet normal -2.16276e-16 -0.793353 0.608762
    outer loop
      vertex -5 11.409 15.832
      vertex 5 11.409 15.832
      vertex -5 11.836 16.3884
    endloop
  endfacet
  facet normal -2.4114e-16 -0.737278 0.675589
    outer loop
      vertex 5 10.9351 15.3149
      vertex 5 11.409 15.832
      vertex -5 11.409 15.832
    endloop
  endfacet
  facet normal -1.20009e-16 -0.737278 0.675589
    outer loop
      vertex -5 10.9351 15.3149
      vertex 5 10.9351 15.3149
      vertex -5 11.409 15.832
    endloop
  endfacet
  facet normal -1.29845e-16 -0.675589 0.737278
    outer loop
      vertex 5 10.418 14.841
      vertex 5 10.9351 15.3149
      vertex -5 10.9351 15.3149
    endloop
  endfacet
  facet normal -1.30967e-16 -0.675589 0.737278
    outer loop
      vertex -5 10.418 14.841
      vertex 5 10.418 14.841
      vertex -5 10.9351 15.3149
    endloop
  endfacet
  facet normal -1.42211e-16 -0.608762 0.793353
    outer loop
      vertex 5 9.86155 14.414
      vertex 5 10.418 14.841
      vertex -5 10.418 14.841
    endloop
  endfacet
  facet normal -1.40928e-16 -0.608762 0.793353
    outer loop
      vertex -5 9.86155 14.414
      vertex 5 9.86155 14.414
      vertex -5 10.418 14.841
    endloop
  endfacet
  facet normal -1.48394e-16 -0.5373 0.843392
    outer loop
      vertex 5 9.27 14.0372
      vertex 5 9.86155 14.414
      vertex -5 9.86155 14.414
    endloop
  endfacet
  facet normal -2.99633e-16 -0.5373 0.843392
    outer loop
      vertex -5 9.27 14.0372
      vertex 5 9.27 14.0372
      vertex -5 9.86155 14.414
    endloop
  endfacet
  facet normal -3.15337e-16 -0.461749 0.88701
    outer loop
      vertex 5 8.64785 13.7133
      vertex 5 9.27 14.0372
      vertex -5 9.27 14.0372
    endloop
  endfacet
  facet normal -3.15129e-16 -0.461749 0.88701
    outer loop
      vertex -5 8.64785 13.7133
      vertex 5 8.64785 13.7133
      vertex -5 9.27 14.0372
    endloop
  endfacet
  facet normal -3.27703e-16 -0.382683 0.92388
    outer loop
      vertex 5 7.99984 13.4449
      vertex 5 8.64785 13.7133
      vertex -5 8.64785 13.7133
    endloop
  endfacet
  facet normal -3.28228e-16 -0.382683 0.92388
    outer loop
      vertex -5 7.99984 13.4449
      vertex 5 7.99984 13.4449
      vertex -5 8.64785 13.7133
    endloop
  endfacet
  facet normal -3.36978e-16 -0.300706 0.953717
    outer loop
      vertex 5 7.3309 13.234
      vertex 5 7.99984 13.4449
      vertex -5 7.99984 13.4449
    endloop
  endfacet
  facet normal -3.38828e-16 -0.300706 0.953717
    outer loop
      vertex -5 7.3309 13.234
      vertex 5 7.3309 13.234
      vertex -5 7.99984 13.4449
    endloop
  endfacet
  facet normal -3.46252e-16 -0.216439 0.976296
    outer loop
      vertex 5 6.64613 13.0821
      vertex 5 7.3309 13.234
      vertex -5 7.3309 13.234
    endloop
  endfacet
  facet normal -3.4685e-16 -0.216439 0.976296
    outer loop
      vertex -5 6.64613 13.0821
      vertex 5 6.64613 13.0821
      vertex -5 7.3309 13.234
    endloop
  endfacet
  facet normal -3.52435e-16 -0.130526 0.991445
    outer loop
      vertex 5 5.95073 12.9906
      vertex 5 6.64613 13.0821
      vertex -5 6.64613 13.0821
    endloop
  endfacet
  facet normal -1.76116e-16 -0.130526 0.991445
    outer loop
      vertex -5 5.95073 12.9906
      vertex 5 5.95073 12.9906
      vertex -5 6.64613 13.0821
    endloop
  endfacet
  facet normal -1.77764e-16 -0.0436199 0.999048
    outer loop
      vertex 5 5.25 12.96
      vertex 5 5.95073 12.9906
      vertex -5 5.95073 12.9906
    endloop
  endfacet
  facet normal -1.77467e-16 -0.0436199 0.999048
    outer loop
      vertex -5 5.25 12.96
      vertex 5 5.25 12.96
      vertex -5 5.95073 12.9906
    endloop
  endfacet
  facet normal -1.77764e-16 0.0436199 0.999048
    outer loop
      vertex 5 4.54927 12.9906
      vertex 5 5.25 12.96
      vertex -5 5.25 12.96
    endloop
  endfacet
  facet normal -1.77467e-16 0.0436199 0.999048
    outer loop
      vertex -5 4.54927 12.9906
      vertex 5 4.54927 12.9906
      vertex -5 5.25 12.96
    endloop
  endfacet
  facet normal -1.74672e-16 0.130526 0.991445
    outer loop
      vertex 5 3.85387 13.0821
      vertex 5 4.54927 12.9906
      vertex -5 4.54927 12.9906
    endloop
  endfacet
  facet normal -3.52232e-16 0.130526 0.991445
    outer loop
      vertex -5 3.85387 13.0821
      vertex 5 3.85387 13.0821
      vertex -5 4.54927 12.9906
    endloop
  endfacet
  facet normal -3.46252e-16 0.216439 0.976296
    outer loop
      vertex 5 3.16909 13.234
      vertex 5 3.85387 13.0821
      vertex -5 3.85387 13.0821
    endloop
  endfacet
  facet normal -3.4685e-16 0.216439 0.976296
    outer loop
      vertex -5 3.16909 13.234
      vertex 5 3.16909 13.234
      vertex -5 3.85387 13.0821
    endloop
  endfacet
  facet normal -3.43161e-16 0.300706 0.953717
    outer loop
      vertex 5 2.50016 13.4449
      vertex 5 3.16909 13.234
      vertex -5 3.16909 13.234
    endloop
  endfacet
  facet normal -3.38828e-16 0.300706 0.953717
    outer loop
      vertex -5 2.50016 13.4449
      vertex 5 2.50016 13.4449
      vertex -5 3.16909 13.234
    endloop
  endfacet
  facet normal -3.27703e-16 0.382683 0.92388
    outer loop
      vertex 5 1.85215 13.7133
      vertex 5 2.50016 13.4449
      vertex -5 2.50016 13.4449
    endloop
  endfacet
  facet normal -3.28228e-16 0.382683 0.92388
    outer loop
      vertex -5 1.85215 13.7133
      vertex 5 1.85215 13.7133
      vertex -5 2.50016 13.4449
    endloop
  endfacet
  facet normal -3.2152e-16 0.461749 0.88701
    outer loop
      vertex 5 1.23 14.0372
      vertex 5 1.85215 13.7133
      vertex -5 1.85215 13.7133
    endloop
  endfacet
  facet normal -3.15129e-16 0.461749 0.88701
    outer loop
      vertex -5 1.23 14.0372
      vertex 5 1.23 14.0372
      vertex -5 1.85215 13.7133
    endloop
  endfacet
  facet normal -3.02971e-16 0.5373 0.843392
    outer loop
      vertex 5 0.638445 14.414
      vertex 5 1.23 14.0372
      vertex -5 1.23 14.0372
    endloop
  endfacet
  facet normal -1.49816e-16 0.5373 0.843392
    outer loop
      vertex -5 0.638445 14.414
      vertex 5 0.638445 14.414
      vertex -5 1.23 14.0372
    endloop
  endfacet
  facet normal -1.42211e-16 0.608762 0.793353
    outer loop
      vertex 5 0.081988 14.841
      vertex 5 0.638445 14.414
      vertex -5 0.638445 14.414
    endloop
  endfacet
  facet normal -1.40928e-16 0.608762 0.793353
    outer loop
      vertex -5 0.081988 14.841
      vertex 5 0.081988 14.841
      vertex -5 0.638445 14.414
    endloop
  endfacet
  facet normal -1.29845e-16 0.675589 0.737278
    outer loop
      vertex 5 -0.435139 15.3149
      vertex 5 0.081988 14.841
      vertex -5 0.081988 14.841
    endloop
  endfacet
  facet normal -1.30967e-16 0.675589 0.737278
    outer loop
      vertex -5 -0.435139 15.3149
      vertex 5 -0.435139 15.3149
      vertex -5 0.081988 14.841
    endloop
  endfacet
  facet normal -1.20009e-16 0.737278 0.675589
    outer loop
      vertex 5 -0.435139 15.3149
      vertex -5 -0.435139 15.3149
      vertex 5 -0.908997 15.832
    endloop
  endfacet
  facet normal -2.40017e-16 0.737278 0.675589
    outer loop
      vertex 5 -0.908997 15.832
      vertex -5 -0.435139 15.3149
      vertex -5 -0.908997 15.832
    endloop
  endfacet
  facet normal -2.16276e-16 0.793353 0.608762
    outer loop
      vertex 5 -0.908997 15.832
      vertex -5 -0.908997 15.832
      vertex 5 -1.33598 16.3884
    endloop
  endfacet
  facet normal -2.16276e-16 0.793353 0.608762
    outer loop
      vertex 5 -1.33598 16.3884
      vertex -5 -0.908997 15.832
      vertex -5 -1.33598 16.3884
    endloop
  endfacet
  facet normal -1.90887e-16 0.843392 0.5373
    outer loop
      vertex 5 -1.33598 16.3884
      vertex -5 -1.33598 16.3884
      vertex 5 -1.71284 16.98
    endloop
  endfacet
  facet normal -1.90887e-16 0.843392 0.5373
    outer loop
      vertex 5 -1.71284 16.98
      vertex -5 -1.33598 16.3884
      vertex -5 -1.71284 16.98
    endloop
  endfacet
  facet normal -1.64046e-16 0.88701 0.461749
    outer loop
      vertex 5 -1.71284 16.98
      vertex -5 -1.71284 16.98
      vertex 5 -2.03672 17.6021
    endloop
  endfacet
  facet normal -1.64046e-16 0.88701 0.461749
    outer loop
      vertex 5 -2.03672 17.6021
      vertex -5 -1.71284 16.98
      vertex -5 -2.03672 17.6021
    endloop
  endfacet
  facet normal -1.35956e-16 0.92388 0.382683
    outer loop
      vertex 5 -2.03672 17.6021
      vertex -5 -2.03672 17.6021
      vertex 5 -2.20151 18
    endloop
  endfacet
  facet normal -1.23085e-16 0.92388 0.382683
    outer loop
      vertex 5 -2.20151 18
      vertex -5 -2.03672 17.6021
      vertex -5 -2.20151 18
    endloop
  endfacet
  facet normal 0 -0 1
    outer loop
      vertex -5 -2.20151 18
      vertex -5 -2.665 18
      vertex 5 -2.665 18
    endloop
  endfacet
  facet normal 0 0 1
    outer loop
      vertex 5 -2.20151 18
      vertex -5 -2.20151 18
      vertex 5 -2.665 18
    endloop
  endfacet
  facet normal 0 -1 0
    outer loop
      vertex -5 -2.665 18
      vertex -5 -2.665 8.5
      vertex 5 -2.665 8.5
    endloop
  endfacet
  facet normal 0 -1 0
    outer loop
      vertex 5 -2.665 18
      vertex -5 -2.665 18
      vertex 5 -2.665 8.5
    endloop
  endfacet
  facet normal 0 -0 1
    outer loop
      vertex -5 -2.665 8.5
      vertex -5 -14.5 8.5
      vertex 5 -14.5 8.5
    endloop
  endfacet
  facet normal -0 -0 1
    outer loop
      vertex -1.47224 -6.6 8.5
      vertex -5 -2.665 8.5
      vertex 5 -14.5 8.5
    endloop
  endfacet
  facet normal -0 -0 1
    outer loop
      vertex -0.85 -7.22224 8.5
      vertex -1.47224 -6.6 8.5
      vertex 5 -14.5 8.5
    endloop
  endfacet
  facet normal -0 -0 1
    outer loop
      vertex -1.7 -5.75 8.5
      vertex -5 -2.665 8.5
      vertex -1.47224 -6.6 8.5
    endloop
  endfacet
  facet normal -0 0 1
    outer loop
      vertex -1.47224 -4.9 8.5
      vertex -5 -2.665 8.5
      vertex -1.7 -5.75 8.5
    endloop
  endfacet
  facet normal -0 0 1
    outer loop
      vertex -0.85 -4.27776 8.5
      vertex -5 -2.665 8.5
      vertex -1.47224 -4.9 8.5
    endloop
  endfacet
  facet normal 0 0 1
    outer loop
      vertex 5 -2.665 8.5
      vertex -5 -2.665 8.5
      vertex -0.85 -4.27776 8.5
    endloop
  endfacet
  facet normal 0 0 1
    outer loop
      vertex 5 -2.665 8.5
      vertex -0.85 -4.27776 8.5
      vertex 0 -4.05 8.5
    endloop
  endfacet
  facet normal 0 0 1
    outer loop
      vertex 5 -2.665 8.5
      vertex 1.47224 -4.9 8.5
      vertex 5 -14.5 8.5
    endloop
  endfacet
  facet normal 0 0 1
    outer loop
      vertex 1.47224 -4.9 8.5
      vertex 1.7 -5.75 8.5
      vertex 5 -14.5 8.5
    endloop
  endfacet
  facet normal 0 -0 1
    outer loop
      vertex 1.7 -5.75 8.5
      vertex 1.47224 -6.6 8.5
      vertex 5 -14.5 8.5
    endloop
  endfacet
  facet normal 0 -0 1
    outer loop
      vertex 1.47224 -6.6 8.5
      vertex 0.85 -7.22224 8.5
      vertex 5 -14.5 8.5
    endloop
  endfacet
  facet normal 0 -0 1
    outer loop
      vertex 0.85 -7.22224 8.5
      vertex 0 -7.45 8.5
      vertex 5 -14.5 8.5
    endloop
  endfacet
  facet normal -0 -0 1
    outer loop
      vertex 0 -7.45 8.5
      vertex -0.85 -7.22224 8.5
      vertex 5 -14.5 8.5
    endloop
  endfacet
  facet normal 0 0 1
    outer loop
      vertex 0 -4.05 8.5
      vertex 0.85 -4.27776 8.5
      vertex 5 -2.665 8.5
    endloop
  endfacet
  facet normal 0 0 1
    outer loop
      vertex 0.85 -4.27776 8.5
      vertex 1.47224 -4.9 8.5
      vertex 5 -2.665 8.5
    endloop
  endfacet
  facet normal 1 0 -0
    outer loop
      vertex 5 -14.5 8.5
      vertex 5 -14.5 5.5039
      vertex 5 -10.6461 0
    endloop
  endfacet
  facet normal 1 -0 0
    outer loop
      vertex 5 25 5.5039
      vertex 5 -14.5 8.5
      vertex 5 21.1461 0
    endloop
  endfacet
  facet normal 1 -0 0
    outer loop
      vertex 5 21.1461 0
      vertex 5 -14.5 8.5
      vertex 5 -10.6461 0
    endloop
  endfacet
  facet normal 1 0 -0
    outer loop
      vertex 5 13.165 8.5
      vertex 5 -2.665 8.5
      vertex 5 25 5.5039
    endloop
  endfacet
  facet normal 1 0 -0
    outer loop
      vertex 5 -2.665 8.5
      vertex 5 -14.5 8.5
      vertex 5 25 5.5039
    endloop
  endfacet
  facet normal 1 0 0
    outer loop
      vertex 5 25 8.5
      vertex 5 13.165 8.5
      vertex 5 25 5.5039
    endloop
  endfacet
  facet normal 1 0 0
    outer loop
      vertex 5 13.165 18
      vertex 5 12.5367 17.6021
      vertex 5 13.165 8.5
    endloop
  endfacet
  facet normal 1 0 -0
    outer loop
      vertex 5 12.5367 17.6021
      vertex 5 12.2128 16.98
      vertex 5 13.165 8.5
    endloop
  endfacet
  facet normal 1 0 -0
    outer loop
      vertex 5 12.2128 16.98
      vertex 5 11.836 16.3884
      vertex 5 13.165 8.5
    endloop
  endfacet
  facet normal 1 0 -0
    outer loop
      vertex 5 11.836 16.3884
      vertex 5 11.409 15.832
      vertex 5 13.165 8.5
    endloop
  endfacet
  facet normal 1 0 -0
    outer loop
      vertex 5 11.409 15.832
      vertex 5 10.9351 15.3149
      vertex 5 13.165 8.5
    endloop
  endfacet
  facet normal 1 0 -0
    outer loop
      vertex 5 10.9351 15.3149
      vertex 5 10.418 14.841
      vertex 5 13.165 8.5
    endloop
  endfacet
  facet normal 1 0 -0
    outer loop
      vertex 5 10.418 14.841
      vertex 5 9.86155 14.414
      vertex 5 13.165 8.5
    endloop
  endfacet
  facet normal 1 0 -0
    outer loop
      vertex 5 9.86155 14.414
      vertex 5 9.27 14.0372
      vertex 5 13.165 8.5
    endloop
  endfacet
  facet normal 1 0 -0
    outer loop
      vertex 5 9.27 14.0372
      vertex 5 8.64785 13.7133
      vertex 5 13.165 8.5
    endloop
  endfacet
  facet normal 1 0 -0
    outer loop
      vertex 5 8.64785 13.7133
      vertex 5 7.99984 13.4449
      vertex 5 13.165 8.5
    endloop
  endfacet
  facet normal 1 0 -0
    outer loop
      vertex 5 7.99984 13.4449
      vertex 5 7.3309 13.234
      vertex 5 13.165 8.5
    endloop
  endfacet
  facet normal 1 0 -0
    outer loop
      vertex 5 7.3309 13.234
      vertex 5 6.64613 13.0821
      vertex 5 13.165 8.5
    endloop
  endfacet
  facet normal 1 0 0
    outer loop
      vertex 5 -2.665 18
      vertex 5 -1.71284 16.98
      vertex 5 -2.03672 17.6021
    endloop
  endfacet
  facet normal 1 0 -0
    outer loop
      vertex 5 6.64613 13.0821
      vertex 5 -2.665 8.5
      vertex 5 13.165 8.5
    endloop
  endfacet
  facet normal 1 0 0
    outer loop
      vertex 5 -2.665 18
      vertex 5 -2.03672 17.6021
      vertex 5 -2.20151 18
    endloop
  endfacet
  facet normal 1 0 -0
    outer loop
      vertex 5 12.7015 18
      vertex 5 12.5367 17.6021
      vertex 5 13.165 18
    endloop
  endfacet
  facet normal 1 0 0
    outer loop
      vertex 5 -2.665 18
      vertex 5 -1.33598 16.3884
      vertex 5 -1.71284 16.98
    endloop
  endfacet
  facet normal 1 0 0
    outer loop
      vertex 5 -2.665 18
      vertex 5 -0.908997 15.832
      vertex 5 -1.33598 16.3884
    endloop
  endfacet
  facet normal 1 0 -0
    outer loop
      vertex 5 5.95073 12.9906
      vertex 5 -2.665 8.5
      vertex 5 6.64613 13.0821
    endloop
  endfacet
  facet normal 1 0 -0
    outer loop
      vertex 5 5.25 12.96
      vertex 5 -2.665 8.5
      vertex 5 5.95073 12.9906
    endloop
  endfacet
  facet normal 1 0 -0
    outer loop
      vertex 5 4.54927 12.9906
      vertex 5 -2.665 8.5
      vertex 5 5.25 12.96
    endloop
  endfacet
  facet normal 1 0 -0
    outer loop
      vertex 5 3.85387 13.0821
      vertex 5 -2.665 8.5
      vertex 5 4.54927 12.9906
    endloop
  endfacet
  facet normal 1 0 -0
    outer loop
      vertex 5 3.16909 13.234
      vertex 5 -2.665 8.5
      vertex 5 3.85387 13.0821
    endloop
  endfacet
  facet normal 1 0 -0
    outer loop
      vertex 5 2.50016 13.4449
      vertex 5 -2.665 8.5
      vertex 5 3.16909 13.234
    endloop
  endfacet
  facet normal 1 0 -0
    outer loop
      vertex 5 1.85215 13.7133
      vertex 5 -2.665 8.5
      vertex 5 2.50016 13.4449
    endloop
  endfacet
  facet normal 1 0 -0
    outer loop
      vertex 5 1.23 14.0372
      vertex 5 -2.665 8.5
      vertex 5 1.85215 13.7133
    endloop
  endfacet
  facet normal 1 0 -0
    outer loop
      vertex 5 0.638445 14.414
      vertex 5 -2.665 8.5
      vertex 5 1.23 14.0372
    endloop
  endfacet
  facet normal 1 0 -0
    outer loop
      vertex 5 0.081988 14.841
      vertex 5 -2.665 8.5
      vertex 5 0.638445 14.414
    endloop
  endfacet
  facet normal 1 0 -0
    outer loop
      vertex 5 -0.435139 15.3149
      vertex 5 -2.665 8.5
      vertex 5 0.081988 14.841
    endloop
  endfacet
  facet normal 1 0 -0
    outer loop
      vertex 5 -0.908997 15.832
      vertex 5 -2.665 8.5
      vertex 5 -0.435139 15.3149
    endloop
  endfacet
  facet normal 1 0 -0
    outer loop
      vertex 5 -2.665 18
      vertex 5 -2.665 8.5
      vertex 5 -0.908997 15.832
    endloop
  endfacet
  facet normal 0.965926 -0.258819 0
    outer loop
      vertex -1.47224 -4.9 0
      vertex -1.47224 -4.9 8.5
      vertex -1.7 -5.75 8.5
    endloop
  endfacet
  facet normal 0.965926 -0.258819 0
    outer loop
      vertex -1.7 -5.75 0
      vertex -1.47224 -4.9 0
      vertex -1.7 -5.75 8.5
    endloop
  endfacet
  facet normal 0.965926 0.258819 0
    outer loop
      vertex -1.7 -5.75 8.5
      vertex -1.47224 -6.6 8.5
      vertex -1.47224 -6.6 0
    endloop
  endfacet
  facet normal 0.965926 0.258819 0
    outer loop
      vertex -1.7 -5.75 0
      vertex -1.7 -5.75 8.5
      vertex -1.47224 -6.6 0
    endloop
  endfacet
  facet normal 0.707107 -0.707107 0
    outer loop
      vertex -0.85 -4.27776 0
      vertex -0.85 -4.27776 8.5
      vertex -1.47224 -4.9 8.5
    endloop
  endfacet
  facet normal 0.707107 -0.707107 0
    outer loop
      vertex -1.47224 -4.9 0
      vertex -0.85 -4.27776 0
      vertex -1.47224 -4.9 8.5
    endloop
  endfacet
  facet normal 0.258819 -0.965926 0
    outer loop
      vertex 0 -4.05 0
      vertex 0 -4.05 8.5
      vertex -0.85 -4.27776 8.5
    endloop
  endfacet
  facet normal 0.258819 -0.965926 0
    outer loop
      vertex -0.85 -4.27776 0
      vertex 0 -4.05 0
      vertex -0.85 -4.27776 8.5
    endloop
  endfacet
  facet normal -0.258819 -0.965926 -0
    outer loop
      vertex 0.85 -4.27776 0
      vertex 0.85 -4.27776 8.5
      vertex 0 -4.05 8.5
    endloop
  endfacet
  facet normal -0.258819 -0.965926 -0
    outer loop
      vertex 0 -4.05 0
      vertex 0.85 -4.27776 0
      vertex 0 -4.05 8.5
    endloop
  endfacet
  facet normal -0.707107 -0.707107 -0
    outer loop
      vertex 1.47224 -4.9 0
      vertex 1.47224 -4.9 8.5
      vertex 0.85 -4.27776 8.5
    endloop
  endfacet
  facet normal -0.707107 -0.707107 -0
    outer loop
      vertex 0.85 -4.27776 0
      vertex 1.47224 -4.9 0
      vertex 0.85 -4.27776 8.5
    endloop
  endfacet
  facet normal -0.965926 -0.258819 0
    outer loop
      vertex 1.7 -5.75 8.5
      vertex 1.47224 -4.9 8.5
      vertex 1.7 -5.75 0
    endloop
  endfacet
  facet normal -0.965926 -0.258819 0
    outer loop
      vertex 1.7 -5.75 0
      vertex 1.47224 -4.9 8.5
      vertex 1.47224 -4.9 0
    endloop
  endfacet
  facet normal -0.965926 0.258819 0
    outer loop
      vertex 1.7 -5.75 8.5
      vertex 1.7 -5.75 0
      vertex 1.47224 -6.6 8.5
    endloop
  endfacet
  facet normal -0.965926 0.258819 0
    outer loop
      vertex 1.47224 -6.6 8.5
      vertex 1.7 -5.75 0
      vertex 1.47224 -6.6 0
    endloop
  endfacet
  facet normal -0.707107 0.707107 0
    outer loop
      vertex 1.47224 -6.6 8.5
      vertex 1.47224 -6.6 0
      vertex 0.85 -7.22224 8.5
    endloop
  endfacet
  facet normal -0.707107 0.707107 0
    outer loop
      vertex 0.85 -7.22224 8.5
      vertex 1.47224 -6.6 0
      vertex 0.85 -7.22224 0
    endloop
  endfacet
  facet normal -0.258819 0.965926 0
    outer loop
      vertex 0.85 -7.22224 8.5
      vertex 0.85 -7.22224 0
      vertex 0 -7.45 8.5
    endloop
  endfacet
  facet normal -0.258819 0.965926 0
    outer loop
      vertex 0 -7.45 8.5
      vertex 0.85 -7.22224 0
      vertex 0 -7.45 0
    endloop
  endfacet
  facet normal 0.258819 0.965926 -0
    outer loop
      vertex 0 -7.45 8.5
      vertex 0 -7.45 0
      vertex -0.85 -7.22224 8.5
    endloop
  endfacet
  facet normal 0.258819 0.965926 -0
    outer loop
      vertex -0.85 -7.22224 8.5
      vertex 0 -7.45 0
      vertex -0.85 -7.22224 0
    endloop
  endfacet
  facet normal 0.707107 0.707107 -0
    outer loop
      vertex -0.85 -7.22224 8.5
      vertex -0.85 -7.22224 0
      vertex -1.47224 -6.6 8.5
    endloop
  endfacet
  facet normal 0.707107 0.707107 -0
    outer loop
      vertex -1.47224 -6.6 8.5
      vertex -0.85 -7.22224 0
      vertex -1.47224 -6.6 0
    endloop
  endfacet
  facet normal 0.965926 -0.258819 0
    outer loop
      vertex -1.47224 17.1 0
      vertex -1.47224 17.1 8.5
      vertex -1.7 16.25 8.5
    endloop
  endfacet
  facet normal 0.965926 -0.258819 0
    outer loop
      vertex -1.7 16.25 0
      vertex -1.47224 17.1 0
      vertex -1.7 16.25 8.5
    endloop
  endfacet
  facet normal 0.965926 0.258819 0
    outer loop
      vertex -1.7 16.25 8.5
      vertex -1.47224 15.4 8.5
      vertex -1.47224 15.4 0
    endloop
  endfacet
  facet normal 0.965926 0.258819 0
    outer loop
      vertex -1.7 16.25 0
      vertex -1.7 16.25 8.5
      vertex -1.47224 15.4 0
    endloop
  endfacet
  facet normal 0.707107 -0.707107 0
    outer loop
      vertex -0.85 17.7222 0
      vertex -0.85 17.7222 8.5
      vertex -1.47224 17.1 8.5
    endloop
  endfacet
  facet normal 0.707107 -0.707107 0
    outer loop
      vertex -1.47224 17.1 0
      vertex -0.85 17.7222 0
      vertex -1.47224 17.1 8.5
    endloop
  endfacet
  facet normal 0.258819 -0.965926 0
    outer loop
      vertex 0 17.95 0
      vertex 0 17.95 8.5
      vertex -0.85 17.7222 8.5
    endloop
  endfacet
  facet normal 0.258819 -0.965926 0
    outer loop
      vertex -0.85 17.7222 0
      vertex 0 17.95 0
      vertex -0.85 17.7222 8.5
    endloop
  endfacet
  facet normal -0.258819 -0.965926 -0
    outer loop
      vertex 0.85 17.7222 0
      vertex 0.85 17.7222 8.5
      vertex 0 17.95 8.5
    endloop
  endfacet
  facet normal -0.258819 -0.965926 -0
    outer loop
      vertex 0 17.95 0
      vertex 0.85 17.7222 0
      vertex 0 17.95 8.5
    endloop
  endfacet
  facet normal -0.707107 -0.707107 -0
    outer loop
      vertex 1.47224 17.1 0
      vertex 1.47224 17.1 8.5
      vertex 0.85 17.7222 8.5
    endloop
  endfacet
  facet normal -0.707107 -0.707107 -0
    outer loop
      vertex 0.85 17.7222 0
      vertex 1.47224 17.1 0
      vertex 0.85 17.7222 8.5
    endloop
  endfacet
  facet normal -0.965926 -0.258819 0
    outer loop
      vertex 1.7 16.25 8.5
      vertex 1.47224 17.1 8.5
      vertex 1.7 16.25 0
    endloop
  endfacet
  facet normal -0.965926 -0.258819 0
    outer loop
      vertex 1.7 16.25 0
      vertex 1.47224 17.1 8.5
      vertex 1.47224 17.1 0
    endloop
  endfacet
  facet normal -0.965926 0.258819 0
    outer loop
      vertex 1.7 16.25 8.5
      vertex 1.7 16.25 0
      vertex 1.47224 15.4 8.5
    endloop
  endfacet
  facet normal -0.965926 0.258819 0
    outer loop
      vertex 1.47224 15.4 8.5
      vertex 1.7 16.25 0
      vertex 1.47224 15.4 0
    endloop
  endfacet
  facet normal -0.707107 0.707107 0
    outer loop
      vertex 1.47224 15.4 8.5
      vertex 1.47224 15.4 0
      vertex 0.85 14.7778 8.5
    endloop
  endfacet
  facet normal -0.707107 0.707107 0
    outer loop
      vertex 0.85 14.7778 8.5
      vertex 1.47224 15.4 0
      vertex 0.85 14.7778 0
    endloop
  endfacet
  facet normal -0.258819 0.965926 0
    outer loop
      vertex 0.85 14.7778 8.5
      vertex 0.85 14.7778 0
      vertex 0 14.55 8.5
    endloop
  endfacet
  facet normal -0.258819 0.965926 0
    outer loop
      vertex 0 14.55 8.5
      vertex 0.85 14.7778 0
      vertex 0 14.55 0
    endloop
  endfacet
  facet normal 0.258819 0.965926 -0
    outer loop
      vertex 0 14.55 8.5
      vertex 0 14.55 0
      vertex -0.85 14.7778 8.5
    endloop
  endfacet
  facet normal 0.258819 0.965926 -0
    outer loop
      vertex -0.85 14.7778 8.5
      vertex 0 14.55 0
      vertex -0.85 14.7778 0
    endloop
  endfacet
  facet normal 0.707107 0.707107 -0
    outer loop
      vertex -0.85 14.7778 8.5
      vertex -0.85 14.7778 0
      vertex -1.47224 15.4 8.5
    endloop
  endfacet
  facet normal 0.707107 0.707107 -0
    outer loop
      vertex -1.47224 15.4 8.5
      vertex -0.85 14.7778 0
      vertex -1.47224 15.4 0
    endloop
  endfacet
endsolid OpenSCAD_Model
