solid OpenSCAD_Model
  facet normal -2.22045e-16 -1 0
    outer loop
      vertex -41 4.25 -0.005
      vertex -9 4.25 -0.005
      vertex -9 4.25 11.005
    endloop
  endfacet
  facet normal -2.22045e-16 -1 0
    outer loop
      vertex -41 4.25 11.005
      vertex -41 4.25 -0.005
      vertex -9 4.25 11.005
    endloop
  endfacet
  facet normal 0.258819 -0.965926 0
    outer loop
      vertex -9 4.25 11.005
      vertex -9 4.25 -0.005
      vertex -7 4.7859 -0.005
    endloop
  endfacet
  facet normal 0.258819 -0.965926 0
    outer loop
      vertex -7 4.7859 11.005
      vertex -9 4.25 11.005
      vertex -7 4.7859 -0.005
    endloop
  endfacet
  facet normal 0 -0 -1
    outer loop
      vertex -9 4.25 -0.005
      vertex -41 4.25 -0.005
      vertex -7 4.7859 -0.005
    endloop
  endfacet
  facet normal 0 0 -1
    outer loop
      vertex -7 4.7859 -0.005
      vertex -41 4.25 -0.005
      vertex -43 4.7859 -0.005
    endloop
  endfacet
  facet normal 0 0 -1
    outer loop
      vertex -7 4.7859 -0.005
      vertex -43 4.7859 -0.005
      vertex -44.4641 6.25 -0.005
    endloop
  endfacet
  facet normal 0 0 -1
    outer loop
      vertex -40.7524 6.93268 -0.005
      vertex -44.4641 6.25 -0.005
      vertex -45 8.25 -0.005
    endloop
  endfacet
  facet normal 0 0 -1
    outer loop
      vertex -41.4141 10.6853 -0.005
      vertex -45 8.25 -0.005
      vertex -45 19.75 -0.005
    endloop
  endfacet
  facet normal 0 0 -1
    outer loop
      vertex -42.1666 19.382 -0.005
      vertex -45 19.75 -0.005
      vertex -44.4641 21.75 -0.005
    endloop
  endfacet
  facet normal 0 0 -1
    outer loop
      vertex -40.7524 21.0673 -0.005
      vertex -44.4641 21.75 -0.005
      vertex -43 23.2141 -0.005
    endloop
  endfacet
  facet normal 0 0 -1
    outer loop
      vertex -33.4867 19.25 -0.005
      vertex -43 23.2141 -0.005
      vertex -41 23.75 -0.005
    endloop
  endfacet
  facet normal 0 -0 -1
    outer loop
      vertex -16.5133 19.25 -0.005
      vertex -41 23.75 -0.005
      vertex -9 23.75 -0.005
    endloop
  endfacet
  facet normal 0 -0 -1
    outer loop
      vertex -7.83342 19.382 -0.005
      vertex -9 23.75 -0.005
      vertex -7 23.2141 -0.005
    endloop
  endfacet
  facet normal 0 0 -1
    outer loop
      vertex -7 4.7859 -0.005
      vertex -7 23.2141 -0.005
      vertex -5.5359 21.75 -0.005
    endloop
  endfacet
  facet normal 0 0 -1
    outer loop
      vertex -7 4.7859 -0.005
      vertex -5.5359 21.75 -0.005
      vertex -5 19.75 -0.005
    endloop
  endfacet
  facet normal 0 0 -1
    outer loop
      vertex -7 4.7859 -0.005
      vertex -5 19.75 -0.005
      vertex -5 8.25 -0.005
    endloop
  endfacet
  facet normal 0 0 -1
    outer loop
      vertex -7 4.7859 -0.005
      vertex -5 8.25 -0.005
      vertex -5.5359 6.25 -0.005
    endloop
  endfacet
  facet normal 0 0 -1
    outer loop
      vertex -38.0947 7.9 -0.005
      vertex -7 4.7859 -0.005
      vertex -38.5859 7.3147 -0.005
    endloop
  endfacet
  facet normal 0 0 -1
    outer loop
      vertex -7 4.7859 -0.005
      vertex -10 6.8 -0.005
      vertex -9.24756 6.93268 -0.005
    endloop
  endfacet
  facet normal -0 0 -1
    outer loop
      vertex -10 11.2 -0.005
      vertex -9.24756 16.9327 -0.005
      vertex -9.24756 11.0673 -0.005
    endloop
  endfacet
  facet normal 0 0 -1
    outer loop
      vertex -7 4.7859 -0.005
      vertex -9.24756 6.93268 -0.005
      vertex -8.58587 7.3147 -0.005
    endloop
  endfacet
  facet normal 0 0 -1
    outer loop
      vertex -7 4.7859 -0.005
      vertex -8.58587 7.3147 -0.005
      vertex -8.09474 7.9 -0.005
    endloop
  endfacet
  facet normal 0 0 -1
    outer loop
      vertex -7 4.7859 -0.005
      vertex -8.09474 7.9 -0.005
      vertex -7.83342 8.61797 -0.005
    endloop
  endfacet
  facet normal -0 0 -1
    outer loop
      vertex -8.58587 10.6853 -0.005
      vertex -8.58587 17.3147 -0.005
      vertex -8.09474 10.1 -0.005
    endloop
  endfacet
  facet normal 0 0 -1
    outer loop
      vertex -7 4.7859 -0.005
      vertex -7.83342 8.61797 -0.005
      vertex -7.83342 9.38203 -0.005
    endloop
  endfacet
  facet normal 0 0 -1
    outer loop
      vertex -8.09474 17.9 -0.005
      vertex -7 4.7859 -0.005
      vertex -7.83342 9.38203 -0.005
    endloop
  endfacet
  facet normal 0 0 -1
    outer loop
      vertex -8.09474 17.9 -0.005
      vertex -7.83342 9.38203 -0.005
      vertex -8.09474 10.1 -0.005
    endloop
  endfacet
  facet normal 0 0 -1
    outer loop
      vertex -8.58587 17.3147 -0.005
      vertex -8.58587 10.6853 -0.005
      vertex -9.24756 11.0673 -0.005
    endloop
  endfacet
  facet normal -0 0 -1
    outer loop
      vertex -10 21.2 -0.005
      vertex -9 23.75 -0.005
      vertex -9.24756 21.0673 -0.005
    endloop
  endfacet
  facet normal 0 0 -1
    outer loop
      vertex -41.4141 7.3147 -0.005
      vertex -45 8.25 -0.005
      vertex -41.9053 7.9 -0.005
    endloop
  endfacet
  facet normal 0 0 -1
    outer loop
      vertex -7 4.7859 -0.005
      vertex -44.4641 6.25 -0.005
      vertex -40 6.8 -0.005
    endloop
  endfacet
  facet normal 0 0 -1
    outer loop
      vertex -33.4867 8.75 -0.005
      vertex -40 16.8 -0.005
      vertex -39.2476 16.9327 -0.005
    endloop
  endfacet
  facet normal 0 0 -1
    outer loop
      vertex -7 4.7859 -0.005
      vertex -40 6.8 -0.005
      vertex -39.2476 6.93268 -0.005
    endloop
  endfacet
  facet normal 0 0 -1
    outer loop
      vertex -7 4.7859 -0.005
      vertex -39.2476 6.93268 -0.005
      vertex -38.5859 7.3147 -0.005
    endloop
  endfacet
  facet normal 0 0 -1
    outer loop
      vertex -41.9053 17.9 -0.005
      vertex -45 19.75 -0.005
      vertex -42.1666 18.618 -0.005
    endloop
  endfacet
  facet normal -0 -0 -1
    outer loop
      vertex -39.2476 11.0673 -0.005
      vertex -45 19.75 -0.005
      vertex -38.5859 10.6853 -0.005
    endloop
  endfacet
  facet normal 0 0 -1
    outer loop
      vertex -7 4.7859 -0.005
      vertex -38.0947 7.9 -0.005
      vertex -37.8334 8.61797 -0.005
    endloop
  endfacet
  facet normal 0 0 -1
    outer loop
      vertex -7 4.7859 -0.005
      vertex -37.8334 8.61797 -0.005
      vertex -37.8334 9.38203 -0.005
    endloop
  endfacet
  facet normal 0 0 -1
    outer loop
      vertex -33.4867 8.75 -0.005
      vertex -37.8334 9.38203 -0.005
      vertex -38.0947 10.1 -0.005
    endloop
  endfacet
  facet normal 0 0 -1
    outer loop
      vertex -41.9053 17.9 -0.005
      vertex -38.0947 10.1 -0.005
      vertex -45 19.75 -0.005
    endloop
  endfacet
  facet normal 0 0 -1
    outer loop
      vertex -38.0947 10.1 -0.005
      vertex -38.5859 10.6853 -0.005
      vertex -45 19.75 -0.005
    endloop
  endfacet
  facet normal -0 -0 -1
    outer loop
      vertex -40 11.2 -0.005
      vertex -45 19.75 -0.005
      vertex -39.2476 11.0673 -0.005
    endloop
  endfacet
  facet normal 0 -0 -1
    outer loop
      vertex -40.7524 11.0673 -0.005
      vertex -45 19.75 -0.005
      vertex -40 11.2 -0.005
    endloop
  endfacet
  facet normal 0 0 -1
    outer loop
      vertex -41.9053 7.9 -0.005
      vertex -45 8.25 -0.005
      vertex -42.1666 8.61797 -0.005
    endloop
  endfacet
  facet normal 0 -0 -1
    outer loop
      vertex -41.9053 10.1 -0.005
      vertex -45 8.25 -0.005
      vertex -41.4141 10.6853 -0.005
    endloop
  endfacet
  facet normal 0 0 -1
    outer loop
      vertex -40.7524 11.0673 -0.005
      vertex -41.4141 10.6853 -0.005
      vertex -45 19.75 -0.005
    endloop
  endfacet
  facet normal 0 -0 -1
    outer loop
      vertex -42.1666 9.38203 -0.005
      vertex -45 8.25 -0.005
      vertex -41.9053 10.1 -0.005
    endloop
  endfacet
  facet normal 0 0 -1
    outer loop
      vertex -42.1666 8.61797 -0.005
      vertex -45 8.25 -0.005
      vertex -42.1666 9.38203 -0.005
    endloop
  endfacet
  facet normal 0 0 -1
    outer loop
      vertex -40.7524 6.93268 -0.005
      vertex -45 8.25 -0.005
      vertex -41.4141 7.3147 -0.005
    endloop
  endfacet
  facet normal 0 0 -1
    outer loop
      vertex -40 6.8 -0.005
      vertex -44.4641 6.25 -0.005
      vertex -40.7524 6.93268 -0.005
    endloop
  endfacet
  facet normal 0 0 -1
    outer loop
      vertex -33.4867 8.75 -0.005
      vertex -38.0947 10.1 -0.005
      vertex -40 16.8 -0.005
    endloop
  endfacet
  facet normal 0 0 -1
    outer loop
      vertex -7 4.7859 -0.005
      vertex -37.8334 9.38203 -0.005
      vertex -33.4867 8.75 -0.005
    endloop
  endfacet
  facet normal 0 0 -1
    outer loop
      vertex -16.5133 19.25 -0.005
      vertex -10 11.2 -0.005
      vertex -10.7524 11.0673 -0.005
    endloop
  endfacet
  facet normal 0 0 -1
    outer loop
      vertex -16.5133 19.25 -0.005
      vertex -12.1666 8.61797 -0.005
      vertex -11.9053 7.9 -0.005
    endloop
  endfacet
  facet normal -0 -0 -1
    outer loop
      vertex -33.4867 19.25 -0.005
      vertex -41 23.75 -0.005
      vertex -16.5133 19.25 -0.005
    endloop
  endfacet
  facet normal 0 0 -1
    outer loop
      vertex -9.24756 16.9327 -0.005
      vertex -10 11.2 -0.005
      vertex -10 16.8 -0.005
    endloop
  endfacet
  facet normal 0 -0 -1
    outer loop
      vertex -10.7524 21.0673 -0.005
      vertex -16.5133 19.25 -0.005
      vertex -9 23.75 -0.005
    endloop
  endfacet
  facet normal -0 -0 -1
    outer loop
      vertex -40 21.2 -0.005
      vertex -43 23.2141 -0.005
      vertex -39.2476 21.0673 -0.005
    endloop
  endfacet
  facet normal 0 0 -1
    outer loop
      vertex -8.09474 17.9 -0.005
      vertex -8.09474 10.1 -0.005
      vertex -8.58587 17.3147 -0.005
    endloop
  endfacet
  facet normal -0 0 -1
    outer loop
      vertex -9.24756 21.0673 -0.005
      vertex -9 23.75 -0.005
      vertex -8.58587 20.6853 -0.005
    endloop
  endfacet
  facet normal 0 0 -1
    outer loop
      vertex -7 4.7859 -0.005
      vertex -8.09474 17.9 -0.005
      vertex -7.83342 18.618 -0.005
    endloop
  endfacet
  facet normal 0 -0 -1
    outer loop
      vertex -7 4.7859 -0.005
      vertex -7.83342 18.618 -0.005
      vertex -7 23.2141 -0.005
    endloop
  endfacet
  facet normal -0 -0 -1
    outer loop
      vertex -8.09474 20.1 -0.005
      vertex -9 23.75 -0.005
      vertex -7.83342 19.382 -0.005
    endloop
  endfacet
  facet normal -0 -0 -1
    outer loop
      vertex -8.58587 20.6853 -0.005
      vertex -9 23.75 -0.005
      vertex -8.09474 20.1 -0.005
    endloop
  endfacet
  facet normal -0 0 -1
    outer loop
      vertex -7.83342 19.382 -0.005
      vertex -7 23.2141 -0.005
      vertex -7.83342 18.618 -0.005
    endloop
  endfacet
  facet normal 0 0 -1
    outer loop
      vertex -8.58587 17.3147 -0.005
      vertex -9.24756 11.0673 -0.005
      vertex -9.24756 16.9327 -0.005
    endloop
  endfacet
  facet normal 0 0 -1
    outer loop
      vertex -11.4141 17.3147 -0.005
      vertex -16.5133 19.25 -0.005
      vertex -11.9053 17.9 -0.005
    endloop
  endfacet
  facet normal 0 -0 -1
    outer loop
      vertex -11.4141 20.6853 -0.005
      vertex -16.5133 19.25 -0.005
      vertex -10.7524 21.0673 -0.005
    endloop
  endfacet
  facet normal 0 -0 -1
    outer loop
      vertex -10 21.2 -0.005
      vertex -10.7524 21.0673 -0.005
      vertex -9 23.75 -0.005
    endloop
  endfacet
  facet normal 0 -0 -1
    outer loop
      vertex -11.9053 20.1 -0.005
      vertex -16.5133 19.25 -0.005
      vertex -11.4141 20.6853 -0.005
    endloop
  endfacet
  facet normal 0 -0 -1
    outer loop
      vertex -12.1666 19.382 -0.005
      vertex -16.5133 19.25 -0.005
      vertex -11.9053 20.1 -0.005
    endloop
  endfacet
  facet normal 0 0 -1
    outer loop
      vertex -12.1666 18.618 -0.005
      vertex -16.5133 19.25 -0.005
      vertex -12.1666 19.382 -0.005
    endloop
  endfacet
  facet normal 0 0 -1
    outer loop
      vertex -11.9053 17.9 -0.005
      vertex -16.5133 19.25 -0.005
      vertex -12.1666 18.618 -0.005
    endloop
  endfacet
  facet normal 0 0 -1
    outer loop
      vertex -10 11.2 -0.005
      vertex -16.5133 19.25 -0.005
      vertex -11.4141 17.3147 -0.005
    endloop
  endfacet
  facet normal 0 0 -1
    outer loop
      vertex -10 11.2 -0.005
      vertex -11.4141 17.3147 -0.005
      vertex -10.7524 16.9327 -0.005
    endloop
  endfacet
  facet normal 0 -0 -1
    outer loop
      vertex -10 11.2 -0.005
      vertex -10.7524 16.9327 -0.005
      vertex -10 16.8 -0.005
    endloop
  endfacet
  facet normal 0 0 -1
    outer loop
      vertex -16.5133 19.25 -0.005
      vertex -10.7524 11.0673 -0.005
      vertex -11.4141 10.6853 -0.005
    endloop
  endfacet
  facet normal 0 0 -1
    outer loop
      vertex -16.5133 19.25 -0.005
      vertex -11.4141 10.6853 -0.005
      vertex -11.9053 10.1 -0.005
    endloop
  endfacet
  facet normal 0 0 -1
    outer loop
      vertex -10.7524 6.93268 -0.005
      vertex -7 4.7859 -0.005
      vertex -16.5133 8.75 -0.005
    endloop
  endfacet
  facet normal 0 0 -1
    outer loop
      vertex -11.4141 7.3147 -0.005
      vertex -10.7524 6.93268 -0.005
      vertex -16.5133 8.75 -0.005
    endloop
  endfacet
  facet normal 0 0 -1
    outer loop
      vertex -11.9053 7.9 -0.005
      vertex -11.4141 7.3147 -0.005
      vertex -16.5133 8.75 -0.005
    endloop
  endfacet
  facet normal 0 0 -1
    outer loop
      vertex -16.5133 19.25 -0.005
      vertex -11.9053 7.9 -0.005
      vertex -16.5133 8.75 -0.005
    endloop
  endfacet
  facet normal 0 -0 -1
    outer loop
      vertex -40.7524 21.0673 -0.005
      vertex -43 23.2141 -0.005
      vertex -40 21.2 -0.005
    endloop
  endfacet
  facet normal 0 -0 -1
    outer loop
      vertex -41.4141 20.6853 -0.005
      vertex -44.4641 21.75 -0.005
      vertex -40.7524 21.0673 -0.005
    endloop
  endfacet
  facet normal 0 -0 -1
    outer loop
      vertex -41.9053 20.1 -0.005
      vertex -44.4641 21.75 -0.005
      vertex -41.4141 20.6853 -0.005
    endloop
  endfacet
  facet normal 0 -0 -1
    outer loop
      vertex -42.1666 19.382 -0.005
      vertex -44.4641 21.75 -0.005
      vertex -41.9053 20.1 -0.005
    endloop
  endfacet
  facet normal 0 0 -1
    outer loop
      vertex -42.1666 18.618 -0.005
      vertex -45 19.75 -0.005
      vertex -42.1666 19.382 -0.005
    endloop
  endfacet
  facet normal 0 0 -1
    outer loop
      vertex -16.5133 19.25 -0.005
      vertex -11.9053 10.1 -0.005
      vertex -12.1666 9.38203 -0.005
    endloop
  endfacet
  facet normal 0 0 -1
    outer loop
      vertex -16.5133 19.25 -0.005
      vertex -12.1666 9.38203 -0.005
      vertex -12.1666 8.61797 -0.005
    endloop
  endfacet
  facet normal 0 0 -1
    outer loop
      vertex -41.4141 17.3147 -0.005
      vertex -38.0947 10.1 -0.005
      vertex -41.9053 17.9 -0.005
    endloop
  endfacet
  facet normal 0 0 -1
    outer loop
      vertex -40.7524 16.9327 -0.005
      vertex -38.0947 10.1 -0.005
      vertex -41.4141 17.3147 -0.005
    endloop
  endfacet
  facet normal 0 0 -1
    outer loop
      vertex -40 16.8 -0.005
      vertex -38.0947 10.1 -0.005
      vertex -40.7524 16.9327 -0.005
    endloop
  endfacet
  facet normal 0 0 -1
    outer loop
      vertex -10 6.8 -0.005
      vertex -7 4.7859 -0.005
      vertex -10.7524 6.93268 -0.005
    endloop
  endfacet
  facet normal 0 0 -1
    outer loop
      vertex -33.4867 8.75 -0.005
      vertex -39.2476 16.9327 -0.005
      vertex -38.5859 17.3147 -0.005
    endloop
  endfacet
  facet normal 0 0 -1
    outer loop
      vertex -33.4867 8.75 -0.005
      vertex -38.5859 17.3147 -0.005
      vertex -38.0947 17.9 -0.005
    endloop
  endfacet
  facet normal 0 0 -1
    outer loop
      vertex -33.4867 8.75 -0.005
      vertex -38.0947 17.9 -0.005
      vertex -37.8334 18.618 -0.005
    endloop
  endfacet
  facet normal 0 0 -1
    outer loop
      vertex -33.4867 8.75 -0.005
      vertex -37.8334 18.618 -0.005
      vertex -37.8334 19.382 -0.005
    endloop
  endfacet
  facet normal 0 0 -1
    outer loop
      vertex -33.4867 8.75 -0.005
      vertex -37.8334 19.382 -0.005
      vertex -38.0947 20.1 -0.005
    endloop
  endfacet
  facet normal -0 -0 -1
    outer loop
      vertex -39.2476 21.0673 -0.005
      vertex -43 23.2141 -0.005
      vertex -33.4867 19.25 -0.005
    endloop
  endfacet
  facet normal -0 -0 -1
    outer loop
      vertex -38.5859 20.6853 -0.005
      vertex -39.2476 21.0673 -0.005
      vertex -33.4867 19.25 -0.005
    endloop
  endfacet
  facet normal -0 -0 -1
    outer loop
      vertex -38.0947 20.1 -0.005
      vertex -38.5859 20.6853 -0.005
      vertex -33.4867 19.25 -0.005
    endloop
  endfacet
  facet normal 0 0 -1
    outer loop
      vertex -33.4867 8.75 -0.005
      vertex -38.0947 20.1 -0.005
      vertex -33.4867 19.25 -0.005
    endloop
  endfacet
  facet normal 0 0 -1
    outer loop
      vertex -16.5133 8.75 -0.005
      vertex -7 4.7859 -0.005
      vertex -33.4867 8.75 -0.005
    endloop
  endfacet
  facet normal -0.258819 -0.965926 0
    outer loop
      vertex -43 4.7859 -0.005
      vertex -41 4.25 -0.005
      vertex -41 4.25 11.005
    endloop
  endfacet
  facet normal -0.258819 -0.965926 0
    outer loop
      vertex -43 4.7859 11.005
      vertex -43 4.7859 -0.005
      vertex -41 4.25 11.005
    endloop
  endfacet
  facet normal 0 0 1
    outer loop
      vertex -41 4.25 11.005
      vertex -9 4.25 11.005
      vertex -7 4.7859 11.005
    endloop
  endfacet
  facet normal 0 -0 1
    outer loop
      vertex -22.9954 5.25 11.005
      vertex -41 4.25 11.005
      vertex -7 4.7859 11.005
    endloop
  endfacet
  facet normal 0 0 1
    outer loop
      vertex -14.2236 19.25 11.005
      vertex -10.7524 21.0673 11.005
      vertex -7 23.2141 11.005
    endloop
  endfacet
  facet normal 0 -0 1
    outer loop
      vertex -10.7524 16.9327 11.005
      vertex -14.2236 8.75 11.005
      vertex -10 16.8 11.005
    endloop
  endfacet
  facet normal -0 0 1
    outer loop
      vertex -28.75 19.25 11.005
      vertex -28.75 22.75 11.005
      vertex -35.7764 19.25 11.005
    endloop
  endfacet
  facet normal 0 0 1
    outer loop
      vertex -21.25 19.25 11.005
      vertex -14.2236 19.25 11.005
      vertex -9 23.75 11.005
    endloop
  endfacet
  facet normal -0 -0 1
    outer loop
      vertex -41.4141 7.3147 11.005
      vertex -41.9053 7.9 11.005
      vertex -41 4.25 11.005
    endloop
  endfacet
  facet normal 0 0 1
    outer loop
      vertex -41.9053 10.1 11.005
      vertex -41.4141 10.6853 11.005
      vertex -43 23.2141 11.005
    endloop
  endfacet
  facet normal -0 -0 1
    outer loop
      vertex -41.9053 7.9 11.005
      vertex -42.1666 8.61797 11.005
      vertex -41 4.25 11.005
    endloop
  endfacet
  facet normal 0 0 1
    outer loop
      vertex -44.4641 6.25 11.005
      vertex -41 4.25 11.005
      vertex -45 8.25 11.005
    endloop
  endfacet
  facet normal 0 0 1
    outer loop
      vertex -43 4.7859 11.005
      vertex -41 4.25 11.005
      vertex -44.4641 6.25 11.005
    endloop
  endfacet
  facet normal 0 -0 1
    outer loop
      vertex -21.25 5.25 11.005
      vertex -22.9954 5.25 11.005
      vertex -7 4.7859 11.005
    endloop
  endfacet
  facet normal -0 0 1
    outer loop
      vertex -40.7524 6.93268 11.005
      vertex -41.4141 7.3147 11.005
      vertex -41 4.25 11.005
    endloop
  endfacet
  facet normal 0 -0 1
    outer loop
      vertex -28.75 5.25 11.005
      vertex -41 4.25 11.005
      vertex -27.0046 5.25 11.005
    endloop
  endfacet
  facet normal 0 0 1
    outer loop
      vertex -14.2236 19.25 11.005
      vertex -11.9053 20.1 11.005
      vertex -11.4141 20.6853 11.005
    endloop
  endfacet
  facet normal 0 -0 1
    outer loop
      vertex -11.4141 17.3147 11.005
      vertex -14.2236 8.75 11.005
      vertex -10.7524 16.9327 11.005
    endloop
  endfacet
  facet normal 0 -0 1
    outer loop
      vertex -39.2476 6.93268 11.005
      vertex -41 4.25 11.005
      vertex -35.7764 8.75 11.005
    endloop
  endfacet
  facet normal 0 -0 1
    outer loop
      vertex -21.25 22.75 11.005
      vertex -21.25 19.25 11.005
      vertex -9 23.75 11.005
    endloop
  endfacet
  facet normal 0 0 1
    outer loop
      vertex -37.8334 19.382 11.005
      vertex -35.7764 8.75 11.005
      vertex -35.7764 19.25 11.005
    endloop
  endfacet
  facet normal 0 0 1
    outer loop
      vertex -41 23.75 11.005
      vertex -28.75 22.75 11.005
      vertex -9 23.75 11.005
    endloop
  endfacet
  facet normal 0 0 1
    outer loop
      vertex -41 23.75 11.005
      vertex -35.7764 19.25 11.005
      vertex -28.75 22.75 11.005
    endloop
  endfacet
  facet normal 0 0 1
    outer loop
      vertex -28.75 22.75 11.005
      vertex -21.25 22.75 11.005
      vertex -9 23.75 11.005
    endloop
  endfacet
  facet normal 0 -0 1
    outer loop
      vertex -9 23.75 11.005
      vertex -14.2236 19.25 11.005
      vertex -7 23.2141 11.005
    endloop
  endfacet
  facet normal 0 0 1
    outer loop
      vertex -11.4141 10.6853 11.005
      vertex -10.7524 11.0673 11.005
      vertex -5 19.75 11.005
    endloop
  endfacet
  facet normal 0 -0 1
    outer loop
      vertex -8.09474 7.9 11.005
      vertex -8.58587 7.3147 11.005
      vertex -5 8.25 11.005
    endloop
  endfacet
  facet normal 0 0 1
    outer loop
      vertex -5.5359 6.25 11.005
      vertex -21.25 5.25 11.005
      vertex -7 4.7859 11.005
    endloop
  endfacet
  facet normal 0 0 1
    outer loop
      vertex -11.9053 7.9 11.005
      vertex -12.1666 8.61797 11.005
      vertex -21.25 8.75 11.005
    endloop
  endfacet
  facet normal 0 0 1
    outer loop
      vertex -5 8.25 11.005
      vertex -9.24756 6.93268 11.005
      vertex -5.5359 6.25 11.005
    endloop
  endfacet
  facet normal 0 -0 1
    outer loop
      vertex -9.24756 6.93268 11.005
      vertex -10 6.8 11.005
      vertex -5.5359 6.25 11.005
    endloop
  endfacet
  facet normal -0 0 1
    outer loop
      vertex -40 16.8 11.005
      vertex -40.7524 16.9327 11.005
      vertex -40 11.2 11.005
    endloop
  endfacet
  facet normal 0 0 1
    outer loop
      vertex -40.7524 11.0673 11.005
      vertex -40 11.2 11.005
      vertex -40.7524 16.9327 11.005
    endloop
  endfacet
  facet normal 0 0 1
    outer loop
      vertex -8.09474 10.1 11.005
      vertex -7.83342 9.38203 11.005
      vertex -5 8.25 11.005
    endloop
  endfacet
  facet normal -0 -0 1
    outer loop
      vertex -14.2236 8.75 11.005
      vertex -21.25 8.75 11.005
      vertex -12.1666 8.61797 11.005
    endloop
  endfacet
  facet normal 0 0 1
    outer loop
      vertex -11.9053 10.1 11.005
      vertex -14.2236 8.75 11.005
      vertex -12.1666 9.38203 11.005
    endloop
  endfacet
  facet normal 0 0 1
    outer loop
      vertex -5 19.75 11.005
      vertex -14.2236 8.75 11.005
      vertex -11.9053 10.1 11.005
    endloop
  endfacet
  facet normal 0 0 1
    outer loop
      vertex -8.58587 10.6853 11.005
      vertex -8.09474 10.1 11.005
      vertex -5 8.25 11.005
    endloop
  endfacet
  facet normal 0 0 1
    outer loop
      vertex -5 19.75 11.005
      vertex -11.9053 10.1 11.005
      vertex -11.4141 10.6853 11.005
    endloop
  endfacet
  facet normal 0 -0 1
    outer loop
      vertex -7.83342 9.38203 11.005
      vertex -7.83342 8.61797 11.005
      vertex -5 8.25 11.005
    endloop
  endfacet
  facet normal 0 -0 1
    outer loop
      vertex -7.83342 8.61797 11.005
      vertex -8.09474 7.9 11.005
      vertex -5 8.25 11.005
    endloop
  endfacet
  facet normal 0 0 1
    outer loop
      vertex -5 19.75 11.005
      vertex -10.7524 11.0673 11.005
      vertex -10 11.2 11.005
    endloop
  endfacet
  facet normal 0 0 1
    outer loop
      vertex -5 19.75 11.005
      vertex -10 11.2 11.005
      vertex -9.24756 11.0673 11.005
    endloop
  endfacet
  facet normal 0 0 1
    outer loop
      vertex -5 19.75 11.005
      vertex -8.58587 10.6853 11.005
      vertex -5 8.25 11.005
    endloop
  endfacet
  facet normal 0 0 1
    outer loop
      vertex -5 19.75 11.005
      vertex -9.24756 11.0673 11.005
      vertex -8.58587 10.6853 11.005
    endloop
  endfacet
  facet normal 0 0 1
    outer loop
      vertex -14.2236 19.25 11.005
      vertex -11.4141 20.6853 11.005
      vertex -10.7524 21.0673 11.005
    endloop
  endfacet
  facet normal 0 0 1
    outer loop
      vertex -5 8.25 11.005
      vertex -8.58587 7.3147 11.005
      vertex -9.24756 6.93268 11.005
    endloop
  endfacet
  facet normal 0 -0 1
    outer loop
      vertex -38.5859 7.3147 11.005
      vertex -39.2476 6.93268 11.005
      vertex -35.7764 8.75 11.005
    endloop
  endfacet
  facet normal 0 -0 1
    outer loop
      vertex -40 6.8 11.005
      vertex -41 4.25 11.005
      vertex -39.2476 6.93268 11.005
    endloop
  endfacet
  facet normal 0 -0 1
    outer loop
      vertex -40.7524 6.93268 11.005
      vertex -41 4.25 11.005
      vertex -40 6.8 11.005
    endloop
  endfacet
  facet normal 0 -0 1
    outer loop
      vertex -40 16.8 11.005
      vertex -40 11.2 11.005
      vertex -39.2476 11.0673 11.005
    endloop
  endfacet
  facet normal 0 0 1
    outer loop
      vertex -42.1666 8.61797 11.005
      vertex -42.1666 9.38203 11.005
      vertex -44.4641 21.75 11.005
    endloop
  endfacet
  facet normal 0 0 1
    outer loop
      vertex -42.1666 9.38203 11.005
      vertex -41.9053 10.1 11.005
      vertex -44.4641 21.75 11.005
    endloop
  endfacet
  facet normal 0 0 1
    outer loop
      vertex -42.1666 8.61797 11.005
      vertex -44.4641 21.75 11.005
      vertex -45 19.75 11.005
    endloop
  endfacet
  facet normal 0 0 1
    outer loop
      vertex -45 8.25 11.005
      vertex -42.1666 8.61797 11.005
      vertex -45 19.75 11.005
    endloop
  endfacet
  facet normal 0 0 1
    outer loop
      vertex -45 8.25 11.005
      vertex -41 4.25 11.005
      vertex -42.1666 8.61797 11.005
    endloop
  endfacet
  facet normal 0 0 1
    outer loop
      vertex -42.1666 18.618 11.005
      vertex -42.1666 19.382 11.005
      vertex -43 23.2141 11.005
    endloop
  endfacet
  facet normal 0 0 1
    outer loop
      vertex -44.4641 21.75 11.005
      vertex -41.9053 10.1 11.005
      vertex -43 23.2141 11.005
    endloop
  endfacet
  facet normal -0 0 1
    outer loop
      vertex -40.7524 16.9327 11.005
      vertex -41.4141 17.3147 11.005
      vertex -41.4141 10.6853 11.005
    endloop
  endfacet
  facet normal 0 0 1
    outer loop
      vertex -10.7524 21.0673 11.005
      vertex -10 21.2 11.005
      vertex -7 23.2141 11.005
    endloop
  endfacet
  facet normal 0 0 1
    outer loop
      vertex -39.2476 16.9327 11.005
      vertex -38.5859 10.6853 11.005
      vertex -35.7764 8.75 11.005
    endloop
  endfacet
  facet normal 0 0 1
    outer loop
      vertex -40 16.8 11.005
      vertex -39.2476 11.0673 11.005
      vertex -38.5859 10.6853 11.005
    endloop
  endfacet
  facet normal 0 0 1
    outer loop
      vertex -38.0947 10.1 11.005
      vertex -37.8334 9.38203 11.005
      vertex -35.7764 8.75 11.005
    endloop
  endfacet
  facet normal 0 -0 1
    outer loop
      vertex -37.8334 9.38203 11.005
      vertex -37.8334 8.61797 11.005
      vertex -35.7764 8.75 11.005
    endloop
  endfacet
  facet normal 0 -0 1
    outer loop
      vertex -37.8334 8.61797 11.005
      vertex -38.0947 7.9 11.005
      vertex -35.7764 8.75 11.005
    endloop
  endfacet
  facet normal 0 -0 1
    outer loop
      vertex -38.0947 7.9 11.005
      vertex -38.5859 7.3147 11.005
      vertex -35.7764 8.75 11.005
    endloop
  endfacet
  facet normal 0 -0 1
    outer loop
      vertex -8.09474 17.9 11.005
      vertex -8.58587 17.3147 11.005
      vertex -5 19.75 11.005
    endloop
  endfacet
  facet normal 0 -0 1
    outer loop
      vertex -9.24756 16.9327 11.005
      vertex -14.2236 8.75 11.005
      vertex -8.58587 17.3147 11.005
    endloop
  endfacet
  facet normal 0 -0 1
    outer loop
      vertex -7.83342 18.618 11.005
      vertex -8.09474 17.9 11.005
      vertex -5 19.75 11.005
    endloop
  endfacet
  facet normal 0 -0 1
    outer loop
      vertex -38.5859 17.3147 11.005
      vertex -39.2476 16.9327 11.005
      vertex -35.7764 8.75 11.005
    endloop
  endfacet
  facet normal 0 0 1
    outer loop
      vertex -14.2236 19.25 11.005
      vertex -11.4141 17.3147 11.005
      vertex -11.9053 17.9 11.005
    endloop
  endfacet
  facet normal 0 0 1
    outer loop
      vertex -14.2236 19.25 11.005
      vertex -11.9053 17.9 11.005
      vertex -12.1666 18.618 11.005
    endloop
  endfacet
  facet normal 0 0 1
    outer loop
      vertex -14.2236 19.25 11.005
      vertex -12.1666 18.618 11.005
      vertex -12.1666 19.382 11.005
    endloop
  endfacet
  facet normal 0 0 1
    outer loop
      vertex -10 21.2 11.005
      vertex -9.24756 21.0673 11.005
      vertex -7 23.2141 11.005
    endloop
  endfacet
  facet normal 0 0 1
    outer loop
      vertex -14.2236 19.25 11.005
      vertex -12.1666 19.382 11.005
      vertex -11.9053 20.1 11.005
    endloop
  endfacet
  facet normal 0 0 1
    outer loop
      vertex -8.58587 20.6853 11.005
      vertex -8.09474 20.1 11.005
      vertex -5.5359 21.75 11.005
    endloop
  endfacet
  facet normal 0 -0 1
    outer loop
      vertex -7 23.2141 11.005
      vertex -9.24756 21.0673 11.005
      vertex -5.5359 21.75 11.005
    endloop
  endfacet
  facet normal 0 0 1
    outer loop
      vertex -9.24756 21.0673 11.005
      vertex -8.58587 20.6853 11.005
      vertex -5.5359 21.75 11.005
    endloop
  endfacet
  facet normal 0 -0 1
    outer loop
      vertex -7.83342 19.382 11.005
      vertex -7.83342 18.618 11.005
      vertex -5 19.75 11.005
    endloop
  endfacet
  facet normal 0 -0 1
    outer loop
      vertex -5.5359 21.75 11.005
      vertex -7.83342 19.382 11.005
      vertex -5 19.75 11.005
    endloop
  endfacet
  facet normal 0 -0 1
    outer loop
      vertex -10 16.8 11.005
      vertex -14.2236 8.75 11.005
      vertex -9.24756 16.9327 11.005
    endloop
  endfacet
  facet normal 0 0 1
    outer loop
      vertex -14.2236 8.75 11.005
      vertex -5 19.75 11.005
      vertex -8.58587 17.3147 11.005
    endloop
  endfacet
  facet normal 0 0 1
    outer loop
      vertex -38.5859 20.6853 11.005
      vertex -38.0947 20.1 11.005
      vertex -35.7764 19.25 11.005
    endloop
  endfacet
  facet normal 0 0 1
    outer loop
      vertex -41.4141 20.6853 11.005
      vertex -40.7524 21.0673 11.005
      vertex -41 23.75 11.005
    endloop
  endfacet
  facet normal 0 0 1
    outer loop
      vertex -40.7524 21.0673 11.005
      vertex -40 21.2 11.005
      vertex -41 23.75 11.005
    endloop
  endfacet
  facet normal 0 0 1
    outer loop
      vertex -41.9053 17.9 11.005
      vertex -41.4141 10.6853 11.005
      vertex -41.4141 17.3147 11.005
    endloop
  endfacet
  facet normal 0 0 1
    outer loop
      vertex -42.1666 18.618 11.005
      vertex -41.4141 10.6853 11.005
      vertex -41.9053 17.9 11.005
    endloop
  endfacet
  facet normal 0 0 1
    outer loop
      vertex -42.1666 19.382 11.005
      vertex -41.9053 20.1 11.005
      vertex -43 23.2141 11.005
    endloop
  endfacet
  facet normal 0 0 1
    outer loop
      vertex -43 23.2141 11.005
      vertex -41.4141 10.6853 11.005
      vertex -42.1666 18.618 11.005
    endloop
  endfacet
  facet normal 0 0 1
    outer loop
      vertex -43 23.2141 11.005
      vertex -41.9053 20.1 11.005
      vertex -41 23.75 11.005
    endloop
  endfacet
  facet normal 0 0 1
    outer loop
      vertex -41.9053 20.1 11.005
      vertex -41.4141 20.6853 11.005
      vertex -41 23.75 11.005
    endloop
  endfacet
  facet normal 0 0 1
    outer loop
      vertex -38.5859 10.6853 11.005
      vertex -38.0947 10.1 11.005
      vertex -35.7764 8.75 11.005
    endloop
  endfacet
  facet normal 0 0 1
    outer loop
      vertex -40.7524 16.9327 11.005
      vertex -41.4141 10.6853 11.005
      vertex -40.7524 11.0673 11.005
    endloop
  endfacet
  facet normal 0 -0 1
    outer loop
      vertex -37.8334 19.382 11.005
      vertex -37.8334 18.618 11.005
      vertex -35.7764 8.75 11.005
    endloop
  endfacet
  facet normal 0 -0 1
    outer loop
      vertex -39.2476 16.9327 11.005
      vertex -40 16.8 11.005
      vertex -38.5859 10.6853 11.005
    endloop
  endfacet
  facet normal 0 0 1
    outer loop
      vertex -41 23.75 11.005
      vertex -39.2476 21.0673 11.005
      vertex -35.7764 19.25 11.005
    endloop
  endfacet
  facet normal 0 0 1
    outer loop
      vertex -41 23.75 11.005
      vertex -40 21.2 11.005
      vertex -39.2476 21.0673 11.005
    endloop
  endfacet
  facet normal 0 0 1
    outer loop
      vertex -39.2476 21.0673 11.005
      vertex -38.5859 20.6853 11.005
      vertex -35.7764 19.25 11.005
    endloop
  endfacet
  facet normal 0 0 1
    outer loop
      vertex -38.0947 20.1 11.005
      vertex -37.8334 19.382 11.005
      vertex -35.7764 19.25 11.005
    endloop
  endfacet
  facet normal 0 0 1
    outer loop
      vertex -38.0947 17.9 11.005
      vertex -35.7764 8.75 11.005
      vertex -37.8334 18.618 11.005
    endloop
  endfacet
  facet normal 0 0 1
    outer loop
      vertex -38.5859 17.3147 11.005
      vertex -35.7764 8.75 11.005
      vertex -38.0947 17.9 11.005
    endloop
  endfacet
  facet normal 0 0 1
    outer loop
      vertex -12.1666 8.61797 11.005
      vertex -12.1666 9.38203 11.005
      vertex -14.2236 8.75 11.005
    endloop
  endfacet
  facet normal -0 0 1
    outer loop
      vertex -22.9954 5.25 11.005
      vertex -27.0046 5.25 11.005
      vertex -41 4.25 11.005
    endloop
  endfacet
  facet normal -0 0 1
    outer loop
      vertex -28.75 5.25 11.005
      vertex -28.75 8.75 11.005
      vertex -41 4.25 11.005
    endloop
  endfacet
  facet normal 0 -0 1
    outer loop
      vertex -21.25 8.75 11.005
      vertex -21.25 5.25 11.005
      vertex -10 6.8 11.005
    endloop
  endfacet
  facet normal 0 -0 1
    outer loop
      vertex -10 6.8 11.005
      vertex -21.25 5.25 11.005
      vertex -5.5359 6.25 11.005
    endloop
  endfacet
  facet normal 0 0 1
    outer loop
      vertex -21.25 8.75 11.005
      vertex -10 6.8 11.005
      vertex -10.7524 6.93268 11.005
    endloop
  endfacet
  facet normal 0 0 1
    outer loop
      vertex -8.09474 20.1 11.005
      vertex -7.83342 19.382 11.005
      vertex -5.5359 21.75 11.005
    endloop
  endfacet
  facet normal 0 0 1
    outer loop
      vertex -21.25 8.75 11.005
      vertex -10.7524 6.93268 11.005
      vertex -11.4141 7.3147 11.005
    endloop
  endfacet
  facet normal 0 0 1
    outer loop
      vertex -21.25 8.75 11.005
      vertex -11.4141 7.3147 11.005
      vertex -11.9053 7.9 11.005
    endloop
  endfacet
  facet normal -0 0 1
    outer loop
      vertex -28.75 8.75 11.005
      vertex -35.7764 8.75 11.005
      vertex -41 4.25 11.005
    endloop
  endfacet
  facet normal 0 -0 1
    outer loop
      vertex -14.2236 19.25 11.005
      vertex -14.2236 8.75 11.005
      vertex -11.4141 17.3147 11.005
    endloop
  endfacet
  facet normal 0.707107 -0.707107 0
    outer loop
      vertex -7 4.7859 11.005
      vertex -7 4.7859 -0.005
      vertex -5.5359 6.25 -0.005
    endloop
  endfacet
  facet normal 0.707107 -0.707107 0
    outer loop
      vertex -5.5359 6.25 11.005
      vertex -7 4.7859 11.005
      vertex -5.5359 6.25 -0.005
    endloop
  endfacet
  facet normal 0.965926 -0.258819 0
    outer loop
      vertex -5.5359 6.25 11.005
      vertex -5.5359 6.25 -0.005
      vertex -5 8.25 -0.005
    endloop
  endfacet
  facet normal 0.965926 -0.258819 0
    outer loop
      vertex -5 8.25 11.005
      vertex -5.5359 6.25 11.005
      vertex -5 8.25 -0.005
    endloop
  endfacet
  facet normal 1 -1.54466e-16 0
    outer loop
      vertex -5 8.25 11.005
      vertex -5 8.25 -0.005
      vertex -5 19.75 -0.005
    endloop
  endfacet
  facet normal 1 -1.54466e-16 0
    outer loop
      vertex -5 19.75 11.005
      vertex -5 8.25 11.005
      vertex -5 19.75 -0.005
    endloop
  endfacet
  facet normal 0.965926 0.258819 -0
    outer loop
      vertex -5 19.75 11.005
      vertex -5 19.75 -0.005
      vertex -5.5359 21.75 -0.005
    endloop
  endfacet
  facet normal 0.965926 0.258819 -0
    outer loop
      vertex -5.5359 21.75 11.005
      vertex -5 19.75 11.005
      vertex -5.5359 21.75 -0.005
    endloop
  endfacet
  facet normal 0.707107 0.707107 -0
    outer loop
      vertex -5.5359 21.75 11.005
      vertex -5.5359 21.75 -0.005
      vertex -7 23.2141 -0.005
    endloop
  endfacet
  facet normal 0.707107 0.707107 -0
    outer loop
      vertex -7 23.2141 11.005
      vertex -5.5359 21.75 11.005
      vertex -7 23.2141 -0.005
    endloop
  endfacet
  facet normal 0.258819 0.965926 0
    outer loop
      vertex -7 23.2141 -0.005
      vertex -9 23.75 -0.005
      vertex -7 23.2141 11.005
    endloop
  endfacet
  facet normal 0.258819 0.965926 0
    outer loop
      vertex -7 23.2141 11.005
      vertex -9 23.75 -0.005
      vertex -9 23.75 11.005
    endloop
  endfacet
  facet normal 2.22045e-16 1 0
    outer loop
      vertex -9 23.75 -0.005
      vertex -41 23.75 -0.005
      vertex -9 23.75 11.005
    endloop
  endfacet
  facet normal 2.22045e-16 1 0
    outer loop
      vertex -9 23.75 11.005
      vertex -41 23.75 -0.005
      vertex -41 23.75 11.005
    endloop
  endfacet
  facet normal -0.258819 0.965926 0
    outer loop
      vertex -43 23.2141 -0.005
      vertex -43 23.2141 11.005
      vertex -41 23.75 -0.005
    endloop
  endfacet
  facet normal -0.258819 0.965926 0
    outer loop
      vertex -41 23.75 -0.005
      vertex -43 23.2141 11.005
      vertex -41 23.75 11.005
    endloop
  endfacet
  facet normal -0.707107 0.707107 0
    outer loop
      vertex -44.4641 21.75 -0.005
      vertex -44.4641 21.75 11.005
      vertex -43 23.2141 -0.005
    endloop
  endfacet
  facet normal -0.707107 0.707107 0
    outer loop
      vertex -43 23.2141 -0.005
      vertex -44.4641 21.75 11.005
      vertex -43 23.2141 11.005
    endloop
  endfacet
  facet normal -0.965926 0.258819 0
    outer loop
      vertex -45 19.75 -0.005
      vertex -45 19.75 11.005
      vertex -44.4641 21.75 -0.005
    endloop
  endfacet
  facet normal -0.965926 0.258819 0
    outer loop
      vertex -44.4641 21.75 -0.005
      vertex -45 19.75 11.005
      vertex -44.4641 21.75 11.005
    endloop
  endfacet
  facet normal -1 -0 -0
    outer loop
      vertex -45 8.25 -0.005
      vertex -45 8.25 11.005
      vertex -45 19.75 -0.005
    endloop
  endfacet
  facet normal -1 0 0
    outer loop
      vertex -45 19.75 -0.005
      vertex -45 8.25 11.005
      vertex -45 19.75 11.005
    endloop
  endfacet
  facet normal -0.965926 -0.258819 -0
    outer loop
      vertex -44.4641 6.25 -0.005
      vertex -44.4641 6.25 11.005
      vertex -45 8.25 -0.005
    endloop
  endfacet
  facet normal -0.965926 -0.258819 -0
    outer loop
      vertex -45 8.25 -0.005
      vertex -44.4641 6.25 11.005
      vertex -45 8.25 11.005
    endloop
  endfacet
  facet normal -0.707107 -0.707107 -0
    outer loop
      vertex -43 4.7859 -0.005
      vertex -43 4.7859 11.005
      vertex -44.4641 6.25 -0.005
    endloop
  endfacet
  facet normal -0.707107 -0.707107 -0
    outer loop
      vertex -44.4641 6.25 -0.005
      vertex -43 4.7859 11.005
      vertex -44.4641 6.25 11.005
    endloop
  endfacet
  facet normal 0.173648 0.984808 -0
    outer loop
      vertex -10.7524 6.93268 11.005
      vertex -10 6.8 11.005
      vertex -10.7524 6.93268 -0.005
    endloop
  endfacet
  facet normal 0.173648 0.984808 0
    outer loop
      vertex -10.7524 6.93268 -0.005
      vertex -10 6.8 11.005
      vertex -10 6.8 -0.005
    endloop
  endfacet
  facet normal -0.173648 0.984808 0
    outer loop
      vertex -9.24756 6.93268 11.005
      vertex -9.24756 6.93268 -0.005
      vertex -10 6.8 11.005
    endloop
  endfacet
  facet normal -0.173648 0.984808 0
    outer loop
      vertex -10 6.8 11.005
      vertex -9.24756 6.93268 -0.005
      vertex -10 6.8 -0.005
    endloop
  endfacet
  facet normal 0.5 0.866026 -0
    outer loop
      vertex -11.4141 7.3147 11.005
      vertex -10.7524 6.93268 11.005
      vertex -11.4141 7.3147 -0.005
    endloop
  endfacet
  facet normal 0.5 0.866026 0
    outer loop
      vertex -11.4141 7.3147 -0.005
      vertex -10.7524 6.93268 11.005
      vertex -10.7524 6.93268 -0.005
    endloop
  endfacet
  facet normal 0.766045 0.642787 0
    outer loop
      vertex -11.9053 7.9 -0.005
      vertex -11.9053 7.9 11.005
      vertex -11.4141 7.3147 11.005
    endloop
  endfacet
  facet normal 0.766045 0.642787 0
    outer loop
      vertex -11.4141 7.3147 -0.005
      vertex -11.9053 7.9 -0.005
      vertex -11.4141 7.3147 11.005
    endloop
  endfacet
  facet normal 0.939693 0.34202 0
    outer loop
      vertex -12.1666 8.61797 -0.005
      vertex -12.1666 8.61797 11.005
      vertex -11.9053 7.9 11.005
    endloop
  endfacet
  facet normal 0.939693 0.34202 0
    outer loop
      vertex -11.9053 7.9 -0.005
      vertex -12.1666 8.61797 -0.005
      vertex -11.9053 7.9 11.005
    endloop
  endfacet
  facet normal 1 0 0
    outer loop
      vertex -12.1666 9.38203 -0.005
      vertex -12.1666 9.38203 11.005
      vertex -12.1666 8.61797 11.005
    endloop
  endfacet
  facet normal 1 0 0
    outer loop
      vertex -12.1666 8.61797 -0.005
      vertex -12.1666 9.38203 -0.005
      vertex -12.1666 8.61797 11.005
    endloop
  endfacet
  facet normal 0.939693 -0.34202 0
    outer loop
      vertex -11.9053 10.1 -0.005
      vertex -11.9053 10.1 11.005
      vertex -12.1666 9.38203 11.005
    endloop
  endfacet
  facet normal 0.939693 -0.34202 0
    outer loop
      vertex -12.1666 9.38203 -0.005
      vertex -11.9053 10.1 -0.005
      vertex -12.1666 9.38203 11.005
    endloop
  endfacet
  facet normal 0.766045 -0.642787 0
    outer loop
      vertex -11.4141 10.6853 -0.005
      vertex -11.4141 10.6853 11.005
      vertex -11.9053 10.1 11.005
    endloop
  endfacet
  facet normal 0.766045 -0.642787 0
    outer loop
      vertex -11.9053 10.1 -0.005
      vertex -11.4141 10.6853 -0.005
      vertex -11.9053 10.1 11.005
    endloop
  endfacet
  facet normal 0.5 -0.866026 0
    outer loop
      vertex -10.7524 11.0673 -0.005
      vertex -10.7524 11.0673 11.005
      vertex -11.4141 10.6853 11.005
    endloop
  endfacet
  facet normal 0.5 -0.866026 0
    outer loop
      vertex -11.4141 10.6853 -0.005
      vertex -10.7524 11.0673 -0.005
      vertex -11.4141 10.6853 11.005
    endloop
  endfacet
  facet normal 0.173648 -0.984808 0
    outer loop
      vertex -10 11.2 -0.005
      vertex -10 11.2 11.005
      vertex -10.7524 11.0673 11.005
    endloop
  endfacet
  facet normal 0.173648 -0.984808 0
    outer loop
      vertex -10.7524 11.0673 -0.005
      vertex -10 11.2 -0.005
      vertex -10.7524 11.0673 11.005
    endloop
  endfacet
  facet normal -0.173648 -0.984808 0
    outer loop
      vertex -9.24756 11.0673 11.005
      vertex -10 11.2 11.005
      vertex -10 11.2 -0.005
    endloop
  endfacet
  facet normal -0.173648 -0.984808 -0
    outer loop
      vertex -9.24756 11.0673 -0.005
      vertex -9.24756 11.0673 11.005
      vertex -10 11.2 -0.005
    endloop
  endfacet
  facet normal -0.5 -0.866026 0
    outer loop
      vertex -8.58587 10.6853 11.005
      vertex -9.24756 11.0673 11.005
      vertex -9.24756 11.0673 -0.005
    endloop
  endfacet
  facet normal -0.5 -0.866026 -0
    outer loop
      vertex -8.58587 10.6853 -0.005
      vertex -8.58587 10.6853 11.005
      vertex -9.24756 11.0673 -0.005
    endloop
  endfacet
  facet normal -0.766045 -0.642787 0
    outer loop
      vertex -8.58587 10.6853 11.005
      vertex -8.58587 10.6853 -0.005
      vertex -8.09474 10.1 11.005
    endloop
  endfacet
  facet normal -0.766045 -0.642787 0
    outer loop
      vertex -8.09474 10.1 11.005
      vertex -8.58587 10.6853 -0.005
      vertex -8.09474 10.1 -0.005
    endloop
  endfacet
  facet normal -0.939693 -0.34202 0
    outer loop
      vertex -8.09474 10.1 11.005
      vertex -8.09474 10.1 -0.005
      vertex -7.83342 9.38203 11.005
    endloop
  endfacet
  facet normal -0.939693 -0.34202 0
    outer loop
      vertex -7.83342 9.38203 11.005
      vertex -8.09474 10.1 -0.005
      vertex -7.83342 9.38203 -0.005
    endloop
  endfacet
  facet normal -1 0 0
    outer loop
      vertex -7.83342 9.38203 11.005
      vertex -7.83342 9.38203 -0.005
      vertex -7.83342 8.61797 11.005
    endloop
  endfacet
  facet normal -1 0 0
    outer loop
      vertex -7.83342 8.61797 11.005
      vertex -7.83342 9.38203 -0.005
      vertex -7.83342 8.61797 -0.005
    endloop
  endfacet
  facet normal -0.939693 0.34202 0
    outer loop
      vertex -7.83342 8.61797 11.005
      vertex -7.83342 8.61797 -0.005
      vertex -8.09474 7.9 11.005
    endloop
  endfacet
  facet normal -0.939693 0.34202 0
    outer loop
      vertex -8.09474 7.9 11.005
      vertex -7.83342 8.61797 -0.005
      vertex -8.09474 7.9 -0.005
    endloop
  endfacet
  facet normal -0.766045 0.642787 0
    outer loop
      vertex -8.09474 7.9 11.005
      vertex -8.09474 7.9 -0.005
      vertex -8.58587 7.3147 11.005
    endloop
  endfacet
  facet normal -0.766045 0.642787 0
    outer loop
      vertex -8.58587 7.3147 11.005
      vertex -8.09474 7.9 -0.005
      vertex -8.58587 7.3147 -0.005
    endloop
  endfacet
  facet normal -0.5 0.866026 0
    outer loop
      vertex -8.58587 7.3147 11.005
      vertex -8.58587 7.3147 -0.005
      vertex -9.24756 6.93268 11.005
    endloop
  endfacet
  facet normal -0.5 0.866026 0
    outer loop
      vertex -9.24756 6.93268 11.005
      vertex -8.58587 7.3147 -0.005
      vertex -9.24756 6.93268 -0.005
    endloop
  endfacet
  facet normal 0.173648 0.984808 -0
    outer loop
      vertex -40.7524 6.93268 11.005
      vertex -40 6.8 11.005
      vertex -40.7524 6.93268 -0.005
    endloop
  endfacet
  facet normal 0.173648 0.984808 0
    outer loop
      vertex -40.7524 6.93268 -0.005
      vertex -40 6.8 11.005
      vertex -40 6.8 -0.005
    endloop
  endfacet
  facet normal -0.173648 0.984808 0
    outer loop
      vertex -39.2476 6.93268 11.005
      vertex -39.2476 6.93268 -0.005
      vertex -40 6.8 11.005
    endloop
  endfacet
  facet normal -0.173648 0.984808 0
    outer loop
      vertex -40 6.8 11.005
      vertex -39.2476 6.93268 -0.005
      vertex -40 6.8 -0.005
    endloop
  endfacet
  facet normal 0.5 0.866026 -0
    outer loop
      vertex -41.4141 7.3147 11.005
      vertex -40.7524 6.93268 11.005
      vertex -41.4141 7.3147 -0.005
    endloop
  endfacet
  facet normal 0.5 0.866026 0
    outer loop
      vertex -41.4141 7.3147 -0.005
      vertex -40.7524 6.93268 11.005
      vertex -40.7524 6.93268 -0.005
    endloop
  endfacet
  facet normal 0.766045 0.642787 0
    outer loop
      vertex -41.9053 7.9 -0.005
      vertex -41.9053 7.9 11.005
      vertex -41.4141 7.3147 11.005
    endloop
  endfacet
  facet normal 0.766045 0.642787 0
    outer loop
      vertex -41.4141 7.3147 -0.005
      vertex -41.9053 7.9 -0.005
      vertex -41.4141 7.3147 11.005
    endloop
  endfacet
  facet normal 0.939693 0.34202 0
    outer loop
      vertex -42.1666 8.61797 -0.005
      vertex -42.1666 8.61797 11.005
      vertex -41.9053 7.9 11.005
    endloop
  endfacet
  facet normal 0.939693 0.34202 0
    outer loop
      vertex -41.9053 7.9 -0.005
      vertex -42.1666 8.61797 -0.005
      vertex -41.9053 7.9 11.005
    endloop
  endfacet
  facet normal 1 0 0
    outer loop
      vertex -42.1666 9.38203 -0.005
      vertex -42.1666 9.38203 11.005
      vertex -42.1666 8.61797 11.005
    endloop
  endfacet
  facet normal 1 0 0
    outer loop
      vertex -42.1666 8.61797 -0.005
      vertex -42.1666 9.38203 -0.005
      vertex -42.1666 8.61797 11.005
    endloop
  endfacet
  facet normal 0.939693 -0.34202 0
    outer loop
      vertex -41.9053 10.1 -0.005
      vertex -41.9053 10.1 11.005
      vertex -42.1666 9.38203 11.005
    endloop
  endfacet
  facet normal 0.939693 -0.34202 0
    outer loop
      vertex -42.1666 9.38203 -0.005
      vertex -41.9053 10.1 -0.005
      vertex -42.1666 9.38203 11.005
    endloop
  endfacet
  facet normal 0.766045 -0.642787 0
    outer loop
      vertex -41.4141 10.6853 -0.005
      vertex -41.4141 10.6853 11.005
      vertex -41.9053 10.1 11.005
    endloop
  endfacet
  facet normal 0.766045 -0.642787 0
    outer loop
      vertex -41.9053 10.1 -0.005
      vertex -41.4141 10.6853 -0.005
      vertex -41.9053 10.1 11.005
    endloop
  endfacet
  facet normal 0.5 -0.866026 0
    outer loop
      vertex -40.7524 11.0673 -0.005
      vertex -40.7524 11.0673 11.005
      vertex -41.4141 10.6853 11.005
    endloop
  endfacet
  facet normal 0.5 -0.866026 0
    outer loop
      vertex -41.4141 10.6853 -0.005
      vertex -40.7524 11.0673 -0.005
      vertex -41.4141 10.6853 11.005
    endloop
  endfacet
  facet normal 0.173648 -0.984808 0
    outer loop
      vertex -40 11.2 -0.005
      vertex -40 11.2 11.005
      vertex -40.7524 11.0673 11.005
    endloop
  endfacet
  facet normal 0.173648 -0.984808 0
    outer loop
      vertex -40.7524 11.0673 -0.005
      vertex -40 11.2 -0.005
      vertex -40.7524 11.0673 11.005
    endloop
  endfacet
  facet normal -0.173648 -0.984808 0
    outer loop
      vertex -39.2476 11.0673 11.005
      vertex -40 11.2 11.005
      vertex -40 11.2 -0.005
    endloop
  endfacet
  facet normal -0.173648 -0.984808 -0
    outer loop
      vertex -39.2476 11.0673 -0.005
      vertex -39.2476 11.0673 11.005
      vertex -40 11.2 -0.005
    endloop
  endfacet
  facet normal -0.5 -0.866026 0
    outer loop
      vertex -38.5859 10.6853 11.005
      vertex -39.2476 11.0673 11.005
      vertex -39.2476 11.0673 -0.005
    endloop
  endfacet
  facet normal -0.5 -0.866026 -0
    outer loop
      vertex -38.5859 10.6853 -0.005
      vertex -38.5859 10.6853 11.005
      vertex -39.2476 11.0673 -0.005
    endloop
  endfacet
  facet normal -0.766045 -0.642787 0
    outer loop
      vertex -38.5859 10.6853 11.005
      vertex -38.5859 10.6853 -0.005
      vertex -38.0947 10.1 11.005
    endloop
  endfacet
  facet normal -0.766045 -0.642787 0
    outer loop
      vertex -38.0947 10.1 11.005
      vertex -38.5859 10.6853 -0.005
      vertex -38.0947 10.1 -0.005
    endloop
  endfacet
  facet normal -0.939693 -0.34202 0
    outer loop
      vertex -38.0947 10.1 11.005
      vertex -38.0947 10.1 -0.005
      vertex -37.8334 9.38203 11.005
    endloop
  endfacet
  facet normal -0.939693 -0.34202 0
    outer loop
      vertex -37.8334 9.38203 11.005
      vertex -38.0947 10.1 -0.005
      vertex -37.8334 9.38203 -0.005
    endloop
  endfacet
  facet normal -1 0 0
    outer loop
      vertex -37.8334 9.38203 11.005
      vertex -37.8334 9.38203 -0.005
      vertex -37.8334 8.61797 11.005
    endloop
  endfacet
  facet normal -1 0 0
    outer loop
      vertex -37.8334 8.61797 11.005
      vertex -37.8334 9.38203 -0.005
      vertex -37.8334 8.61797 -0.005
    endloop
  endfacet
  facet normal -0.939693 0.34202 0
    outer loop
      vertex -37.8334 8.61797 11.005
      vertex -37.8334 8.61797 -0.005
      vertex -38.0947 7.9 11.005
    endloop
  endfacet
  facet normal -0.939693 0.34202 0
    outer loop
      vertex -38.0947 7.9 11.005
      vertex -37.8334 8.61797 -0.005
      vertex -38.0947 7.9 -0.005
    endloop
  endfacet
  facet normal -0.766045 0.642787 0
    outer loop
      vertex -38.0947 7.9 11.005
      vertex -38.0947 7.9 -0.005
      vertex -38.5859 7.3147 11.005
    endloop
  endfacet
  facet normal -0.766045 0.642787 0
    outer loop
      vertex -38.5859 7.3147 11.005
      vertex -38.0947 7.9 -0.005
      vertex -38.5859 7.3147 -0.005
    endloop
  endfacet
  facet normal -0.5 0.866026 0
    outer loop
      vertex -38.5859 7.3147 11.005
      vertex -38.5859 7.3147 -0.005
      vertex -39.2476 6.93268 11.005
    endloop
  endfacet
  facet normal -0.5 0.866026 0
    outer loop
      vertex -39.2476 6.93268 11.005
      vertex -38.5859 7.3147 -0.005
      vertex -39.2476 6.93268 -0.005
    endloop
  endfacet
  facet normal -1.22199e-15 1 4.44767e-16
    outer loop
      vertex -13.6747 8.75 5.50305
      vertex -15.0407 8.75 1.75
      vertex -13.6747 8.75 9.49695
    endloop
  endfacet
  facet normal 1.18121e-15 1 2.10187e-17
    outer loop
      vertex -13.6747 8.75 9.49695
      vertex -15.0407 8.75 1.75
      vertex -16.5133 8.75 -0.005
    endloop
  endfacet
  facet normal 2.09311e-16 1 1.22886e-31
    outer loop
      vertex -25 8.75 3.4
      vertex -16.5133 8.75 -0.005
      vertex -33.4867 8.75 -0.005
    endloop
  endfacet
  facet normal 1.86724e-16 1 1.5668e-16
    outer loop
      vertex -27.6354 8.75 4.35922
      vertex -33.4867 8.75 -0.005
      vertex -34.9593 8.75 1.75
    endloop
  endfacet
  facet normal 2.29051e-16 1 8.33679e-17
    outer loop
      vertex -29.0377 8.75 6.78804
      vertex -34.9593 8.75 1.75
      vertex -36.3253 8.75 5.50305
    endloop
  endfacet
  facet normal 2.63528e-16 1 4.44767e-16
    outer loop
      vertex -28.75 8.75 9.00244
      vertex -36.3253 8.75 5.50305
      vertex -36.3253 8.75 9.49695
    endloop
  endfacet
  facet normal 2.29051e-16 1 8.3368e-17
    outer loop
      vertex -21.25 8.75 9.00244
      vertex -13.6747 8.75 9.49695
      vertex -20.9623 8.75 8.21196
    endloop
  endfacet
  facet normal 5.63778e-16 1 -2.05199e-16
    outer loop
      vertex -29.0377 8.75 8.21196
      vertex -36.3253 8.75 5.50305
      vertex -28.75 8.75 9.00244
    endloop
  endfacet
  facet normal 2.37809e-17 1 1.24752e-15
    outer loop
      vertex -29.0377 8.75 6.78804
      vertex -36.3253 8.75 5.50305
      vertex -29.0377 8.75 8.21196
    endloop
  endfacet
  facet normal 2.29051e-16 1 8.33679e-17
    outer loop
      vertex -28.5507 8.75 5.45
      vertex -34.9593 8.75 1.75
      vertex -29.0377 8.75 6.78804
    endloop
  endfacet
  facet normal 1.86724e-16 1 1.5668e-16
    outer loop
      vertex -27.6354 8.75 4.35922
      vertex -34.9593 8.75 1.75
      vertex -28.5507 8.75 5.45
    endloop
  endfacet
  facet normal 1.32462e-16 1 2.29431e-16
    outer loop
      vertex -26.4023 8.75 3.64726
      vertex -33.4867 8.75 -0.005
      vertex -27.6354 8.75 4.35922
    endloop
  endfacet
  facet normal 6.39037e-17 1 3.62416e-16
    outer loop
      vertex -25 8.75 3.4
      vertex -33.4867 8.75 -0.005
      vertex -26.4023 8.75 3.64726
    endloop
  endfacet
  facet normal 9.43917e-16 1 1.83094e-15
    outer loop
      vertex -23.5977 8.75 3.64726
      vertex -16.5133 8.75 -0.005
      vertex -25 8.75 3.4
    endloop
  endfacet
  facet normal 8.11347e-16 1 -6.80801e-16
    outer loop
      vertex -21.4493 8.75 5.45
      vertex -13.6747 8.75 9.49695
      vertex -22.3646 8.75 4.35922
    endloop
  endfacet
  facet normal 0 1 -0
    outer loop
      vertex -22.3646 8.75 4.35922
      vertex -16.5133 8.75 -0.005
      vertex -23.5977 8.75 3.64726
    endloop
  endfacet
  facet normal 2.28057e-16 1 3.05763e-16
    outer loop
      vertex -13.6747 8.75 9.49695
      vertex -16.5133 8.75 -0.005
      vertex -22.3646 8.75 4.35922
    endloop
  endfacet
  facet normal 5.63778e-16 1 -2.05199e-16
    outer loop
      vertex -20.9623 8.75 6.78804
      vertex -13.6747 8.75 9.49695
      vertex -21.4493 8.75 5.45
    endloop
  endfacet
  facet normal 2.37809e-17 1 1.24752e-15
    outer loop
      vertex -20.9623 8.75 8.21196
      vertex -13.6747 8.75 9.49695
      vertex -20.9623 8.75 6.78804
    endloop
  endfacet
  facet normal 2.34494e-16 1 -0
    outer loop
      vertex -21.25 8.75 11.005
      vertex -13.6747 8.75 9.49695
      vertex -21.25 8.75 9.00244
    endloop
  endfacet
  facet normal 2.52812e-16 1 9.20159e-17
    outer loop
      vertex -13.6747 8.75 9.49695
      vertex -21.25 8.75 11.005
      vertex -14.2236 8.75 11.005
    endloop
  endfacet
  facet normal 2.29051e-16 1 -8.33679e-17
    outer loop
      vertex -28.75 8.75 9.00244
      vertex -36.3253 8.75 9.49695
      vertex -35.7764 8.75 11.005
    endloop
  endfacet
  facet normal 2.52812e-16 1 0
    outer loop
      vertex -28.75 8.75 9.00244
      vertex -35.7764 8.75 11.005
      vertex -28.75 8.75 11.005
    endloop
  endfacet
  facet normal 0.766045 0 0.642788
    outer loop
      vertex -33.4867 8.75 -0.005
      vertex -33.4867 19.25 -0.005
      vertex -34.9593 19.25 1.75
    endloop
  endfacet
  facet normal 0.766045 -6.67912e-16 0.642788
    outer loop
      vertex -34.9593 8.75 1.75
      vertex -33.4867 8.75 -0.005
      vertex -34.9593 19.25 1.75
    endloop
  endfacet
  facet normal -3.80962e-15 -1 -2.49503e-15
    outer loop
      vertex -20.9623 19.25 6.78804
      vertex -16.5133 19.25 -0.005
      vertex -20.9623 19.25 8.21196
    endloop
  endfacet
  facet normal 0 -1 0
    outer loop
      vertex -21.25 19.25 11.005
      vertex -21.25 19.25 9.00244
      vertex -20.9623 19.25 8.21196
    endloop
  endfacet
  facet normal -0 -1 0
    outer loop
      vertex -21.4493 19.25 5.45
      vertex -16.5133 19.25 -0.005
      vertex -20.9623 19.25 6.78804
    endloop
  endfacet
  facet normal 9.86172e-16 -1 1.01586e-16
    outer loop
      vertex -16.5133 19.25 -0.005
      vertex -21.25 19.25 11.005
      vertex -20.9623 19.25 8.21196
    endloop
  endfacet
  facet normal 0 -1 0
    outer loop
      vertex -21.4493 19.25 5.45
      vertex -22.3646 19.25 4.35922
      vertex -16.5133 19.25 -0.005
    endloop
  endfacet
  facet normal 0 -1 0
    outer loop
      vertex -22.3646 19.25 4.35922
      vertex -23.5977 19.25 3.64726
      vertex -16.5133 19.25 -0.005
    endloop
  endfacet
  facet normal 3.28224e-16 -1 -1.86145e-15
    outer loop
      vertex -23.5977 19.25 3.64726
      vertex -25 19.25 3.4
      vertex -33.4867 19.25 -0.005
    endloop
  endfacet
  facet normal -1.83917e-16 -1 -1.04305e-15
    outer loop
      vertex -25 19.25 3.4
      vertex -26.4023 19.25 3.64726
      vertex -34.9593 19.25 1.75
    endloop
  endfacet
  facet normal -5.29569e-16 -1 -9.17239e-16
    outer loop
      vertex -26.4023 19.25 3.64726
      vertex -27.6354 19.25 4.35922
      vertex -36.3253 19.25 5.50305
    endloop
  endfacet
  facet normal 0 -1 0
    outer loop
      vertex -27.6354 19.25 4.35922
      vertex -28.5507 19.25 5.45
      vertex -35.7764 19.25 11.005
    endloop
  endfacet
  facet normal 0 -1 0
    outer loop
      vertex -28.5507 19.25 5.45
      vertex -29.0377 19.25 6.78804
      vertex -35.7764 19.25 11.005
    endloop
  endfacet
  facet normal 0 -1 0
    outer loop
      vertex -29.0377 19.25 6.78804
      vertex -29.0377 19.25 8.21196
      vertex -35.7764 19.25 11.005
    endloop
  endfacet
  facet normal 0 -1 0
    outer loop
      vertex -29.0377 19.25 8.21196
      vertex -28.75 19.25 9.00244
      vertex -28.75 19.25 11.005
    endloop
  endfacet
  facet normal 0 -1 -0
    outer loop
      vertex -29.0377 19.25 8.21196
      vertex -28.75 19.25 11.005
      vertex -35.7764 19.25 11.005
    endloop
  endfacet
  facet normal 0 -1 0
    outer loop
      vertex -27.6354 19.25 4.35922
      vertex -35.7764 19.25 11.005
      vertex -36.3253 19.25 9.49695
    endloop
  endfacet
  facet normal -5.25922e-16 -1 -8.89533e-16
    outer loop
      vertex -27.6354 19.25 4.35922
      vertex -36.3253 19.25 9.49695
      vertex -36.3253 19.25 5.50305
    endloop
  endfacet
  facet normal -3.84179e-16 -1 -1.3983e-16
    outer loop
      vertex -26.4023 19.25 3.64726
      vertex -36.3253 19.25 5.50305
      vertex -34.9593 19.25 1.75
    endloop
  endfacet
  facet normal -3.13185e-16 -1 -2.62794e-16
    outer loop
      vertex -25 19.25 3.4
      vertex -34.9593 19.25 1.75
      vertex -33.4867 19.25 -0.005
    endloop
  endfacet
  facet normal -2.09311e-16 -1 -4.06007e-16
    outer loop
      vertex -23.5977 19.25 3.64726
      vertex -33.4867 19.25 -0.005
      vertex -16.5133 19.25 -0.005
    endloop
  endfacet
  facet normal -1.34061e-15 -1 -8.99432e-16
    outer loop
      vertex -21.25 19.25 11.005
      vertex -16.5133 19.25 -0.005
      vertex -15.0407 19.25 1.75
    endloop
  endfacet
  facet normal 0 -1 0
    outer loop
      vertex -21.25 19.25 11.005
      vertex -15.0407 19.25 1.75
      vertex -13.6747 19.25 5.50305
    endloop
  endfacet
  facet normal 0 -1 0
    outer loop
      vertex -21.25 19.25 11.005
      vertex -13.6747 19.25 5.50305
      vertex -13.6747 19.25 9.49695
    endloop
  endfacet
  facet normal 0 -1 0
    outer loop
      vertex -21.25 19.25 11.005
      vertex -13.6747 19.25 9.49695
      vertex -14.2236 19.25 11.005
    endloop
  endfacet
  facet normal -0.766045 0 0.642788
    outer loop
      vertex -16.5133 19.25 -0.005
      vertex -16.5133 8.75 -0.005
      vertex -15.0407 19.25 1.75
    endloop
  endfacet
  facet normal -0.766045 -1.99271e-17 0.642788
    outer loop
      vertex -15.0407 19.25 1.75
      vertex -16.5133 8.75 -0.005
      vertex -15.0407 8.75 1.75
    endloop
  endfacet
  facet normal 0.173648 0.984808 -0
    outer loop
      vertex -10.7524 16.9327 11.005
      vertex -10 16.8 11.005
      vertex -10.7524 16.9327 -0.005
    endloop
  endfacet
  facet normal 0.173648 0.984808 0
    outer loop
      vertex -10.7524 16.9327 -0.005
      vertex -10 16.8 11.005
      vertex -10 16.8 -0.005
    endloop
  endfacet
  facet normal -0.173648 0.984808 0
    outer loop
      vertex -9.24756 16.9327 11.005
      vertex -9.24756 16.9327 -0.005
      vertex -10 16.8 11.005
    endloop
  endfacet
  facet normal -0.173648 0.984808 0
    outer loop
      vertex -10 16.8 11.005
      vertex -9.24756 16.9327 -0.005
      vertex -10 16.8 -0.005
    endloop
  endfacet
  facet normal 0.5 0.866026 -0
    outer loop
      vertex -11.4141 17.3147 11.005
      vertex -10.7524 16.9327 11.005
      vertex -11.4141 17.3147 -0.005
    endloop
  endfacet
  facet normal 0.5 0.866026 0
    outer loop
      vertex -11.4141 17.3147 -0.005
      vertex -10.7524 16.9327 11.005
      vertex -10.7524 16.9327 -0.005
    endloop
  endfacet
  facet normal 0.766045 0.642787 0
    outer loop
      vertex -11.9053 17.9 -0.005
      vertex -11.9053 17.9 11.005
      vertex -11.4141 17.3147 11.005
    endloop
  endfacet
  facet normal 0.766045 0.642787 0
    outer loop
      vertex -11.4141 17.3147 -0.005
      vertex -11.9053 17.9 -0.005
      vertex -11.4141 17.3147 11.005
    endloop
  endfacet
  facet normal 0.939693 0.34202 0
    outer loop
      vertex -12.1666 18.618 -0.005
      vertex -12.1666 18.618 11.005
      vertex -11.9053 17.9 11.005
    endloop
  endfacet
  facet normal 0.939693 0.34202 0
    outer loop
      vertex -11.9053 17.9 -0.005
      vertex -12.1666 18.618 -0.005
      vertex -11.9053 17.9 11.005
    endloop
  endfacet
  facet normal 1 0 0
    outer loop
      vertex -12.1666 19.382 -0.005
      vertex -12.1666 19.382 11.005
      vertex -12.1666 18.618 11.005
    endloop
  endfacet
  facet normal 1 0 0
    outer loop
      vertex -12.1666 18.618 -0.005
      vertex -12.1666 19.382 -0.005
      vertex -12.1666 18.618 11.005
    endloop
  endfacet
  facet normal 0.939693 -0.34202 0
    outer loop
      vertex -11.9053 20.1 -0.005
      vertex -11.9053 20.1 11.005
      vertex -12.1666 19.382 11.005
    endloop
  endfacet
  facet normal 0.939693 -0.34202 0
    outer loop
      vertex -12.1666 19.382 -0.005
      vertex -11.9053 20.1 -0.005
      vertex -12.1666 19.382 11.005
    endloop
  endfacet
  facet normal 0.766045 -0.642787 0
    outer loop
      vertex -11.4141 20.6853 -0.005
      vertex -11.4141 20.6853 11.005
      vertex -11.9053 20.1 11.005
    endloop
  endfacet
  facet normal 0.766045 -0.642787 0
    outer loop
      vertex -11.9053 20.1 -0.005
      vertex -11.4141 20.6853 -0.005
      vertex -11.9053 20.1 11.005
    endloop
  endfacet
  facet normal 0.5 -0.866026 0
    outer loop
      vertex -10.7524 21.0673 -0.005
      vertex -10.7524 21.0673 11.005
      vertex -11.4141 20.6853 11.005
    endloop
  endfacet
  facet normal 0.5 -0.866026 0
    outer loop
      vertex -11.4141 20.6853 -0.005
      vertex -10.7524 21.0673 -0.005
      vertex -11.4141 20.6853 11.005
    endloop
  endfacet
  facet normal 0.173648 -0.984808 0
    outer loop
      vertex -10 21.2 -0.005
      vertex -10 21.2 11.005
      vertex -10.7524 21.0673 11.005
    endloop
  endfacet
  facet normal 0.173648 -0.984808 0
    outer loop
      vertex -10.7524 21.0673 -0.005
      vertex -10 21.2 -0.005
      vertex -10.7524 21.0673 11.005
    endloop
  endfacet
  facet normal -0.173648 -0.984808 0
    outer loop
      vertex -9.24756 21.0673 11.005
      vertex -10 21.2 11.005
      vertex -10 21.2 -0.005
    endloop
  endfacet
  facet normal -0.173648 -0.984808 -0
    outer loop
      vertex -9.24756 21.0673 -0.005
      vertex -9.24756 21.0673 11.005
      vertex -10 21.2 -0.005
    endloop
  endfacet
  facet normal -0.5 -0.866026 0
    outer loop
      vertex -8.58587 20.6853 11.005
      vertex -9.24756 21.0673 11.005
      vertex -9.24756 21.0673 -0.005
    endloop
  endfacet
  facet normal -0.5 -0.866026 -0
    outer loop
      vertex -8.58587 20.6853 -0.005
      vertex -8.58587 20.6853 11.005
      vertex -9.24756 21.0673 -0.005
    endloop
  endfacet
  facet normal -0.766045 -0.642787 0
    outer loop
      vertex -8.58587 20.6853 11.005
      vertex -8.58587 20.6853 -0.005
      vertex -8.09474 20.1 11.005
    endloop
  endfacet
  facet normal -0.766045 -0.642787 0
    outer loop
      vertex -8.09474 20.1 11.005
      vertex -8.58587 20.6853 -0.005
      vertex -8.09474 20.1 -0.005
    endloop
  endfacet
  facet normal -0.939693 -0.34202 0
    outer loop
      vertex -8.09474 20.1 11.005
      vertex -8.09474 20.1 -0.005
      vertex -7.83342 19.382 11.005
    endloop
  endfacet
  facet normal -0.939693 -0.34202 0
    outer loop
      vertex -7.83342 19.382 11.005
      vertex -8.09474 20.1 -0.005
      vertex -7.83342 19.382 -0.005
    endloop
  endfacet
  facet normal -1 0 0
    outer loop
      vertex -7.83342 19.382 11.005
      vertex -7.83342 19.382 -0.005
      vertex -7.83342 18.618 11.005
    endloop
  endfacet
  facet normal -1 0 0
    outer loop
      vertex -7.83342 18.618 11.005
      vertex -7.83342 19.382 -0.005
      vertex -7.83342 18.618 -0.005
    endloop
  endfacet
  facet normal -0.939693 0.34202 0
    outer loop
      vertex -7.83342 18.618 11.005
      vertex -7.83342 18.618 -0.005
      vertex -8.09474 17.9 11.005
    endloop
  endfacet
  facet normal -0.939693 0.34202 0
    outer loop
      vertex -8.09474 17.9 11.005
      vertex -7.83342 18.618 -0.005
      vertex -8.09474 17.9 -0.005
    endloop
  endfacet
  facet normal -0.766045 0.642787 0
    outer loop
      vertex -8.09474 17.9 11.005
      vertex -8.09474 17.9 -0.005
      vertex -8.58587 17.3147 11.005
    endloop
  endfacet
  facet normal -0.766045 0.642787 0
    outer loop
      vertex -8.58587 17.3147 11.005
      vertex -8.09474 17.9 -0.005
      vertex -8.58587 17.3147 -0.005
    endloop
  endfacet
  facet normal -0.5 0.866026 0
    outer loop
      vertex -8.58587 17.3147 11.005
      vertex -8.58587 17.3147 -0.005
      vertex -9.24756 16.9327 11.005
    endloop
  endfacet
  facet normal -0.5 0.866026 0
    outer loop
      vertex -9.24756 16.9327 11.005
      vertex -8.58587 17.3147 -0.005
      vertex -9.24756 16.9327 -0.005
    endloop
  endfacet
  facet normal 0.173648 0.984808 -0
    outer loop
      vertex -40.7524 16.9327 11.005
      vertex -40 16.8 11.005
      vertex -40.7524 16.9327 -0.005
    endloop
  endfacet
  facet normal 0.173648 0.984808 0
    outer loop
      vertex -40.7524 16.9327 -0.005
      vertex -40 16.8 11.005
      vertex -40 16.8 -0.005
    endloop
  endfacet
  facet normal -0.173648 0.984808 0
    outer loop
      vertex -39.2476 16.9327 11.005
      vertex -39.2476 16.9327 -0.005
      vertex -40 16.8 11.005
    endloop
  endfacet
  facet normal -0.173648 0.984808 0
    outer loop
      vertex -40 16.8 11.005
      vertex -39.2476 16.9327 -0.005
      vertex -40 16.8 -0.005
    endloop
  endfacet
  facet normal 0.5 0.866026 -0
    outer loop
      vertex -41.4141 17.3147 11.005
      vertex -40.7524 16.9327 11.005
      vertex -41.4141 17.3147 -0.005
    endloop
  endfacet
  facet normal 0.5 0.866026 0
    outer loop
      vertex -41.4141 17.3147 -0.005
      vertex -40.7524 16.9327 11.005
      vertex -40.7524 16.9327 -0.005
    endloop
  endfacet
  facet normal 0.766045 0.642787 0
    outer loop
      vertex -41.9053 17.9 -0.005
      vertex -41.9053 17.9 11.005
      vertex -41.4141 17.3147 11.005
    endloop
  endfacet
  facet normal 0.766045 0.642787 0
    outer loop
      vertex -41.4141 17.3147 -0.005
      vertex -41.9053 17.9 -0.005
      vertex -41.4141 17.3147 11.005
    endloop
  endfacet
  facet normal 0.939693 0.34202 0
    outer loop
      vertex -42.1666 18.618 -0.005
      vertex -42.1666 18.618 11.005
      vertex -41.9053 17.9 11.005
    endloop
  endfacet
  facet normal 0.939693 0.34202 0
    outer loop
      vertex -41.9053 17.9 -0.005
      vertex -42.1666 18.618 -0.005
      vertex -41.9053 17.9 11.005
    endloop
  endfacet
  facet normal 1 0 0
    outer loop
      vertex -42.1666 19.382 -0.005
      vertex -42.1666 19.382 11.005
      vertex -42.1666 18.618 11.005
    endloop
  endfacet
  facet normal 1 0 0
    outer loop
      vertex -42.1666 18.618 -0.005
      vertex -42.1666 19.382 -0.005
      vertex -42.1666 18.618 11.005
    endloop
  endfacet
  facet normal 0.939693 -0.34202 0
    outer loop
      vertex -41.9053 20.1 -0.005
      vertex -41.9053 20.1 11.005
      vertex -42.1666 19.382 11.005
    endloop
  endfacet
  facet normal 0.939693 -0.34202 0
    outer loop
      vertex -42.1666 19.382 -0.005
      vertex -41.9053 20.1 -0.005
      vertex -42.1666 19.382 11.005
    endloop
  endfacet
  facet normal 0.766045 -0.642787 0
    outer loop
      vertex -41.4141 20.6853 -0.005
      vertex -41.4141 20.6853 11.005
      vertex -41.9053 20.1 11.005
    endloop
  endfacet
  facet normal 0.766045 -0.642787 0
    outer loop
      vertex -41.9053 20.1 -0.005
      vertex -41.4141 20.6853 -0.005
      vertex -41.9053 20.1 11.005
    endloop
  endfacet
  facet normal 0.5 -0.866026 0
    outer loop
      vertex -40.7524 21.0673 -0.005
      vertex -40.7524 21.0673 11.005
      vertex -41.4141 20.6853 11.005
    endloop
  endfacet
  facet normal 0.5 -0.866026 0
    outer loop
      vertex -41.4141 20.6853 -0.005
      vertex -40.7524 21.0673 -0.005
      vertex -41.4141 20.6853 11.005
    endloop
  endfacet
  facet normal 0.173648 -0.984808 0
    outer loop
      vertex -40 21.2 -0.005
      vertex -40 21.2 11.005
      vertex -40.7524 21.0673 11.005
    endloop
  endfacet
  facet normal 0.173648 -0.984808 0
    outer loop
      vertex -40.7524 21.0673 -0.005
      vertex -40 21.2 -0.005
      vertex -40.7524 21.0673 11.005
    endloop
  endfacet
  facet normal -0.173648 -0.984808 0
    outer loop
      vertex -39.2476 21.0673 11.005
      vertex -40 21.2 11.005
      vertex -40 21.2 -0.005
    endloop
  endfacet
  facet normal -0.173648 -0.984808 -0
    outer loop
      vertex -39.2476 21.0673 -0.005
      vertex -39.2476 21.0673 11.005
      vertex -40 21.2 -0.005
    endloop
  endfacet
  facet normal -0.5 -0.866026 0
    outer loop
      vertex -38.5859 20.6853 11.005
      vertex -39.2476 21.0673 11.005
      vertex -39.2476 21.0673 -0.005
    endloop
  endfacet
  facet normal -0.5 -0.866026 -0
    outer loop
      vertex -38.5859 20.6853 -0.005
      vertex -38.5859 20.6853 11.005
      vertex -39.2476 21.0673 -0.005
    endloop
  endfacet
  facet normal -0.766045 -0.642787 0
    outer loop
      vertex -38.5859 20.6853 11.005
      vertex -38.5859 20.6853 -0.005
      vertex -38.0947 20.1 11.005
    endloop
  endfacet
  facet normal -0.766045 -0.642787 0
    outer loop
      vertex -38.0947 20.1 11.005
      vertex -38.5859 20.6853 -0.005
      vertex -38.0947 20.1 -0.005
    endloop
  endfacet
  facet normal -0.939693 -0.34202 0
    outer loop
      vertex -38.0947 20.1 11.005
      vertex -38.0947 20.1 -0.005
      vertex -37.8334 19.382 11.005
    endloop
  endfacet
  facet normal -0.939693 -0.34202 0
    outer loop
      vertex -37.8334 19.382 11.005
      vertex -38.0947 20.1 -0.005
      vertex -37.8334 19.382 -0.005
    endloop
  endfacet
  facet normal -1 0 0
    outer loop
      vertex -37.8334 19.382 11.005
      vertex -37.8334 19.382 -0.005
      vertex -37.8334 18.618 11.005
    endloop
  endfacet
  facet normal -1 0 0
    outer loop
      vertex -37.8334 18.618 11.005
      vertex -37.8334 19.382 -0.005
      vertex -37.8334 18.618 -0.005
    endloop
  endfacet
  facet normal -0.939693 0.34202 0
    outer loop
      vertex -37.8334 18.618 11.005
      vertex -37.8334 18.618 -0.005
      vertex -38.0947 17.9 11.005
    endloop
  endfacet
  facet normal -0.939693 0.34202 0
    outer loop
      vertex -38.0947 17.9 11.005
      vertex -37.8334 18.618 -0.005
      vertex -38.0947 17.9 -0.005
    endloop
  endfacet
  facet normal -0.766045 0.642787 0
    outer loop
      vertex -38.0947 17.9 11.005
      vertex -38.0947 17.9 -0.005
      vertex -38.5859 17.3147 11.005
    endloop
  endfacet
  facet normal -0.766045 0.642787 0
    outer loop
      vertex -38.5859 17.3147 11.005
      vertex -38.0947 17.9 -0.005
      vertex -38.5859 17.3147 -0.005
    endloop
  endfacet
  facet normal -0.5 0.866026 0
    outer loop
      vertex -38.5859 17.3147 11.005
      vertex -38.5859 17.3147 -0.005
      vertex -39.2476 16.9327 11.005
    endloop
  endfacet
  facet normal -0.5 0.866026 0
    outer loop
      vertex -39.2476 16.9327 11.005
      vertex -38.5859 17.3147 -0.005
      vertex -39.2476 16.9327 -0.005
    endloop
  endfacet
  facet normal -0 1 -0
    outer loop
      vertex -21.4493 5.25 9.55
      vertex -20.9623 5.25 8.21196
      vertex -22.3646 5.25 10.6408
    endloop
  endfacet
  facet normal 1.08038e-15 1 6.23758e-16
    outer loop
      vertex -22.3646 5.25 10.6408
      vertex -20.9623 5.25 8.21196
      vertex -20.9623 5.25 6.78804
    endloop
  endfacet
  facet normal -3.1669e-16 1 1.15266e-16
    outer loop
      vertex -22.3646 5.25 10.6408
      vertex -20.9623 5.25 6.78804
      vertex -21.4493 5.25 5.45
    endloop
  endfacet
  facet normal 6.3338e-16 1 2.82789e-16
    outer loop
      vertex -22.3646 5.25 10.6408
      vertex -21.4493 5.25 5.45
      vertex -22.3646 5.25 4.35922
    endloop
  endfacet
  facet normal -1.63268e-16 1 2.82789e-16
    outer loop
      vertex -22.3646 5.25 10.6408
      vertex -22.3646 5.25 4.35922
      vertex -23.5977 5.25 3.64726
    endloop
  endfacet
  facet normal 6.07481e-16 1 1.46885e-16
    outer loop
      vertex -22.3646 5.25 10.6408
      vertex -23.5977 5.25 3.64726
      vertex -25 5.25 3.4
    endloop
  endfacet
  facet normal 6.09733e-17 1 3.45798e-16
    outer loop
      vertex -22.3646 5.25 10.6408
      vertex -25 5.25 3.4
      vertex -26.4023 5.25 3.64726
    endloop
  endfacet
  facet normal 1.64978e-16 1 2.8575e-16
    outer loop
      vertex -22.3646 5.25 10.6408
      vertex -26.4023 5.25 3.64726
      vertex -27.6354 5.25 4.35922
    endloop
  endfacet
  facet normal 2.52761e-16 1 2.12092e-16
    outer loop
      vertex -22.3646 5.25 10.6408
      vertex -27.6354 5.25 4.35922
      vertex -28.5507 5.25 5.45
    endloop
  endfacet
  facet normal 3.29956e-16 1 1.20094e-16
    outer loop
      vertex -22.3646 5.25 10.6408
      vertex -28.5507 5.25 5.45
      vertex -29.0377 5.25 6.78804
    endloop
  endfacet
  facet normal 3.91659e-17 1 6.23758e-16
    outer loop
      vertex -22.3646 5.25 10.6408
      vertex -29.0377 5.25 6.78804
      vertex -29.0377 5.25 8.21196
    endloop
  endfacet
  facet normal 3.06844e-16 1 -1.11682e-16
    outer loop
      vertex -22.3646 5.25 10.6408
      vertex -29.0377 5.25 8.21196
      vertex -28.5507 5.25 9.55
    endloop
  endfacet
  facet normal 1.68507e-16 1 6.72864e-16
    outer loop
      vertex -22.3646 5.25 10.6408
      vertex -28.5507 5.25 9.55
      vertex -27.6354 5.25 10.6408
    endloop
  endfacet
  facet normal 1.68507e-16 1 -2.91863e-16
    outer loop
      vertex -22.3646 5.25 10.6408
      vertex -27.6354 5.25 10.6408
      vertex -27.0046 5.25 11.005
    endloop
  endfacet
  facet normal 2.21537e-16 1 3.83712e-16
    outer loop
      vertex -22.3646 5.25 10.6408
      vertex -27.0046 5.25 11.005
      vertex -22.9954 5.25 11.005
    endloop
  endfacet
  facet normal 0 1 0
    outer loop
      vertex -22.3646 5.25 10.6408
      vertex -22.9954 5.25 11.005
      vertex -21.25 5.25 11.005
    endloop
  endfacet
  facet normal 0 1 0
    outer loop
      vertex -22.3646 5.25 10.6408
      vertex -21.25 5.25 11.005
      vertex -21.4493 5.25 9.55
    endloop
  endfacet
  facet normal 0 1 0
    outer loop
      vertex -21.25 5.25 11.005
      vertex -21.25 5.25 9.00244
      vertex -21.4493 5.25 9.55
    endloop
  endfacet
  facet normal -1 0 0
    outer loop
      vertex -21.25 8.75 11.005
      vertex -21.25 8.75 9.00244
      vertex -21.25 5.25 11.005
    endloop
  endfacet
  facet normal -1 0 0
    outer loop
      vertex -21.25 5.25 11.005
      vertex -21.25 8.75 9.00244
      vertex -21.25 5.25 9.00244
    endloop
  endfacet
  facet normal -0.939693 2.74698e-16 -0.34202
    outer loop
      vertex -13.6747 19.25 9.49695
      vertex -13.6747 8.75 9.49695
      vertex -14.2236 19.25 11.005
    endloop
  endfacet
  facet normal -0.939693 1.58974e-16 -0.34202
    outer loop
      vertex -14.2236 19.25 11.005
      vertex -13.6747 8.75 9.49695
      vertex -14.2236 8.75 11.005
    endloop
  endfacet
  facet normal -1.01361e-15 0 0
    outer loop
      vertex -21.25 22.75 7.5
      vertex -21.25 22.75 9.00244
      vertex -21.25 22.75 11.005
    endloop
  endfacet
  facet normal -1 1.01506e-15 -1.80081e-30
    outer loop
      vertex -21.25 22.75 11.005
      vertex -21.25 22.75 9.00244
      vertex -21.25 19.25 9.00244
    endloop
  endfacet
  facet normal -1 1.01506e-15 0
    outer loop
      vertex -21.25 22.75 11.005
      vertex -21.25 19.25 9.00244
      vertex -21.25 19.25 11.005
    endloop
  endfacet
  facet normal 0 -1 0
    outer loop
      vertex -21.25 22.75 11.005
      vertex -28.75 22.75 11.005
      vertex -28.75 22.75 7.5
    endloop
  endfacet
  facet normal 0 -1 0
    outer loop
      vertex -21.25 22.75 7.5
      vertex -21.25 22.75 11.005
      vertex -28.75 22.75 7.5
    endloop
  endfacet
  facet normal 1 -1.01506e-15 0
    outer loop
      vertex -28.75 19.25 9.00244
      vertex -28.75 22.75 9.00244
      vertex -28.75 22.75 11.005
    endloop
  endfacet
  facet normal 0 0 0
    outer loop
      vertex -28.75 22.75 11.005
      vertex -28.75 22.75 9.00244
      vertex -28.75 22.75 7.5
    endloop
  endfacet
  facet normal 1 -1.01506e-15 0
    outer loop
      vertex -28.75 19.25 9.00244
      vertex -28.75 22.75 11.005
      vertex -28.75 19.25 11.005
    endloop
  endfacet
  facet normal 0.939693 -5.20173e-16 -0.34202
    outer loop
      vertex -36.3253 8.75 9.49695
      vertex -36.3253 19.25 9.49695
      vertex -35.7764 19.25 11.005
    endloop
  endfacet
  facet normal 0.939693 0 -0.34202
    outer loop
      vertex -35.7764 8.75 11.005
      vertex -36.3253 8.75 9.49695
      vertex -35.7764 19.25 11.005
    endloop
  endfacet
  facet normal 1 0 0
    outer loop
      vertex -28.75 8.75 9.00244
      vertex -28.75 8.75 11.005
      vertex -28.75 5.25 11.005
    endloop
  endfacet
  facet normal 1 0 0
    outer loop
      vertex -28.75 5.25 9.00244
      vertex -28.75 8.75 9.00244
      vertex -28.75 5.25 11.005
    endloop
  endfacet
  facet normal -0 1 0
    outer loop
      vertex -28.5507 5.25 9.55
      vertex -28.75 5.25 9.00244
      vertex -28.75 5.25 11.005
    endloop
  endfacet
  facet normal 0 1 0
    outer loop
      vertex -28.5507 5.25 9.55
      vertex -28.75 5.25 11.005
      vertex -27.6354 5.25 10.6408
    endloop
  endfacet
  facet normal 0 1 0
    outer loop
      vertex -28.75 5.25 11.005
      vertex -27.0046 5.25 11.005
      vertex -27.6354 5.25 10.6408
    endloop
  endfacet
  facet normal -1 1.69177e-16 0
    outer loop
      vertex -13.6747 19.25 5.50305
      vertex -13.6747 8.75 5.50305
      vertex -13.6747 19.25 9.49695
    endloop
  endfacet
  facet normal -1 1.69177e-16 1.2962e-31
    outer loop
      vertex -13.6747 19.25 9.49695
      vertex -13.6747 8.75 5.50305
      vertex -13.6747 8.75 9.49695
    endloop
  endfacet
  facet normal -0.939692 1.73586e-16 -0.34202
    outer loop
      vertex -21.25 5.25 9.00244
      vertex -21.25 8.75 9.00244
      vertex -20.9623 8.75 8.21196
    endloop
  endfacet
  facet normal -0.939692 0 -0.34202
    outer loop
      vertex -21.25 5.25 9.00244
      vertex -20.9623 8.75 8.21196
      vertex -20.9623 5.25 8.21196
    endloop
  endfacet
  facet normal -7.78304e-16 2.77556e-16 -2.8328e-16
    outer loop
      vertex -21.25 5.25 9.00244
      vertex -20.9623 5.25 8.21196
      vertex -21.4493 5.25 9.55
    endloop
  endfacet
  facet normal -1 0 0
    outer loop
      vertex -20.9623 8.75 6.78804
      vertex -20.9623 5.25 6.78804
      vertex -20.9623 8.75 8.21196
    endloop
  endfacet
  facet normal -1 0 0
    outer loop
      vertex -20.9623 8.75 8.21196
      vertex -20.9623 5.25 6.78804
      vertex -20.9623 5.25 8.21196
    endloop
  endfacet
  facet normal -0.939692 -8.67929e-17 0.34202
    outer loop
      vertex -21.4493 8.75 5.45
      vertex -21.4493 5.25 5.45
      vertex -20.9623 8.75 6.78804
    endloop
  endfacet
  facet normal -0.939692 -8.67929e-17 0.34202
    outer loop
      vertex -20.9623 8.75 6.78804
      vertex -21.4493 5.25 5.45
      vertex -20.9623 5.25 6.78804
    endloop
  endfacet
  facet normal -0.766044 -1.63117e-16 0.642788
    outer loop
      vertex -22.3646 8.75 4.35922
      vertex -22.3646 5.25 4.35922
      vertex -21.4493 8.75 5.45
    endloop
  endfacet
  facet normal -0.766044 -1.63117e-16 0.642788
    outer loop
      vertex -21.4493 8.75 5.45
      vertex -22.3646 5.25 4.35922
      vertex -21.4493 5.25 5.45
    endloop
  endfacet
  facet normal -0.5 2.72894e-16 0.866025
    outer loop
      vertex -22.3646 8.75 4.35922
      vertex -23.5977 8.75 3.64726
      vertex -23.5977 5.25 3.64726
    endloop
  endfacet
  facet normal -0.5 -2.19767e-16 0.866025
    outer loop
      vertex -22.3646 5.25 4.35922
      vertex -22.3646 8.75 4.35922
      vertex -23.5977 5.25 3.64726
    endloop
  endfacet
  facet normal -0.173648 -2.4731e-16 0.984808
    outer loop
      vertex -23.5977 8.75 3.64726
      vertex -25 8.75 3.4
      vertex -25 5.25 3.4
    endloop
  endfacet
  facet normal -0.173648 -7.36467e-17 0.984808
    outer loop
      vertex -23.5977 5.25 3.64726
      vertex -23.5977 8.75 3.64726
      vertex -25 5.25 3.4
    endloop
  endfacet
  facet normal 0.173648 -2.4991e-16 0.984808
    outer loop
      vertex -25 5.25 3.4
      vertex -25 8.75 3.4
      vertex -26.4023 8.75 3.64726
    endloop
  endfacet
  facet normal 0.173648 -2.4991e-16 0.984808
    outer loop
      vertex -26.4023 5.25 3.64726
      vertex -25 5.25 3.4
      vertex -26.4023 8.75 3.64726
    endloop
  endfacet
  facet normal 0.5 -2.19767e-16 0.866025
    outer loop
      vertex -26.4023 5.25 3.64726
      vertex -26.4023 8.75 3.64726
      vertex -27.6354 8.75 4.35922
    endloop
  endfacet
  facet normal 0.5 -2.19767e-16 0.866025
    outer loop
      vertex -27.6354 5.25 4.35922
      vertex -26.4023 5.25 3.64726
      vertex -27.6354 8.75 4.35922
    endloop
  endfacet
  facet normal 0.766044 -1.63117e-16 0.642788
    outer loop
      vertex -27.6354 5.25 4.35922
      vertex -27.6354 8.75 4.35922
      vertex -28.5507 8.75 5.45
    endloop
  endfacet
  facet normal 0.766044 -1.63117e-16 0.642788
    outer loop
      vertex -28.5507 5.25 5.45
      vertex -27.6354 5.25 4.35922
      vertex -28.5507 8.75 5.45
    endloop
  endfacet
  facet normal 0.939692 -8.67929e-17 0.34202
    outer loop
      vertex -28.5507 5.25 5.45
      vertex -28.5507 8.75 5.45
      vertex -29.0377 8.75 6.78804
    endloop
  endfacet
  facet normal 0.939692 -1.04064e-15 0.34202
    outer loop
      vertex -29.0377 5.25 6.78804
      vertex -28.5507 5.25 5.45
      vertex -29.0377 8.75 6.78804
    endloop
  endfacet
  facet normal 1 -1.01506e-15 -1.45427e-30
    outer loop
      vertex -29.0377 5.25 6.78804
      vertex -29.0377 8.75 6.78804
      vertex -29.0377 8.75 8.21196
    endloop
  endfacet
  facet normal 1 -1.01506e-15 -6.33152e-31
    outer loop
      vertex -29.0377 5.25 8.21196
      vertex -29.0377 5.25 6.78804
      vertex -29.0377 8.75 8.21196
    endloop
  endfacet
  facet normal 0.939692 -9.53845e-16 -0.34202
    outer loop
      vertex -29.0377 5.25 8.21196
      vertex -29.0377 8.75 8.21196
      vertex -28.75 8.75 9.00244
    endloop
  endfacet
  facet normal 0 -9.71445e-16 0
    outer loop
      vertex -28.5507 5.25 9.55
      vertex -29.0377 5.25 8.21196
      vertex -28.75 5.25 9.00244
    endloop
  endfacet
  facet normal 0.939692 1.73586e-16 -0.34202
    outer loop
      vertex -28.75 5.25 9.00244
      vertex -29.0377 5.25 8.21196
      vertex -28.75 8.75 9.00244
    endloop
  endfacet
  facet normal 1 -6.76707e-16 -5.1848e-31
    outer loop
      vertex -36.3253 8.75 5.50305
      vertex -36.3253 19.25 5.50305
      vertex -36.3253 19.25 9.49695
    endloop
  endfacet
  facet normal 1 -6.76707e-16 -3.00977e-31
    outer loop
      vertex -36.3253 8.75 9.49695
      vertex -36.3253 8.75 5.50305
      vertex -36.3253 19.25 9.49695
    endloop
  endfacet
  facet normal 0.939693 -7.15457e-16 0.34202
    outer loop
      vertex -34.9593 8.75 1.75
      vertex -34.9593 19.25 1.75
      vertex -36.3253 19.25 5.50305
    endloop
  endfacet
  facet normal 0.939693 -7.2269e-16 0.34202
    outer loop
      vertex -36.3253 8.75 5.50305
      vertex -34.9593 8.75 1.75
      vertex -36.3253 19.25 5.50305
    endloop
  endfacet
  facet normal -0.939693 7.94141e-17 0.34202
    outer loop
      vertex -15.0407 19.25 1.75
      vertex -15.0407 8.75 1.75
      vertex -13.6747 19.25 5.50305
    endloop
  endfacet
  facet normal -0.939693 7.21814e-17 0.34202
    outer loop
      vertex -13.6747 19.25 5.50305
      vertex -15.0407 8.75 1.75
      vertex -13.6747 8.75 5.50305
    endloop
  endfacet
  facet normal 0.939692 0 -0.34202
    outer loop
      vertex -29.0377 19.25 8.21196
      vertex -29.0377 22.75 8.21196
      vertex -28.75 22.75 9.00244
    endloop
  endfacet
  facet normal 0.939692 -9.53845e-16 -0.34202
    outer loop
      vertex -28.75 19.25 9.00244
      vertex -29.0377 19.25 8.21196
      vertex -28.75 22.75 9.00244
    endloop
  endfacet
  facet normal 1 0 0
    outer loop
      vertex -29.0377 19.25 6.78804
      vertex -29.0377 22.75 6.78804
      vertex -29.0377 22.75 8.21196
    endloop
  endfacet
  facet normal 1 0 -0
    outer loop
      vertex -29.0377 19.25 8.21196
      vertex -29.0377 19.25 6.78804
      vertex -29.0377 22.75 8.21196
    endloop
  endfacet
  facet normal 0.939692 -1.04064e-15 0.34202
    outer loop
      vertex -28.5507 19.25 5.45
      vertex -28.5507 22.75 5.45
      vertex -29.0377 22.75 6.78804
    endloop
  endfacet
  facet normal 0.939692 -8.67929e-17 0.34202
    outer loop
      vertex -29.0377 19.25 6.78804
      vertex -28.5507 19.25 5.45
      vertex -29.0377 22.75 6.78804
    endloop
  endfacet
  facet normal 0.766044 -1.63117e-16 0.642788
    outer loop
      vertex -27.6354 19.25 4.35922
      vertex -27.6354 22.75 4.35922
      vertex -28.5507 22.75 5.45
    endloop
  endfacet
  facet normal 0.766044 -9.40699e-16 0.642788
    outer loop
      vertex -28.5507 19.25 5.45
      vertex -27.6354 19.25 4.35922
      vertex -28.5507 22.75 5.45
    endloop
  endfacet
  facet normal 0.5 -2.19767e-16 0.866025
    outer loop
      vertex -26.4023 19.25 3.64726
      vertex -26.4023 22.75 3.64726
      vertex -27.6354 22.75 4.35922
    endloop
  endfacet
  facet normal 0.5 -2.19767e-16 0.866025
    outer loop
      vertex -27.6354 19.25 4.35922
      vertex -26.4023 19.25 3.64726
      vertex -27.6354 22.75 4.35922
    endloop
  endfacet
  facet normal 0.173648 -4.26173e-16 0.984808
    outer loop
      vertex -25 19.25 3.4
      vertex -25 22.75 3.4
      vertex -26.4023 22.75 3.64726
    endloop
  endfacet
  facet normal 0.173648 -2.4991e-16 0.984808
    outer loop
      vertex -26.4023 19.25 3.64726
      vertex -25 19.25 3.4
      vertex -26.4023 22.75 3.64726
    endloop
  endfacet
  facet normal -0.173648 -7.67515e-17 0.984808
    outer loop
      vertex -23.5977 22.75 3.64726
      vertex -25 22.75 3.4
      vertex -25 19.25 3.4
    endloop
  endfacet
  facet normal -0.173648 -2.4991e-16 0.984808
    outer loop
      vertex -23.5977 19.25 3.64726
      vertex -23.5977 22.75 3.64726
      vertex -25 19.25 3.4
    endloop
  endfacet
  facet normal -0.5 -2.04671e-16 0.866025
    outer loop
      vertex -22.3646 22.75 4.35922
      vertex -23.5977 22.75 3.64726
      vertex -23.5977 19.25 3.64726
    endloop
  endfacet
  facet normal -0.5 -2.19767e-16 0.866025
    outer loop
      vertex -22.3646 19.25 4.35922
      vertex -22.3646 22.75 4.35922
      vertex -23.5977 19.25 3.64726
    endloop
  endfacet
  facet normal -0.766044 -1.63117e-16 0.642788
    outer loop
      vertex -22.3646 22.75 4.35922
      vertex -22.3646 19.25 4.35922
      vertex -21.4493 22.75 5.45
    endloop
  endfacet
  facet normal -0.766044 6.14465e-16 0.642788
    outer loop
      vertex -21.4493 22.75 5.45
      vertex -22.3646 19.25 4.35922
      vertex -21.4493 19.25 5.45
    endloop
  endfacet
  facet normal -0.939692 8.67052e-16 0.34202
    outer loop
      vertex -21.4493 22.75 5.45
      vertex -21.4493 19.25 5.45
      vertex -20.9623 22.75 6.78804
    endloop
  endfacet
  facet normal -0.939692 -8.67929e-17 0.34202
    outer loop
      vertex -20.9623 22.75 6.78804
      vertex -21.4493 19.25 5.45
      vertex -20.9623 19.25 6.78804
    endloop
  endfacet
  facet normal -1 0 0
    outer loop
      vertex -20.9623 22.75 6.78804
      vertex -20.9623 19.25 6.78804
      vertex -20.9623 22.75 8.21196
    endloop
  endfacet
  facet normal -1 0 0
    outer loop
      vertex -20.9623 22.75 8.21196
      vertex -20.9623 19.25 6.78804
      vertex -20.9623 19.25 8.21196
    endloop
  endfacet
  facet normal -0.939692 0 -0.34202
    outer loop
      vertex -20.9623 22.75 8.21196
      vertex -20.9623 19.25 8.21196
      vertex -21.25 22.75 9.00244
    endloop
  endfacet
  facet normal -0.939692 9.53845e-16 -0.34202
    outer loop
      vertex -21.25 22.75 9.00244
      vertex -20.9623 19.25 8.21196
      vertex -21.25 19.25 9.00244
    endloop
  endfacet
  facet normal -0 -1 0
    outer loop
      vertex -29.0377 22.75 8.21196
      vertex -28.75 22.75 7.5
      vertex -28.75 22.75 9.00244
    endloop
  endfacet
  facet normal 0 -1 -0
    outer loop
      vertex -29.0377 22.75 6.78804
      vertex -28.75 22.75 7.5
      vertex -29.0377 22.75 8.21196
    endloop
  endfacet
  facet normal 0 -1 0
    outer loop
      vertex -21.25 22.75 7.5
      vertex -28.75 22.75 7.5
      vertex -29.0377 22.75 6.78804
    endloop
  endfacet
  facet normal 0 -1 -0
    outer loop
      vertex -28.5507 22.75 5.45
      vertex -21.25 22.75 7.5
      vertex -29.0377 22.75 6.78804
    endloop
  endfacet
  facet normal 0 -1 -0
    outer loop
      vertex -27.6354 22.75 4.35922
      vertex -21.25 22.75 7.5
      vertex -28.5507 22.75 5.45
    endloop
  endfacet
  facet normal 0 -1 -0
    outer loop
      vertex -26.4023 22.75 3.64726
      vertex -21.25 22.75 7.5
      vertex -27.6354 22.75 4.35922
    endloop
  endfacet
  facet normal 0 -1 -0
    outer loop
      vertex -25 22.75 3.4
      vertex -21.25 22.75 7.5
      vertex -26.4023 22.75 3.64726
    endloop
  endfacet
  facet normal 0 -1 -0
    outer loop
      vertex -23.5977 22.75 3.64726
      vertex -21.25 22.75 7.5
      vertex -25 22.75 3.4
    endloop
  endfacet
  facet normal 0 -1 -0
    outer loop
      vertex -22.3646 22.75 4.35922
      vertex -21.25 22.75 7.5
      vertex -23.5977 22.75 3.64726
    endloop
  endfacet
  facet normal 0 -1 -0
    outer loop
      vertex -21.4493 22.75 5.45
      vertex -21.25 22.75 7.5
      vertex -22.3646 22.75 4.35922
    endloop
  endfacet
  facet normal 0 -1 0
    outer loop
      vertex -20.9623 22.75 6.78804
      vertex -21.25 22.75 7.5
      vertex -21.4493 22.75 5.45
    endloop
  endfacet
  facet normal -6.17408e-15 -1 -2.49503e-15
    outer loop
      vertex -20.9623 22.75 8.21196
      vertex -21.25 22.75 7.5
      vertex -20.9623 22.75 6.78804
    endloop
  endfacet
  facet normal -6.49676e-15 -1 -2.36463e-15
    outer loop
      vertex -21.25 22.75 9.00244
      vertex -21.25 22.75 7.5
      vertex -20.9623 22.75 8.21196
    endloop
  endfacet
endsolid OpenSCAD_Model
