solid OpenSCAD_Model
  facet normal -2.22045e-16 -1 0
    outer loop
      vertex -41 2 -0.005
      vertex -9 2 -0.005
      vertex -9 2 11.005
    endloop
  endfacet
  facet normal -2.22045e-16 -1 0
    outer loop
      vertex -41 2 11.005
      vertex -41 2 -0.005
      vertex -9 2 11.005
    endloop
  endfacet
  facet normal 0.258819 -0.965926 0
    outer loop
      vertex -9 2 11.005
      vertex -9 2 -0.005
      vertex -7 2.5359 -0.005
    endloop
  endfacet
  facet normal 0.258819 -0.965926 0
    outer loop
      vertex -7 2.5359 11.005
      vertex -9 2 11.005
      vertex -7 2.5359 -0.005
    endloop
  endfacet
  facet normal 0 -0 -1
    outer loop
      vertex -9 2 -0.005
      vertex -41 2 -0.005
      vertex -7 2.5359 -0.005
    endloop
  endfacet
  facet normal 0 0 -1
    outer loop
      vertex -7 2.5359 -0.005
      vertex -41 2 -0.005
      vertex -43 2.5359 -0.005
    endloop
  endfacet
  facet normal 0 0 -1
    outer loop
      vertex -7 2.5359 -0.005
      vertex -43 2.5359 -0.005
      vertex -44.4641 4 -0.005
    endloop
  endfacet
  facet normal 0 0 -1
    outer loop
      vertex -40.7524 4.93268 -0.005
      vertex -44.4641 4 -0.005
      vertex -45 6 -0.005
    endloop
  endfacet
  facet normal 0 0 -1
    outer loop
      vertex -41.4141 8.6853 -0.005
      vertex -45 6 -0.005
      vertex -45 18 -0.005
    endloop
  endfacet
  facet normal 0 0 -1
    outer loop
      vertex -41.9053 18.1 -0.005
      vertex -45 18 -0.005
      vertex -44.4641 20 -0.005
    endloop
  endfacet
  facet normal 0 0 -1
    outer loop
      vertex -40.7524 19.0673 -0.005
      vertex -44.4641 20 -0.005
      vertex -43 21.4641 -0.005
    endloop
  endfacet
  facet normal 0 0 -1
    outer loop
      vertex -33.4867 17.25 -0.005
      vertex -43 21.4641 -0.005
      vertex -41 22 -0.005
    endloop
  endfacet
  facet normal 0 -0 -1
    outer loop
      vertex -16.5133 17.25 -0.005
      vertex -41 22 -0.005
      vertex -9 22 -0.005
    endloop
  endfacet
  facet normal 0 -0 -1
    outer loop
      vertex -7.83342 17.382 -0.005
      vertex -9 22 -0.005
      vertex -7 21.4641 -0.005
    endloop
  endfacet
  facet normal 0 0 -1
    outer loop
      vertex -7 2.5359 -0.005
      vertex -7 21.4641 -0.005
      vertex -5.5359 20 -0.005
    endloop
  endfacet
  facet normal 0 0 -1
    outer loop
      vertex -7 2.5359 -0.005
      vertex -5.5359 20 -0.005
      vertex -5 18 -0.005
    endloop
  endfacet
  facet normal 0 0 -1
    outer loop
      vertex -7 2.5359 -0.005
      vertex -5 18 -0.005
      vertex -5 6 -0.005
    endloop
  endfacet
  facet normal 0 0 -1
    outer loop
      vertex -7 2.5359 -0.005
      vertex -5 6 -0.005
      vertex -5.5359 4 -0.005
    endloop
  endfacet
  facet normal 0 0 -1
    outer loop
      vertex -38.0947 5.9 -0.005
      vertex -7 2.5359 -0.005
      vertex -38.5859 5.3147 -0.005
    endloop
  endfacet
  facet normal 0 0 -1
    outer loop
      vertex -7 2.5359 -0.005
      vertex -10 4.8 -0.005
      vertex -9.24756 4.93268 -0.005
    endloop
  endfacet
  facet normal -0 0 -1
    outer loop
      vertex -10 9.2 -0.005
      vertex -9.24756 14.9327 -0.005
      vertex -9.24756 9.06732 -0.005
    endloop
  endfacet
  facet normal 0 0 -1
    outer loop
      vertex -7 2.5359 -0.005
      vertex -9.24756 4.93268 -0.005
      vertex -8.58587 5.3147 -0.005
    endloop
  endfacet
  facet normal 0 0 -1
    outer loop
      vertex -7 2.5359 -0.005
      vertex -8.58587 5.3147 -0.005
      vertex -8.09474 5.9 -0.005
    endloop
  endfacet
  facet normal 0 0 -1
    outer loop
      vertex -7 2.5359 -0.005
      vertex -8.09474 5.9 -0.005
      vertex -7.83342 6.61797 -0.005
    endloop
  endfacet
  facet normal -0 0 -1
    outer loop
      vertex -8.58587 8.6853 -0.005
      vertex -8.58587 15.3147 -0.005
      vertex -8.09474 8.1 -0.005
    endloop
  endfacet
  facet normal 0 0 -1
    outer loop
      vertex -7 2.5359 -0.005
      vertex -7.83342 6.61797 -0.005
      vertex -7.83342 7.38203 -0.005
    endloop
  endfacet
  facet normal 0 0 -1
    outer loop
      vertex -8.09474 15.9 -0.005
      vertex -7 2.5359 -0.005
      vertex -7.83342 7.38203 -0.005
    endloop
  endfacet
  facet normal 0 0 -1
    outer loop
      vertex -8.09474 15.9 -0.005
      vertex -7.83342 7.38203 -0.005
      vertex -8.09474 8.1 -0.005
    endloop
  endfacet
  facet normal 0 0 -1
    outer loop
      vertex -8.58587 15.3147 -0.005
      vertex -8.58587 8.6853 -0.005
      vertex -9.24756 9.06732 -0.005
    endloop
  endfacet
  facet normal 0 0 -1
    outer loop
      vertex -33.4867 6.75 -0.005
      vertex -39.2476 14.9327 -0.005
      vertex -38.5859 15.3147 -0.005
    endloop
  endfacet
  facet normal 0 0 -1
    outer loop
      vertex -7 2.5359 -0.005
      vertex -11.4141 5.3147 -0.005
      vertex -10.7524 4.93268 -0.005
    endloop
  endfacet
  facet normal 0 0 -1
    outer loop
      vertex -7 2.5359 -0.005
      vertex -10.7524 4.93268 -0.005
      vertex -10 4.8 -0.005
    endloop
  endfacet
  facet normal 0 0 -1
    outer loop
      vertex -7 2.5359 -0.005
      vertex -44.4641 4 -0.005
      vertex -40 4.8 -0.005
    endloop
  endfacet
  facet normal 0 0 -1
    outer loop
      vertex -33.4867 6.75 -0.005
      vertex -40 14.8 -0.005
      vertex -39.2476 14.9327 -0.005
    endloop
  endfacet
  facet normal 0 0 -1
    outer loop
      vertex -7 2.5359 -0.005
      vertex -40 4.8 -0.005
      vertex -39.2476 4.93268 -0.005
    endloop
  endfacet
  facet normal 0 0 -1
    outer loop
      vertex -7 2.5359 -0.005
      vertex -39.2476 4.93268 -0.005
      vertex -38.5859 5.3147 -0.005
    endloop
  endfacet
  facet normal 0 0 -1
    outer loop
      vertex -41.4141 5.3147 -0.005
      vertex -45 6 -0.005
      vertex -41.9053 5.9 -0.005
    endloop
  endfacet
  facet normal 0 0 -1
    outer loop
      vertex -7 2.5359 -0.005
      vertex -38.0947 5.9 -0.005
      vertex -37.8334 6.61797 -0.005
    endloop
  endfacet
  facet normal 0 0 -1
    outer loop
      vertex -7 2.5359 -0.005
      vertex -37.8334 6.61797 -0.005
      vertex -37.8334 7.38203 -0.005
    endloop
  endfacet
  facet normal 0 0 -1
    outer loop
      vertex -33.4867 6.75 -0.005
      vertex -37.8334 7.38203 -0.005
      vertex -38.0947 8.1 -0.005
    endloop
  endfacet
  facet normal 0 0 -1
    outer loop
      vertex -41.9053 15.9 -0.005
      vertex -38.0947 8.1 -0.005
      vertex -45 18 -0.005
    endloop
  endfacet
  facet normal 0 0 -1
    outer loop
      vertex -38.0947 8.1 -0.005
      vertex -38.5859 8.6853 -0.005
      vertex -45 18 -0.005
    endloop
  endfacet
  facet normal -0 -0 -1
    outer loop
      vertex -40 9.2 -0.005
      vertex -45 18 -0.005
      vertex -39.2476 9.06732 -0.005
    endloop
  endfacet
  facet normal 0 0 -1
    outer loop
      vertex -41.9053 5.9 -0.005
      vertex -45 6 -0.005
      vertex -42.1666 6.61797 -0.005
    endloop
  endfacet
  facet normal 0 -0 -1
    outer loop
      vertex -41.9053 8.1 -0.005
      vertex -45 6 -0.005
      vertex -41.4141 8.6853 -0.005
    endloop
  endfacet
  facet normal 0 -0 -1
    outer loop
      vertex -42.1666 7.38203 -0.005
      vertex -45 6 -0.005
      vertex -41.9053 8.1 -0.005
    endloop
  endfacet
  facet normal 0 0 -1
    outer loop
      vertex -40 9.2 -0.005
      vertex -40.7524 9.06732 -0.005
      vertex -45 18 -0.005
    endloop
  endfacet
  facet normal 0 0 -1
    outer loop
      vertex -40.7524 9.06732 -0.005
      vertex -41.4141 8.6853 -0.005
      vertex -45 18 -0.005
    endloop
  endfacet
  facet normal 0 0 -1
    outer loop
      vertex -42.1666 6.61797 -0.005
      vertex -45 6 -0.005
      vertex -42.1666 7.38203 -0.005
    endloop
  endfacet
  facet normal -0 -0 -1
    outer loop
      vertex -39.2476 9.06732 -0.005
      vertex -45 18 -0.005
      vertex -38.5859 8.6853 -0.005
    endloop
  endfacet
  facet normal 0 0 -1
    outer loop
      vertex -40.7524 4.93268 -0.005
      vertex -45 6 -0.005
      vertex -41.4141 5.3147 -0.005
    endloop
  endfacet
  facet normal 0 0 -1
    outer loop
      vertex -40 4.8 -0.005
      vertex -44.4641 4 -0.005
      vertex -40.7524 4.93268 -0.005
    endloop
  endfacet
  facet normal 0 0 -1
    outer loop
      vertex -33.4867 6.75 -0.005
      vertex -38.0947 8.1 -0.005
      vertex -40 14.8 -0.005
    endloop
  endfacet
  facet normal 0 0 -1
    outer loop
      vertex -7 2.5359 -0.005
      vertex -37.8334 7.38203 -0.005
      vertex -33.4867 6.75 -0.005
    endloop
  endfacet
  facet normal 0 0 -1
    outer loop
      vertex -16.5133 17.25 -0.005
      vertex -10 9.2 -0.005
      vertex -10.7524 9.06732 -0.005
    endloop
  endfacet
  facet normal 0 0 -1
    outer loop
      vertex -16.5133 17.25 -0.005
      vertex -12.1666 6.61797 -0.005
      vertex -11.9053 5.9 -0.005
    endloop
  endfacet
  facet normal 0 0 -1
    outer loop
      vertex -9.24756 14.9327 -0.005
      vertex -10 9.2 -0.005
      vertex -10 14.8 -0.005
    endloop
  endfacet
  facet normal -0 -0 -1
    outer loop
      vertex -33.4867 17.25 -0.005
      vertex -41 22 -0.005
      vertex -16.5133 17.25 -0.005
    endloop
  endfacet
  facet normal 0 -0 -1
    outer loop
      vertex -10.7524 19.0673 -0.005
      vertex -16.5133 17.25 -0.005
      vertex -9 22 -0.005
    endloop
  endfacet
  facet normal -0 -0 -1
    outer loop
      vertex -40 19.2 -0.005
      vertex -43 21.4641 -0.005
      vertex -39.2476 19.0673 -0.005
    endloop
  endfacet
  facet normal 0 0 -1
    outer loop
      vertex -8.09474 15.9 -0.005
      vertex -8.09474 8.1 -0.005
      vertex -8.58587 15.3147 -0.005
    endloop
  endfacet
  facet normal -0 0 -1
    outer loop
      vertex -9.24756 19.0673 -0.005
      vertex -9 22 -0.005
      vertex -8.58587 18.6853 -0.005
    endloop
  endfacet
  facet normal 0 0 -1
    outer loop
      vertex -7 2.5359 -0.005
      vertex -8.09474 15.9 -0.005
      vertex -7.83342 16.618 -0.005
    endloop
  endfacet
  facet normal 0 -0 -1
    outer loop
      vertex -7 2.5359 -0.005
      vertex -7.83342 16.618 -0.005
      vertex -7 21.4641 -0.005
    endloop
  endfacet
  facet normal -0 -0 -1
    outer loop
      vertex -8.09474 18.1 -0.005
      vertex -9 22 -0.005
      vertex -7.83342 17.382 -0.005
    endloop
  endfacet
  facet normal -0 -0 -1
    outer loop
      vertex -8.58587 18.6853 -0.005
      vertex -9 22 -0.005
      vertex -8.09474 18.1 -0.005
    endloop
  endfacet
  facet normal -0 0 -1
    outer loop
      vertex -7.83342 17.382 -0.005
      vertex -7 21.4641 -0.005
      vertex -7.83342 16.618 -0.005
    endloop
  endfacet
  facet normal 0 0 -1
    outer loop
      vertex -8.58587 15.3147 -0.005
      vertex -9.24756 9.06732 -0.005
      vertex -9.24756 14.9327 -0.005
    endloop
  endfacet
  facet normal 0 0 -1
    outer loop
      vertex -11.4141 15.3147 -0.005
      vertex -16.5133 17.25 -0.005
      vertex -11.9053 15.9 -0.005
    endloop
  endfacet
  facet normal 0 -0 -1
    outer loop
      vertex -11.4141 18.6853 -0.005
      vertex -16.5133 17.25 -0.005
      vertex -10.7524 19.0673 -0.005
    endloop
  endfacet
  facet normal 0 -0 -1
    outer loop
      vertex -10 19.2 -0.005
      vertex -10.7524 19.0673 -0.005
      vertex -9 22 -0.005
    endloop
  endfacet
  facet normal 0 -0 -1
    outer loop
      vertex -11.9053 18.1 -0.005
      vertex -16.5133 17.25 -0.005
      vertex -11.4141 18.6853 -0.005
    endloop
  endfacet
  facet normal 0 -0 -1
    outer loop
      vertex -12.1666 17.382 -0.005
      vertex -16.5133 17.25 -0.005
      vertex -11.9053 18.1 -0.005
    endloop
  endfacet
  facet normal 0 0 -1
    outer loop
      vertex -12.1666 16.618 -0.005
      vertex -16.5133 17.25 -0.005
      vertex -12.1666 17.382 -0.005
    endloop
  endfacet
  facet normal 0 0 -1
    outer loop
      vertex -11.9053 15.9 -0.005
      vertex -16.5133 17.25 -0.005
      vertex -12.1666 16.618 -0.005
    endloop
  endfacet
  facet normal 0 0 -1
    outer loop
      vertex -10 9.2 -0.005
      vertex -16.5133 17.25 -0.005
      vertex -11.4141 15.3147 -0.005
    endloop
  endfacet
  facet normal 0 0 -1
    outer loop
      vertex -10 9.2 -0.005
      vertex -11.4141 15.3147 -0.005
      vertex -10.7524 14.9327 -0.005
    endloop
  endfacet
  facet normal 0 -0 -1
    outer loop
      vertex -10 9.2 -0.005
      vertex -10.7524 14.9327 -0.005
      vertex -10 14.8 -0.005
    endloop
  endfacet
  facet normal 0 0 -1
    outer loop
      vertex -16.5133 17.25 -0.005
      vertex -10.7524 9.06732 -0.005
      vertex -11.4141 8.6853 -0.005
    endloop
  endfacet
  facet normal 0 0 -1
    outer loop
      vertex -16.5133 17.25 -0.005
      vertex -11.4141 8.6853 -0.005
      vertex -11.9053 8.1 -0.005
    endloop
  endfacet
  facet normal 0 0 -1
    outer loop
      vertex -16.5133 17.25 -0.005
      vertex -11.9053 8.1 -0.005
      vertex -12.1666 7.38203 -0.005
    endloop
  endfacet
  facet normal 0 0 -1
    outer loop
      vertex -16.5133 17.25 -0.005
      vertex -12.1666 7.38203 -0.005
      vertex -12.1666 6.61797 -0.005
    endloop
  endfacet
  facet normal 0 0 -1
    outer loop
      vertex -11.4141 5.3147 -0.005
      vertex -7 2.5359 -0.005
      vertex -16.5133 6.75 -0.005
    endloop
  endfacet
  facet normal 0 0 -1
    outer loop
      vertex -11.9053 5.9 -0.005
      vertex -11.4141 5.3147 -0.005
      vertex -16.5133 6.75 -0.005
    endloop
  endfacet
  facet normal 0 0 -1
    outer loop
      vertex -16.5133 17.25 -0.005
      vertex -11.9053 5.9 -0.005
      vertex -16.5133 6.75 -0.005
    endloop
  endfacet
  facet normal 0 -0 -1
    outer loop
      vertex -41.9053 18.1 -0.005
      vertex -44.4641 20 -0.005
      vertex -41.4141 18.6853 -0.005
    endloop
  endfacet
  facet normal 0 0 -1
    outer loop
      vertex -38.5859 18.6853 -0.005
      vertex -39.2476 19.0673 -0.005
      vertex -43 21.4641 -0.005
    endloop
  endfacet
  facet normal 0 -0 -1
    outer loop
      vertex -40.7524 19.0673 -0.005
      vertex -43 21.4641 -0.005
      vertex -40 19.2 -0.005
    endloop
  endfacet
  facet normal 0 -0 -1
    outer loop
      vertex -41.4141 18.6853 -0.005
      vertex -44.4641 20 -0.005
      vertex -40.7524 19.0673 -0.005
    endloop
  endfacet
  facet normal -0 0 -1
    outer loop
      vertex -10 19.2 -0.005
      vertex -9 22 -0.005
      vertex -9.24756 19.0673 -0.005
    endloop
  endfacet
  facet normal 0 -0 -1
    outer loop
      vertex -42.1666 17.382 -0.005
      vertex -45 18 -0.005
      vertex -41.9053 18.1 -0.005
    endloop
  endfacet
  facet normal 0 0 -1
    outer loop
      vertex -42.1666 16.618 -0.005
      vertex -45 18 -0.005
      vertex -42.1666 17.382 -0.005
    endloop
  endfacet
  facet normal 0 0 -1
    outer loop
      vertex -41.9053 15.9 -0.005
      vertex -45 18 -0.005
      vertex -42.1666 16.618 -0.005
    endloop
  endfacet
  facet normal 0 0 -1
    outer loop
      vertex -41.4141 15.3147 -0.005
      vertex -38.0947 8.1 -0.005
      vertex -41.9053 15.9 -0.005
    endloop
  endfacet
  facet normal 0 0 -1
    outer loop
      vertex -40.7524 14.9327 -0.005
      vertex -38.0947 8.1 -0.005
      vertex -41.4141 15.3147 -0.005
    endloop
  endfacet
  facet normal 0 0 -1
    outer loop
      vertex -40 14.8 -0.005
      vertex -38.0947 8.1 -0.005
      vertex -40.7524 14.9327 -0.005
    endloop
  endfacet
  facet normal 0 0 -1
    outer loop
      vertex -33.4867 6.75 -0.005
      vertex -38.5859 15.3147 -0.005
      vertex -38.0947 15.9 -0.005
    endloop
  endfacet
  facet normal 0 0 -1
    outer loop
      vertex -33.4867 6.75 -0.005
      vertex -38.0947 15.9 -0.005
      vertex -37.8334 16.618 -0.005
    endloop
  endfacet
  facet normal 0 0 -1
    outer loop
      vertex -33.4867 6.75 -0.005
      vertex -37.8334 16.618 -0.005
      vertex -37.8334 17.382 -0.005
    endloop
  endfacet
  facet normal 0 0 -1
    outer loop
      vertex -33.4867 6.75 -0.005
      vertex -37.8334 17.382 -0.005
      vertex -38.0947 18.1 -0.005
    endloop
  endfacet
  facet normal -0 -0 -1
    outer loop
      vertex -38.5859 18.6853 -0.005
      vertex -43 21.4641 -0.005
      vertex -33.4867 17.25 -0.005
    endloop
  endfacet
  facet normal -0 -0 -1
    outer loop
      vertex -38.0947 18.1 -0.005
      vertex -38.5859 18.6853 -0.005
      vertex -33.4867 17.25 -0.005
    endloop
  endfacet
  facet normal 0 0 -1
    outer loop
      vertex -33.4867 6.75 -0.005
      vertex -38.0947 18.1 -0.005
      vertex -33.4867 17.25 -0.005
    endloop
  endfacet
  facet normal 0 0 -1
    outer loop
      vertex -16.5133 6.75 -0.005
      vertex -7 2.5359 -0.005
      vertex -33.4867 6.75 -0.005
    endloop
  endfacet
  facet normal -0.258819 -0.965926 0
    outer loop
      vertex -43 2.5359 -0.005
      vertex -41 2 -0.005
      vertex -41 2 11.005
    endloop
  endfacet
  facet normal -0.258819 -0.965926 0
    outer loop
      vertex -43 2.5359 11.005
      vertex -43 2.5359 -0.005
      vertex -41 2 11.005
    endloop
  endfacet
  facet normal 0 0 1
    outer loop
      vertex -41 2 11.005
      vertex -9 2 11.005
      vertex -7 2.5359 11.005
    endloop
  endfacet
  facet normal 0 -0 1
    outer loop
      vertex -21.15 3.3 11.005
      vertex -41 2 11.005
      vertex -5.5359 4 11.005
    endloop
  endfacet
  facet normal 0 0 1
    outer loop
      vertex -5.5359 4 11.005
      vertex -41 2 11.005
      vertex -7 2.5359 11.005
    endloop
  endfacet
  facet normal 0 0 1
    outer loop
      vertex -14.2236 17.25 11.005
      vertex -12.1666 16.618 11.005
      vertex -12.1666 17.382 11.005
    endloop
  endfacet
  facet normal 0 0 1
    outer loop
      vertex -21.15 17.25 11.005
      vertex -7 21.4641 11.005
      vertex -9 22 11.005
    endloop
  endfacet
  facet normal -0 -0 1
    outer loop
      vertex -41.4141 5.3147 11.005
      vertex -41.9053 5.9 11.005
      vertex -41 2 11.005
    endloop
  endfacet
  facet normal 0 0 1
    outer loop
      vertex -41.9053 8.1 11.005
      vertex -41.4141 8.6853 11.005
      vertex -43 21.4641 11.005
    endloop
  endfacet
  facet normal -0 -0 1
    outer loop
      vertex -41.9053 5.9 11.005
      vertex -42.1666 6.61797 11.005
      vertex -41 2 11.005
    endloop
  endfacet
  facet normal 0 0 1
    outer loop
      vertex -44.4641 4 11.005
      vertex -41 2 11.005
      vertex -45 6 11.005
    endloop
  endfacet
  facet normal 0 0 1
    outer loop
      vertex -43 2.5359 11.005
      vertex -41 2 11.005
      vertex -44.4641 4 11.005
    endloop
  endfacet
  facet normal 0 0 1
    outer loop
      vertex -11.9053 5.9 11.005
      vertex -14.2236 6.75 11.005
      vertex -21.15 6.75 11.005
    endloop
  endfacet
  facet normal 0 -0 1
    outer loop
      vertex -26.9061 3.3 11.005
      vertex -41 2 11.005
      vertex -23.0939 3.3 11.005
    endloop
  endfacet
  facet normal 0 -0 1
    outer loop
      vertex -28.85 3.3 11.005
      vertex -41 2 11.005
      vertex -26.9061 3.3 11.005
    endloop
  endfacet
  facet normal 0 -0 1
    outer loop
      vertex -39.2476 4.93268 11.005
      vertex -41 2 11.005
      vertex -35.7764 6.75 11.005
    endloop
  endfacet
  facet normal 0 -0 1
    outer loop
      vertex -21.15 20.7 11.005
      vertex -21.15 17.25 11.005
      vertex -9 22 11.005
    endloop
  endfacet
  facet normal 0 0 1
    outer loop
      vertex -37.8334 17.382 11.005
      vertex -35.7764 6.75 11.005
      vertex -35.7764 17.25 11.005
    endloop
  endfacet
  facet normal 0 0 1
    outer loop
      vertex -21.15 17.25 11.005
      vertex -14.2236 17.25 11.005
      vertex -7 21.4641 11.005
    endloop
  endfacet
  facet normal 0 0 1
    outer loop
      vertex -41 22 11.005
      vertex -28.85 20.7 11.005
      vertex -9 22 11.005
    endloop
  endfacet
  facet normal 0 0 1
    outer loop
      vertex -41 22 11.005
      vertex -35.7764 17.25 11.005
      vertex -28.85 20.7 11.005
    endloop
  endfacet
  facet normal 0 0 1
    outer loop
      vertex -28.85 20.7 11.005
      vertex -21.15 20.7 11.005
      vertex -9 22 11.005
    endloop
  endfacet
  facet normal -0 0 1
    outer loop
      vertex -28.85 17.25 11.005
      vertex -28.85 20.7 11.005
      vertex -35.7764 17.25 11.005
    endloop
  endfacet
  facet normal 0 0 1
    outer loop
      vertex -11.4141 8.6853 11.005
      vertex -10.7524 9.06732 11.005
      vertex -5 18 11.005
    endloop
  endfacet
  facet normal 0 -0 1
    outer loop
      vertex -23.0939 3.3 11.005
      vertex -41 2 11.005
      vertex -21.15 3.3 11.005
    endloop
  endfacet
  facet normal 0 0 1
    outer loop
      vertex -5 6 11.005
      vertex -9.24756 4.93268 11.005
      vertex -5.5359 4 11.005
    endloop
  endfacet
  facet normal -0 0 1
    outer loop
      vertex -40.7524 4.93268 11.005
      vertex -41.4141 5.3147 11.005
      vertex -41 2 11.005
    endloop
  endfacet
  facet normal 0 -0 1
    outer loop
      vertex -9.24756 4.93268 11.005
      vertex -10 4.8 11.005
      vertex -5.5359 4 11.005
    endloop
  endfacet
  facet normal 0 0 1
    outer loop
      vertex -11.9053 5.9 11.005
      vertex -12.1666 6.61797 11.005
      vertex -14.2236 6.75 11.005
    endloop
  endfacet
  facet normal -0 0 1
    outer loop
      vertex -40 14.8 11.005
      vertex -40.7524 14.9327 11.005
      vertex -40 9.2 11.005
    endloop
  endfacet
  facet normal 0 -0 1
    outer loop
      vertex -8.09474 5.9 11.005
      vertex -8.58587 5.3147 11.005
      vertex -5 6 11.005
    endloop
  endfacet
  facet normal 0 0 1
    outer loop
      vertex -12.1666 7.38203 11.005
      vertex -14.2236 6.75 11.005
      vertex -12.1666 6.61797 11.005
    endloop
  endfacet
  facet normal 0 0 1
    outer loop
      vertex -11.9053 8.1 11.005
      vertex -14.2236 6.75 11.005
      vertex -12.1666 7.38203 11.005
    endloop
  endfacet
  facet normal 0 0 1
    outer loop
      vertex -5 18 11.005
      vertex -14.2236 6.75 11.005
      vertex -11.9053 8.1 11.005
    endloop
  endfacet
  facet normal 0 0 1
    outer loop
      vertex -10.7524 9.06732 11.005
      vertex -10 9.2 11.005
      vertex -5 18 11.005
    endloop
  endfacet
  facet normal 0 0 1
    outer loop
      vertex -5 18 11.005
      vertex -11.9053 8.1 11.005
      vertex -11.4141 8.6853 11.005
    endloop
  endfacet
  facet normal 0 0 1
    outer loop
      vertex -8.58587 8.6853 11.005
      vertex -8.09474 8.1 11.005
      vertex -5 6 11.005
    endloop
  endfacet
  facet normal 0 0 1
    outer loop
      vertex -8.09474 8.1 11.005
      vertex -7.83342 7.38203 11.005
      vertex -5 6 11.005
    endloop
  endfacet
  facet normal 0 0 1
    outer loop
      vertex -5 18 11.005
      vertex -10 9.2 11.005
      vertex -9.24756 9.06732 11.005
    endloop
  endfacet
  facet normal 0 0 1
    outer loop
      vertex -5 18 11.005
      vertex -8.58587 8.6853 11.005
      vertex -5 6 11.005
    endloop
  endfacet
  facet normal 0 0 1
    outer loop
      vertex -5 18 11.005
      vertex -9.24756 9.06732 11.005
      vertex -8.58587 8.6853 11.005
    endloop
  endfacet
  facet normal 0 -0 1
    outer loop
      vertex -7.83342 7.38203 11.005
      vertex -7.83342 6.61797 11.005
      vertex -5 6 11.005
    endloop
  endfacet
  facet normal 0 0 1
    outer loop
      vertex -5 6 11.005
      vertex -8.58587 5.3147 11.005
      vertex -9.24756 4.93268 11.005
    endloop
  endfacet
  facet normal 0 -0 1
    outer loop
      vertex -38.5859 5.3147 11.005
      vertex -39.2476 4.93268 11.005
      vertex -35.7764 6.75 11.005
    endloop
  endfacet
  facet normal 0 -0 1
    outer loop
      vertex -40 4.8 11.005
      vertex -41 2 11.005
      vertex -39.2476 4.93268 11.005
    endloop
  endfacet
  facet normal 0 -0 1
    outer loop
      vertex -40.7524 4.93268 11.005
      vertex -41 2 11.005
      vertex -40 4.8 11.005
    endloop
  endfacet
  facet normal 0 -0 1
    outer loop
      vertex -40 14.8 11.005
      vertex -40 9.2 11.005
      vertex -39.2476 9.06732 11.005
    endloop
  endfacet
  facet normal 0 0 1
    outer loop
      vertex -42.1666 6.61797 11.005
      vertex -42.1666 7.38203 11.005
      vertex -44.4641 20 11.005
    endloop
  endfacet
  facet normal 0 0 1
    outer loop
      vertex -42.1666 7.38203 11.005
      vertex -41.9053 8.1 11.005
      vertex -44.4641 20 11.005
    endloop
  endfacet
  facet normal 0 0 1
    outer loop
      vertex -42.1666 6.61797 11.005
      vertex -44.4641 20 11.005
      vertex -45 18 11.005
    endloop
  endfacet
  facet normal 0 0 1
    outer loop
      vertex -45 6 11.005
      vertex -42.1666 6.61797 11.005
      vertex -45 18 11.005
    endloop
  endfacet
  facet normal 0 0 1
    outer loop
      vertex -45 6 11.005
      vertex -41 2 11.005
      vertex -42.1666 6.61797 11.005
    endloop
  endfacet
  facet normal 0 0 1
    outer loop
      vertex -42.1666 16.618 11.005
      vertex -42.1666 17.382 11.005
      vertex -43 21.4641 11.005
    endloop
  endfacet
  facet normal 0 0 1
    outer loop
      vertex -44.4641 20 11.005
      vertex -41.9053 8.1 11.005
      vertex -43 21.4641 11.005
    endloop
  endfacet
  facet normal -0 0 1
    outer loop
      vertex -40.7524 14.9327 11.005
      vertex -41.4141 15.3147 11.005
      vertex -41.4141 8.6853 11.005
    endloop
  endfacet
  facet normal 0 0 1
    outer loop
      vertex -9.24756 19.0673 11.005
      vertex -8.58587 18.6853 11.005
      vertex -5.5359 20 11.005
    endloop
  endfacet
  facet normal -0 0 1
    outer loop
      vertex -12.1666 17.382 11.005
      vertex -11.9053 18.1 11.005
      vertex -14.2236 17.25 11.005
    endloop
  endfacet
  facet normal 0 0 1
    outer loop
      vertex -39.2476 14.9327 11.005
      vertex -38.5859 8.6853 11.005
      vertex -35.7764 6.75 11.005
    endloop
  endfacet
  facet normal 0 0 1
    outer loop
      vertex -40 14.8 11.005
      vertex -39.2476 9.06732 11.005
      vertex -38.5859 8.6853 11.005
    endloop
  endfacet
  facet normal 0 0 1
    outer loop
      vertex -38.0947 8.1 11.005
      vertex -37.8334 7.38203 11.005
      vertex -35.7764 6.75 11.005
    endloop
  endfacet
  facet normal 0 -0 1
    outer loop
      vertex -37.8334 7.38203 11.005
      vertex -37.8334 6.61797 11.005
      vertex -35.7764 6.75 11.005
    endloop
  endfacet
  facet normal 0 -0 1
    outer loop
      vertex -37.8334 6.61797 11.005
      vertex -38.0947 5.9 11.005
      vertex -35.7764 6.75 11.005
    endloop
  endfacet
  facet normal 0 -0 1
    outer loop
      vertex -38.0947 5.9 11.005
      vertex -38.5859 5.3147 11.005
      vertex -35.7764 6.75 11.005
    endloop
  endfacet
  facet normal 0 -0 1
    outer loop
      vertex -8.09474 15.9 11.005
      vertex -8.58587 15.3147 11.005
      vertex -5 18 11.005
    endloop
  endfacet
  facet normal 0 -0 1
    outer loop
      vertex -7.83342 6.61797 11.005
      vertex -8.09474 5.9 11.005
      vertex -5 6 11.005
    endloop
  endfacet
  facet normal 0 0 1
    outer loop
      vertex -14.2236 17.25 11.005
      vertex -11.4141 15.3147 11.005
      vertex -11.9053 15.9 11.005
    endloop
  endfacet
  facet normal 0 0 1
    outer loop
      vertex -8.09474 18.1 11.005
      vertex -7.83342 17.382 11.005
      vertex -5.5359 20 11.005
    endloop
  endfacet
  facet normal 0 0 1
    outer loop
      vertex -14.2236 17.25 11.005
      vertex -11.9053 15.9 11.005
      vertex -12.1666 16.618 11.005
    endloop
  endfacet
  facet normal 0 0 1
    outer loop
      vertex -10.7524 19.0673 11.005
      vertex -10 19.2 11.005
      vertex -7 21.4641 11.005
    endloop
  endfacet
  facet normal 0 -0 1
    outer loop
      vertex -7.83342 16.618 11.005
      vertex -8.09474 15.9 11.005
      vertex -5 18 11.005
    endloop
  endfacet
  facet normal 0 0 1
    outer loop
      vertex -8.58587 18.6853 11.005
      vertex -8.09474 18.1 11.005
      vertex -5.5359 20 11.005
    endloop
  endfacet
  facet normal 0 0 1
    outer loop
      vertex -11.4141 18.6853 11.005
      vertex -14.2236 17.25 11.005
      vertex -11.9053 18.1 11.005
    endloop
  endfacet
  facet normal 0 0 1
    outer loop
      vertex -7 21.4641 11.005
      vertex -14.2236 17.25 11.005
      vertex -11.4141 18.6853 11.005
    endloop
  endfacet
  facet normal 0 0 1
    outer loop
      vertex -7 21.4641 11.005
      vertex -11.4141 18.6853 11.005
      vertex -10.7524 19.0673 11.005
    endloop
  endfacet
  facet normal 0 -0 1
    outer loop
      vertex -7 21.4641 11.005
      vertex -10 19.2 11.005
      vertex -5.5359 20 11.005
    endloop
  endfacet
  facet normal 0 0 1
    outer loop
      vertex -10 19.2 11.005
      vertex -9.24756 19.0673 11.005
      vertex -5.5359 20 11.005
    endloop
  endfacet
  facet normal 0 -0 1
    outer loop
      vertex -7.83342 17.382 11.005
      vertex -7.83342 16.618 11.005
      vertex -5 18 11.005
    endloop
  endfacet
  facet normal 0 -0 1
    outer loop
      vertex -5.5359 20 11.005
      vertex -7.83342 17.382 11.005
      vertex -5 18 11.005
    endloop
  endfacet
  facet normal 0 -0 1
    outer loop
      vertex -38.5859 15.3147 11.005
      vertex -39.2476 14.9327 11.005
      vertex -35.7764 6.75 11.005
    endloop
  endfacet
  facet normal 0 0 1
    outer loop
      vertex -21.15 6.75 11.005
      vertex -11.4141 5.3147 11.005
      vertex -11.9053 5.9 11.005
    endloop
  endfacet
  facet normal 0 0 1
    outer loop
      vertex -14.2236 6.75 11.005
      vertex -8.58587 15.3147 11.005
      vertex -9.24756 14.9327 11.005
    endloop
  endfacet
  facet normal 0 0 1
    outer loop
      vertex -14.2236 6.75 11.005
      vertex -5 18 11.005
      vertex -8.58587 15.3147 11.005
    endloop
  endfacet
  facet normal 0 0 1
    outer loop
      vertex -38.5859 18.6853 11.005
      vertex -38.0947 18.1 11.005
      vertex -35.7764 17.25 11.005
    endloop
  endfacet
  facet normal 0 0 1
    outer loop
      vertex -41.4141 18.6853 11.005
      vertex -40.7524 19.0673 11.005
      vertex -41 22 11.005
    endloop
  endfacet
  facet normal 0 0 1
    outer loop
      vertex -40.7524 19.0673 11.005
      vertex -40 19.2 11.005
      vertex -41 22 11.005
    endloop
  endfacet
  facet normal 0 0 1
    outer loop
      vertex -41.9053 15.9 11.005
      vertex -41.4141 8.6853 11.005
      vertex -41.4141 15.3147 11.005
    endloop
  endfacet
  facet normal 0 0 1
    outer loop
      vertex -42.1666 16.618 11.005
      vertex -41.4141 8.6853 11.005
      vertex -41.9053 15.9 11.005
    endloop
  endfacet
  facet normal 0 0 1
    outer loop
      vertex -42.1666 17.382 11.005
      vertex -41.9053 18.1 11.005
      vertex -43 21.4641 11.005
    endloop
  endfacet
  facet normal 0 0 1
    outer loop
      vertex -43 21.4641 11.005
      vertex -41.4141 8.6853 11.005
      vertex -42.1666 16.618 11.005
    endloop
  endfacet
  facet normal 0 0 1
    outer loop
      vertex -43 21.4641 11.005
      vertex -41.9053 18.1 11.005
      vertex -41 22 11.005
    endloop
  endfacet
  facet normal 0 0 1
    outer loop
      vertex -41.9053 18.1 11.005
      vertex -41.4141 18.6853 11.005
      vertex -41 22 11.005
    endloop
  endfacet
  facet normal 0 0 1
    outer loop
      vertex -38.5859 8.6853 11.005
      vertex -38.0947 8.1 11.005
      vertex -35.7764 6.75 11.005
    endloop
  endfacet
  facet normal 0 0 1
    outer loop
      vertex -40.7524 14.9327 11.005
      vertex -41.4141 8.6853 11.005
      vertex -40.7524 9.06732 11.005
    endloop
  endfacet
  facet normal 0 -0 1
    outer loop
      vertex -37.8334 17.382 11.005
      vertex -37.8334 16.618 11.005
      vertex -35.7764 6.75 11.005
    endloop
  endfacet
  facet normal 0 -0 1
    outer loop
      vertex -39.2476 14.9327 11.005
      vertex -40 14.8 11.005
      vertex -38.5859 8.6853 11.005
    endloop
  endfacet
  facet normal 0 0 1
    outer loop
      vertex -41 22 11.005
      vertex -39.2476 19.0673 11.005
      vertex -35.7764 17.25 11.005
    endloop
  endfacet
  facet normal 0 0 1
    outer loop
      vertex -41 22 11.005
      vertex -40 19.2 11.005
      vertex -39.2476 19.0673 11.005
    endloop
  endfacet
  facet normal 0 0 1
    outer loop
      vertex -39.2476 19.0673 11.005
      vertex -38.5859 18.6853 11.005
      vertex -35.7764 17.25 11.005
    endloop
  endfacet
  facet normal 0 0 1
    outer loop
      vertex -38.0947 18.1 11.005
      vertex -37.8334 17.382 11.005
      vertex -35.7764 17.25 11.005
    endloop
  endfacet
  facet normal 0 0 1
    outer loop
      vertex -38.0947 15.9 11.005
      vertex -35.7764 6.75 11.005
      vertex -37.8334 16.618 11.005
    endloop
  endfacet
  facet normal 0 0 1
    outer loop
      vertex -38.5859 15.3147 11.005
      vertex -35.7764 6.75 11.005
      vertex -38.0947 15.9 11.005
    endloop
  endfacet
  facet normal -0 0 1
    outer loop
      vertex -28.85 3.3 11.005
      vertex -28.85 6.75 11.005
      vertex -41 2 11.005
    endloop
  endfacet
  facet normal 0 -0 1
    outer loop
      vertex -21.15 6.75 11.005
      vertex -21.15 3.3 11.005
      vertex -5.5359 4 11.005
    endloop
  endfacet
  facet normal 0 0 1
    outer loop
      vertex -21.15 6.75 11.005
      vertex -5.5359 4 11.005
      vertex -10 4.8 11.005
    endloop
  endfacet
  facet normal 0 0 1
    outer loop
      vertex -21.15 6.75 11.005
      vertex -10 4.8 11.005
      vertex -10.7524 4.93268 11.005
    endloop
  endfacet
  facet normal 0 0 1
    outer loop
      vertex -40.7524 9.06732 11.005
      vertex -40 9.2 11.005
      vertex -40.7524 14.9327 11.005
    endloop
  endfacet
  facet normal 0 0 1
    outer loop
      vertex -21.15 6.75 11.005
      vertex -10.7524 4.93268 11.005
      vertex -11.4141 5.3147 11.005
    endloop
  endfacet
  facet normal -0 0 1
    outer loop
      vertex -28.85 6.75 11.005
      vertex -35.7764 6.75 11.005
      vertex -41 2 11.005
    endloop
  endfacet
  facet normal 0 -0 1
    outer loop
      vertex -10 14.8 11.005
      vertex -14.2236 6.75 11.005
      vertex -9.24756 14.9327 11.005
    endloop
  endfacet
  facet normal 0 -0 1
    outer loop
      vertex -10.7524 14.9327 11.005
      vertex -14.2236 6.75 11.005
      vertex -10 14.8 11.005
    endloop
  endfacet
  facet normal 0 -0 1
    outer loop
      vertex -11.4141 15.3147 11.005
      vertex -14.2236 6.75 11.005
      vertex -10.7524 14.9327 11.005
    endloop
  endfacet
  facet normal 0 -0 1
    outer loop
      vertex -14.2236 17.25 11.005
      vertex -14.2236 6.75 11.005
      vertex -11.4141 15.3147 11.005
    endloop
  endfacet
  facet normal 0.707107 -0.707107 0
    outer loop
      vertex -7 2.5359 11.005
      vertex -7 2.5359 -0.005
      vertex -5.5359 4 -0.005
    endloop
  endfacet
  facet normal 0.707107 -0.707107 0
    outer loop
      vertex -5.5359 4 11.005
      vertex -7 2.5359 11.005
      vertex -5.5359 4 -0.005
    endloop
  endfacet
  facet normal 0.965926 -0.258819 0
    outer loop
      vertex -5.5359 4 11.005
      vertex -5.5359 4 -0.005
      vertex -5 6 -0.005
    endloop
  endfacet
  facet normal 0.965926 -0.258819 0
    outer loop
      vertex -5 6 11.005
      vertex -5.5359 4 11.005
      vertex -5 6 -0.005
    endloop
  endfacet
  facet normal 1 -2.22045e-16 0
    outer loop
      vertex -5 6 11.005
      vertex -5 6 -0.005
      vertex -5 18 -0.005
    endloop
  endfacet
  facet normal 1 -2.22045e-16 0
    outer loop
      vertex -5 18 11.005
      vertex -5 6 11.005
      vertex -5 18 -0.005
    endloop
  endfacet
  facet normal 0.965926 0.258819 -0
    outer loop
      vertex -5 18 11.005
      vertex -5 18 -0.005
      vertex -5.5359 20 -0.005
    endloop
  endfacet
  facet normal 0.965926 0.258819 -0
    outer loop
      vertex -5.5359 20 11.005
      vertex -5 18 11.005
      vertex -5.5359 20 -0.005
    endloop
  endfacet
  facet normal 0.707107 0.707107 -0
    outer loop
      vertex -5.5359 20 11.005
      vertex -5.5359 20 -0.005
      vertex -7 21.4641 -0.005
    endloop
  endfacet
  facet normal 0.707107 0.707107 -0
    outer loop
      vertex -7 21.4641 11.005
      vertex -5.5359 20 11.005
      vertex -7 21.4641 -0.005
    endloop
  endfacet
  facet normal 0.258819 0.965926 0
    outer loop
      vertex -7 21.4641 -0.005
      vertex -9 22 -0.005
      vertex -7 21.4641 11.005
    endloop
  endfacet
  facet normal 0.258819 0.965926 0
    outer loop
      vertex -7 21.4641 11.005
      vertex -9 22 -0.005
      vertex -9 22 11.005
    endloop
  endfacet
  facet normal 2.22045e-16 1 0
    outer loop
      vertex -9 22 -0.005
      vertex -41 22 -0.005
      vertex -9 22 11.005
    endloop
  endfacet
  facet normal 2.22045e-16 1 0
    outer loop
      vertex -9 22 11.005
      vertex -41 22 -0.005
      vertex -41 22 11.005
    endloop
  endfacet
  facet normal -0.258819 0.965926 0
    outer loop
      vertex -43 21.4641 -0.005
      vertex -43 21.4641 11.005
      vertex -41 22 -0.005
    endloop
  endfacet
  facet normal -0.258819 0.965926 0
    outer loop
      vertex -41 22 -0.005
      vertex -43 21.4641 11.005
      vertex -41 22 11.005
    endloop
  endfacet
  facet normal -0.707107 0.707107 0
    outer loop
      vertex -44.4641 20 -0.005
      vertex -44.4641 20 11.005
      vertex -43 21.4641 -0.005
    endloop
  endfacet
  facet normal -0.707107 0.707107 0
    outer loop
      vertex -43 21.4641 -0.005
      vertex -44.4641 20 11.005
      vertex -43 21.4641 11.005
    endloop
  endfacet
  facet normal -0.965926 0.258819 0
    outer loop
      vertex -45 18 -0.005
      vertex -45 18 11.005
      vertex -44.4641 20 -0.005
    endloop
  endfacet
  facet normal -0.965926 0.258819 0
    outer loop
      vertex -44.4641 20 -0.005
      vertex -45 18 11.005
      vertex -44.4641 20 11.005
    endloop
  endfacet
  facet normal -1 -0 -0
    outer loop
      vertex -45 6 -0.005
      vertex -45 6 11.005
      vertex -45 18 -0.005
    endloop
  endfacet
  facet normal -1 0 0
    outer loop
      vertex -45 18 -0.005
      vertex -45 6 11.005
      vertex -45 18 11.005
    endloop
  endfacet
  facet normal -0.965926 -0.258819 -0
    outer loop
      vertex -44.4641 4 -0.005
      vertex -44.4641 4 11.005
      vertex -45 6 -0.005
    endloop
  endfacet
  facet normal -0.965926 -0.258819 -0
    outer loop
      vertex -45 6 -0.005
      vertex -44.4641 4 11.005
      vertex -45 6 11.005
    endloop
  endfacet
  facet normal -0.707107 -0.707107 -0
    outer loop
      vertex -43 2.5359 -0.005
      vertex -43 2.5359 11.005
      vertex -44.4641 4 -0.005
    endloop
  endfacet
  facet normal -0.707107 -0.707107 -0
    outer loop
      vertex -44.4641 4 -0.005
      vertex -43 2.5359 11.005
      vertex -44.4641 4 11.005
    endloop
  endfacet
  facet normal -0.173648 0.984808 0
    outer loop
      vertex -9.24756 4.93268 11.005
      vertex -9.24756 4.93268 -0.005
      vertex -10 4.8 11.005
    endloop
  endfacet
  facet normal -0.173648 0.984808 0
    outer loop
      vertex -10 4.8 11.005
      vertex -9.24756 4.93268 -0.005
      vertex -10 4.8 -0.005
    endloop
  endfacet
  facet normal 0.173648 0.984808 -0
    outer loop
      vertex -10.7524 4.93268 11.005
      vertex -10 4.8 11.005
      vertex -10.7524 4.93268 -0.005
    endloop
  endfacet
  facet normal 0.173648 0.984808 0
    outer loop
      vertex -10.7524 4.93268 -0.005
      vertex -10 4.8 11.005
      vertex -10 4.8 -0.005
    endloop
  endfacet
  facet normal 0.5 0.866026 -0
    outer loop
      vertex -11.4141 5.3147 11.005
      vertex -10.7524 4.93268 11.005
      vertex -11.4141 5.3147 -0.005
    endloop
  endfacet
  facet normal 0.5 0.866026 0
    outer loop
      vertex -11.4141 5.3147 -0.005
      vertex -10.7524 4.93268 11.005
      vertex -10.7524 4.93268 -0.005
    endloop
  endfacet
  facet normal 0.766045 0.642787 0
    outer loop
      vertex -11.9053 5.9 -0.005
      vertex -11.9053 5.9 11.005
      vertex -11.4141 5.3147 11.005
    endloop
  endfacet
  facet normal 0.766045 0.642787 0
    outer loop
      vertex -11.4141 5.3147 -0.005
      vertex -11.9053 5.9 -0.005
      vertex -11.4141 5.3147 11.005
    endloop
  endfacet
  facet normal 0.939693 0.34202 0
    outer loop
      vertex -12.1666 6.61797 -0.005
      vertex -12.1666 6.61797 11.005
      vertex -11.9053 5.9 11.005
    endloop
  endfacet
  facet normal 0.939693 0.34202 0
    outer loop
      vertex -11.9053 5.9 -0.005
      vertex -12.1666 6.61797 -0.005
      vertex -11.9053 5.9 11.005
    endloop
  endfacet
  facet normal 1 0 0
    outer loop
      vertex -12.1666 7.38203 -0.005
      vertex -12.1666 7.38203 11.005
      vertex -12.1666 6.61797 11.005
    endloop
  endfacet
  facet normal 1 0 0
    outer loop
      vertex -12.1666 6.61797 -0.005
      vertex -12.1666 7.38203 -0.005
      vertex -12.1666 6.61797 11.005
    endloop
  endfacet
  facet normal 0.939693 -0.34202 0
    outer loop
      vertex -11.9053 8.1 -0.005
      vertex -11.9053 8.1 11.005
      vertex -12.1666 7.38203 11.005
    endloop
  endfacet
  facet normal 0.939693 -0.34202 0
    outer loop
      vertex -12.1666 7.38203 -0.005
      vertex -11.9053 8.1 -0.005
      vertex -12.1666 7.38203 11.005
    endloop
  endfacet
  facet normal 0.766045 -0.642787 0
    outer loop
      vertex -11.4141 8.6853 -0.005
      vertex -11.4141 8.6853 11.005
      vertex -11.9053 8.1 11.005
    endloop
  endfacet
  facet normal 0.766045 -0.642787 0
    outer loop
      vertex -11.9053 8.1 -0.005
      vertex -11.4141 8.6853 -0.005
      vertex -11.9053 8.1 11.005
    endloop
  endfacet
  facet normal 0.5 -0.866026 0
    outer loop
      vertex -10.7524 9.06732 -0.005
      vertex -10.7524 9.06732 11.005
      vertex -11.4141 8.6853 11.005
    endloop
  endfacet
  facet normal 0.5 -0.866026 0
    outer loop
      vertex -11.4141 8.6853 -0.005
      vertex -10.7524 9.06732 -0.005
      vertex -11.4141 8.6853 11.005
    endloop
  endfacet
  facet normal 0.173648 -0.984808 0
    outer loop
      vertex -10 9.2 -0.005
      vertex -10 9.2 11.005
      vertex -10.7524 9.06732 11.005
    endloop
  endfacet
  facet normal 0.173648 -0.984808 0
    outer loop
      vertex -10.7524 9.06732 -0.005
      vertex -10 9.2 -0.005
      vertex -10.7524 9.06732 11.005
    endloop
  endfacet
  facet normal -0.173648 -0.984808 0
    outer loop
      vertex -9.24756 9.06732 11.005
      vertex -10 9.2 11.005
      vertex -10 9.2 -0.005
    endloop
  endfacet
  facet normal -0.173648 -0.984808 -0
    outer loop
      vertex -9.24756 9.06732 -0.005
      vertex -9.24756 9.06732 11.005
      vertex -10 9.2 -0.005
    endloop
  endfacet
  facet normal -0.5 -0.866026 0
    outer loop
      vertex -8.58587 8.6853 11.005
      vertex -9.24756 9.06732 11.005
      vertex -9.24756 9.06732 -0.005
    endloop
  endfacet
  facet normal -0.5 -0.866026 -0
    outer loop
      vertex -8.58587 8.6853 -0.005
      vertex -8.58587 8.6853 11.005
      vertex -9.24756 9.06732 -0.005
    endloop
  endfacet
  facet normal -0.766045 -0.642787 0
    outer loop
      vertex -8.58587 8.6853 11.005
      vertex -8.58587 8.6853 -0.005
      vertex -8.09474 8.1 11.005
    endloop
  endfacet
  facet normal -0.766045 -0.642787 0
    outer loop
      vertex -8.09474 8.1 11.005
      vertex -8.58587 8.6853 -0.005
      vertex -8.09474 8.1 -0.005
    endloop
  endfacet
  facet normal -0.939693 -0.34202 0
    outer loop
      vertex -8.09474 8.1 11.005
      vertex -8.09474 8.1 -0.005
      vertex -7.83342 7.38203 11.005
    endloop
  endfacet
  facet normal -0.939693 -0.34202 0
    outer loop
      vertex -7.83342 7.38203 11.005
      vertex -8.09474 8.1 -0.005
      vertex -7.83342 7.38203 -0.005
    endloop
  endfacet
  facet normal -1 0 0
    outer loop
      vertex -7.83342 7.38203 11.005
      vertex -7.83342 7.38203 -0.005
      vertex -7.83342 6.61797 11.005
    endloop
  endfacet
  facet normal -1 0 0
    outer loop
      vertex -7.83342 6.61797 11.005
      vertex -7.83342 7.38203 -0.005
      vertex -7.83342 6.61797 -0.005
    endloop
  endfacet
  facet normal -0.939693 0.34202 0
    outer loop
      vertex -7.83342 6.61797 11.005
      vertex -7.83342 6.61797 -0.005
      vertex -8.09474 5.9 11.005
    endloop
  endfacet
  facet normal -0.939693 0.34202 0
    outer loop
      vertex -8.09474 5.9 11.005
      vertex -7.83342 6.61797 -0.005
      vertex -8.09474 5.9 -0.005
    endloop
  endfacet
  facet normal -0.766045 0.642787 0
    outer loop
      vertex -8.09474 5.9 11.005
      vertex -8.09474 5.9 -0.005
      vertex -8.58587 5.3147 11.005
    endloop
  endfacet
  facet normal -0.766045 0.642787 0
    outer loop
      vertex -8.58587 5.3147 11.005
      vertex -8.09474 5.9 -0.005
      vertex -8.58587 5.3147 -0.005
    endloop
  endfacet
  facet normal -0.5 0.866026 0
    outer loop
      vertex -8.58587 5.3147 11.005
      vertex -8.58587 5.3147 -0.005
      vertex -9.24756 4.93268 11.005
    endloop
  endfacet
  facet normal -0.5 0.866026 0
    outer loop
      vertex -9.24756 4.93268 11.005
      vertex -8.58587 5.3147 -0.005
      vertex -9.24756 4.93268 -0.005
    endloop
  endfacet
  facet normal 0.173648 0.984808 -0
    outer loop
      vertex -40.7524 4.93268 11.005
      vertex -40 4.8 11.005
      vertex -40.7524 4.93268 -0.005
    endloop
  endfacet
  facet normal 0.173648 0.984808 0
    outer loop
      vertex -40.7524 4.93268 -0.005
      vertex -40 4.8 11.005
      vertex -40 4.8 -0.005
    endloop
  endfacet
  facet normal -0.173648 0.984808 0
    outer loop
      vertex -39.2476 4.93268 11.005
      vertex -39.2476 4.93268 -0.005
      vertex -40 4.8 11.005
    endloop
  endfacet
  facet normal -0.173648 0.984808 0
    outer loop
      vertex -40 4.8 11.005
      vertex -39.2476 4.93268 -0.005
      vertex -40 4.8 -0.005
    endloop
  endfacet
  facet normal 0.5 0.866026 -0
    outer loop
      vertex -41.4141 5.3147 11.005
      vertex -40.7524 4.93268 11.005
      vertex -41.4141 5.3147 -0.005
    endloop
  endfacet
  facet normal 0.5 0.866026 0
    outer loop
      vertex -41.4141 5.3147 -0.005
      vertex -40.7524 4.93268 11.005
      vertex -40.7524 4.93268 -0.005
    endloop
  endfacet
  facet normal 0.766045 0.642787 0
    outer loop
      vertex -41.9053 5.9 -0.005
      vertex -41.9053 5.9 11.005
      vertex -41.4141 5.3147 11.005
    endloop
  endfacet
  facet normal 0.766045 0.642787 0
    outer loop
      vertex -41.4141 5.3147 -0.005
      vertex -41.9053 5.9 -0.005
      vertex -41.4141 5.3147 11.005
    endloop
  endfacet
  facet normal 0.939693 0.34202 0
    outer loop
      vertex -42.1666 6.61797 -0.005
      vertex -42.1666 6.61797 11.005
      vertex -41.9053 5.9 11.005
    endloop
  endfacet
  facet normal 0.939693 0.34202 0
    outer loop
      vertex -41.9053 5.9 -0.005
      vertex -42.1666 6.61797 -0.005
      vertex -41.9053 5.9 11.005
    endloop
  endfacet
  facet normal 1 0 0
    outer loop
      vertex -42.1666 7.38203 -0.005
      vertex -42.1666 7.38203 11.005
      vertex -42.1666 6.61797 11.005
    endloop
  endfacet
  facet normal 1 0 0
    outer loop
      vertex -42.1666 6.61797 -0.005
      vertex -42.1666 7.38203 -0.005
      vertex -42.1666 6.61797 11.005
    endloop
  endfacet
  facet normal 0.939693 -0.34202 0
    outer loop
      vertex -41.9053 8.1 -0.005
      vertex -41.9053 8.1 11.005
      vertex -42.1666 7.38203 11.005
    endloop
  endfacet
  facet normal 0.939693 -0.34202 0
    outer loop
      vertex -42.1666 7.38203 -0.005
      vertex -41.9053 8.1 -0.005
      vertex -42.1666 7.38203 11.005
    endloop
  endfacet
  facet normal 0.766045 -0.642787 0
    outer loop
      vertex -41.4141 8.6853 -0.005
      vertex -41.4141 8.6853 11.005
      vertex -41.9053 8.1 11.005
    endloop
  endfacet
  facet normal 0.766045 -0.642787 0
    outer loop
      vertex -41.9053 8.1 -0.005
      vertex -41.4141 8.6853 -0.005
      vertex -41.9053 8.1 11.005
    endloop
  endfacet
  facet normal 0.5 -0.866026 0
    outer loop
      vertex -40.7524 9.06732 -0.005
      vertex -40.7524 9.06732 11.005
      vertex -41.4141 8.6853 11.005
    endloop
  endfacet
  facet normal 0.5 -0.866026 0
    outer loop
      vertex -41.4141 8.6853 -0.005
      vertex -40.7524 9.06732 -0.005
      vertex -41.4141 8.6853 11.005
    endloop
  endfacet
  facet normal 0.173648 -0.984808 0
    outer loop
      vertex -40 9.2 -0.005
      vertex -40 9.2 11.005
      vertex -40.7524 9.06732 11.005
    endloop
  endfacet
  facet normal 0.173648 -0.984808 0
    outer loop
      vertex -40.7524 9.06732 -0.005
      vertex -40 9.2 -0.005
      vertex -40.7524 9.06732 11.005
    endloop
  endfacet
  facet normal -0.173648 -0.984808 0
    outer loop
      vertex -39.2476 9.06732 11.005
      vertex -40 9.2 11.005
      vertex -40 9.2 -0.005
    endloop
  endfacet
  facet normal -0.173648 -0.984808 -0
    outer loop
      vertex -39.2476 9.06732 -0.005
      vertex -39.2476 9.06732 11.005
      vertex -40 9.2 -0.005
    endloop
  endfacet
  facet normal -0.5 -0.866026 0
    outer loop
      vertex -38.5859 8.6853 11.005
      vertex -39.2476 9.06732 11.005
      vertex -39.2476 9.06732 -0.005
    endloop
  endfacet
  facet normal -0.5 -0.866026 -0
    outer loop
      vertex -38.5859 8.6853 -0.005
      vertex -38.5859 8.6853 11.005
      vertex -39.2476 9.06732 -0.005
    endloop
  endfacet
  facet normal -0.766045 -0.642787 0
    outer loop
      vertex -38.5859 8.6853 11.005
      vertex -38.5859 8.6853 -0.005
      vertex -38.0947 8.1 11.005
    endloop
  endfacet
  facet normal -0.766045 -0.642787 0
    outer loop
      vertex -38.0947 8.1 11.005
      vertex -38.5859 8.6853 -0.005
      vertex -38.0947 8.1 -0.005
    endloop
  endfacet
  facet normal -0.939693 -0.34202 0
    outer loop
      vertex -38.0947 8.1 11.005
      vertex -38.0947 8.1 -0.005
      vertex -37.8334 7.38203 11.005
    endloop
  endfacet
  facet normal -0.939693 -0.34202 0
    outer loop
      vertex -37.8334 7.38203 11.005
      vertex -38.0947 8.1 -0.005
      vertex -37.8334 7.38203 -0.005
    endloop
  endfacet
  facet normal -1 0 0
    outer loop
      vertex -37.8334 7.38203 11.005
      vertex -37.8334 7.38203 -0.005
      vertex -37.8334 6.61797 11.005
    endloop
  endfacet
  facet normal -1 0 0
    outer loop
      vertex -37.8334 6.61797 11.005
      vertex -37.8334 7.38203 -0.005
      vertex -37.8334 6.61797 -0.005
    endloop
  endfacet
  facet normal -0.939693 0.34202 0
    outer loop
      vertex -37.8334 6.61797 11.005
      vertex -37.8334 6.61797 -0.005
      vertex -38.0947 5.9 11.005
    endloop
  endfacet
  facet normal -0.939693 0.34202 0
    outer loop
      vertex -38.0947 5.9 11.005
      vertex -37.8334 6.61797 -0.005
      vertex -38.0947 5.9 -0.005
    endloop
  endfacet
  facet normal -0.766045 0.642787 0
    outer loop
      vertex -38.0947 5.9 11.005
      vertex -38.0947 5.9 -0.005
      vertex -38.5859 5.3147 11.005
    endloop
  endfacet
  facet normal -0.766045 0.642787 0
    outer loop
      vertex -38.5859 5.3147 11.005
      vertex -38.0947 5.9 -0.005
      vertex -38.5859 5.3147 -0.005
    endloop
  endfacet
  facet normal -0.5 0.866026 0
    outer loop
      vertex -38.5859 5.3147 11.005
      vertex -38.5859 5.3147 -0.005
      vertex -39.2476 4.93268 11.005
    endloop
  endfacet
  facet normal -0.5 0.866026 0
    outer loop
      vertex -39.2476 4.93268 11.005
      vertex -38.5859 5.3147 -0.005
      vertex -39.2476 4.93268 -0.005
    endloop
  endfacet
  facet normal 3.92122e-17 1 2.22383e-16
    outer loop
      vertex -13.6747 6.75 5.50305
      vertex -15.0407 6.75 1.75
      vertex -13.6747 6.75 9.49695
    endloop
  endfacet
  facet normal 4.1762e-16 1 1.5566e-16
    outer loop
      vertex -13.6747 6.75 9.49695
      vertex -15.0407 6.75 1.75
      vertex -16.5133 6.75 -0.005
    endloop
  endfacet
  facet normal 2.09311e-16 1 1.21107e-31
    outer loop
      vertex -25 6.75 3.45
      vertex -16.5133 6.75 -0.005
      vertex -33.4867 6.75 -0.005
    endloop
  endfacet
  facet normal 1.85471e-16 1 1.55629e-16
    outer loop
      vertex -27.6033 6.75 4.39752
      vertex -33.4867 6.75 -0.005
      vertex -34.9593 6.75 1.75
    endloop
  endfacet
  facet normal 2.27514e-16 1 8.28084e-17
    outer loop
      vertex -28.5074 6.75 5.475
      vertex -34.9593 6.75 1.75
      vertex -36.3253 6.75 5.50305
    endloop
  endfacet
  facet normal 2.64798e-16 1 2.22383e-16
    outer loop
      vertex -28.85 6.75 8.58372
      vertex -36.3253 6.75 5.50305
      vertex -36.3253 6.75 9.49695
    endloop
  endfacet
  facet normal 4.19347e-16 1 -1.5263e-16
    outer loop
      vertex -28.9885 6.75 8.20327
      vertex -36.3253 6.75 5.50305
      vertex -28.85 6.75 8.58372
    endloop
  endfacet
  facet normal 2.27514e-16 1 8.28083e-17
    outer loop
      vertex -28.5074 6.75 5.475
      vertex -36.3253 6.75 5.50305
      vertex -28.9885 6.75 6.79672
    endloop
  endfacet
  facet normal 1.30772e-16 1 6.31459e-16
    outer loop
      vertex -28.9885 6.75 6.79672
      vertex -36.3253 6.75 5.50305
      vertex -28.9885 6.75 8.20327
    endloop
  endfacet
  facet normal 1.85471e-16 1 1.55629e-16
    outer loop
      vertex -27.6033 6.75 4.39752
      vertex -34.9593 6.75 1.75
      vertex -28.5074 6.75 5.475
    endloop
  endfacet
  facet normal 1.31497e-16 1 2.27759e-16
    outer loop
      vertex -26.3852 6.75 3.69424
      vertex -33.4867 6.75 -0.005
      vertex -27.6033 6.75 4.39752
    endloop
  endfacet
  facet normal 6.32584e-17 1 3.58756e-16
    outer loop
      vertex -25 6.75 3.45
      vertex -33.4867 6.75 -0.005
      vertex -26.3852 6.75 3.69424
    endloop
  endfacet
  facet normal 5.10674e-16 1 7.4025e-16
    outer loop
      vertex -23.6148 6.75 3.69424
      vertex -16.5133 6.75 -0.005
      vertex -25 6.75 3.45
    endloop
  endfacet
  facet normal -1.46477e-16 1 9.47219e-16
    outer loop
      vertex -21.4926 6.75 5.475
      vertex -13.6747 6.75 9.49695
      vertex -22.3967 6.75 4.39752
    endloop
  endfacet
  facet normal 6.57483e-17 1 -1.13879e-16
    outer loop
      vertex -22.3967 6.75 4.39752
      vertex -16.5133 6.75 -0.005
      vertex -23.6148 6.75 3.69424
    endloop
  endfacet
  facet normal 2.94882e-16 1 1.92327e-16
    outer loop
      vertex -13.6747 6.75 9.49695
      vertex -16.5133 6.75 -0.005
      vertex -22.3967 6.75 4.39752
    endloop
  endfacet
  facet normal 4.19347e-16 1 -1.5263e-16
    outer loop
      vertex -21.0115 6.75 6.79672
      vertex -13.6747 6.75 9.49695
      vertex -21.4926 6.75 5.475
    endloop
  endfacet
  facet normal 1.30772e-16 1 6.31459e-16
    outer loop
      vertex -21.0115 6.75 8.20327
      vertex -13.6747 6.75 9.49695
      vertex -21.0115 6.75 6.79672
    endloop
  endfacet
  facet normal 2.27514e-16 1 8.28083e-17
    outer loop
      vertex -21.15 6.75 8.58372
      vertex -13.6747 6.75 9.49695
      vertex -21.0115 6.75 8.20327
    endloop
  endfacet
  facet normal 2.37631e-16 1 -0
    outer loop
      vertex -21.15 6.75 11.005
      vertex -13.6747 6.75 9.49695
      vertex -21.15 6.75 8.58372
    endloop
  endfacet
  facet normal 2.56462e-16 1 9.33444e-17
    outer loop
      vertex -13.6747 6.75 9.49695
      vertex -21.15 6.75 11.005
      vertex -14.2236 6.75 11.005
    endloop
  endfacet
  facet normal 2.96402e-16 1 4.81078e-16
    outer loop
      vertex -28.85 6.75 8.58372
      vertex -36.3253 6.75 9.49695
      vertex -35.7764 6.75 11.005
    endloop
  endfacet
  facet normal 1.28231e-16 1 0
    outer loop
      vertex -28.85 6.75 8.58372
      vertex -35.7764 6.75 11.005
      vertex -28.85 6.75 11.005
    endloop
  endfacet
  facet normal 0.766045 0 0.642788
    outer loop
      vertex -33.4867 6.75 -0.005
      vertex -33.4867 17.25 -0.005
      vertex -34.9593 17.25 1.75
    endloop
  endfacet
  facet normal 0.766045 -6.67912e-16 0.642788
    outer loop
      vertex -34.9593 6.75 1.75
      vertex -33.4867 6.75 -0.005
      vertex -34.9593 17.25 1.75
    endloop
  endfacet
  facet normal -3.81931e-15 -1 -2.52584e-15
    outer loop
      vertex -21.0115 17.25 6.79673
      vertex -16.5133 17.25 -0.005
      vertex -21.0115 17.25 8.20327
    endloop
  endfacet
  facet normal 0 -1 0
    outer loop
      vertex -21.15 17.25 11.005
      vertex -21.15 17.25 8.58372
      vertex -21.0115 17.25 8.20327
    endloop
  endfacet
  facet normal -0 -1 0
    outer loop
      vertex -21.4926 17.25 5.475
      vertex -16.5133 17.25 -0.005
      vertex -21.0115 17.25 6.79673
    endloop
  endfacet
  facet normal 8.68099e-16 -1 4.29045e-17
    outer loop
      vertex -16.5133 17.25 -0.005
      vertex -21.15 17.25 11.005
      vertex -21.0115 17.25 8.20327
    endloop
  endfacet
  facet normal 0 -1 0
    outer loop
      vertex -21.4926 17.25 5.475
      vertex -22.3967 17.25 4.39752
      vertex -16.5133 17.25 -0.005
    endloop
  endfacet
  facet normal 0 -1 0
    outer loop
      vertex -22.3967 17.25 4.39752
      vertex -23.6148 17.25 3.69425
      vertex -16.5133 17.25 -0.005
    endloop
  endfacet
  facet normal 3.19845e-16 -1 -1.81393e-15
    outer loop
      vertex -23.6148 17.25 3.69425
      vertex -25 17.25 3.45
      vertex -33.4867 17.25 -0.005
    endloop
  endfacet
  facet normal -1.81257e-16 -1 -1.02796e-15
    outer loop
      vertex -25 17.25 3.45
      vertex -26.3852 17.25 3.69425
      vertex -34.9593 17.25 1.75
    endloop
  endfacet
  facet normal -5.21907e-16 -1 -9.0397e-16
    outer loop
      vertex -26.3852 17.25 3.69425
      vertex -27.6033 17.25 4.39752
      vertex -36.3253 17.25 5.50305
    endloop
  endfacet
  facet normal 0 -1 0
    outer loop
      vertex -27.6033 17.25 4.39752
      vertex -28.5074 17.25 5.475
      vertex -35.7764 17.25 11.005
    endloop
  endfacet
  facet normal 0 -1 0
    outer loop
      vertex -28.5074 17.25 5.475
      vertex -28.9885 17.25 6.79673
      vertex -35.7764 17.25 11.005
    endloop
  endfacet
  facet normal 0 -1 0
    outer loop
      vertex -28.9885 17.25 6.79673
      vertex -28.9885 17.25 8.20327
      vertex -35.7764 17.25 11.005
    endloop
  endfacet
  facet normal 0 -1 0
    outer loop
      vertex -28.9885 17.25 8.20327
      vertex -28.85 17.25 8.58372
      vertex -28.85 17.25 11.005
    endloop
  endfacet
  facet normal 0 -1 -0
    outer loop
      vertex -28.9885 17.25 8.20327
      vertex -28.85 17.25 11.005
      vertex -35.7764 17.25 11.005
    endloop
  endfacet
  facet normal 0 -1 0
    outer loop
      vertex -27.6033 17.25 4.39752
      vertex -35.7764 17.25 11.005
      vertex -36.3253 17.25 9.49695
    endloop
  endfacet
  facet normal -5.20078e-16 -1 -8.89533e-16
    outer loop
      vertex -27.6033 17.25 4.39752
      vertex -36.3253 17.25 9.49695
      vertex -36.3253 17.25 5.50305
    endloop
  endfacet
  facet normal -3.82763e-16 -1 -1.39314e-16
    outer loop
      vertex -26.3852 17.25 3.69425
      vertex -36.3253 17.25 5.50305
      vertex -34.9593 17.25 1.75
    endloop
  endfacet
  facet normal -3.12031e-16 -1 -2.61825e-16
    outer loop
      vertex -25 17.25 3.45
      vertex -34.9593 17.25 1.75
      vertex -33.4867 17.25 -0.005
    endloop
  endfacet
  facet normal -2.09311e-16 -1 -4.01818e-16
    outer loop
      vertex -23.6148 17.25 3.69425
      vertex -33.4867 17.25 -0.005
      vertex -16.5133 17.25 -0.005
    endloop
  endfacet
  facet normal -1.35027e-15 -1 -8.91325e-16
    outer loop
      vertex -21.15 17.25 11.005
      vertex -16.5133 17.25 -0.005
      vertex -15.0407 17.25 1.75
    endloop
  endfacet
  facet normal 0 -1 0
    outer loop
      vertex -21.15 17.25 11.005
      vertex -15.0407 17.25 1.75
      vertex -13.6747 17.25 5.50305
    endloop
  endfacet
  facet normal 0 -1 0
    outer loop
      vertex -21.15 17.25 11.005
      vertex -13.6747 17.25 5.50305
      vertex -13.6747 17.25 9.49695
    endloop
  endfacet
  facet normal 0 -1 0
    outer loop
      vertex -21.15 17.25 11.005
      vertex -13.6747 17.25 9.49695
      vertex -14.2236 17.25 11.005
    endloop
  endfacet
  facet normal -0.766045 0 0.642788
    outer loop
      vertex -16.5133 17.25 -0.005
      vertex -16.5133 6.75 -0.005
      vertex -15.0407 17.25 1.75
    endloop
  endfacet
  facet normal -0.766045 -1.99271e-17 0.642788
    outer loop
      vertex -15.0407 17.25 1.75
      vertex -16.5133 6.75 -0.005
      vertex -15.0407 6.75 1.75
    endloop
  endfacet
  facet normal 0.173648 0.984808 -0
    outer loop
      vertex -10.7524 14.9327 11.005
      vertex -10 14.8 11.005
      vertex -10.7524 14.9327 -0.005
    endloop
  endfacet
  facet normal 0.173648 0.984808 0
    outer loop
      vertex -10.7524 14.9327 -0.005
      vertex -10 14.8 11.005
      vertex -10 14.8 -0.005
    endloop
  endfacet
  facet normal -0.173648 0.984808 0
    outer loop
      vertex -9.24756 14.9327 11.005
      vertex -9.24756 14.9327 -0.005
      vertex -10 14.8 11.005
    endloop
  endfacet
  facet normal -0.173648 0.984808 0
    outer loop
      vertex -10 14.8 11.005
      vertex -9.24756 14.9327 -0.005
      vertex -10 14.8 -0.005
    endloop
  endfacet
  facet normal 0.5 0.866026 -0
    outer loop
      vertex -11.4141 15.3147 11.005
      vertex -10.7524 14.9327 11.005
      vertex -11.4141 15.3147 -0.005
    endloop
  endfacet
  facet normal 0.5 0.866026 0
    outer loop
      vertex -11.4141 15.3147 -0.005
      vertex -10.7524 14.9327 11.005
      vertex -10.7524 14.9327 -0.005
    endloop
  endfacet
  facet normal 0.766045 0.642787 0
    outer loop
      vertex -11.9053 15.9 -0.005
      vertex -11.9053 15.9 11.005
      vertex -11.4141 15.3147 11.005
    endloop
  endfacet
  facet normal 0.766045 0.642787 0
    outer loop
      vertex -11.4141 15.3147 -0.005
      vertex -11.9053 15.9 -0.005
      vertex -11.4141 15.3147 11.005
    endloop
  endfacet
  facet normal 0.939693 0.34202 0
    outer loop
      vertex -12.1666 16.618 -0.005
      vertex -12.1666 16.618 11.005
      vertex -11.9053 15.9 11.005
    endloop
  endfacet
  facet normal 0.939693 0.34202 0
    outer loop
      vertex -11.9053 15.9 -0.005
      vertex -12.1666 16.618 -0.005
      vertex -11.9053 15.9 11.005
    endloop
  endfacet
  facet normal 1 0 0
    outer loop
      vertex -12.1666 17.382 -0.005
      vertex -12.1666 17.382 11.005
      vertex -12.1666 16.618 11.005
    endloop
  endfacet
  facet normal 1 0 0
    outer loop
      vertex -12.1666 16.618 -0.005
      vertex -12.1666 17.382 -0.005
      vertex -12.1666 16.618 11.005
    endloop
  endfacet
  facet normal 0.939693 -0.34202 0
    outer loop
      vertex -11.9053 18.1 -0.005
      vertex -11.9053 18.1 11.005
      vertex -12.1666 17.382 11.005
    endloop
  endfacet
  facet normal 0.939693 -0.34202 0
    outer loop
      vertex -12.1666 17.382 -0.005
      vertex -11.9053 18.1 -0.005
      vertex -12.1666 17.382 11.005
    endloop
  endfacet
  facet normal 0.766045 -0.642787 0
    outer loop
      vertex -11.4141 18.6853 -0.005
      vertex -11.4141 18.6853 11.005
      vertex -11.9053 18.1 11.005
    endloop
  endfacet
  facet normal 0.766045 -0.642787 0
    outer loop
      vertex -11.9053 18.1 -0.005
      vertex -11.4141 18.6853 -0.005
      vertex -11.9053 18.1 11.005
    endloop
  endfacet
  facet normal 0.5 -0.866026 0
    outer loop
      vertex -10.7524 19.0673 -0.005
      vertex -10.7524 19.0673 11.005
      vertex -11.4141 18.6853 11.005
    endloop
  endfacet
  facet normal 0.5 -0.866026 0
    outer loop
      vertex -11.4141 18.6853 -0.005
      vertex -10.7524 19.0673 -0.005
      vertex -11.4141 18.6853 11.005
    endloop
  endfacet
  facet normal 0.173648 -0.984808 0
    outer loop
      vertex -10 19.2 -0.005
      vertex -10 19.2 11.005
      vertex -10.7524 19.0673 11.005
    endloop
  endfacet
  facet normal 0.173648 -0.984808 0
    outer loop
      vertex -10.7524 19.0673 -0.005
      vertex -10 19.2 -0.005
      vertex -10.7524 19.0673 11.005
    endloop
  endfacet
  facet normal -0.173648 -0.984808 0
    outer loop
      vertex -9.24756 19.0673 11.005
      vertex -10 19.2 11.005
      vertex -10 19.2 -0.005
    endloop
  endfacet
  facet normal -0.173648 -0.984808 -0
    outer loop
      vertex -9.24756 19.0673 -0.005
      vertex -9.24756 19.0673 11.005
      vertex -10 19.2 -0.005
    endloop
  endfacet
  facet normal -0.5 -0.866026 0
    outer loop
      vertex -8.58587 18.6853 11.005
      vertex -9.24756 19.0673 11.005
      vertex -9.24756 19.0673 -0.005
    endloop
  endfacet
  facet normal -0.5 -0.866026 -0
    outer loop
      vertex -8.58587 18.6853 -0.005
      vertex -8.58587 18.6853 11.005
      vertex -9.24756 19.0673 -0.005
    endloop
  endfacet
  facet normal -0.766045 -0.642787 0
    outer loop
      vertex -8.58587 18.6853 11.005
      vertex -8.58587 18.6853 -0.005
      vertex -8.09474 18.1 11.005
    endloop
  endfacet
  facet normal -0.766045 -0.642787 0
    outer loop
      vertex -8.09474 18.1 11.005
      vertex -8.58587 18.6853 -0.005
      vertex -8.09474 18.1 -0.005
    endloop
  endfacet
  facet normal -0.939693 -0.34202 0
    outer loop
      vertex -8.09474 18.1 11.005
      vertex -8.09474 18.1 -0.005
      vertex -7.83342 17.382 11.005
    endloop
  endfacet
  facet normal -0.939693 -0.34202 0
    outer loop
      vertex -7.83342 17.382 11.005
      vertex -8.09474 18.1 -0.005
      vertex -7.83342 17.382 -0.005
    endloop
  endfacet
  facet normal -1 0 0
    outer loop
      vertex -7.83342 17.382 11.005
      vertex -7.83342 17.382 -0.005
      vertex -7.83342 16.618 11.005
    endloop
  endfacet
  facet normal -1 0 0
    outer loop
      vertex -7.83342 16.618 11.005
      vertex -7.83342 17.382 -0.005
      vertex -7.83342 16.618 -0.005
    endloop
  endfacet
  facet normal -0.939693 0.34202 0
    outer loop
      vertex -7.83342 16.618 11.005
      vertex -7.83342 16.618 -0.005
      vertex -8.09474 15.9 11.005
    endloop
  endfacet
  facet normal -0.939693 0.34202 0
    outer loop
      vertex -8.09474 15.9 11.005
      vertex -7.83342 16.618 -0.005
      vertex -8.09474 15.9 -0.005
    endloop
  endfacet
  facet normal -0.766045 0.642787 0
    outer loop
      vertex -8.09474 15.9 11.005
      vertex -8.09474 15.9 -0.005
      vertex -8.58587 15.3147 11.005
    endloop
  endfacet
  facet normal -0.766045 0.642787 0
    outer loop
      vertex -8.58587 15.3147 11.005
      vertex -8.09474 15.9 -0.005
      vertex -8.58587 15.3147 -0.005
    endloop
  endfacet
  facet normal -0.5 0.866026 0
    outer loop
      vertex -8.58587 15.3147 11.005
      vertex -8.58587 15.3147 -0.005
      vertex -9.24756 14.9327 11.005
    endloop
  endfacet
  facet normal -0.5 0.866026 0
    outer loop
      vertex -9.24756 14.9327 11.005
      vertex -8.58587 15.3147 -0.005
      vertex -9.24756 14.9327 -0.005
    endloop
  endfacet
  facet normal 0.173648 0.984808 -0
    outer loop
      vertex -40.7524 14.9327 11.005
      vertex -40 14.8 11.005
      vertex -40.7524 14.9327 -0.005
    endloop
  endfacet
  facet normal 0.173648 0.984808 0
    outer loop
      vertex -40.7524 14.9327 -0.005
      vertex -40 14.8 11.005
      vertex -40 14.8 -0.005
    endloop
  endfacet
  facet normal -0.173648 0.984808 0
    outer loop
      vertex -39.2476 14.9327 11.005
      vertex -39.2476 14.9327 -0.005
      vertex -40 14.8 11.005
    endloop
  endfacet
  facet normal -0.173648 0.984808 0
    outer loop
      vertex -40 14.8 11.005
      vertex -39.2476 14.9327 -0.005
      vertex -40 14.8 -0.005
    endloop
  endfacet
  facet normal 0.5 0.866026 -0
    outer loop
      vertex -41.4141 15.3147 11.005
      vertex -40.7524 14.9327 11.005
      vertex -41.4141 15.3147 -0.005
    endloop
  endfacet
  facet normal 0.5 0.866026 0
    outer loop
      vertex -41.4141 15.3147 -0.005
      vertex -40.7524 14.9327 11.005
      vertex -40.7524 14.9327 -0.005
    endloop
  endfacet
  facet normal 0.766045 0.642787 0
    outer loop
      vertex -41.9053 15.9 -0.005
      vertex -41.9053 15.9 11.005
      vertex -41.4141 15.3147 11.005
    endloop
  endfacet
  facet normal 0.766045 0.642787 0
    outer loop
      vertex -41.4141 15.3147 -0.005
      vertex -41.9053 15.9 -0.005
      vertex -41.4141 15.3147 11.005
    endloop
  endfacet
  facet normal 0.939693 0.34202 0
    outer loop
      vertex -42.1666 16.618 -0.005
      vertex -42.1666 16.618 11.005
      vertex -41.9053 15.9 11.005
    endloop
  endfacet
  facet normal 0.939693 0.34202 0
    outer loop
      vertex -41.9053 15.9 -0.005
      vertex -42.1666 16.618 -0.005
      vertex -41.9053 15.9 11.005
    endloop
  endfacet
  facet normal 1 0 0
    outer loop
      vertex -42.1666 17.382 -0.005
      vertex -42.1666 17.382 11.005
      vertex -42.1666 16.618 11.005
    endloop
  endfacet
  facet normal 1 0 0
    outer loop
      vertex -42.1666 16.618 -0.005
      vertex -42.1666 17.382 -0.005
      vertex -42.1666 16.618 11.005
    endloop
  endfacet
  facet normal 0.939693 -0.34202 0
    outer loop
      vertex -41.9053 18.1 -0.005
      vertex -41.9053 18.1 11.005
      vertex -42.1666 17.382 11.005
    endloop
  endfacet
  facet normal 0.939693 -0.34202 0
    outer loop
      vertex -42.1666 17.382 -0.005
      vertex -41.9053 18.1 -0.005
      vertex -42.1666 17.382 11.005
    endloop
  endfacet
  facet normal 0.766045 -0.642787 0
    outer loop
      vertex -41.4141 18.6853 -0.005
      vertex -41.4141 18.6853 11.005
      vertex -41.9053 18.1 11.005
    endloop
  endfacet
  facet normal 0.766045 -0.642787 0
    outer loop
      vertex -41.9053 18.1 -0.005
      vertex -41.4141 18.6853 -0.005
      vertex -41.9053 18.1 11.005
    endloop
  endfacet
  facet normal 0.5 -0.866026 0
    outer loop
      vertex -40.7524 19.0673 -0.005
      vertex -40.7524 19.0673 11.005
      vertex -41.4141 18.6853 11.005
    endloop
  endfacet
  facet normal 0.5 -0.866026 0
    outer loop
      vertex -41.4141 18.6853 -0.005
      vertex -40.7524 19.0673 -0.005
      vertex -41.4141 18.6853 11.005
    endloop
  endfacet
  facet normal 0.173648 -0.984808 0
    outer loop
      vertex -40 19.2 -0.005
      vertex -40 19.2 11.005
      vertex -40.7524 19.0673 11.005
    endloop
  endfacet
  facet normal 0.173648 -0.984808 0
    outer loop
      vertex -40.7524 19.0673 -0.005
      vertex -40 19.2 -0.005
      vertex -40.7524 19.0673 11.005
    endloop
  endfacet
  facet normal -0.173648 -0.984808 0
    outer loop
      vertex -39.2476 19.0673 11.005
      vertex -40 19.2 11.005
      vertex -40 19.2 -0.005
    endloop
  endfacet
  facet normal -0.173648 -0.984808 -0
    outer loop
      vertex -39.2476 19.0673 -0.005
      vertex -39.2476 19.0673 11.005
      vertex -40 19.2 -0.005
    endloop
  endfacet
  facet normal -0.5 -0.866026 0
    outer loop
      vertex -38.5859 18.6853 11.005
      vertex -39.2476 19.0673 11.005
      vertex -39.2476 19.0673 -0.005
    endloop
  endfacet
  facet normal -0.5 -0.866026 -0
    outer loop
      vertex -38.5859 18.6853 -0.005
      vertex -38.5859 18.6853 11.005
      vertex -39.2476 19.0673 -0.005
    endloop
  endfacet
  facet normal -0.766045 -0.642787 0
    outer loop
      vertex -38.5859 18.6853 11.005
      vertex -38.5859 18.6853 -0.005
      vertex -38.0947 18.1 11.005
    endloop
  endfacet
  facet normal -0.766045 -0.642787 0
    outer loop
      vertex -38.0947 18.1 11.005
      vertex -38.5859 18.6853 -0.005
      vertex -38.0947 18.1 -0.005
    endloop
  endfacet
  facet normal -0.939693 -0.34202 0
    outer loop
      vertex -38.0947 18.1 11.005
      vertex -38.0947 18.1 -0.005
      vertex -37.8334 17.382 11.005
    endloop
  endfacet
  facet normal -0.939693 -0.34202 0
    outer loop
      vertex -37.8334 17.382 11.005
      vertex -38.0947 18.1 -0.005
      vertex -37.8334 17.382 -0.005
    endloop
  endfacet
  facet normal -1 0 0
    outer loop
      vertex -37.8334 17.382 11.005
      vertex -37.8334 17.382 -0.005
      vertex -37.8334 16.618 11.005
    endloop
  endfacet
  facet normal -1 0 0
    outer loop
      vertex -37.8334 16.618 11.005
      vertex -37.8334 17.382 -0.005
      vertex -37.8334 16.618 -0.005
    endloop
  endfacet
  facet normal -0.939693 0.34202 0
    outer loop
      vertex -37.8334 16.618 11.005
      vertex -37.8334 16.618 -0.005
      vertex -38.0947 15.9 11.005
    endloop
  endfacet
  facet normal -0.939693 0.34202 0
    outer loop
      vertex -38.0947 15.9 11.005
      vertex -37.8334 16.618 -0.005
      vertex -38.0947 15.9 -0.005
    endloop
  endfacet
  facet normal -0.766045 0.642787 0
    outer loop
      vertex -38.0947 15.9 11.005
      vertex -38.0947 15.9 -0.005
      vertex -38.5859 15.3147 11.005
    endloop
  endfacet
  facet normal -0.766045 0.642787 0
    outer loop
      vertex -38.5859 15.3147 11.005
      vertex -38.0947 15.9 -0.005
      vertex -38.5859 15.3147 -0.005
    endloop
  endfacet
  facet normal -0.5 0.866026 0
    outer loop
      vertex -38.5859 15.3147 11.005
      vertex -38.5859 15.3147 -0.005
      vertex -39.2476 14.9327 11.005
    endloop
  endfacet
  facet normal -0.5 0.866026 0
    outer loop
      vertex -39.2476 14.9327 11.005
      vertex -38.5859 15.3147 -0.005
      vertex -39.2476 14.9327 -0.005
    endloop
  endfacet
  facet normal -0 1 -0
    outer loop
      vertex -21.4926 3.3 9.525
      vertex -21.0115 3.3 8.20327
      vertex -22.3967 3.3 10.6025
    endloop
  endfacet
  facet normal 5.4686e-16 1 3.15729e-16
    outer loop
      vertex -22.3967 3.3 10.6025
      vertex -21.0115 3.3 8.20327
      vertex -21.0115 3.3 6.79672
    endloop
  endfacet
  facet normal 3.01266e-16 1 2.26341e-16
    outer loop
      vertex -22.3967 3.3 10.6025
      vertex -21.0115 3.3 6.79672
      vertex -21.4926 3.3 5.475
    endloop
  endfacet
  facet normal 2.35306e-16 1 2.1471e-16
    outer loop
      vertex -22.3967 3.3 10.6025
      vertex -21.4926 3.3 5.475
      vertex -22.3967 3.3 4.39752
    endloop
  endfacet
  facet normal 2.4061e-16 1 2.1471e-16
    outer loop
      vertex -22.3967 3.3 10.6025
      vertex -22.3967 3.3 4.39752
      vertex -23.6148 3.3 3.69424
    endloop
  endfacet
  facet normal 2.84093e-16 1 2.07043e-16
    outer loop
      vertex -22.3967 3.3 10.6025
      vertex -23.6148 3.3 3.69424
      vertex -25 3.3 3.45
    endloop
  endfacet
  facet normal 5.14385e-17 1 2.91722e-16
    outer loop
      vertex -22.3967 3.3 10.6025
      vertex -25 3.3 3.45
      vertex -26.3852 3.3 3.69424
    endloop
  endfacet
  facet normal 1.39179e-16 1 2.41065e-16
    outer loop
      vertex -22.3967 3.3 10.6025
      vertex -26.3852 3.3 3.69424
      vertex -27.6033 3.3 4.39752
    endloop
  endfacet
  facet normal 2.13235e-16 1 1.78925e-16
    outer loop
      vertex -22.3967 3.3 10.6025
      vertex -27.6033 3.3 4.39752
      vertex -28.5074 3.3 5.475
    endloop
  endfacet
  facet normal 2.78358e-16 1 1.01314e-16
    outer loop
      vertex -22.3967 3.3 10.6025
      vertex -28.5074 3.3 5.475
      vertex -28.9885 3.3 6.79672
    endloop
  endfacet
  facet normal 1.54565e-16 1 3.15729e-16
    outer loop
      vertex -22.3967 3.3 10.6025
      vertex -28.9885 3.3 6.79672
      vertex -28.9885 3.3 8.20327
    endloop
  endfacet
  facet normal 1.69667e-16 1 2.74239e-16
    outer loop
      vertex -22.3967 3.3 10.6025
      vertex -28.9885 3.3 8.20327
      vertex -28.5074 3.3 9.525
    endloop
  endfacet
  facet normal 1.70588e-16 1 2.69015e-16
    outer loop
      vertex -22.3967 3.3 10.6025
      vertex -28.5074 3.3 9.525
      vertex -27.6033 3.3 10.6025
    endloop
  endfacet
  facet normal 1.70588e-16 1 -2.95467e-16
    outer loop
      vertex -22.3967 3.3 10.6025
      vertex -27.6033 3.3 10.6025
      vertex -26.9061 3.3 11.005
    endloop
  endfacet
  facet normal 2.32983e-16 1 4.03538e-16
    outer loop
      vertex -22.3967 3.3 10.6025
      vertex -26.9061 3.3 11.005
      vertex -23.0939 3.3 11.005
    endloop
  endfacet
  facet normal 2.28453e-16 1 -7.0758e-16
    outer loop
      vertex -22.3967 3.3 10.6025
      vertex -23.0939 3.3 11.005
      vertex -21.15 3.3 11.005
    endloop
  endfacet
  facet normal 0 1 0
    outer loop
      vertex -22.3967 3.3 10.6025
      vertex -21.15 3.3 11.005
      vertex -21.4926 3.3 9.525
    endloop
  endfacet
  facet normal 0 1 0
    outer loop
      vertex -21.15 3.3 11.005
      vertex -21.15 3.3 8.58372
      vertex -21.4926 3.3 9.525
    endloop
  endfacet
  facet normal -1 0 0
    outer loop
      vertex -21.15 6.75 11.005
      vertex -21.15 6.75 8.58372
      vertex -21.15 3.3 11.005
    endloop
  endfacet
  facet normal -1 0 0
    outer loop
      vertex -21.15 3.3 11.005
      vertex -21.15 6.75 8.58372
      vertex -21.15 3.3 8.58372
    endloop
  endfacet
  facet normal -0.939693 2.74698e-16 -0.34202
    outer loop
      vertex -13.6747 17.25 9.49695
      vertex -13.6747 6.75 9.49695
      vertex -14.2236 17.25 11.005
    endloop
  endfacet
  facet normal -0.939693 1.58974e-16 -0.34202
    outer loop
      vertex -14.2236 17.25 11.005
      vertex -13.6747 6.75 9.49695
      vertex -14.2236 6.75 11.005
    endloop
  endfacet
  facet normal -1.01361e-15 0 0
    outer loop
      vertex -21.15 20.7 7.5
      vertex -21.15 20.7 8.58372
      vertex -21.15 20.7 11.005
    endloop
  endfacet
  facet normal -1 0 0
    outer loop
      vertex -21.15 20.7 11.005
      vertex -21.15 20.7 8.58372
      vertex -21.15 17.25 8.58372
    endloop
  endfacet
  facet normal -1 0 0
    outer loop
      vertex -21.15 20.7 11.005
      vertex -21.15 17.25 8.58372
      vertex -21.15 17.25 11.005
    endloop
  endfacet
  facet normal 0 -1 0
    outer loop
      vertex -21.15 20.7 11.005
      vertex -28.85 20.7 11.005
      vertex -28.85 20.7 7.5
    endloop
  endfacet
  facet normal 0 -1 0
    outer loop
      vertex -21.15 20.7 7.5
      vertex -21.15 20.7 11.005
      vertex -28.85 20.7 7.5
    endloop
  endfacet
  facet normal 1 0 0
    outer loop
      vertex -28.85 17.25 8.58372
      vertex -28.85 20.7 8.58372
      vertex -28.85 20.7 11.005
    endloop
  endfacet
  facet normal 0 0 0
    outer loop
      vertex -28.85 20.7 11.005
      vertex -28.85 20.7 8.58372
      vertex -28.85 20.7 7.5
    endloop
  endfacet
  facet normal 1 0 0
    outer loop
      vertex -28.85 17.25 8.58372
      vertex -28.85 20.7 11.005
      vertex -28.85 17.25 11.005
    endloop
  endfacet
  facet normal 0.939693 -5.20173e-16 -0.34202
    outer loop
      vertex -36.3253 6.75 9.49695
      vertex -36.3253 17.25 9.49695
      vertex -35.7764 17.25 11.005
    endloop
  endfacet
  facet normal 0.939693 0 -0.34202
    outer loop
      vertex -35.7764 6.75 11.005
      vertex -36.3253 6.75 9.49695
      vertex -35.7764 17.25 11.005
    endloop
  endfacet
  facet normal 1 0 0
    outer loop
      vertex -28.85 6.75 8.58372
      vertex -28.85 6.75 11.005
      vertex -28.85 3.3 11.005
    endloop
  endfacet
  facet normal 1 0 0
    outer loop
      vertex -28.85 3.3 8.58372
      vertex -28.85 6.75 8.58372
      vertex -28.85 3.3 11.005
    endloop
  endfacet
  facet normal -0 1 0
    outer loop
      vertex -28.5074 3.3 9.525
      vertex -28.85 3.3 8.58372
      vertex -28.85 3.3 11.005
    endloop
  endfacet
  facet normal 0 1 0
    outer loop
      vertex -28.5074 3.3 9.525
      vertex -28.85 3.3 11.005
      vertex -27.6033 3.3 10.6025
    endloop
  endfacet
  facet normal 2.28453e-16 1 7.0758e-16
    outer loop
      vertex -28.85 3.3 11.005
      vertex -26.9061 3.3 11.005
      vertex -27.6033 3.3 10.6025
    endloop
  endfacet
  facet normal -1 1.69177e-16 0
    outer loop
      vertex -13.6747 17.25 5.50305
      vertex -13.6747 6.75 5.50305
      vertex -13.6747 17.25 9.49695
    endloop
  endfacet
  facet normal -1 1.69177e-16 1.2962e-31
    outer loop
      vertex -13.6747 17.25 9.49695
      vertex -13.6747 6.75 5.50305
      vertex -13.6747 6.75 9.49695
    endloop
  endfacet
  facet normal -0.939693 -0 -0.34202
    outer loop
      vertex -21.15 3.3 8.58372
      vertex -21.15 6.75 8.58372
      vertex -21.0115 6.75 8.20327
    endloop
  endfacet
  facet normal -0.939693 9.75631e-16 -0.34202
    outer loop
      vertex -21.15 3.3 8.58372
      vertex -21.0115 6.75 8.20327
      vertex -21.0115 3.3 8.20327
    endloop
  endfacet
  facet normal -4.71794e-16 -8.32667e-17 -1.71719e-16
    outer loop
      vertex -21.15 3.3 8.58372
      vertex -21.0115 3.3 8.20327
      vertex -21.4926 3.3 9.525
    endloop
  endfacet
  facet normal -1 1.02977e-15 6.50259e-31
    outer loop
      vertex -21.0115 6.75 6.79672
      vertex -21.0115 3.3 6.79672
      vertex -21.0115 6.75 8.20327
    endloop
  endfacet
  facet normal -1 1.02977e-15 4.83731e-31
    outer loop
      vertex -21.0115 6.75 8.20327
      vertex -21.0115 3.3 6.79672
      vertex -21.0115 3.3 8.20327
    endloop
  endfacet
  facet normal -0.939693 -8.80506e-17 0.34202
    outer loop
      vertex -21.4926 6.75 5.475
      vertex -21.4926 3.3 5.475
      vertex -21.0115 6.75 6.79672
    endloop
  endfacet
  facet normal -0.939693 8.79619e-16 0.34202
    outer loop
      vertex -21.0115 6.75 6.79672
      vertex -21.4926 3.3 5.475
      vertex -21.0115 3.3 6.79672
    endloop
  endfacet
  facet normal -0.766044 -1.65481e-16 0.642788
    outer loop
      vertex -22.3967 6.75 4.39752
      vertex -22.3967 3.3 4.39752
      vertex -21.4926 6.75 5.475
    endloop
  endfacet
  facet normal -0.766044 -1.65481e-16 0.642788
    outer loop
      vertex -21.4926 6.75 5.475
      vertex -22.3967 3.3 4.39752
      vertex -21.4926 3.3 5.475
    endloop
  endfacet
  facet normal -0.5 2.38277e-16 0.866025
    outer loop
      vertex -22.3967 6.75 4.39752
      vertex -23.6148 6.75 3.69424
      vertex -23.6148 3.3 3.69424
    endloop
  endfacet
  facet normal -0.5 -2.22952e-16 0.866025
    outer loop
      vertex -22.3967 3.3 4.39752
      vertex -22.3967 6.75 4.39752
      vertex -23.6148 3.3 3.69424
    endloop
  endfacet
  facet normal -0.173648 -2.55297e-16 0.984808
    outer loop
      vertex -23.6148 6.75 3.69424
      vertex -25 6.75 3.45
      vertex -25 3.3 3.45
    endloop
  endfacet
  facet normal -0.173648 -7.47138e-17 0.984808
    outer loop
      vertex -23.6148 3.3 3.69424
      vertex -23.6148 6.75 3.69424
      vertex -25 3.3 3.45
    endloop
  endfacet
  facet normal 0.173648 -2.53532e-16 0.984808
    outer loop
      vertex -25 3.3 3.45
      vertex -25 6.75 3.45
      vertex -26.3852 6.75 3.69424
    endloop
  endfacet
  facet normal 0.173648 -2.53532e-16 0.984808
    outer loop
      vertex -26.3852 3.3 3.69424
      vertex -25 3.3 3.45
      vertex -26.3852 6.75 3.69424
    endloop
  endfacet
  facet normal 0.5 -2.22952e-16 0.866025
    outer loop
      vertex -26.3852 3.3 3.69424
      vertex -26.3852 6.75 3.69424
      vertex -27.6033 6.75 4.39752
    endloop
  endfacet
  facet normal 0.5 -2.22952e-16 0.866025
    outer loop
      vertex -27.6033 3.3 4.39752
      vertex -26.3852 3.3 3.69424
      vertex -27.6033 6.75 4.39752
    endloop
  endfacet
  facet normal 0.766044 -1.65481e-16 0.642788
    outer loop
      vertex -27.6033 3.3 4.39752
      vertex -27.6033 6.75 4.39752
      vertex -28.5074 6.75 5.475
    endloop
  endfacet
  facet normal 0.766044 -1.65481e-16 0.642788
    outer loop
      vertex -28.5074 3.3 5.475
      vertex -27.6033 3.3 4.39752
      vertex -28.5074 6.75 5.475
    endloop
  endfacet
  facet normal 0.939693 -8.80506e-17 0.34202
    outer loop
      vertex -28.5074 3.3 5.475
      vertex -28.5074 6.75 5.475
      vertex -28.9885 6.75 6.79672
    endloop
  endfacet
  facet normal 0.939693 -8.80506e-17 0.34202
    outer loop
      vertex -28.9885 3.3 6.79672
      vertex -28.5074 3.3 5.475
      vertex -28.9885 6.75 6.79672
    endloop
  endfacet
  facet normal 1 0 0
    outer loop
      vertex -28.9885 3.3 6.79672
      vertex -28.9885 6.75 6.79672
      vertex -28.9885 6.75 8.20327
    endloop
  endfacet
  facet normal 1 0 0
    outer loop
      vertex -28.9885 3.3 8.20327
      vertex -28.9885 3.3 6.79672
      vertex -28.9885 6.75 8.20327
    endloop
  endfacet
  facet normal 0.939693 0 -0.34202
    outer loop
      vertex -28.9885 3.3 8.20327
      vertex -28.9885 6.75 8.20327
      vertex -28.85 6.75 8.58372
    endloop
  endfacet
  facet normal 0 7.21645e-16 0
    outer loop
      vertex -28.5074 3.3 9.525
      vertex -28.9885 3.3 8.20327
      vertex -28.85 3.3 8.58372
    endloop
  endfacet
  facet normal 0.939693 0 -0.34202
    outer loop
      vertex -28.85 3.3 8.58372
      vertex -28.9885 3.3 8.20327
      vertex -28.85 6.75 8.58372
    endloop
  endfacet
  facet normal 1 -6.76707e-16 -5.1848e-31
    outer loop
      vertex -36.3253 6.75 5.50305
      vertex -36.3253 17.25 5.50305
      vertex -36.3253 17.25 9.49695
    endloop
  endfacet
  facet normal 1 -6.76707e-16 -1.50488e-31
    outer loop
      vertex -36.3253 6.75 9.49695
      vertex -36.3253 6.75 5.50305
      vertex -36.3253 17.25 9.49695
    endloop
  endfacet
  facet normal 0.939693 -7.15457e-16 0.34202
    outer loop
      vertex -34.9593 6.75 1.75
      vertex -34.9593 17.25 1.75
      vertex -36.3253 17.25 5.50305
    endloop
  endfacet
  facet normal 0.939693 -7.2269e-16 0.34202
    outer loop
      vertex -36.3253 6.75 5.50305
      vertex -34.9593 6.75 1.75
      vertex -36.3253 17.25 5.50305
    endloop
  endfacet
  facet normal -0.939693 7.94141e-17 0.34202
    outer loop
      vertex -15.0407 17.25 1.75
      vertex -15.0407 6.75 1.75
      vertex -13.6747 17.25 5.50305
    endloop
  endfacet
  facet normal -0.939693 7.21814e-17 0.34202
    outer loop
      vertex -13.6747 17.25 5.50305
      vertex -15.0407 6.75 1.75
      vertex -13.6747 6.75 5.50305
    endloop
  endfacet
  facet normal 0.939693 1.76101e-16 -0.34202
    outer loop
      vertex -28.9885 17.25 8.20327
      vertex -28.9885 20.7 8.20328
      vertex -28.85 20.7 8.58372
    endloop
  endfacet
  facet normal 0.939693 0 -0.34202
    outer loop
      vertex -28.85 17.25 8.58372
      vertex -28.9885 17.25 8.20327
      vertex -28.85 20.7 8.58372
    endloop
  endfacet
  facet normal 1 0 0
    outer loop
      vertex -28.9885 17.25 6.79673
      vertex -28.9885 20.7 6.79673
      vertex -28.9885 20.7 8.20328
    endloop
  endfacet
  facet normal 1 0 -0
    outer loop
      vertex -28.9885 17.25 8.20327
      vertex -28.9885 17.25 6.79673
      vertex -28.9885 20.7 8.20328
    endloop
  endfacet
  facet normal 0.939693 -1.05572e-15 0.34202
    outer loop
      vertex -28.5074 17.25 5.475
      vertex -28.5074 20.7 5.475
      vertex -28.9885 20.7 6.79673
    endloop
  endfacet
  facet normal 0.939693 -8.80506e-17 0.34202
    outer loop
      vertex -28.9885 17.25 6.79673
      vertex -28.5074 17.25 5.475
      vertex -28.9885 20.7 6.79673
    endloop
  endfacet
  facet normal 0.766044 -1.65481e-16 0.642788
    outer loop
      vertex -27.6033 17.25 4.39752
      vertex -27.6033 20.7 4.39752
      vertex -28.5074 20.7 5.475
    endloop
  endfacet
  facet normal 0.766044 -9.54332e-16 0.642788
    outer loop
      vertex -28.5074 17.25 5.475
      vertex -27.6033 17.25 4.39752
      vertex -28.5074 20.7 5.475
    endloop
  endfacet
  facet normal 0.5 -2.22952e-16 0.866025
    outer loop
      vertex -26.3852 17.25 3.69425
      vertex -26.3852 20.7 3.69425
      vertex -27.6033 20.7 4.39752
    endloop
  endfacet
  facet normal 0.5 -2.22952e-16 0.866025
    outer loop
      vertex -27.6033 17.25 4.39752
      vertex -26.3852 17.25 3.69425
      vertex -27.6033 20.7 4.39752
    endloop
  endfacet
  facet normal 0.173648 -4.3235e-16 0.984808
    outer loop
      vertex -25 17.25 3.45
      vertex -25 20.7 3.45
      vertex -26.3852 20.7 3.69425
    endloop
  endfacet
  facet normal 0.173648 -2.53532e-16 0.984808
    outer loop
      vertex -26.3852 17.25 3.69425
      vertex -25 17.25 3.45
      vertex -26.3852 20.7 3.69425
    endloop
  endfacet
  facet normal -0.173648 -6.80791e-17 0.984808
    outer loop
      vertex -23.6148 20.7 3.69425
      vertex -25 20.7 3.45
      vertex -25 17.25 3.45
    endloop
  endfacet
  facet normal -0.173648 -7.47138e-17 0.984808
    outer loop
      vertex -23.6148 17.25 3.69425
      vertex -23.6148 20.7 3.69425
      vertex -25 17.25 3.45
    endloop
  endfacet
  facet normal -0.5 2.72317e-16 0.866025
    outer loop
      vertex -22.3967 20.7 4.39752
      vertex -23.6148 20.7 3.69425
      vertex -23.6148 17.25 3.69425
    endloop
  endfacet
  facet normal -0.5 -2.22952e-16 0.866025
    outer loop
      vertex -22.3967 17.25 4.39752
      vertex -22.3967 20.7 4.39752
      vertex -23.6148 17.25 3.69425
    endloop
  endfacet
  facet normal -0.766044 -1.65481e-16 0.642788
    outer loop
      vertex -22.3967 20.7 4.39752
      vertex -22.3967 17.25 4.39752
      vertex -21.4926 20.7 5.475
    endloop
  endfacet
  facet normal -0.766044 6.2337e-16 0.642788
    outer loop
      vertex -21.4926 20.7 5.475
      vertex -22.3967 17.25 4.39752
      vertex -21.4926 17.25 5.475
    endloop
  endfacet
  facet normal -0.939693 8.79619e-16 0.34202
    outer loop
      vertex -21.4926 20.7 5.475
      vertex -21.4926 17.25 5.475
      vertex -21.0115 20.7 6.79673
    endloop
  endfacet
  facet normal -0.939693 -8.80506e-17 0.34202
    outer loop
      vertex -21.0115 20.7 6.79673
      vertex -21.4926 17.25 5.475
      vertex -21.0115 17.25 6.79673
    endloop
  endfacet
  facet normal -1 0 0
    outer loop
      vertex -21.0115 20.7 6.79673
      vertex -21.0115 17.25 6.79673
      vertex -21.0115 20.7 8.20328
    endloop
  endfacet
  facet normal -1 0 0
    outer loop
      vertex -21.0115 20.7 8.20328
      vertex -21.0115 17.25 6.79673
      vertex -21.0115 17.25 8.20327
    endloop
  endfacet
  facet normal -0.939693 1.76101e-16 -0.34202
    outer loop
      vertex -21.0115 20.7 8.20328
      vertex -21.0115 17.25 8.20327
      vertex -21.15 20.7 8.58372
    endloop
  endfacet
  facet normal -0.939693 0 -0.34202
    outer loop
      vertex -21.15 20.7 8.58372
      vertex -21.0115 17.25 8.20327
      vertex -21.15 17.25 8.58372
    endloop
  endfacet
  facet normal -0 -1 0
    outer loop
      vertex -28.9885 20.7 8.20328
      vertex -28.85 20.7 7.5
      vertex -28.85 20.7 8.58372
    endloop
  endfacet
  facet normal 0 -1 -0
    outer loop
      vertex -28.9885 20.7 6.79673
      vertex -28.85 20.7 7.5
      vertex -28.9885 20.7 8.20328
    endloop
  endfacet
  facet normal 0 -1 0
    outer loop
      vertex -21.15 20.7 7.5
      vertex -28.85 20.7 7.5
      vertex -28.9885 20.7 6.79673
    endloop
  endfacet
  facet normal 0 -1 -0
    outer loop
      vertex -28.5074 20.7 5.475
      vertex -21.15 20.7 7.5
      vertex -28.9885 20.7 6.79673
    endloop
  endfacet
  facet normal 0 -1 -0
    outer loop
      vertex -27.6033 20.7 4.39752
      vertex -21.15 20.7 7.5
      vertex -28.5074 20.7 5.475
    endloop
  endfacet
  facet normal 0 -1 -0
    outer loop
      vertex -26.3852 20.7 3.69425
      vertex -21.15 20.7 7.5
      vertex -27.6033 20.7 4.39752
    endloop
  endfacet
  facet normal 0 -1 -0
    outer loop
      vertex -25 20.7 3.45
      vertex -21.15 20.7 7.5
      vertex -26.3852 20.7 3.69425
    endloop
  endfacet
  facet normal 0 -1 -0
    outer loop
      vertex -23.6148 20.7 3.69425
      vertex -21.15 20.7 7.5
      vertex -25 20.7 3.45
    endloop
  endfacet
  facet normal 0 -1 -0
    outer loop
      vertex -22.3967 20.7 4.39752
      vertex -21.15 20.7 7.5
      vertex -23.6148 20.7 3.69425
    endloop
  endfacet
  facet normal 0 -1 -0
    outer loop
      vertex -21.4926 20.7 5.475
      vertex -21.15 20.7 7.5
      vertex -22.3967 20.7 4.39752
    endloop
  endfacet
  facet normal 0 -1 0
    outer loop
      vertex -21.0115 20.7 6.79673
      vertex -21.15 20.7 7.5
      vertex -21.4926 20.7 5.475
    endloop
  endfacet
  facet normal -1.28284e-14 -1 -2.52584e-15
    outer loop
      vertex -21.0115 20.7 8.20328
      vertex -21.15 20.7 7.5
      vertex -21.0115 20.7 6.79673
    endloop
  endfacet
  facet normal -9.00694e-15 -1 -3.27825e-15
    outer loop
      vertex -21.15 20.7 8.58372
      vertex -21.15 20.7 7.5
      vertex -21.0115 20.7 8.20328
    endloop
  endfacet
endsolid OpenSCAD_Model
