solid OpenSCAD_Model
  facet normal -1 -0 -0
    outer loop
      vertex -28 -21 3.71872
      vertex -28 -21 8.5
      vertex -28 -18.3961 0
    endloop
  endfacet
  facet normal -1 0 -0
    outer loop
      vertex -28 -18.3961 0
      vertex -28 -21 8.5
      vertex -28 -10.415 8.5
    endloop
  endfacet
  facet normal -1 0 -0
    outer loop
      vertex -28 -10.415 8.5
      vertex -28 -10.415 18
      vertex -28 -9.95151 18
    endloop
  endfacet
  facet normal -1 0 0
    outer loop
      vertex -28 -10.415 8.5
      vertex -28 -9.95151 18
      vertex -28 -9.78671 17.6021
    endloop
  endfacet
  facet normal -1 0 0
    outer loop
      vertex -28 -10.415 8.5
      vertex -28 -9.78671 17.6021
      vertex -28 -9.46284 16.98
    endloop
  endfacet
  facet normal -1 -0 0
    outer loop
      vertex -28 -10.415 8.5
      vertex -28 -5.24984 13.4449
      vertex -28 -18.3961 0
    endloop
  endfacet
  facet normal -1 0 0
    outer loop
      vertex -28 -9.46284 16.98
      vertex -28 -9.08598 16.3884
      vertex -28 -10.415 8.5
    endloop
  endfacet
  facet normal -1 0 0
    outer loop
      vertex -28 -9.08598 16.3884
      vertex -28 -8.659 15.832
      vertex -28 -10.415 8.5
    endloop
  endfacet
  facet normal -1 0 0
    outer loop
      vertex -28 -8.659 15.832
      vertex -28 -8.18514 15.3149
      vertex -28 -10.415 8.5
    endloop
  endfacet
  facet normal -1 0 0
    outer loop
      vertex -28 -8.18514 15.3149
      vertex -28 -7.66801 14.841
      vertex -28 -10.415 8.5
    endloop
  endfacet
  facet normal -1 0 0
    outer loop
      vertex -28 -7.66801 14.841
      vertex -28 -7.11156 14.414
      vertex -28 -10.415 8.5
    endloop
  endfacet
  facet normal -1 0 0
    outer loop
      vertex -28 -7.11156 14.414
      vertex -28 -6.52 14.0372
      vertex -28 -10.415 8.5
    endloop
  endfacet
  facet normal -1 0 0
    outer loop
      vertex -28 -6.52 14.0372
      vertex -28 -5.89785 13.7133
      vertex -28 -10.415 8.5
    endloop
  endfacet
  facet normal -1 0 0
    outer loop
      vertex -28 -5.89785 13.7133
      vertex -28 -5.24984 13.4449
      vertex -28 -10.415 8.5
    endloop
  endfacet
  facet normal -1 0 0
    outer loop
      vertex -28 -5.24984 13.4449
      vertex -28 -4.5809 13.234
      vertex -28 -18.3961 0
    endloop
  endfacet
  facet normal -1 0 0
    outer loop
      vertex -28 -4.5809 13.234
      vertex -28 -3.89613 13.0821
      vertex -28 -18.3961 0
    endloop
  endfacet
  facet normal -1 0 0
    outer loop
      vertex -28 -3.89613 13.0821
      vertex -28 -3.20073 12.9906
      vertex -28 -18.3961 0
    endloop
  endfacet
  facet normal -1 0 0
    outer loop
      vertex -28 -3.20073 12.9906
      vertex -28 -2.5 12.96
      vertex -28 -18.3961 0
    endloop
  endfacet
  facet normal -1 -0 0
    outer loop
      vertex -28 -2.5 12.96
      vertex -28 -1.79927 12.9906
      vertex -28 -18.3961 0
    endloop
  endfacet
  facet normal -1 -0 0
    outer loop
      vertex -28 -1.79927 12.9906
      vertex -28 -1.10387 13.0821
      vertex -28 -18.3961 0
    endloop
  endfacet
  facet normal -1 -0 0
    outer loop
      vertex -28 -1.10387 13.0821
      vertex -28 -0.419095 13.234
      vertex -28 -18.3961 0
    endloop
  endfacet
  facet normal -1 -0 0
    outer loop
      vertex -28 -0.419095 13.234
      vertex -28 0.249842 13.4449
      vertex -28 -18.3961 0
    endloop
  endfacet
  facet normal -1 -0 0
    outer loop
      vertex -28 0.249842 13.4449
      vertex -28 0.897851 13.7133
      vertex -28 -18.3961 0
    endloop
  endfacet
  facet normal -1 -0 0
    outer loop
      vertex -28 0.897851 13.7133
      vertex -28 1.52 14.0372
      vertex -28 -18.3961 0
    endloop
  endfacet
  facet normal -1 -0 0
    outer loop
      vertex -28 1.52 14.0372
      vertex -28 2.11156 14.414
      vertex -28 -18.3961 0
    endloop
  endfacet
  facet normal -1 0 0
    outer loop
      vertex -28 2.11156 14.414
      vertex -28 5.415 8.5
      vertex -28 -18.3961 0
    endloop
  endfacet
  facet normal -1 0 0
    outer loop
      vertex -28 2.66801 14.841
      vertex -28 5.415 8.5
      vertex -28 2.11156 14.414
    endloop
  endfacet
  facet normal -1 0 0
    outer loop
      vertex -28 3.18514 15.3149
      vertex -28 5.415 8.5
      vertex -28 2.66801 14.841
    endloop
  endfacet
  facet normal -1 -0 0
    outer loop
      vertex -28 4.08598 16.3884
      vertex -28 5.415 18
      vertex -28 3.659 15.832
    endloop
  endfacet
  facet normal -1 -0 0
    outer loop
      vertex -28 4.46284 16.98
      vertex -28 5.415 18
      vertex -28 4.08598 16.3884
    endloop
  endfacet
  facet normal -1 0 0
    outer loop
      vertex -28 4.78672 17.6021
      vertex -28 4.95151 18
      vertex -28 5.415 18
    endloop
  endfacet
  facet normal -1 -0 0
    outer loop
      vertex -28 4.78672 17.6021
      vertex -28 5.415 18
      vertex -28 4.46284 16.98
    endloop
  endfacet
  facet normal -1 -0 0
    outer loop
      vertex -28 3.659 15.832
      vertex -28 5.415 18
      vertex -28 5.415 8.5
    endloop
  endfacet
  facet normal -1 0 0
    outer loop
      vertex -28 3.659 15.832
      vertex -28 5.415 8.5
      vertex -28 3.18514 15.3149
    endloop
  endfacet
  facet normal -1 0 0
    outer loop
      vertex -28 5.415 8.5
      vertex -28 16 8.5
      vertex -28 -18.3961 0
    endloop
  endfacet
  facet normal -1 0 0
    outer loop
      vertex -28 -18.3961 0
      vertex -28 16 8.5
      vertex -28 16 3.71872
    endloop
  endfacet
  facet normal -1 -0 0
    outer loop
      vertex -28 -18.3961 0
      vertex -28 16 3.71872
      vertex -28 13.3961 0
    endloop
  endfacet
  facet normal 0 -1 0
    outer loop
      vertex -28 -21 8.5
      vertex -28 -21 3.71872
      vertex -18 -21 3.71872
    endloop
  endfacet
  facet normal 0 -1 0
    outer loop
      vertex -18 -21 8.5
      vertex -28 -21 8.5
      vertex -18 -21 3.71872
    endloop
  endfacet
  facet normal -0 -0.819152 -0.573576
    outer loop
      vertex -28 -18.3961 0
      vertex -18 -18.3961 0
      vertex -18 -21 3.71872
    endloop
  endfacet
  facet normal -0 -0.819152 -0.573576
    outer loop
      vertex -28 -21 3.71872
      vertex -28 -18.3961 0
      vertex -18 -21 3.71872
    endloop
  endfacet
  facet normal -0 -0 -1
    outer loop
      vertex -21.25 -14.5 0
      vertex -28 13.3961 0
      vertex -18 -18.3961 0
    endloop
  endfacet
  facet normal 0 -0 -1
    outer loop
      vertex -22.125 11.0155 0
      vertex -28 13.3961 0
      vertex -18 13.3961 0
    endloop
  endfacet
  facet normal 0 -0 -1
    outer loop
      vertex -28 -18.3961 0
      vertex -28 13.3961 0
      vertex -24.75 -14.5 0
    endloop
  endfacet
  facet normal 0 0 -1
    outer loop
      vertex -28 -18.3961 0
      vertex -24.75 -14.5 0
      vertex -24.5155 -15.375 0
    endloop
  endfacet
  facet normal 0 0 -1
    outer loop
      vertex -28 -18.3961 0
      vertex -24.5155 -15.375 0
      vertex -23.875 -16.0155 0
    endloop
  endfacet
  facet normal -0 0 -1
    outer loop
      vertex -28 -18.3961 0
      vertex -23.875 -16.0155 0
      vertex -18 -18.3961 0
    endloop
  endfacet
  facet normal 0 0 -1
    outer loop
      vertex -23.875 -16.0155 0
      vertex -23 -16.25 0
      vertex -18 -18.3961 0
    endloop
  endfacet
  facet normal 0 0 -1
    outer loop
      vertex -21.4845 -15.375 0
      vertex -18 -18.3961 0
      vertex -22.125 -16.0155 0
    endloop
  endfacet
  facet normal -0 0 -1
    outer loop
      vertex -21.25 9.5 0
      vertex -18 13.3961 0
      vertex -21.4845 8.625 0
    endloop
  endfacet
  facet normal -0 -0 -1
    outer loop
      vertex -22.125 -12.9845 0
      vertex -28 13.3961 0
      vertex -21.4845 -13.625 0
    endloop
  endfacet
  facet normal -0 -0 -1
    outer loop
      vertex -21.4845 -13.625 0
      vertex -28 13.3961 0
      vertex -21.25 -14.5 0
    endloop
  endfacet
  facet normal -0 0 -1
    outer loop
      vertex -21.4845 -15.375 0
      vertex -21.25 -14.5 0
      vertex -18 -18.3961 0
    endloop
  endfacet
  facet normal -0 -0 -1
    outer loop
      vertex -23 -12.75 0
      vertex -28 13.3961 0
      vertex -22.125 -12.9845 0
    endloop
  endfacet
  facet normal 0 -0 -1
    outer loop
      vertex -23.875 -12.9845 0
      vertex -28 13.3961 0
      vertex -23 -12.75 0
    endloop
  endfacet
  facet normal 0 -0 -1
    outer loop
      vertex -24.5155 -13.625 0
      vertex -28 13.3961 0
      vertex -23.875 -12.9845 0
    endloop
  endfacet
  facet normal 0 -0 -1
    outer loop
      vertex -24.75 -14.5 0
      vertex -28 13.3961 0
      vertex -24.5155 -13.625 0
    endloop
  endfacet
  facet normal 0 0 -1
    outer loop
      vertex -18 -18.3961 0
      vertex -28 13.3961 0
      vertex -24.75 9.5 0
    endloop
  endfacet
  facet normal 0 0 -1
    outer loop
      vertex -18 -18.3961 0
      vertex -24.75 9.5 0
      vertex -24.5155 8.625 0
    endloop
  endfacet
  facet normal 0 0 -1
    outer loop
      vertex -18 -18.3961 0
      vertex -24.5155 8.625 0
      vertex -23.875 7.98446 0
    endloop
  endfacet
  facet normal 0 0 -1
    outer loop
      vertex -18 -18.3961 0
      vertex -23.875 7.98446 0
      vertex -23 7.75 0
    endloop
  endfacet
  facet normal 0 0 -1
    outer loop
      vertex -18 -18.3961 0
      vertex -23 7.75 0
      vertex -22.125 7.98446 0
    endloop
  endfacet
  facet normal 0 0 -1
    outer loop
      vertex -18 -18.3961 0
      vertex -22.125 7.98446 0
      vertex -21.4845 8.625 0
    endloop
  endfacet
  facet normal 0 0 -1
    outer loop
      vertex -18 -18.3961 0
      vertex -21.4845 8.625 0
      vertex -18 13.3961 0
    endloop
  endfacet
  facet normal -0 0 -1
    outer loop
      vertex -21.4845 10.375 0
      vertex -18 13.3961 0
      vertex -21.25 9.5 0
    endloop
  endfacet
  facet normal -0 0 -1
    outer loop
      vertex -22.125 11.0155 0
      vertex -18 13.3961 0
      vertex -21.4845 10.375 0
    endloop
  endfacet
  facet normal -0 -0 -1
    outer loop
      vertex -23 11.25 0
      vertex -28 13.3961 0
      vertex -22.125 11.0155 0
    endloop
  endfacet
  facet normal 0 -0 -1
    outer loop
      vertex -23.875 11.0155 0
      vertex -28 13.3961 0
      vertex -23 11.25 0
    endloop
  endfacet
  facet normal 0 -0 -1
    outer loop
      vertex -24.5155 10.375 0
      vertex -28 13.3961 0
      vertex -23.875 11.0155 0
    endloop
  endfacet
  facet normal 0 -0 -1
    outer loop
      vertex -24.75 9.5 0
      vertex -28 13.3961 0
      vertex -24.5155 10.375 0
    endloop
  endfacet
  facet normal 0 0 -1
    outer loop
      vertex -22.125 -16.0155 0
      vertex -18 -18.3961 0
      vertex -23 -16.25 0
    endloop
  endfacet
  facet normal 0 0.819152 -0.573576
    outer loop
      vertex -18 16 3.71872
      vertex -18 13.3961 0
      vertex -28 16 3.71872
    endloop
  endfacet
  facet normal 0 0.819152 -0.573576
    outer loop
      vertex -28 16 3.71872
      vertex -18 13.3961 0
      vertex -28 13.3961 0
    endloop
  endfacet
  facet normal 0 1 0
    outer loop
      vertex -28 16 3.71872
      vertex -28 16 8.5
      vertex -18 16 3.71872
    endloop
  endfacet
  facet normal 0 1 0
    outer loop
      vertex -18 16 3.71872
      vertex -28 16 8.5
      vertex -18 16 8.5
    endloop
  endfacet
  facet normal 0 -0 1
    outer loop
      vertex -23 7.75 8.5
      vertex -28 5.415 8.5
      vertex -18 5.415 8.5
    endloop
  endfacet
  facet normal 0 -0 1
    outer loop
      vertex -28 16 8.5
      vertex -28 5.415 8.5
      vertex -24.5155 8.625 8.5
    endloop
  endfacet
  facet normal 0 0 1
    outer loop
      vertex -28 16 8.5
      vertex -24.5155 8.625 8.5
      vertex -24.75 9.5 8.5
    endloop
  endfacet
  facet normal 0 0 1
    outer loop
      vertex -28 16 8.5
      vertex -24.75 9.5 8.5
      vertex -24.5155 10.375 8.5
    endloop
  endfacet
  facet normal 0 0 1
    outer loop
      vertex -21.4845 10.375 8.5
      vertex -21.25 9.5 8.5
      vertex -18 5.415 8.5
    endloop
  endfacet
  facet normal 0 0 1
    outer loop
      vertex -28 16 8.5
      vertex -24.5155 10.375 8.5
      vertex -23.875 11.0155 8.5
    endloop
  endfacet
  facet normal 0 -0 1
    outer loop
      vertex -22.125 7.98446 8.5
      vertex -23 7.75 8.5
      vertex -18 5.415 8.5
    endloop
  endfacet
  facet normal 0 0 1
    outer loop
      vertex -18 16 8.5
      vertex -28 16 8.5
      vertex -23 11.25 8.5
    endloop
  endfacet
  facet normal 0 0 1
    outer loop
      vertex -18 16 8.5
      vertex -23 11.25 8.5
      vertex -22.125 11.0155 8.5
    endloop
  endfacet
  facet normal 0 0 1
    outer loop
      vertex -18 16 8.5
      vertex -21.4845 10.375 8.5
      vertex -18 5.415 8.5
    endloop
  endfacet
  facet normal 0 0 1
    outer loop
      vertex -18 16 8.5
      vertex -22.125 11.0155 8.5
      vertex -21.4845 10.375 8.5
    endloop
  endfacet
  facet normal 0 -0 1
    outer loop
      vertex -23.875 7.98446 8.5
      vertex -28 5.415 8.5
      vertex -23 7.75 8.5
    endloop
  endfacet
  facet normal 0 -0 1
    outer loop
      vertex -24.5155 8.625 8.5
      vertex -28 5.415 8.5
      vertex -23.875 7.98446 8.5
    endloop
  endfacet
  facet normal 0 -0 1
    outer loop
      vertex -21.4845 8.625 8.5
      vertex -22.125 7.98446 8.5
      vertex -18 5.415 8.5
    endloop
  endfacet
  facet normal 0 0 1
    outer loop
      vertex -23.875 11.0155 8.5
      vertex -23 11.25 8.5
      vertex -28 16 8.5
    endloop
  endfacet
  facet normal 0 -0 1
    outer loop
      vertex -21.25 9.5 8.5
      vertex -21.4845 8.625 8.5
      vertex -18 5.415 8.5
    endloop
  endfacet
  facet normal 0 1 0
    outer loop
      vertex -28 5.415 8.5
      vertex -28 5.415 18
      vertex -18 5.415 8.5
    endloop
  endfacet
  facet normal 0 1 0
    outer loop
      vertex -18 5.415 8.5
      vertex -28 5.415 18
      vertex -18 5.415 18
    endloop
  endfacet
  facet normal 0 -0 1
    outer loop
      vertex -28 5.415 18
      vertex -28 4.95151 18
      vertex -25.695 4.95151 18
    endloop
  endfacet
  facet normal -0 0 1
    outer loop
      vertex -22.7 4.95151 18
      vertex -28 5.415 18
      vertex -25.695 4.95151 18
    endloop
  endfacet
  facet normal 0 0 1
    outer loop
      vertex -25.695 3.86751 18
      vertex -22.7 3.86751 18
      vertex -25.695 4.95151 18
    endloop
  endfacet
  facet normal 0 0 1
    outer loop
      vertex -22.7 3.86751 18
      vertex -22.7 4.95151 18
      vertex -25.695 4.95151 18
    endloop
  endfacet
  facet normal 0 0 1
    outer loop
      vertex -22.7 4.95151 18
      vertex -18 4.95151 18
      vertex -28 5.415 18
    endloop
  endfacet
  facet normal 0 0 1
    outer loop
      vertex -18 4.95151 18
      vertex -18 5.415 18
      vertex -28 5.415 18
    endloop
  endfacet
  facet normal -3.62127e-16 -0.92388 0.382683
    outer loop
      vertex -25.695 4.78672 17.6021
      vertex -25.695 4.95151 18
      vertex -28 4.95151 18
    endloop
  endfacet
  facet normal 0 -0.92388 0.382683
    outer loop
      vertex -28 4.78672 17.6021
      vertex -25.695 4.78672 17.6021
      vertex -28 4.95151 18
    endloop
  endfacet
  facet normal 0 -0.88701 0.461749
    outer loop
      vertex -25.695 4.46284 16.98
      vertex -25.695 4.78672 17.6021
      vertex -28 4.78672 17.6021
    endloop
  endfacet
  facet normal 0 -0.88701 0.461749
    outer loop
      vertex -28 4.46284 16.98
      vertex -25.695 4.46284 16.98
      vertex -28 4.78672 17.6021
    endloop
  endfacet
  facet normal 0 -0.843392 0.5373
    outer loop
      vertex -25.695 4.08598 16.3884
      vertex -25.695 4.46284 16.98
      vertex -28 4.46284 16.98
    endloop
  endfacet
  facet normal -8.28144e-16 -0.843392 0.5373
    outer loop
      vertex -28 4.08598 16.3884
      vertex -25.695 4.08598 16.3884
      vertex -28 4.46284 16.98
    endloop
  endfacet
  facet normal -9.34932e-16 -0.793353 0.608762
    outer loop
      vertex -25.695 3.659 15.832
      vertex -25.695 4.08598 16.3884
      vertex -28 4.08598 16.3884
    endloop
  endfacet
  facet normal -4.69145e-16 -0.793353 0.608762
    outer loop
      vertex -28 3.659 15.832
      vertex -25.695 3.659 15.832
      vertex -28 4.08598 16.3884
    endloop
  endfacet
  facet normal -5.24473e-16 -0.737278 0.675589
    outer loop
      vertex -25.695 3.18514 15.3149
      vertex -25.695 3.659 15.832
      vertex -28 3.659 15.832
    endloop
  endfacet
  facet normal 0 -0.737278 0.675589
    outer loop
      vertex -28 3.18514 15.3149
      vertex -25.695 3.18514 15.3149
      vertex -28 3.659 15.832
    endloop
  endfacet
  facet normal 0 -0.675589 0.737278
    outer loop
      vertex -25.695 2.66801 14.841
      vertex -25.695 3.18514 15.3149
      vertex -28 3.18514 15.3149
    endloop
  endfacet
  facet normal 0 -0.675589 0.737278
    outer loop
      vertex -28 2.66801 14.841
      vertex -25.695 2.66801 14.841
      vertex -28 3.18514 15.3149
    endloop
  endfacet
  facet normal 0 -0.608762 0.793353
    outer loop
      vertex -25.695 2.11156 14.414
      vertex -25.695 2.66801 14.841
      vertex -28 2.66801 14.841
    endloop
  endfacet
  facet normal 0 -0.608762 0.793353
    outer loop
      vertex -28 2.11156 14.414
      vertex -25.695 2.11156 14.414
      vertex -28 2.66801 14.841
    endloop
  endfacet
  facet normal 0 -0.5373 0.843392
    outer loop
      vertex -25.695 1.52 14.0372
      vertex -25.695 2.11156 14.414
      vertex -28 2.11156 14.414
    endloop
  endfacet
  facet normal -6.49963e-16 -0.5373 0.843392
    outer loop
      vertex -28 1.52 14.0372
      vertex -25.695 1.52 14.0372
      vertex -28 2.11156 14.414
    endloop
  endfacet
  facet normal -6.84096e-16 -0.461749 0.88701
    outer loop
      vertex -25.695 0.897851 13.7133
      vertex -25.695 1.52 14.0372
      vertex -28 1.52 14.0372
    endloop
  endfacet
  facet normal -6.83578e-16 -0.461749 0.88701
    outer loop
      vertex -28 0.897851 13.7133
      vertex -25.695 0.897851 13.7133
      vertex -28 1.52 14.0372
    endloop
  endfacet
  facet normal -7.06899e-16 -0.382683 0.92388
    outer loop
      vertex -25.695 0.249842 13.4449
      vertex -25.695 0.897851 13.7133
      vertex -28 0.897851 13.7133
    endloop
  endfacet
  facet normal -7.11991e-16 -0.382683 0.92388
    outer loop
      vertex -28 0.249842 13.4449
      vertex -25.695 0.249842 13.4449
      vertex -28 0.897851 13.7133
    endloop
  endfacet
  facet normal -7.183e-16 -0.300706 0.953717
    outer loop
      vertex -25.695 -0.419095 13.234
      vertex -25.695 0.249842 13.4449
      vertex -28 0.249842 13.4449
    endloop
  endfacet
  facet normal -7.34986e-16 -0.300706 0.953717
    outer loop
      vertex -28 -0.419095 13.234
      vertex -25.695 -0.419095 13.234
      vertex -28 0.249842 13.4449
    endloop
  endfacet
  facet normal -7.52505e-16 -0.216439 0.976296
    outer loop
      vertex -25.695 -1.10387 13.0821
      vertex -25.695 -0.419095 13.234
      vertex -28 -0.419095 13.234
    endloop
  endfacet
  facet normal -7.52386e-16 -0.216439 0.976296
    outer loop
      vertex -28 -1.10387 13.0821
      vertex -25.695 -1.10387 13.0821
      vertex -28 -0.419095 13.234
    endloop
  endfacet
  facet normal -7.63907e-16 -0.130526 0.991445
    outer loop
      vertex -25.695 -1.79927 12.9906
      vertex -25.695 -1.10387 13.0821
      vertex -28 -1.10387 13.0821
    endloop
  endfacet
  facet normal 0 -0.130526 0.991445
    outer loop
      vertex -28 -1.79927 12.9906
      vertex -25.695 -1.79927 12.9906
      vertex -28 -1.10387 13.0821
    endloop
  endfacet
  facet normal 0 -0.0436199 0.999048
    outer loop
      vertex -25.695 -2.5 12.96
      vertex -25.695 -1.79927 12.9906
      vertex -28 -1.79927 12.9906
    endloop
  endfacet
  facet normal 0 -0.0436199 0.999048
    outer loop
      vertex -28 -2.5 12.96
      vertex -25.695 -2.5 12.96
      vertex -28 -1.79927 12.9906
    endloop
  endfacet
  facet normal 0 0.0436199 0.999048
    outer loop
      vertex -25.695 -3.20073 12.9906
      vertex -25.695 -2.5 12.96
      vertex -28 -2.5 12.96
    endloop
  endfacet
  facet normal 0 0.0436199 0.999048
    outer loop
      vertex -28 -3.20073 12.9906
      vertex -25.695 -3.20073 12.9906
      vertex -28 -2.5 12.96
    endloop
  endfacet
  facet normal 0 0.130526 0.991445
    outer loop
      vertex -25.695 -3.89613 13.0821
      vertex -25.695 -3.20073 12.9906
      vertex -28 -3.20073 12.9906
    endloop
  endfacet
  facet normal -7.64061e-16 0.130526 0.991445
    outer loop
      vertex -28 -3.89613 13.0821
      vertex -25.695 -3.89613 13.0821
      vertex -28 -3.20073 12.9906
    endloop
  endfacet
  facet normal -7.63907e-16 0.216439 0.976296
    outer loop
      vertex -25.695 -4.5809 13.234
      vertex -25.695 -3.89613 13.0821
      vertex -28 -3.89613 13.0821
    endloop
  endfacet
  facet normal -7.52386e-16 0.216439 0.976296
    outer loop
      vertex -28 -4.5809 13.234
      vertex -25.695 -4.5809 13.234
      vertex -28 -3.89613 13.0821
    endloop
  endfacet
  facet normal -7.41103e-16 0.300706 0.953717
    outer loop
      vertex -25.695 -5.24984 13.4449
      vertex -25.695 -4.5809 13.234
      vertex -28 -4.5809 13.234
    endloop
  endfacet
  facet normal -7.34986e-16 0.300706 0.953717
    outer loop
      vertex -28 -5.24984 13.4449
      vertex -25.695 -5.24984 13.4449
      vertex -28 -4.5809 13.234
    endloop
  endfacet
  facet normal -7.29702e-16 0.382683 0.92388
    outer loop
      vertex -25.695 -5.89785 13.7133
      vertex -25.695 -5.24984 13.4449
      vertex -28 -5.24984 13.4449
    endloop
  endfacet
  facet normal -7.11991e-16 0.382683 0.92388
    outer loop
      vertex -28 -5.89785 13.7133
      vertex -25.695 -5.89785 13.7133
      vertex -28 -5.24984 13.4449
    endloop
  endfacet
  facet normal -6.84096e-16 0.461749 0.88701
    outer loop
      vertex -25.695 -6.52 14.0372
      vertex -25.695 -5.89785 13.7133
      vertex -28 -5.89785 13.7133
    endloop
  endfacet
  facet normal -6.83578e-16 0.461749 0.88701
    outer loop
      vertex -28 -6.52 14.0372
      vertex -25.695 -6.52 14.0372
      vertex -28 -5.89785 13.7133
    endloop
  endfacet
  facet normal -6.61292e-16 0.5373 0.843392
    outer loop
      vertex -25.695 -7.11156 14.414
      vertex -25.695 -6.52 14.0372
      vertex -28 -6.52 14.0372
    endloop
  endfacet
  facet normal 0 0.5373 0.843392
    outer loop
      vertex -28 -7.11156 14.414
      vertex -25.695 -7.11156 14.414
      vertex -28 -6.52 14.0372
    endloop
  endfacet
  facet normal 0 0.608762 0.793353
    outer loop
      vertex -25.695 -7.66801 14.841
      vertex -25.695 -7.11156 14.414
      vertex -28 -7.11156 14.414
    endloop
  endfacet
  facet normal 0 0.608762 0.793353
    outer loop
      vertex -28 -7.66801 14.841
      vertex -25.695 -7.66801 14.841
      vertex -28 -7.11156 14.414
    endloop
  endfacet
  facet normal 0 0.675589 0.737278
    outer loop
      vertex -25.695 -8.18514 15.3149
      vertex -25.695 -7.66801 14.841
      vertex -28 -7.66801 14.841
    endloop
  endfacet
  facet normal 0 0.675589 0.737278
    outer loop
      vertex -28 -8.18514 15.3149
      vertex -25.695 -8.18514 15.3149
      vertex -28 -7.66801 14.841
    endloop
  endfacet
  facet normal -0 0.737278 0.675589
    outer loop
      vertex -25.695 -8.18514 15.3149
      vertex -28 -8.18514 15.3149
      vertex -25.695 -8.659 15.832
    endloop
  endfacet
  facet normal -5.20645e-16 0.737278 0.675589
    outer loop
      vertex -25.695 -8.659 15.832
      vertex -28 -8.18514 15.3149
      vertex -28 -8.659 15.832
    endloop
  endfacet
  facet normal -4.69145e-16 0.793353 0.608762
    outer loop
      vertex -25.695 -8.659 15.832
      vertex -28 -8.659 15.832
      vertex -25.695 -9.08598 16.3884
    endloop
  endfacet
  facet normal -9.38289e-16 0.793353 0.608762
    outer loop
      vertex -25.695 -9.08598 16.3884
      vertex -28 -8.659 15.832
      vertex -28 -9.08598 16.3884
    endloop
  endfacet
  facet normal -8.28144e-16 0.843392 0.5373
    outer loop
      vertex -25.695 -9.08598 16.3884
      vertex -28 -9.08598 16.3884
      vertex -25.695 -9.46284 16.98
    endloop
  endfacet
  facet normal -0 0.843392 0.5373
    outer loop
      vertex -25.695 -9.46284 16.98
      vertex -28 -9.08598 16.3884
      vertex -28 -9.46284 16.98
    endloop
  endfacet
  facet normal -0 0.88701 0.461749
    outer loop
      vertex -25.695 -9.46284 16.98
      vertex -28 -9.46284 16.98
      vertex -25.695 -9.78671 17.6021
    endloop
  endfacet
  facet normal -0 0.88701 0.461749
    outer loop
      vertex -25.695 -9.78671 17.6021
      vertex -28 -9.46284 16.98
      vertex -28 -9.78671 17.6021
    endloop
  endfacet
  facet normal -0 0.92388 0.382683
    outer loop
      vertex -25.695 -9.78671 17.6021
      vertex -28 -9.78671 17.6021
      vertex -25.695 -9.95151 18
    endloop
  endfacet
  facet normal -7.11991e-16 0.92388 0.382683
    outer loop
      vertex -25.695 -9.95151 18
      vertex -28 -9.78671 17.6021
      vertex -28 -9.95151 18
    endloop
  endfacet
  facet normal 0 -0 1
    outer loop
      vertex -28 -9.95151 18
      vertex -28 -10.415 18
      vertex -18 -10.415 18
    endloop
  endfacet
  facet normal 0 -0 1
    outer loop
      vertex -25.695 -8.86751 18
      vertex -25.695 -9.95151 18
      vertex -22.7 -8.86751 18
    endloop
  endfacet
  facet normal 0 -0 1
    outer loop
      vertex -22.7 -9.95151 18
      vertex -28 -9.95151 18
      vertex -18 -10.415 18
    endloop
  endfacet
  facet normal 0 0 1
    outer loop
      vertex -18 -9.95151 18
      vertex -22.7 -9.95151 18
      vertex -18 -10.415 18
    endloop
  endfacet
  facet normal -0 0 3.35162e-16
    outer loop
      vertex -22.7 -9.95151 18
      vertex -25.695 -9.95151 18
      vertex -28 -9.95151 18
    endloop
  endfacet
  facet normal 0 0 1
    outer loop
      vertex -22.7 -9.95151 18
      vertex -22.7 -8.86751 18
      vertex -25.695 -9.95151 18
    endloop
  endfacet
  facet normal 0 -1 0
    outer loop
      vertex -28 -10.415 18
      vertex -28 -10.415 8.5
      vertex -18 -10.415 8.5
    endloop
  endfacet
  facet normal 0 -1 0
    outer loop
      vertex -18 -10.415 18
      vertex -28 -10.415 18
      vertex -18 -10.415 8.5
    endloop
  endfacet
  facet normal 0 -0 1
    outer loop
      vertex -23.875 -16.0155 8.5
      vertex -28 -21 8.5
      vertex -18 -21 8.5
    endloop
  endfacet
  facet normal 0 -0 1
    outer loop
      vertex -28 -10.415 8.5
      vertex -28 -21 8.5
      vertex -24.5155 -15.375 8.5
    endloop
  endfacet
  facet normal 0 0 1
    outer loop
      vertex -23 -12.75 8.5
      vertex -22.125 -12.9845 8.5
      vertex -18 -10.415 8.5
    endloop
  endfacet
  facet normal 0 0 1
    outer loop
      vertex -28 -10.415 8.5
      vertex -24.5155 -15.375 8.5
      vertex -24.75 -14.5 8.5
    endloop
  endfacet
  facet normal -0 0 1
    outer loop
      vertex -23.875 -12.9845 8.5
      vertex -28 -10.415 8.5
      vertex -24.5155 -13.625 8.5
    endloop
  endfacet
  facet normal 0 0 1
    outer loop
      vertex -18 -10.415 8.5
      vertex -28 -10.415 8.5
      vertex -23.875 -12.9845 8.5
    endloop
  endfacet
  facet normal 0 -0 1
    outer loop
      vertex -21.25 -14.5 8.5
      vertex -21.4845 -15.375 8.5
      vertex -18 -21 8.5
    endloop
  endfacet
  facet normal 0 0 1
    outer loop
      vertex -18 -10.415 8.5
      vertex -23.875 -12.9845 8.5
      vertex -23 -12.75 8.5
    endloop
  endfacet
  facet normal 0 0 1
    outer loop
      vertex -18 -10.415 8.5
      vertex -21.4845 -13.625 8.5
      vertex -18 -21 8.5
    endloop
  endfacet
  facet normal 0 0 1
    outer loop
      vertex -18 -10.415 8.5
      vertex -22.125 -12.9845 8.5
      vertex -21.4845 -13.625 8.5
    endloop
  endfacet
  facet normal 0 0 1
    outer loop
      vertex -21.4845 -13.625 8.5
      vertex -21.25 -14.5 8.5
      vertex -18 -21 8.5
    endloop
  endfacet
  facet normal 0 -0 1
    outer loop
      vertex -21.4845 -15.375 8.5
      vertex -22.125 -16.0155 8.5
      vertex -18 -21 8.5
    endloop
  endfacet
  facet normal 0 -0 1
    outer loop
      vertex -24.5155 -15.375 8.5
      vertex -28 -21 8.5
      vertex -23.875 -16.0155 8.5
    endloop
  endfacet
  facet normal -0 -0 1
    outer loop
      vertex -23 -16.25 8.5
      vertex -23.875 -16.0155 8.5
      vertex -18 -21 8.5
    endloop
  endfacet
  facet normal 0 0 1
    outer loop
      vertex -24.75 -14.5 8.5
      vertex -24.5155 -13.625 8.5
      vertex -28 -10.415 8.5
    endloop
  endfacet
  facet normal 0 -0 1
    outer loop
      vertex -22.125 -16.0155 8.5
      vertex -23 -16.25 8.5
      vertex -18 -21 8.5
    endloop
  endfacet
  facet normal 1 0 -0
    outer loop
      vertex -18 -21 8.5
      vertex -18 -21 3.71872
      vertex -18 -18.3961 0
    endloop
  endfacet
  facet normal 1 -0 0
    outer loop
      vertex -18 16 3.71872
      vertex -18 -21 8.5
      vertex -18 13.3961 0
    endloop
  endfacet
  facet normal 1 -0 0
    outer loop
      vertex -18 13.3961 0
      vertex -18 -21 8.5
      vertex -18 -18.3961 0
    endloop
  endfacet
  facet normal 1 0 -0
    outer loop
      vertex -18 5.415 8.5
      vertex -18 -10.415 8.5
      vertex -18 16 3.71872
    endloop
  endfacet
  facet normal 1 0 -0
    outer loop
      vertex -18 -10.415 8.5
      vertex -18 -21 8.5
      vertex -18 16 3.71872
    endloop
  endfacet
  facet normal 1 0 0
    outer loop
      vertex -18 16 8.5
      vertex -18 5.415 8.5
      vertex -18 16 3.71872
    endloop
  endfacet
  facet normal 1 0 0
    outer loop
      vertex -18 5.415 18
      vertex -18 4.78672 17.6021
      vertex -18 5.415 8.5
    endloop
  endfacet
  facet normal 1 0 -0
    outer loop
      vertex -18 4.78672 17.6021
      vertex -18 4.46284 16.98
      vertex -18 5.415 8.5
    endloop
  endfacet
  facet normal 1 0 -0
    outer loop
      vertex -18 4.46284 16.98
      vertex -18 4.08598 16.3884
      vertex -18 5.415 8.5
    endloop
  endfacet
  facet normal 1 0 -0
    outer loop
      vertex -18 4.08598 16.3884
      vertex -18 3.659 15.832
      vertex -18 5.415 8.5
    endloop
  endfacet
  facet normal 1 0 -0
    outer loop
      vertex -18 3.659 15.832
      vertex -18 3.18514 15.3149
      vertex -18 5.415 8.5
    endloop
  endfacet
  facet normal 1 0 -0
    outer loop
      vertex -18 3.18514 15.3149
      vertex -18 2.66801 14.841
      vertex -18 5.415 8.5
    endloop
  endfacet
  facet normal 1 0 -0
    outer loop
      vertex -18 2.66801 14.841
      vertex -18 2.11156 14.414
      vertex -18 5.415 8.5
    endloop
  endfacet
  facet normal 1 0 -0
    outer loop
      vertex -18 2.11156 14.414
      vertex -18 1.52 14.0372
      vertex -18 5.415 8.5
    endloop
  endfacet
  facet normal 1 0 -0
    outer loop
      vertex -18 1.52 14.0372
      vertex -18 0.897851 13.7133
      vertex -18 5.415 8.5
    endloop
  endfacet
  facet normal 1 0 -0
    outer loop
      vertex -18 0.897851 13.7133
      vertex -18 0.249842 13.4449
      vertex -18 5.415 8.5
    endloop
  endfacet
  facet normal 1 0 -0
    outer loop
      vertex -18 0.249842 13.4449
      vertex -18 -0.419095 13.234
      vertex -18 5.415 8.5
    endloop
  endfacet
  facet normal 1 0 0
    outer loop
      vertex -18 -10.415 18
      vertex -18 -9.46284 16.98
      vertex -18 -9.78671 17.6021
    endloop
  endfacet
  facet normal 1 0 -0
    outer loop
      vertex -18 -0.419095 13.234
      vertex -18 -10.415 8.5
      vertex -18 5.415 8.5
    endloop
  endfacet
  facet normal 1 0 0
    outer loop
      vertex -18 -10.415 18
      vertex -18 -9.78671 17.6021
      vertex -18 -9.95151 18
    endloop
  endfacet
  facet normal 1 0 -0
    outer loop
      vertex -18 4.95151 18
      vertex -18 4.78672 17.6021
      vertex -18 5.415 18
    endloop
  endfacet
  facet normal 1 0 0
    outer loop
      vertex -18 -10.415 18
      vertex -18 -9.08598 16.3884
      vertex -18 -9.46284 16.98
    endloop
  endfacet
  facet normal 1 0 0
    outer loop
      vertex -18 -10.415 18
      vertex -18 -8.659 15.832
      vertex -18 -9.08598 16.3884
    endloop
  endfacet
  facet normal 1 0 -0
    outer loop
      vertex -18 -1.10387 13.0821
      vertex -18 -10.415 8.5
      vertex -18 -0.419095 13.234
    endloop
  endfacet
  facet normal 1 0 -0
    outer loop
      vertex -18 -1.79927 12.9906
      vertex -18 -10.415 8.5
      vertex -18 -1.10387 13.0821
    endloop
  endfacet
  facet normal 1 0 -0
    outer loop
      vertex -18 -2.5 12.96
      vertex -18 -10.415 8.5
      vertex -18 -1.79927 12.9906
    endloop
  endfacet
  facet normal 1 0 -0
    outer loop
      vertex -18 -3.20073 12.9906
      vertex -18 -10.415 8.5
      vertex -18 -2.5 12.96
    endloop
  endfacet
  facet normal 1 0 -0
    outer loop
      vertex -18 -3.89613 13.0821
      vertex -18 -10.415 8.5
      vertex -18 -3.20073 12.9906
    endloop
  endfacet
  facet normal 1 0 -0
    outer loop
      vertex -18 -4.5809 13.234
      vertex -18 -10.415 8.5
      vertex -18 -3.89613 13.0821
    endloop
  endfacet
  facet normal 1 0 -0
    outer loop
      vertex -18 -5.24984 13.4449
      vertex -18 -10.415 8.5
      vertex -18 -4.5809 13.234
    endloop
  endfacet
  facet normal 1 0 -0
    outer loop
      vertex -18 -5.89785 13.7133
      vertex -18 -10.415 8.5
      vertex -18 -5.24984 13.4449
    endloop
  endfacet
  facet normal 1 0 -0
    outer loop
      vertex -18 -6.52 14.0372
      vertex -18 -10.415 8.5
      vertex -18 -5.89785 13.7133
    endloop
  endfacet
  facet normal 1 0 -0
    outer loop
      vertex -18 -7.11156 14.414
      vertex -18 -10.415 8.5
      vertex -18 -6.52 14.0372
    endloop
  endfacet
  facet normal 1 0 -0
    outer loop
      vertex -18 -7.66801 14.841
      vertex -18 -10.415 8.5
      vertex -18 -7.11156 14.414
    endloop
  endfacet
  facet normal 1 0 -0
    outer loop
      vertex -18 -8.18514 15.3149
      vertex -18 -10.415 8.5
      vertex -18 -7.66801 14.841
    endloop
  endfacet
  facet normal 1 0 -0
    outer loop
      vertex -18 -8.659 15.832
      vertex -18 -10.415 8.5
      vertex -18 -8.18514 15.3149
    endloop
  endfacet
  facet normal 1 0 -0
    outer loop
      vertex -18 -10.415 18
      vertex -18 -10.415 8.5
      vertex -18 -8.659 15.832
    endloop
  endfacet
  facet normal 0.965926 -0.25882 0
    outer loop
      vertex -24.5155 -13.625 0
      vertex -24.5155 -13.625 8.5
      vertex -24.75 -14.5 8.5
    endloop
  endfacet
  facet normal 0.965926 -0.25882 0
    outer loop
      vertex -24.75 -14.5 0
      vertex -24.5155 -13.625 0
      vertex -24.75 -14.5 8.5
    endloop
  endfacet
  facet normal 0.965926 0.25882 0
    outer loop
      vertex -24.75 -14.5 8.5
      vertex -24.5155 -15.375 8.5
      vertex -24.5155 -15.375 0
    endloop
  endfacet
  facet normal 0.965926 0.25882 0
    outer loop
      vertex -24.75 -14.5 0
      vertex -24.75 -14.5 8.5
      vertex -24.5155 -15.375 0
    endloop
  endfacet
  facet normal 0.707107 -0.707107 0
    outer loop
      vertex -23.875 -12.9845 0
      vertex -23.875 -12.9845 8.5
      vertex -24.5155 -13.625 8.5
    endloop
  endfacet
  facet normal 0.707107 -0.707107 0
    outer loop
      vertex -24.5155 -13.625 0
      vertex -23.875 -12.9845 0
      vertex -24.5155 -13.625 8.5
    endloop
  endfacet
  facet normal 0.25882 -0.965926 0
    outer loop
      vertex -23 -12.75 0
      vertex -23 -12.75 8.5
      vertex -23.875 -12.9845 8.5
    endloop
  endfacet
  facet normal 0.25882 -0.965926 0
    outer loop
      vertex -23.875 -12.9845 0
      vertex -23 -12.75 0
      vertex -23.875 -12.9845 8.5
    endloop
  endfacet
  facet normal -0.25882 -0.965926 -0
    outer loop
      vertex -22.125 -12.9845 0
      vertex -22.125 -12.9845 8.5
      vertex -23 -12.75 8.5
    endloop
  endfacet
  facet normal -0.25882 -0.965926 -0
    outer loop
      vertex -23 -12.75 0
      vertex -22.125 -12.9845 0
      vertex -23 -12.75 8.5
    endloop
  endfacet
  facet normal -0.707107 -0.707107 -0
    outer loop
      vertex -21.4845 -13.625 0
      vertex -21.4845 -13.625 8.5
      vertex -22.125 -12.9845 8.5
    endloop
  endfacet
  facet normal -0.707107 -0.707107 -0
    outer loop
      vertex -22.125 -12.9845 0
      vertex -21.4845 -13.625 0
      vertex -22.125 -12.9845 8.5
    endloop
  endfacet
  facet normal -0.965926 -0.25882 0
    outer loop
      vertex -21.25 -14.5 8.5
      vertex -21.4845 -13.625 8.5
      vertex -21.25 -14.5 0
    endloop
  endfacet
  facet normal -0.965926 -0.25882 0
    outer loop
      vertex -21.25 -14.5 0
      vertex -21.4845 -13.625 8.5
      vertex -21.4845 -13.625 0
    endloop
  endfacet
  facet normal -0.965926 0.25882 0
    outer loop
      vertex -21.25 -14.5 8.5
      vertex -21.25 -14.5 0
      vertex -21.4845 -15.375 8.5
    endloop
  endfacet
  facet normal -0.965926 0.25882 0
    outer loop
      vertex -21.4845 -15.375 8.5
      vertex -21.25 -14.5 0
      vertex -21.4845 -15.375 0
    endloop
  endfacet
  facet normal -0.707107 0.707107 0
    outer loop
      vertex -21.4845 -15.375 8.5
      vertex -21.4845 -15.375 0
      vertex -22.125 -16.0155 8.5
    endloop
  endfacet
  facet normal -0.707107 0.707107 0
    outer loop
      vertex -22.125 -16.0155 8.5
      vertex -21.4845 -15.375 0
      vertex -22.125 -16.0155 0
    endloop
  endfacet
  facet normal -0.25882 0.965926 0
    outer loop
      vertex -22.125 -16.0155 8.5
      vertex -22.125 -16.0155 0
      vertex -23 -16.25 8.5
    endloop
  endfacet
  facet normal -0.25882 0.965926 0
    outer loop
      vertex -23 -16.25 8.5
      vertex -22.125 -16.0155 0
      vertex -23 -16.25 0
    endloop
  endfacet
  facet normal 0.25882 0.965926 -0
    outer loop
      vertex -23 -16.25 8.5
      vertex -23 -16.25 0
      vertex -23.875 -16.0155 8.5
    endloop
  endfacet
  facet normal 0.25882 0.965926 -0
    outer loop
      vertex -23.875 -16.0155 8.5
      vertex -23 -16.25 0
      vertex -23.875 -16.0155 0
    endloop
  endfacet
  facet normal 0.707107 0.707107 -0
    outer loop
      vertex -23.875 -16.0155 8.5
      vertex -23.875 -16.0155 0
      vertex -24.5155 -15.375 8.5
    endloop
  endfacet
  facet normal 0.707107 0.707107 -0
    outer loop
      vertex -24.5155 -15.375 8.5
      vertex -23.875 -16.0155 0
      vertex -24.5155 -15.375 0
    endloop
  endfacet
  facet normal 0.965926 -0.25882 0
    outer loop
      vertex -24.5155 10.375 0
      vertex -24.5155 10.375 8.5
      vertex -24.75 9.5 8.5
    endloop
  endfacet
  facet normal 0.965926 -0.25882 0
    outer loop
      vertex -24.75 9.5 0
      vertex -24.5155 10.375 0
      vertex -24.75 9.5 8.5
    endloop
  endfacet
  facet normal 0.965926 0.25882 0
    outer loop
      vertex -24.75 9.5 8.5
      vertex -24.5155 8.625 8.5
      vertex -24.5155 8.625 0
    endloop
  endfacet
  facet normal 0.965926 0.25882 0
    outer loop
      vertex -24.75 9.5 0
      vertex -24.75 9.5 8.5
      vertex -24.5155 8.625 0
    endloop
  endfacet
  facet normal 0.707107 -0.707107 0
    outer loop
      vertex -23.875 11.0155 0
      vertex -23.875 11.0155 8.5
      vertex -24.5155 10.375 8.5
    endloop
  endfacet
  facet normal 0.707107 -0.707107 0
    outer loop
      vertex -24.5155 10.375 0
      vertex -23.875 11.0155 0
      vertex -24.5155 10.375 8.5
    endloop
  endfacet
  facet normal 0.25882 -0.965926 0
    outer loop
      vertex -23 11.25 0
      vertex -23 11.25 8.5
      vertex -23.875 11.0155 8.5
    endloop
  endfacet
  facet normal 0.25882 -0.965926 0
    outer loop
      vertex -23.875 11.0155 0
      vertex -23 11.25 0
      vertex -23.875 11.0155 8.5
    endloop
  endfacet
  facet normal -0.25882 -0.965926 -0
    outer loop
      vertex -22.125 11.0155 0
      vertex -22.125 11.0155 8.5
      vertex -23 11.25 8.5
    endloop
  endfacet
  facet normal -0.25882 -0.965926 -0
    outer loop
      vertex -23 11.25 0
      vertex -22.125 11.0155 0
      vertex -23 11.25 8.5
    endloop
  endfacet
  facet normal -0.707107 -0.707107 -0
    outer loop
      vertex -21.4845 10.375 0
      vertex -21.4845 10.375 8.5
      vertex -22.125 11.0155 8.5
    endloop
  endfacet
  facet normal -0.707107 -0.707107 -0
    outer loop
      vertex -22.125 11.0155 0
      vertex -21.4845 10.375 0
      vertex -22.125 11.0155 8.5
    endloop
  endfacet
  facet normal -0.965926 -0.25882 0
    outer loop
      vertex -21.25 9.5 8.5
      vertex -21.4845 10.375 8.5
      vertex -21.25 9.5 0
    endloop
  endfacet
  facet normal -0.965926 -0.25882 0
    outer loop
      vertex -21.25 9.5 0
      vertex -21.4845 10.375 8.5
      vertex -21.4845 10.375 0
    endloop
  endfacet
  facet normal -0.965926 0.25882 0
    outer loop
      vertex -21.25 9.5 8.5
      vertex -21.25 9.5 0
      vertex -21.4845 8.625 8.5
    endloop
  endfacet
  facet normal -0.965926 0.25882 0
    outer loop
      vertex -21.4845 8.625 8.5
      vertex -21.25 9.5 0
      vertex -21.4845 8.625 0
    endloop
  endfacet
  facet normal -0.707107 0.707107 0
    outer loop
      vertex -21.4845 8.625 8.5
      vertex -21.4845 8.625 0
      vertex -22.125 7.98446 8.5
    endloop
  endfacet
  facet normal -0.707107 0.707107 0
    outer loop
      vertex -22.125 7.98446 8.5
      vertex -21.4845 8.625 0
      vertex -22.125 7.98446 0
    endloop
  endfacet
  facet normal -0.25882 0.965926 0
    outer loop
      vertex -22.125 7.98446 8.5
      vertex -22.125 7.98446 0
      vertex -23 7.75 8.5
    endloop
  endfacet
  facet normal -0.25882 0.965926 0
    outer loop
      vertex -23 7.75 8.5
      vertex -22.125 7.98446 0
      vertex -23 7.75 0
    endloop
  endfacet
  facet normal 0.25882 0.965926 -0
    outer loop
      vertex -23 7.75 8.5
      vertex -23 7.75 0
      vertex -23.875 7.98446 8.5
    endloop
  endfacet
  facet normal 0.25882 0.965926 -0
    outer loop
      vertex -23.875 7.98446 8.5
      vertex -23 7.75 0
      vertex -23.875 7.98446 0
    endloop
  endfacet
  facet normal 0.707107 0.707107 -0
    outer loop
      vertex -23.875 7.98446 8.5
      vertex -23.875 7.98446 0
      vertex -24.5155 8.625 8.5
    endloop
  endfacet
  facet normal 0.707107 0.707107 -0
    outer loop
      vertex -24.5155 8.625 8.5
      vertex -23.875 7.98446 0
      vertex -24.5155 8.625 0
    endloop
  endfacet
  facet normal -2.89269e-16 -0.92388 0.382683
    outer loop
      vertex -22.7 4.78672 17.6021
      vertex -18 4.78672 17.6021
      vertex -18 4.95151 18
    endloop
  endfacet
  facet normal 0 -0.92388 0.382683
    outer loop
      vertex -22.7 4.95151 18
      vertex -22.7 4.78672 17.6021
      vertex -18 4.95151 18
    endloop
  endfacet
  facet normal 1 4.90154e-14 3.12263e-14
    outer loop
      vertex -22.7 -9.78671 17.6021
      vertex -22.7 -9.46284 16.98
      vertex -22.7 -9.08598 16.3884
    endloop
  endfacet
  facet normal 1 7.18692e-15 6.58558e-15
    outer loop
      vertex -22.7 -8.18514 15.3149
      vertex -22.7 -9.78671 17.6021
      vertex -22.7 -8.659 15.832
    endloop
  endfacet
  facet normal 1 1.5408e-14 1.1823e-14
    outer loop
      vertex -22.7 -8.659 15.832
      vertex -22.7 -9.78671 17.6021
      vertex -22.7 -9.08598 16.3884
    endloop
  endfacet
  facet normal 1 3.97142e-15 4.33406e-15
    outer loop
      vertex -22.7 -7.66801 14.841
      vertex -22.7 -9.78671 17.6021
      vertex -22.7 -8.18514 15.3149
    endloop
  endfacet
  facet normal 1 2.40099e-15 3.12902e-15
    outer loop
      vertex -22.7 -7.11156 14.414
      vertex -22.7 -9.78671 17.6021
      vertex -22.7 -7.66801 14.841
    endloop
  endfacet
  facet normal 1 1.52529e-15 2.39423e-15
    outer loop
      vertex -22.7 -6.52 14.0372
      vertex -22.7 -9.78671 17.6021
      vertex -22.7 -7.11156 14.414
    endloop
  endfacet
  facet normal 1 9.91947e-16 1.90551e-15
    outer loop
      vertex -22.7 -5.89785 13.7133
      vertex -22.7 -9.78671 17.6021
      vertex -22.7 -6.52 14.0372
    endloop
  endfacet
  facet normal 1 6.45985e-16 1.55955e-15
    outer loop
      vertex -22.7 -5.24984 13.4449
      vertex -22.7 -9.78671 17.6021
      vertex -22.7 -5.89785 13.7133
    endloop
  endfacet
  facet normal 1 4.10798e-16 1.30288e-15
    outer loop
      vertex -22.7 -4.5809 13.234
      vertex -22.7 -9.78671 17.6021
      vertex -22.7 -5.24984 13.4449
    endloop
  endfacet
  facet normal 1 2.4505e-16 1.10535e-15
    outer loop
      vertex -22.7 -3.89613 13.0821
      vertex -22.7 -9.78671 17.6021
      vertex -22.7 -4.5809 13.234
    endloop
  endfacet
  facet normal 1 -1.04737e-14 -1.28637e-14
    outer loop
      vertex -22.7 -6.53798 15.2332
      vertex -22.7 -9.78671 17.6021
      vertex -22.7 -3.89613 13.0821
    endloop
  endfacet
  facet normal 1 -0 -0
    outer loop
      vertex -22.7 -5.47523 14.6196
      vertex -22.7 -6.02 14.9032
      vertex -22.7 -3.20073 12.9906
    endloop
  endfacet
  facet normal 1 -0 -0
    outer loop
      vertex -22.7 -4.32209 14.1999
      vertex -22.7 -4.90782 14.3846
      vertex -22.7 -2.5 12.96
    endloop
  endfacet
  facet normal 1 -0 -0
    outer loop
      vertex -22.7 -3.11358 13.9868
      vertex -22.7 -3.72248 14.067
      vertex -22.7 -1.79927 12.9906
    endloop
  endfacet
  facet normal 1 -0 -0
    outer loop
      vertex -22.7 -2.5 13.96
      vertex -22.7 -3.11358 13.9868
      vertex -22.7 -1.10387 13.0821
    endloop
  endfacet
  facet normal 1 0 -0
    outer loop
      vertex -22.7 -1.88642 13.9868
      vertex -22.7 -2.5 13.96
      vertex -22.7 -0.419095 13.234
    endloop
  endfacet
  facet normal 1 0 -0
    outer loop
      vertex -22.7 -0.677914 14.1999
      vertex -22.7 -1.27752 14.067
      vertex -22.7 0.249842 13.4449
    endloop
  endfacet
  facet normal 1 0 -0
    outer loop
      vertex -22.7 -0.092178 14.3846
      vertex -22.7 -0.677914 14.1999
      vertex -22.7 0.897851 13.7133
    endloop
  endfacet
  facet normal 1 0 -0
    outer loop
      vertex -22.7 0.475233 14.6196
      vertex -22.7 -0.092178 14.3846
      vertex -22.7 1.52 14.0372
    endloop
  endfacet
  facet normal 1 0 -0
    outer loop
      vertex -22.7 1.02 14.9032
      vertex -22.7 0.475233 14.6196
      vertex -22.7 2.11156 14.414
    endloop
  endfacet
  facet normal 1 0 -0
    outer loop
      vertex -22.7 1.53798 15.2332
      vertex -22.7 1.02 14.9032
      vertex -22.7 2.66801 14.841
    endloop
  endfacet
  facet normal 1 0 -0
    outer loop
      vertex -22.7 2.02522 15.607
      vertex -22.7 1.53798 15.2332
      vertex -22.7 3.18514 15.3149
    endloop
  endfacet
  facet normal 1 0 -0
    outer loop
      vertex -22.7 2.47803 16.022
      vertex -22.7 2.02522 15.607
      vertex -22.7 3.659 15.832
    endloop
  endfacet
  facet normal 1 0 -0
    outer loop
      vertex -22.7 3.26683 16.962
      vertex -22.7 2.89295 16.4748
      vertex -22.7 4.08598 16.3884
    endloop
  endfacet
  facet normal 1 -1.04096e-16 6.92513e-15
    outer loop
      vertex -22.7 3.59682 17.48
      vertex -22.7 3.26683 16.962
      vertex -22.7 4.46284 16.98
    endloop
  endfacet
  facet normal 1 -6.08115e-15 -6.63641e-15
    outer loop
      vertex -22.7 -7.02522 15.607
      vertex -22.7 -7.47803 16.022
      vertex -22.7 -9.78671 17.6021
    endloop
  endfacet
  facet normal 1 -6.19296e-16 6.03278e-15
    outer loop
      vertex -22.7 4.78672 17.6021
      vertex -22.7 3.59682 17.48
      vertex -22.7 4.46284 16.98
    endloop
  endfacet
  facet normal 1 0 0
    outer loop
      vertex -22.7 4.46284 16.98
      vertex -22.7 3.26683 16.962
      vertex -22.7 4.08598 16.3884
    endloop
  endfacet
  facet normal 1 -0 0
    outer loop
      vertex -22.7 4.08598 16.3884
      vertex -22.7 2.89295 16.4748
      vertex -22.7 3.659 15.832
    endloop
  endfacet
  facet normal 1 0 -0
    outer loop
      vertex -22.7 2.89295 16.4748
      vertex -22.7 2.47803 16.022
      vertex -22.7 3.659 15.832
    endloop
  endfacet
  facet normal 1 0 0
    outer loop
      vertex -22.7 3.659 15.832
      vertex -22.7 2.02522 15.607
      vertex -22.7 3.18514 15.3149
    endloop
  endfacet
  facet normal 1 0 0
    outer loop
      vertex -22.7 3.18514 15.3149
      vertex -22.7 1.53798 15.2332
      vertex -22.7 2.66801 14.841
    endloop
  endfacet
  facet normal 1 -0 0
    outer loop
      vertex -22.7 2.66801 14.841
      vertex -22.7 1.02 14.9032
      vertex -22.7 2.11156 14.414
    endloop
  endfacet
  facet normal 1 0 0
    outer loop
      vertex -22.7 -8.59682 17.48
      vertex -22.7 -8.86751 18
      vertex -22.7 -9.78671 17.6021
    endloop
  endfacet
  facet normal 1 -0 0
    outer loop
      vertex -22.7 2.11156 14.414
      vertex -22.7 0.475233 14.6196
      vertex -22.7 1.52 14.0372
    endloop
  endfacet
  facet normal 1 -0 0
    outer loop
      vertex -22.7 1.52 14.0372
      vertex -22.7 -0.092178 14.3846
      vertex -22.7 0.897851 13.7133
    endloop
  endfacet
  facet normal 1 -0 0
    outer loop
      vertex -22.7 0.897851 13.7133
      vertex -22.7 -0.677914 14.1999
      vertex -22.7 0.249842 13.4449
    endloop
  endfacet
  facet normal 1 -0 0
    outer loop
      vertex -22.7 0.249842 13.4449
      vertex -22.7 -1.27752 14.067
      vertex -22.7 -0.419095 13.234
    endloop
  endfacet
  facet normal 1 0 -0
    outer loop
      vertex -22.7 -1.27752 14.067
      vertex -22.7 -1.88642 13.9868
      vertex -22.7 -0.419095 13.234
    endloop
  endfacet
  facet normal 1 -0 0
    outer loop
      vertex -22.7 -0.419095 13.234
      vertex -22.7 -2.5 13.96
      vertex -22.7 -1.10387 13.0821
    endloop
  endfacet
  facet normal 1 -0 0
    outer loop
      vertex -22.7 -1.10387 13.0821
      vertex -22.7 -3.11358 13.9868
      vertex -22.7 -1.79927 12.9906
    endloop
  endfacet
  facet normal 1 -0 0
    outer loop
      vertex -22.7 -1.79927 12.9906
      vertex -22.7 -3.72248 14.067
      vertex -22.7 -2.5 12.96
    endloop
  endfacet
  facet normal 1 -0 -0
    outer loop
      vertex -22.7 -3.72248 14.067
      vertex -22.7 -4.32209 14.1999
      vertex -22.7 -2.5 12.96
    endloop
  endfacet
  facet normal 1 0 0
    outer loop
      vertex -22.7 -2.5 12.96
      vertex -22.7 -4.90782 14.3846
      vertex -22.7 -3.20073 12.9906
    endloop
  endfacet
  facet normal 1 -0 -0
    outer loop
      vertex -22.7 -4.90782 14.3846
      vertex -22.7 -5.47523 14.6196
      vertex -22.7 -3.20073 12.9906
    endloop
  endfacet
  facet normal 1 0 0
    outer loop
      vertex -22.7 -3.20073 12.9906
      vertex -22.7 -6.02 14.9032
      vertex -22.7 -3.89613 13.0821
    endloop
  endfacet
  facet normal 1 -0 -0
    outer loop
      vertex -22.7 -6.02 14.9032
      vertex -22.7 -6.53798 15.2332
      vertex -22.7 -3.89613 13.0821
    endloop
  endfacet
  facet normal 1 -2.20095e-14 -2.86834e-14
    outer loop
      vertex -22.7 -7.02522 15.607
      vertex -22.7 -9.78671 17.6021
      vertex -22.7 -6.53798 15.2332
    endloop
  endfacet
  facet normal 1 -4.12763e-15 -3.78228e-15
    outer loop
      vertex -22.7 -7.47803 16.022
      vertex -22.7 -7.89295 16.4748
      vertex -22.7 -9.78671 17.6021
    endloop
  endfacet
  facet normal 1 0 0
    outer loop
      vertex -22.7 -9.95151 18
      vertex -22.7 -9.78671 17.6021
      vertex -22.7 -8.86751 18
    endloop
  endfacet
  facet normal 1 0 0
    outer loop
      vertex -22.7 3.86751 18
      vertex -22.7 4.78672 17.6021
      vertex -22.7 4.95151 18
    endloop
  endfacet
  facet normal 1 0 -0
    outer loop
      vertex -22.7 3.86751 18
      vertex -22.7 3.59682 17.48
      vertex -22.7 4.78672 17.6021
    endloop
  endfacet
  facet normal 1 -3.4536e-15 -2.65003e-15
    outer loop
      vertex -22.7 -7.89295 16.4748
      vertex -22.7 -8.26683 16.962
      vertex -22.7 -9.78671 17.6021
    endloop
  endfacet
  facet normal 1 7.53361e-16 7.33876e-15
    outer loop
      vertex -22.7 -8.26683 16.962
      vertex -22.7 -8.59682 17.48
      vertex -22.7 -9.78671 17.6021
    endloop
  endfacet
  facet normal 0 -0.887011 0.461749
    outer loop
      vertex -25.695 3.59682 17.48
      vertex -22.7 3.59682 17.48
      vertex -22.7 3.86751 18
    endloop
  endfacet
  facet normal -1.31523e-16 -0.887011 0.461749
    outer loop
      vertex -25.695 3.86751 18
      vertex -25.695 3.59682 17.48
      vertex -22.7 3.86751 18
    endloop
  endfacet
  facet normal -1 -0 -0
    outer loop
      vertex -25.695 -6.52 14.0372
      vertex -25.695 -8.26683 16.962
      vertex -25.695 -5.89785 13.7133
    endloop
  endfacet
  facet normal -1 -0 -0
    outer loop
      vertex -25.695 -5.89785 13.7133
      vertex -25.695 -7.89295 16.4748
      vertex -25.695 -5.24984 13.4449
    endloop
  endfacet
  facet normal -1 -0 -0
    outer loop
      vertex -25.695 -5.24984 13.4449
      vertex -25.695 -7.47803 16.022
      vertex -25.695 -4.5809 13.234
    endloop
  endfacet
  facet normal -1 -0 -0
    outer loop
      vertex -25.695 -4.5809 13.234
      vertex -25.695 -7.02522 15.607
      vertex -25.695 -3.89613 13.0821
    endloop
  endfacet
  facet normal -1 -0 -0
    outer loop
      vertex -25.695 -3.89613 13.0821
      vertex -25.695 -6.53798 15.2332
      vertex -25.695 -3.20073 12.9906
    endloop
  endfacet
  facet normal -1 -0 -0
    outer loop
      vertex -25.695 -3.20073 12.9906
      vertex -25.695 -6.02 14.9032
      vertex -25.695 -2.5 12.96
    endloop
  endfacet
  facet normal -1 0 -0
    outer loop
      vertex -25.695 -2.5 12.96
      vertex -25.695 -5.47523 14.6196
      vertex -25.695 -1.79927 12.9906
    endloop
  endfacet
  facet normal -1 0 -0
    outer loop
      vertex -25.695 -1.79927 12.9906
      vertex -25.695 -4.90782 14.3846
      vertex -25.695 -1.10387 13.0821
    endloop
  endfacet
  facet normal -1 0 -0
    outer loop
      vertex -25.695 -1.10387 13.0821
      vertex -25.695 -4.32209 14.1999
      vertex -25.695 -0.419095 13.234
    endloop
  endfacet
  facet normal -1 0 -0
    outer loop
      vertex -25.695 -0.419095 13.234
      vertex -25.695 -3.72248 14.067
      vertex -25.695 0.249842 13.4449
    endloop
  endfacet
  facet normal -1 0 -0
    outer loop
      vertex -25.695 0.249842 13.4449
      vertex -25.695 -3.11358 13.9868
      vertex -25.695 0.897851 13.7133
    endloop
  endfacet
  facet normal -1 0 -0
    outer loop
      vertex -25.695 0.897851 13.7133
      vertex -25.695 -2.5 13.96
      vertex -25.695 1.52 14.0372
    endloop
  endfacet
  facet normal -1 0 -0
    outer loop
      vertex -25.695 1.52 14.0372
      vertex -25.695 -1.88642 13.9868
      vertex -25.695 2.11156 14.414
    endloop
  endfacet
  facet normal -1 0 -0
    outer loop
      vertex -25.695 2.11156 14.414
      vertex -25.695 -1.27752 14.067
      vertex -25.695 2.66801 14.841
    endloop
  endfacet
  facet normal -1 0 -0
    outer loop
      vertex -25.695 2.66801 14.841
      vertex -25.695 -0.677914 14.1999
      vertex -25.695 3.18514 15.3149
    endloop
  endfacet
  facet normal -1 0 -0
    outer loop
      vertex -25.695 3.18514 15.3149
      vertex -25.695 -0.092178 14.3846
      vertex -25.695 3.659 15.832
    endloop
  endfacet
  facet normal -1 0 -0
    outer loop
      vertex -25.695 3.659 15.832
      vertex -25.695 0.475233 14.6196
      vertex -25.695 4.08598 16.3884
    endloop
  endfacet
  facet normal -1 0 -0
    outer loop
      vertex -25.695 4.08598 16.3884
      vertex -25.695 1.02 14.9032
      vertex -25.695 4.46284 16.98
    endloop
  endfacet
  facet normal -1 0 -0
    outer loop
      vertex -25.695 4.46284 16.98
      vertex -25.695 1.53798 15.2332
      vertex -25.695 4.78672 17.6021
    endloop
  endfacet
  facet normal -1 0 -0
    outer loop
      vertex -25.695 4.78672 17.6021
      vertex -25.695 2.02522 15.607
      vertex -25.695 4.95151 18
    endloop
  endfacet
  facet normal -1 0 0
    outer loop
      vertex -25.695 2.02522 15.607
      vertex -25.695 2.47803 16.022
      vertex -25.695 4.95151 18
    endloop
  endfacet
  facet normal -1 0 0
    outer loop
      vertex -25.695 2.47803 16.022
      vertex -25.695 2.89295 16.4748
      vertex -25.695 4.95151 18
    endloop
  endfacet
  facet normal -1 0 0
    outer loop
      vertex -25.695 2.89295 16.4748
      vertex -25.695 3.26683 16.962
      vertex -25.695 4.95151 18
    endloop
  endfacet
  facet normal -1 0 0
    outer loop
      vertex -25.695 4.95151 18
      vertex -25.695 3.59682 17.48
      vertex -25.695 3.86751 18
    endloop
  endfacet
  facet normal -1 0 0
    outer loop
      vertex -25.695 3.26683 16.962
      vertex -25.695 3.59682 17.48
      vertex -25.695 4.95151 18
    endloop
  endfacet
  facet normal -1 0 0
    outer loop
      vertex -25.695 1.53798 15.2332
      vertex -25.695 2.02522 15.607
      vertex -25.695 4.78672 17.6021
    endloop
  endfacet
  facet normal -1 0 0
    outer loop
      vertex -25.695 1.02 14.9032
      vertex -25.695 1.53798 15.2332
      vertex -25.695 4.46284 16.98
    endloop
  endfacet
  facet normal -1 0 0
    outer loop
      vertex -25.695 0.475233 14.6196
      vertex -25.695 1.02 14.9032
      vertex -25.695 4.08598 16.3884
    endloop
  endfacet
  facet normal -1 0 0
    outer loop
      vertex -25.695 -0.092178 14.3846
      vertex -25.695 0.475233 14.6196
      vertex -25.695 3.659 15.832
    endloop
  endfacet
  facet normal -1 0 0
    outer loop
      vertex -25.695 -0.677914 14.1999
      vertex -25.695 -0.092178 14.3846
      vertex -25.695 3.18514 15.3149
    endloop
  endfacet
  facet normal -1 0 0
    outer loop
      vertex -25.695 -1.27752 14.067
      vertex -25.695 -0.677914 14.1999
      vertex -25.695 2.66801 14.841
    endloop
  endfacet
  facet normal -1 0 0
    outer loop
      vertex -25.695 -1.88642 13.9868
      vertex -25.695 -1.27752 14.067
      vertex -25.695 2.11156 14.414
    endloop
  endfacet
  facet normal -1 0 0
    outer loop
      vertex -25.695 -2.5 13.96
      vertex -25.695 -1.88642 13.9868
      vertex -25.695 1.52 14.0372
    endloop
  endfacet
  facet normal -1 0 0
    outer loop
      vertex -25.695 -3.11358 13.9868
      vertex -25.695 -2.5 13.96
      vertex -25.695 0.897851 13.7133
    endloop
  endfacet
  facet normal -1 0 0
    outer loop
      vertex -25.695 -3.72248 14.067
      vertex -25.695 -3.11358 13.9868
      vertex -25.695 0.249842 13.4449
    endloop
  endfacet
  facet normal -1 0 0
    outer loop
      vertex -25.695 -4.32209 14.1999
      vertex -25.695 -3.72248 14.067
      vertex -25.695 -0.419095 13.234
    endloop
  endfacet
  facet normal -1 0 0
    outer loop
      vertex -25.695 -4.90782 14.3846
      vertex -25.695 -4.32209 14.1999
      vertex -25.695 -1.10387 13.0821
    endloop
  endfacet
  facet normal -1 0 0
    outer loop
      vertex -25.695 -5.47523 14.6196
      vertex -25.695 -4.90782 14.3846
      vertex -25.695 -1.79927 12.9906
    endloop
  endfacet
  facet normal -1 0 0
    outer loop
      vertex -25.695 -6.02 14.9032
      vertex -25.695 -5.47523 14.6196
      vertex -25.695 -2.5 12.96
    endloop
  endfacet
  facet normal -1 0 0
    outer loop
      vertex -25.695 -6.53798 15.2332
      vertex -25.695 -6.02 14.9032
      vertex -25.695 -3.20073 12.9906
    endloop
  endfacet
  facet normal -1 0 0
    outer loop
      vertex -25.695 -7.02522 15.607
      vertex -25.695 -6.53798 15.2332
      vertex -25.695 -3.89613 13.0821
    endloop
  endfacet
  facet normal -1 0 0
    outer loop
      vertex -25.695 -7.47803 16.022
      vertex -25.695 -7.02522 15.607
      vertex -25.695 -4.5809 13.234
    endloop
  endfacet
  facet normal -1 0 0
    outer loop
      vertex -25.695 -7.89295 16.4748
      vertex -25.695 -7.47803 16.022
      vertex -25.695 -5.24984 13.4449
    endloop
  endfacet
  facet normal -1 0 0
    outer loop
      vertex -25.695 -8.26683 16.962
      vertex -25.695 -7.89295 16.4748
      vertex -25.695 -5.89785 13.7133
    endloop
  endfacet
  facet normal -1 0 0
    outer loop
      vertex -25.695 -8.59682 17.48
      vertex -25.695 -8.26683 16.962
      vertex -25.695 -6.52 14.0372
    endloop
  endfacet
  facet normal -1 0 0
    outer loop
      vertex -25.695 -8.59682 17.48
      vertex -25.695 -6.52 14.0372
      vertex -25.695 -7.11156 14.414
    endloop
  endfacet
  facet normal -1 0 0
    outer loop
      vertex -25.695 -8.59682 17.48
      vertex -25.695 -7.11156 14.414
      vertex -25.695 -8.86751 18
    endloop
  endfacet
  facet normal -1 0 0
    outer loop
      vertex -25.695 -7.11156 14.414
      vertex -25.695 -7.66801 14.841
      vertex -25.695 -8.86751 18
    endloop
  endfacet
  facet normal -1 0 0
    outer loop
      vertex -25.695 -7.66801 14.841
      vertex -25.695 -8.18514 15.3149
      vertex -25.695 -8.86751 18
    endloop
  endfacet
  facet normal -1 0 0
    outer loop
      vertex -25.695 -8.18514 15.3149
      vertex -25.695 -8.659 15.832
      vertex -25.695 -8.86751 18
    endloop
  endfacet
  facet normal -1 0 0
    outer loop
      vertex -25.695 -8.659 15.832
      vertex -25.695 -9.08598 16.3884
      vertex -25.695 -8.86751 18
    endloop
  endfacet
  facet normal -1 0 -0
    outer loop
      vertex -25.695 -9.08598 16.3884
      vertex -25.695 -9.46284 16.98
      vertex -25.695 -8.86751 18
    endloop
  endfacet
  facet normal -1 0 -0
    outer loop
      vertex -25.695 -9.46284 16.98
      vertex -25.695 -9.78671 17.6021
      vertex -25.695 -8.86751 18
    endloop
  endfacet
  facet normal -1 0 -0
    outer loop
      vertex -25.695 -9.78671 17.6021
      vertex -25.695 -9.95151 18
      vertex -25.695 -8.86751 18
    endloop
  endfacet
  facet normal -0 0.887011 0.461749
    outer loop
      vertex -22.7 -8.59682 17.48
      vertex -25.695 -8.59682 17.48
      vertex -22.7 -8.86751 18
    endloop
  endfacet
  facet normal -0 0.887011 0.461749
    outer loop
      vertex -22.7 -8.86751 18
      vertex -25.695 -8.59682 17.48
      vertex -25.695 -8.86751 18
    endloop
  endfacet
  facet normal -2.89269e-16 0.92388 0.382683
    outer loop
      vertex -18 -9.78671 17.6021
      vertex -22.7 -9.78671 17.6021
      vertex -18 -9.95151 18
    endloop
  endfacet
  facet normal -0 0.92388 0.382683
    outer loop
      vertex -18 -9.95151 18
      vertex -22.7 -9.78671 17.6021
      vertex -22.7 -9.95151 18
    endloop
  endfacet
  facet normal -3.49035e-16 0.88701 0.461749
    outer loop
      vertex -18 -9.46284 16.98
      vertex -22.7 -9.46284 16.98
      vertex -18 -9.78671 17.6021
    endloop
  endfacet
  facet normal -3.49035e-16 0.88701 0.461749
    outer loop
      vertex -18 -9.78671 17.6021
      vertex -22.7 -9.46284 16.98
      vertex -22.7 -9.78671 17.6021
    endloop
  endfacet
  facet normal -0 0.843392 0.5373
    outer loop
      vertex -18 -9.08598 16.3884
      vertex -22.7 -9.08598 16.3884
      vertex -18 -9.46284 16.98
    endloop
  endfacet
  facet normal -4.06143e-16 0.843392 0.5373
    outer loop
      vertex -18 -9.46284 16.98
      vertex -22.7 -9.08598 16.3884
      vertex -22.7 -9.46284 16.98
    endloop
  endfacet
  facet normal -0 0.793353 0.608762
    outer loop
      vertex -18 -8.659 15.832
      vertex -22.7 -8.659 15.832
      vertex -18 -9.08598 16.3884
    endloop
  endfacet
  facet normal -0 0.793353 0.608762
    outer loop
      vertex -18 -9.08598 16.3884
      vertex -22.7 -8.659 15.832
      vertex -22.7 -9.08598 16.3884
    endloop
  endfacet
  facet normal -2.55338e-16 0.737278 0.675589
    outer loop
      vertex -18 -8.18514 15.3149
      vertex -22.7 -8.18514 15.3149
      vertex -18 -8.659 15.832
    endloop
  endfacet
  facet normal -0 0.737278 0.675589
    outer loop
      vertex -18 -8.659 15.832
      vertex -22.7 -8.18514 15.3149
      vertex -22.7 -8.659 15.832
    endloop
  endfacet
  facet normal -2.7898e-16 0.675589 0.737278
    outer loop
      vertex -18 -8.18514 15.3149
      vertex -18 -7.66801 14.841
      vertex -22.7 -7.66801 14.841
    endloop
  endfacet
  facet normal -2.78653e-16 0.675589 0.737278
    outer loop
      vertex -22.7 -8.18514 15.3149
      vertex -18 -8.18514 15.3149
      vertex -22.7 -7.66801 14.841
    endloop
  endfacet
  facet normal -3.02229e-16 0.608762 0.793353
    outer loop
      vertex -18 -7.66801 14.841
      vertex -18 -7.11156 14.414
      vertex -22.7 -7.11156 14.414
    endloop
  endfacet
  facet normal -2.99846e-16 0.608762 0.793353
    outer loop
      vertex -22.7 -7.66801 14.841
      vertex -18 -7.66801 14.841
      vertex -22.7 -7.11156 14.414
    endloop
  endfacet
  facet normal 0 0.5373 0.843392
    outer loop
      vertex -18 -7.11156 14.414
      vertex -18 -6.52 14.0372
      vertex -22.7 -6.52 14.0372
    endloop
  endfacet
  facet normal -3.18758e-16 0.5373 0.843392
    outer loop
      vertex -22.7 -7.11156 14.414
      vertex -18 -7.11156 14.414
      vertex -22.7 -6.52 14.0372
    endloop
  endfacet
  facet normal 0 0.461749 0.88701
    outer loop
      vertex -18 -6.52 14.0372
      vertex -18 -5.89785 13.7133
      vertex -22.7 -5.89785 13.7133
    endloop
  endfacet
  facet normal 0 0.461749 0.88701
    outer loop
      vertex -22.7 -6.52 14.0372
      vertex -18 -6.52 14.0372
      vertex -22.7 -5.89785 13.7133
    endloop
  endfacet
  facet normal 0 0.382683 0.92388
    outer loop
      vertex -18 -5.89785 13.7133
      vertex -18 -5.24984 13.4449
      vertex -22.7 -5.24984 13.4449
    endloop
  endfacet
  facet normal 0 0.382683 0.92388
    outer loop
      vertex -22.7 -5.89785 13.7133
      vertex -18 -5.89785 13.7133
      vertex -22.7 -5.24984 13.4449
    endloop
  endfacet
  facet normal 0 0.300706 0.953717
    outer loop
      vertex -18 -5.24984 13.4449
      vertex -18 -4.5809 13.234
      vertex -22.7 -4.5809 13.234
    endloop
  endfacet
  facet normal 0 0.300706 0.953717
    outer loop
      vertex -22.7 -5.24984 13.4449
      vertex -18 -5.24984 13.4449
      vertex -22.7 -4.5809 13.234
    endloop
  endfacet
  facet normal 0 0.216439 0.976296
    outer loop
      vertex -18 -4.5809 13.234
      vertex -18 -3.89613 13.0821
      vertex -22.7 -3.89613 13.0821
    endloop
  endfacet
  facet normal 0 0.216439 0.976296
    outer loop
      vertex -22.7 -4.5809 13.234
      vertex -18 -4.5809 13.234
      vertex -22.7 -3.89613 13.0821
    endloop
  endfacet
  facet normal -3.7488e-16 0.130526 0.991445
    outer loop
      vertex -18 -3.89613 13.0821
      vertex -18 -3.20073 12.9906
      vertex -22.7 -3.20073 12.9906
    endloop
  endfacet
  facet normal 0 0.130526 0.991445
    outer loop
      vertex -22.7 -3.89613 13.0821
      vertex -18 -3.89613 13.0821
      vertex -22.7 -3.20073 12.9906
    endloop
  endfacet
  facet normal -3.7706e-16 0.0436199 0.999048
    outer loop
      vertex -18 -3.20073 12.9906
      vertex -18 -2.5 12.96
      vertex -22.7 -2.5 12.96
    endloop
  endfacet
  facet normal -3.77589e-16 0.0436199 0.999048
    outer loop
      vertex -22.7 -3.20073 12.9906
      vertex -18 -3.20073 12.9906
      vertex -22.7 -2.5 12.96
    endloop
  endfacet
  facet normal -3.77589e-16 -0.0436199 0.999048
    outer loop
      vertex -22.7 -2.5 12.96
      vertex -18 -2.5 12.96
      vertex -18 -1.79927 12.9906
    endloop
  endfacet
  facet normal -3.77589e-16 -0.0436199 0.999048
    outer loop
      vertex -22.7 -1.79927 12.9906
      vertex -22.7 -2.5 12.96
      vertex -18 -1.79927 12.9906
    endloop
  endfacet
  facet normal -3.74715e-16 -0.130526 0.991445
    outer loop
      vertex -22.7 -1.79927 12.9906
      vertex -18 -1.79927 12.9906
      vertex -18 -1.10387 13.0821
    endloop
  endfacet
  facet normal 0 -0.130526 0.991445
    outer loop
      vertex -22.7 -1.10387 13.0821
      vertex -22.7 -1.79927 12.9906
      vertex -18 -1.10387 13.0821
    endloop
  endfacet
  facet normal 0 -0.216439 0.976296
    outer loop
      vertex -22.7 -1.10387 13.0821
      vertex -18 -1.10387 13.0821
      vertex -18 -0.419095 13.234
    endloop
  endfacet
  facet normal 0 -0.216439 0.976296
    outer loop
      vertex -22.7 -0.419095 13.234
      vertex -22.7 -1.10387 13.0821
      vertex -18 -0.419095 13.234
    endloop
  endfacet
  facet normal 0 -0.300706 0.953717
    outer loop
      vertex -22.7 -0.419095 13.234
      vertex -18 -0.419095 13.234
      vertex -18 0.249842 13.4449
    endloop
  endfacet
  facet normal 0 -0.300706 0.953717
    outer loop
      vertex -22.7 0.249842 13.4449
      vertex -22.7 -0.419095 13.234
      vertex -18 0.249842 13.4449
    endloop
  endfacet
  facet normal 0 -0.382683 0.92388
    outer loop
      vertex -22.7 0.249842 13.4449
      vertex -18 0.249842 13.4449
      vertex -18 0.897851 13.7133
    endloop
  endfacet
  facet normal 0 -0.382683 0.92388
    outer loop
      vertex -22.7 0.897851 13.7133
      vertex -22.7 0.249842 13.4449
      vertex -18 0.897851 13.7133
    endloop
  endfacet
  facet normal 0 -0.461749 0.88701
    outer loop
      vertex -22.7 0.897851 13.7133
      vertex -18 0.897851 13.7133
      vertex -18 1.52 14.0372
    endloop
  endfacet
  facet normal 0 -0.461749 0.88701
    outer loop
      vertex -22.7 1.52 14.0372
      vertex -22.7 0.897851 13.7133
      vertex -18 1.52 14.0372
    endloop
  endfacet
  facet normal 0 -0.5373 0.843392
    outer loop
      vertex -22.7 1.52 14.0372
      vertex -18 1.52 14.0372
      vertex -18 2.11156 14.414
    endloop
  endfacet
  facet normal -3.18758e-16 -0.5373 0.843392
    outer loop
      vertex -22.7 2.11156 14.414
      vertex -22.7 1.52 14.0372
      vertex -18 2.11156 14.414
    endloop
  endfacet
  facet normal -2.99846e-16 -0.608762 0.793353
    outer loop
      vertex -22.7 2.11156 14.414
      vertex -18 2.11156 14.414
      vertex -18 2.66801 14.841
    endloop
  endfacet
  facet normal -2.99846e-16 -0.608762 0.793353
    outer loop
      vertex -22.7 2.66801 14.841
      vertex -22.7 2.11156 14.414
      vertex -18 2.66801 14.841
    endloop
  endfacet
  facet normal -2.78653e-16 -0.675589 0.737278
    outer loop
      vertex -22.7 2.66801 14.841
      vertex -18 2.66801 14.841
      vertex -18 3.18514 15.3149
    endloop
  endfacet
  facet normal -2.78653e-16 -0.675589 0.737278
    outer loop
      vertex -22.7 3.18514 15.3149
      vertex -22.7 2.66801 14.841
      vertex -18 3.18514 15.3149
    endloop
  endfacet
  facet normal -2.55338e-16 -0.737278 0.675589
    outer loop
      vertex -22.7 3.18514 15.3149
      vertex -18 3.18514 15.3149
      vertex -18 3.659 15.832
    endloop
  endfacet
  facet normal 0 -0.737278 0.675589
    outer loop
      vertex -22.7 3.659 15.832
      vertex -22.7 3.18514 15.3149
      vertex -18 3.659 15.832
    endloop
  endfacet
  facet normal 0 -0.793353 0.608762
    outer loop
      vertex -22.7 3.659 15.832
      vertex -18 3.659 15.832
      vertex -18 4.08598 16.3884
    endloop
  endfacet
  facet normal 0 -0.793353 0.608762
    outer loop
      vertex -22.7 4.08598 16.3884
      vertex -22.7 3.659 15.832
      vertex -18 4.08598 16.3884
    endloop
  endfacet
  facet normal 0 -0.843392 0.5373
    outer loop
      vertex -22.7 4.08598 16.3884
      vertex -18 4.08598 16.3884
      vertex -18 4.46284 16.98
    endloop
  endfacet
  facet normal -4.06143e-16 -0.843392 0.5373
    outer loop
      vertex -22.7 4.46284 16.98
      vertex -22.7 4.08598 16.3884
      vertex -18 4.46284 16.98
    endloop
  endfacet
  facet normal -3.49035e-16 -0.88701 0.461749
    outer loop
      vertex -22.7 4.46284 16.98
      vertex -18 4.46284 16.98
      vertex -18 4.78672 17.6021
    endloop
  endfacet
  facet normal -3.49035e-16 -0.88701 0.461749
    outer loop
      vertex -22.7 4.78672 17.6021
      vertex -22.7 4.46284 16.98
      vertex -18 4.78672 17.6021
    endloop
  endfacet
  facet normal -0 0.843391 0.5373
    outer loop
      vertex -22.7 -8.26683 16.962
      vertex -25.695 -8.26683 16.962
      vertex -22.7 -8.59682 17.48
    endloop
  endfacet
  facet normal -0 0.843391 0.5373
    outer loop
      vertex -22.7 -8.59682 17.48
      vertex -25.695 -8.26683 16.962
      vertex -25.695 -8.59682 17.48
    endloop
  endfacet
  facet normal -0 0.793354 0.608761
    outer loop
      vertex -22.7 -7.89295 16.4748
      vertex -25.695 -7.89295 16.4748
      vertex -22.7 -8.26683 16.962
    endloop
  endfacet
  facet normal -0 0.793354 0.608761
    outer loop
      vertex -22.7 -8.26683 16.962
      vertex -25.695 -7.89295 16.4748
      vertex -25.695 -8.26683 16.962
    endloop
  endfacet
  facet normal -0 0.737277 0.67559
    outer loop
      vertex -22.7 -7.47803 16.022
      vertex -25.695 -7.47803 16.022
      vertex -22.7 -7.89295 16.4748
    endloop
  endfacet
  facet normal -0 0.737277 0.67559
    outer loop
      vertex -22.7 -7.89295 16.4748
      vertex -25.695 -7.47803 16.022
      vertex -25.695 -7.89295 16.4748
    endloop
  endfacet
  facet normal 0 0.67559 0.737277
    outer loop
      vertex -22.7 -7.47803 16.022
      vertex -22.7 -7.02522 15.607
      vertex -25.695 -7.02522 15.607
    endloop
  endfacet
  facet normal 0 0.67559 0.737277
    outer loop
      vertex -25.695 -7.47803 16.022
      vertex -22.7 -7.47803 16.022
      vertex -25.695 -7.02522 15.607
    endloop
  endfacet
  facet normal 0 0.608761 0.793354
    outer loop
      vertex -22.7 -7.02522 15.607
      vertex -22.7 -6.53798 15.2332
      vertex -25.695 -6.53798 15.2332
    endloop
  endfacet
  facet normal 0 0.608761 0.793354
    outer loop
      vertex -25.695 -7.02522 15.607
      vertex -22.7 -7.02522 15.607
      vertex -25.695 -6.53798 15.2332
    endloop
  endfacet
  facet normal -5.0757e-16 0.5373 0.843391
    outer loop
      vertex -22.7 -6.53798 15.2332
      vertex -22.7 -6.02 14.9032
      vertex -25.695 -6.02 14.9032
    endloop
  endfacet
  facet normal 0 0.5373 0.843391
    outer loop
      vertex -25.695 -6.53798 15.2332
      vertex -22.7 -6.53798 15.2332
      vertex -25.695 -6.02 14.9032
    endloop
  endfacet
  facet normal -5.2449e-16 0.461749 0.887011
    outer loop
      vertex -22.7 -6.02 14.9032
      vertex -22.7 -5.47523 14.6196
      vertex -25.695 -5.47523 14.6196
    endloop
  endfacet
  facet normal -5.26093e-16 0.461749 0.887011
    outer loop
      vertex -25.695 -6.02 14.9032
      vertex -22.7 -6.02 14.9032
      vertex -25.695 -5.47523 14.6196
    endloop
  endfacet
  facet normal 0 0.382683 0.92388
    outer loop
      vertex -22.7 -5.47523 14.6196
      vertex -22.7 -4.90782 14.3846
      vertex -25.695 -4.90782 14.3846
    endloop
  endfacet
  facet normal -5.4796e-16 0.382683 0.92388
    outer loop
      vertex -25.695 -5.47523 14.6196
      vertex -22.7 -5.47523 14.6196
      vertex -25.695 -4.90782 14.3846
    endloop
  endfacet
  facet normal -5.66786e-16 0.300706 0.953717
    outer loop
      vertex -22.7 -4.90782 14.3846
      vertex -22.7 -4.32209 14.1999
      vertex -25.695 -4.32209 14.1999
    endloop
  endfacet
  facet normal 0 0.300706 0.953717
    outer loop
      vertex -25.695 -4.90782 14.3846
      vertex -22.7 -4.90782 14.3846
      vertex -25.695 -4.32209 14.1999
    endloop
  endfacet
  facet normal 0 0.21644 0.976296
    outer loop
      vertex -22.7 -4.32209 14.1999
      vertex -22.7 -3.72248 14.067
      vertex -25.695 -3.72248 14.067
    endloop
  endfacet
  facet normal -5.79048e-16 0.21644 0.976296
    outer loop
      vertex -25.695 -4.32209 14.1999
      vertex -22.7 -4.32209 14.1999
      vertex -25.695 -3.72248 14.067
    endloop
  endfacet
  facet normal -5.87935e-16 0.130526 0.991445
    outer loop
      vertex -22.7 -3.72248 14.067
      vertex -22.7 -3.11358 13.9868
      vertex -25.695 -3.11358 13.9868
    endloop
  endfacet
  facet normal 0 0.130526 0.991445
    outer loop
      vertex -25.695 -3.72248 14.067
      vertex -22.7 -3.72248 14.067
      vertex -25.695 -3.11358 13.9868
    endloop
  endfacet
  facet normal 0 0.0436189 0.999048
    outer loop
      vertex -22.7 -3.11358 13.9868
      vertex -22.7 -2.5 13.96
      vertex -25.695 -2.5 13.96
    endloop
  endfacet
  facet normal -5.92543e-16 0.0436189 0.999048
    outer loop
      vertex -25.695 -3.11358 13.9868
      vertex -22.7 -3.11358 13.9868
      vertex -25.695 -2.5 13.96
    endloop
  endfacet
  facet normal 0 -0.0436189 0.999048
    outer loop
      vertex -25.695 -2.5 13.96
      vertex -22.7 -2.5 13.96
      vertex -22.7 -1.88642 13.9868
    endloop
  endfacet
  facet normal -5.92543e-16 -0.0436189 0.999048
    outer loop
      vertex -25.695 -1.88642 13.9868
      vertex -25.695 -2.5 13.96
      vertex -22.7 -1.88642 13.9868
    endloop
  endfacet
  facet normal -5.88033e-16 -0.130526 0.991445
    outer loop
      vertex -25.695 -1.88642 13.9868
      vertex -22.7 -1.88642 13.9868
      vertex -22.7 -1.27752 14.067
    endloop
  endfacet
  facet normal 0 -0.130526 0.991445
    outer loop
      vertex -25.695 -1.27752 14.067
      vertex -25.695 -1.88642 13.9868
      vertex -22.7 -1.27752 14.067
    endloop
  endfacet
  facet normal 0 -0.21644 0.976296
    outer loop
      vertex -25.695 -1.27752 14.067
      vertex -22.7 -1.27752 14.067
      vertex -22.7 -0.677914 14.1999
    endloop
  endfacet
  facet normal -5.79048e-16 -0.21644 0.976296
    outer loop
      vertex -25.695 -0.677914 14.1999
      vertex -25.695 -1.27752 14.067
      vertex -22.7 -0.677914 14.1999
    endloop
  endfacet
  facet normal -5.65657e-16 -0.300706 0.953717
    outer loop
      vertex -25.695 -0.677914 14.1999
      vertex -22.7 -0.677914 14.1999
      vertex -22.7 -0.092178 14.3846
    endloop
  endfacet
  facet normal 0 -0.300706 0.953717
    outer loop
      vertex -25.695 -0.092178 14.3846
      vertex -25.695 -0.677914 14.1999
      vertex -22.7 -0.092178 14.3846
    endloop
  endfacet
  facet normal 0 -0.382683 0.92388
    outer loop
      vertex -25.695 -0.092178 14.3846
      vertex -22.7 -0.092178 14.3846
      vertex -22.7 0.475233 14.6196
    endloop
  endfacet
  facet normal -5.4796e-16 -0.382683 0.92388
    outer loop
      vertex -25.695 0.475233 14.6196
      vertex -25.695 -0.092178 14.3846
      vertex -22.7 0.475233 14.6196
    endloop
  endfacet
  facet normal -5.26093e-16 -0.461749 0.887011
    outer loop
      vertex -25.695 0.475233 14.6196
      vertex -22.7 0.475233 14.6196
      vertex -22.7 1.02 14.9032
    endloop
  endfacet
  facet normal -5.26093e-16 -0.461749 0.887011
    outer loop
      vertex -25.695 1.02 14.9032
      vertex -25.695 0.475233 14.6196
      vertex -22.7 1.02 14.9032
    endloop
  endfacet
  facet normal -5.00221e-16 -0.5373 0.843391
    outer loop
      vertex -25.695 1.02 14.9032
      vertex -22.7 1.02 14.9032
      vertex -22.7 1.53798 15.2332
    endloop
  endfacet
  facet normal 0 -0.5373 0.843391
    outer loop
      vertex -25.695 1.53798 15.2332
      vertex -25.695 1.02 14.9032
      vertex -22.7 1.53798 15.2332
    endloop
  endfacet
  facet normal 0 -0.608761 0.793354
    outer loop
      vertex -25.695 1.53798 15.2332
      vertex -22.7 1.53798 15.2332
      vertex -22.7 2.02522 15.607
    endloop
  endfacet
  facet normal 0 -0.608761 0.793354
    outer loop
      vertex -25.695 2.02522 15.607
      vertex -25.695 1.53798 15.2332
      vertex -22.7 2.02522 15.607
    endloop
  endfacet
  facet normal 0 -0.67559 0.737277
    outer loop
      vertex -25.695 2.02522 15.607
      vertex -22.7 2.02522 15.607
      vertex -22.7 2.47803 16.022
    endloop
  endfacet
  facet normal 0 -0.67559 0.737277
    outer loop
      vertex -25.695 2.47803 16.022
      vertex -25.695 2.02522 15.607
      vertex -22.7 2.47803 16.022
    endloop
  endfacet
  facet normal 0 -0.737277 0.67559
    outer loop
      vertex -25.695 2.47803 16.022
      vertex -22.7 2.47803 16.022
      vertex -22.7 2.89295 16.4748
    endloop
  endfacet
  facet normal 0 -0.737277 0.67559
    outer loop
      vertex -25.695 2.89295 16.4748
      vertex -25.695 2.47803 16.022
      vertex -22.7 2.89295 16.4748
    endloop
  endfacet
  facet normal 0 -0.793354 0.608761
    outer loop
      vertex -25.695 2.89295 16.4748
      vertex -22.7 2.89295 16.4748
      vertex -22.7 3.26683 16.962
    endloop
  endfacet
  facet normal 0 -0.793354 0.608761
    outer loop
      vertex -25.695 3.26683 16.962
      vertex -25.695 2.89295 16.4748
      vertex -22.7 3.26683 16.962
    endloop
  endfacet
  facet normal 0 -0.843391 0.5373
    outer loop
      vertex -25.695 3.26683 16.962
      vertex -22.7 3.26683 16.962
      vertex -22.7 3.59682 17.48
    endloop
  endfacet
  facet normal 0 -0.843391 0.5373
    outer loop
      vertex -25.695 3.59682 17.48
      vertex -25.695 3.26683 16.962
      vertex -22.7 3.59682 17.48
    endloop
  endfacet
endsolid OpenSCAD_Model
