solid OpenSCAD_Model
  facet normal -1 0 0
    outer loop
      vertex -28 -20.5 3.36168
      vertex -28 -20.5 8.5
      vertex -28 -18.1461 0
    endloop
  endfacet
  facet normal -1 0 0
    outer loop
      vertex -28 -18.1461 0
      vertex -28 -20.5 8.5
      vertex -28 -10.165 8.5
    endloop
  endfacet
  facet normal -1 0 0
    outer loop
      vertex -28 -10.165 8.5
      vertex -28 -10.165 18
      vertex -28 -9.70151 18
    endloop
  endfacet
  facet normal -1 0 0
    outer loop
      vertex -28 -10.165 8.5
      vertex -28 -9.70151 18
      vertex -28 -9.53671 17.6021
    endloop
  endfacet
  facet normal -1 0 0
    outer loop
      vertex -28 -10.165 8.5
      vertex -28 -9.53671 17.6021
      vertex -28 -9.21284 16.98
    endloop
  endfacet
  facet normal -1 0 0
    outer loop
      vertex -28 -10.165 8.5
      vertex -28 -4.99984 13.4449
      vertex -28 -18.1461 0
    endloop
  endfacet
  facet normal -1 0 0
    outer loop
      vertex -28 -9.21284 16.98
      vertex -28 -8.83598 16.3884
      vertex -28 -10.165 8.5
    endloop
  endfacet
  facet normal -1 0 0
    outer loop
      vertex -28 -8.83598 16.3884
      vertex -28 -8.409 15.832
      vertex -28 -10.165 8.5
    endloop
  endfacet
  facet normal -1 0 0
    outer loop
      vertex -28 -8.409 15.832
      vertex -28 -7.93514 15.3149
      vertex -28 -10.165 8.5
    endloop
  endfacet
  facet normal -1 0 0
    outer loop
      vertex -28 -7.93514 15.3149
      vertex -28 -7.41801 14.841
      vertex -28 -10.165 8.5
    endloop
  endfacet
  facet normal -1 0 0
    outer loop
      vertex -28 -7.41801 14.841
      vertex -28 -6.86156 14.414
      vertex -28 -10.165 8.5
    endloop
  endfacet
  facet normal -1 0 0
    outer loop
      vertex -28 -6.86156 14.414
      vertex -28 -6.27 14.0372
      vertex -28 -10.165 8.5
    endloop
  endfacet
  facet normal -1 0 0
    outer loop
      vertex -28 -6.27 14.0372
      vertex -28 -5.64785 13.7133
      vertex -28 -10.165 8.5
    endloop
  endfacet
  facet normal -1 0 0
    outer loop
      vertex -28 -5.64785 13.7133
      vertex -28 -4.99984 13.4449
      vertex -28 -10.165 8.5
    endloop
  endfacet
  facet normal -1 0 0
    outer loop
      vertex -28 -4.99984 13.4449
      vertex -28 -4.3309 13.234
      vertex -28 -18.1461 0
    endloop
  endfacet
  facet normal -1 0 0
    outer loop
      vertex -28 -4.3309 13.234
      vertex -28 -3.64613 13.0821
      vertex -28 -18.1461 0
    endloop
  endfacet
  facet normal -1 0 0
    outer loop
      vertex -28 -3.64613 13.0821
      vertex -28 -2.95073 12.9906
      vertex -28 -18.1461 0
    endloop
  endfacet
  facet normal -1 0 0
    outer loop
      vertex -28 -2.95073 12.9906
      vertex -28 -2.25 12.96
      vertex -28 -18.1461 0
    endloop
  endfacet
  facet normal -1 0 0
    outer loop
      vertex -28 -2.25 12.96
      vertex -28 -1.54927 12.9906
      vertex -28 -18.1461 0
    endloop
  endfacet
  facet normal -1 0 0
    outer loop
      vertex -28 -1.54927 12.9906
      vertex -28 -0.853869 13.0821
      vertex -28 -18.1461 0
    endloop
  endfacet
  facet normal -1 0 0
    outer loop
      vertex -28 -0.853869 13.0821
      vertex -28 -0.169095 13.234
      vertex -28 -18.1461 0
    endloop
  endfacet
  facet normal -1 0 0
    outer loop
      vertex -28 -0.169095 13.234
      vertex -28 0.499842 13.4449
      vertex -28 -18.1461 0
    endloop
  endfacet
  facet normal -1 0 0
    outer loop
      vertex -28 0.499842 13.4449
      vertex -28 1.14785 13.7133
      vertex -28 -18.1461 0
    endloop
  endfacet
  facet normal -1 0 0
    outer loop
      vertex -28 1.14785 13.7133
      vertex -28 1.77 14.0372
      vertex -28 -18.1461 0
    endloop
  endfacet
  facet normal -1 0 0
    outer loop
      vertex -28 1.77 14.0372
      vertex -28 2.36156 14.414
      vertex -28 -18.1461 0
    endloop
  endfacet
  facet normal -1 0 0
    outer loop
      vertex -28 2.36156 14.414
      vertex -28 5.665 8.5
      vertex -28 -18.1461 0
    endloop
  endfacet
  facet normal -1 0 0
    outer loop
      vertex -28 2.91801 14.841
      vertex -28 5.665 8.5
      vertex -28 2.36156 14.414
    endloop
  endfacet
  facet normal -1 0 0
    outer loop
      vertex -28 3.43514 15.3149
      vertex -28 5.665 8.5
      vertex -28 2.91801 14.841
    endloop
  endfacet
  facet normal -1 0 0
    outer loop
      vertex -28 4.33598 16.3884
      vertex -28 5.665 18
      vertex -28 3.909 15.832
    endloop
  endfacet
  facet normal -1 0 0
    outer loop
      vertex -28 4.71284 16.98
      vertex -28 5.665 18
      vertex -28 4.33598 16.3884
    endloop
  endfacet
  facet normal -1 0 0
    outer loop
      vertex -28 5.03672 17.6021
      vertex -28 5.20151 18
      vertex -28 5.665 18
    endloop
  endfacet
  facet normal -1 0 0
    outer loop
      vertex -28 5.03672 17.6021
      vertex -28 5.665 18
      vertex -28 4.71284 16.98
    endloop
  endfacet
  facet normal -1 0 0
    outer loop
      vertex -28 3.909 15.832
      vertex -28 5.665 18
      vertex -28 5.665 8.5
    endloop
  endfacet
  facet normal -1 0 0
    outer loop
      vertex -28 3.909 15.832
      vertex -28 5.665 8.5
      vertex -28 3.43514 15.3149
    endloop
  endfacet
  facet normal -1 0 0
    outer loop
      vertex -28 5.665 8.5
      vertex -28 16 8.5
      vertex -28 -18.1461 0
    endloop
  endfacet
  facet normal -1 0 0
    outer loop
      vertex -28 -18.1461 0
      vertex -28 16 8.5
      vertex -28 16 3.36168
    endloop
  endfacet
  facet normal -1 0 0
    outer loop
      vertex -28 -18.1461 0
      vertex -28 16 3.36168
      vertex -28 13.6461 0
    endloop
  endfacet
  facet normal 0 -1 0
    outer loop
      vertex -28 -20.5 8.5
      vertex -28 -20.5 3.36168
      vertex -18 -20.5 3.36168
    endloop
  endfacet
  facet normal 0 -1 0
    outer loop
      vertex -18 -20.5 8.5
      vertex -28 -20.5 8.5
      vertex -18 -20.5 3.36168
    endloop
  endfacet
  facet normal 0 -0.819152 -0.573576
    outer loop
      vertex -28 -18.1461 0
      vertex -18 -18.1461 0
      vertex -18 -20.5 3.36168
    endloop
  endfacet
  facet normal 0 -0.819152 -0.573576
    outer loop
      vertex -28 -20.5 3.36168
      vertex -28 -18.1461 0
      vertex -18 -20.5 3.36168
    endloop
  endfacet
  facet normal 0 0 -1
    outer loop
      vertex -21.25 -14.25 0
      vertex -28 13.6461 0
      vertex -18 -18.1461 0
    endloop
  endfacet
  facet normal 0 0 -1
    outer loop
      vertex -22.125 11.2655 0
      vertex -28 13.6461 0
      vertex -18 13.6461 0
    endloop
  endfacet
  facet normal 0 0 -1
    outer loop
      vertex -28 -18.1461 0
      vertex -28 13.6461 0
      vertex -24.75 -14.25 0
    endloop
  endfacet
  facet normal 0 0 -1
    outer loop
      vertex -28 -18.1461 0
      vertex -24.75 -14.25 0
      vertex -24.5155 -15.125 0
    endloop
  endfacet
  facet normal 0 0 -1
    outer loop
      vertex -28 -18.1461 0
      vertex -24.5155 -15.125 0
      vertex -23.875 -15.7655 0
    endloop
  endfacet
  facet normal 0 0 -1
    outer loop
      vertex -28 -18.1461 0
      vertex -23.875 -15.7655 0
      vertex -18 -18.1461 0
    endloop
  endfacet
  facet normal 0 0 -1
    outer loop
      vertex -23.875 -15.7655 0
      vertex -23 -16 0
      vertex -18 -18.1461 0
    endloop
  endfacet
  facet normal 0 0 -1
    outer loop
      vertex -21.4845 -15.125 0
      vertex -18 -18.1461 0
      vertex -22.125 -15.7655 0
    endloop
  endfacet
  facet normal 0 0 -1
    outer loop
      vertex -21.25 9.75 0
      vertex -18 13.6461 0
      vertex -21.4845 8.875 0
    endloop
  endfacet
  facet normal 0 0 -1
    outer loop
      vertex -22.125 -12.7345 0
      vertex -28 13.6461 0
      vertex -21.4845 -13.375 0
    endloop
  endfacet
  facet normal 0 0 -1
    outer loop
      vertex -21.4845 -13.375 0
      vertex -28 13.6461 0
      vertex -21.25 -14.25 0
    endloop
  endfacet
  facet normal 0 0 -1
    outer loop
      vertex -21.4845 -15.125 0
      vertex -21.25 -14.25 0
      vertex -18 -18.1461 0
    endloop
  endfacet
  facet normal 0 0 -1
    outer loop
      vertex -23 -12.5 0
      vertex -28 13.6461 0
      vertex -22.125 -12.7345 0
    endloop
  endfacet
  facet normal 0 0 -1
    outer loop
      vertex -23.875 -12.7345 0
      vertex -28 13.6461 0
      vertex -23 -12.5 0
    endloop
  endfacet
  facet normal 0 0 -1
    outer loop
      vertex -24.5155 -13.375 0
      vertex -28 13.6461 0
      vertex -23.875 -12.7345 0
    endloop
  endfacet
  facet normal 0 0 -1
    outer loop
      vertex -24.75 -14.25 0
      vertex -28 13.6461 0
      vertex -24.5155 -13.375 0
    endloop
  endfacet
  facet normal 0 0 -1
    outer loop
      vertex -18 -18.1461 0
      vertex -28 13.6461 0
      vertex -24.75 9.75 0
    endloop
  endfacet
  facet normal 0 0 -1
    outer loop
      vertex -18 -18.1461 0
      vertex -24.75 9.75 0
      vertex -24.5155 8.875 0
    endloop
  endfacet
  facet normal 0 0 -1
    outer loop
      vertex -18 -18.1461 0
      vertex -24.5155 8.875 0
      vertex -23.875 8.23446 0
    endloop
  endfacet
  facet normal 0 0 -1
    outer loop
      vertex -18 -18.1461 0
      vertex -23.875 8.23446 0
      vertex -23 8 0
    endloop
  endfacet
  facet normal 0 0 -1
    outer loop
      vertex -18 -18.1461 0
      vertex -23 8 0
      vertex -22.125 8.23446 0
    endloop
  endfacet
  facet normal 0 0 -1
    outer loop
      vertex -18 -18.1461 0
      vertex -22.125 8.23446 0
      vertex -21.4845 8.875 0
    endloop
  endfacet
  facet normal 0 0 -1
    outer loop
      vertex -18 -18.1461 0
      vertex -21.4845 8.875 0
      vertex -18 13.6461 0
    endloop
  endfacet
  facet normal 0 0 -1
    outer loop
      vertex -21.4845 10.625 0
      vertex -18 13.6461 0
      vertex -21.25 9.75 0
    endloop
  endfacet
  facet normal 0 0 -1
    outer loop
      vertex -22.125 11.2655 0
      vertex -18 13.6461 0
      vertex -21.4845 10.625 0
    endloop
  endfacet
  facet normal 0 0 -1
    outer loop
      vertex -23 11.5 0
      vertex -28 13.6461 0
      vertex -22.125 11.2655 0
    endloop
  endfacet
  facet normal 0 0 -1
    outer loop
      vertex -23.875 11.2655 0
      vertex -28 13.6461 0
      vertex -23 11.5 0
    endloop
  endfacet
  facet normal 0 0 -1
    outer loop
      vertex -24.5155 10.625 0
      vertex -28 13.6461 0
      vertex -23.875 11.2655 0
    endloop
  endfacet
  facet normal 0 0 -1
    outer loop
      vertex -24.75 9.75 0
      vertex -28 13.6461 0
      vertex -24.5155 10.625 0
    endloop
  endfacet
  facet normal 0 0 -1
    outer loop
      vertex -22.125 -15.7655 0
      vertex -18 -18.1461 0
      vertex -23 -16 0
    endloop
  endfacet
  facet normal 0 0.819152 -0.573576
    outer loop
      vertex -18 16 3.36168
      vertex -18 13.6461 0
      vertex -28 16 3.36168
    endloop
  endfacet
  facet normal 0 0.819152 -0.573576
    outer loop
      vertex -28 16 3.36168
      vertex -18 13.6461 0
      vertex -28 13.6461 0
    endloop
  endfacet
  facet normal 0 1 0
    outer loop
      vertex -28 16 3.36168
      vertex -28 16 8.5
      vertex -18 16 3.36168
    endloop
  endfacet
  facet normal 0 1 0
    outer loop
      vertex -18 16 3.36168
      vertex -28 16 8.5
      vertex -18 16 8.5
    endloop
  endfacet
  facet normal 0 0 1
    outer loop
      vertex -23 8 8.5
      vertex -28 5.665 8.5
      vertex -18 5.665 8.5
    endloop
  endfacet
  facet normal 0 0 1
    outer loop
      vertex -28 16 8.5
      vertex -28 5.665 8.5
      vertex -24.5155 8.875 8.5
    endloop
  endfacet
  facet normal 0 0 1
    outer loop
      vertex -28 16 8.5
      vertex -24.5155 8.875 8.5
      vertex -24.75 9.75 8.5
    endloop
  endfacet
  facet normal 0 0 1
    outer loop
      vertex -28 16 8.5
      vertex -24.75 9.75 8.5
      vertex -24.5155 10.625 8.5
    endloop
  endfacet
  facet normal 0 0 1
    outer loop
      vertex -21.4845 10.625 8.5
      vertex -21.25 9.75 8.5
      vertex -18 5.665 8.5
    endloop
  endfacet
  facet normal 0 0 1
    outer loop
      vertex -28 16 8.5
      vertex -24.5155 10.625 8.5
      vertex -23.875 11.2655 8.5
    endloop
  endfacet
  facet normal 0 0 1
    outer loop
      vertex -22.125 8.23446 8.5
      vertex -23 8 8.5
      vertex -18 5.665 8.5
    endloop
  endfacet
  facet normal 0 0 1
    outer loop
      vertex -18 16 8.5
      vertex -28 16 8.5
      vertex -23 11.5 8.5
    endloop
  endfacet
  facet normal 0 0 1
    outer loop
      vertex -18 16 8.5
      vertex -23 11.5 8.5
      vertex -22.125 11.2655 8.5
    endloop
  endfacet
  facet normal 0 0 1
    outer loop
      vertex -18 16 8.5
      vertex -21.4845 10.625 8.5
      vertex -18 5.665 8.5
    endloop
  endfacet
  facet normal 0 0 1
    outer loop
      vertex -18 16 8.5
      vertex -22.125 11.2655 8.5
      vertex -21.4845 10.625 8.5
    endloop
  endfacet
  facet normal 0 0 1
    outer loop
      vertex -23.875 8.23446 8.5
      vertex -28 5.665 8.5
      vertex -23 8 8.5
    endloop
  endfacet
  facet normal 0 0 1
    outer loop
      vertex -24.5155 8.875 8.5
      vertex -28 5.665 8.5
      vertex -23.875 8.23446 8.5
    endloop
  endfacet
  facet normal 0 0 1
    outer loop
      vertex -21.4845 8.875 8.5
      vertex -22.125 8.23446 8.5
      vertex -18 5.665 8.5
    endloop
  endfacet
  facet normal 0 0 1
    outer loop
      vertex -23.875 11.2655 8.5
      vertex -23 11.5 8.5
      vertex -28 16 8.5
    endloop
  endfacet
  facet normal 0 0 1
    outer loop
      vertex -21.25 9.75 8.5
      vertex -21.4845 8.875 8.5
      vertex -18 5.665 8.5
    endloop
  endfacet
  facet normal 0 1 0
    outer loop
      vertex -28 5.665 8.5
      vertex -28 5.665 18
      vertex -18 5.665 8.5
    endloop
  endfacet
  facet normal 0 1 0
    outer loop
      vertex -18 5.665 8.5
      vertex -28 5.665 18
      vertex -18 5.665 18
    endloop
  endfacet
  facet normal 0 0 1
    outer loop
      vertex -28 5.665 18
      vertex -28 5.20151 18
      vertex -25.695 5.20151 18
    endloop
  endfacet
  facet normal 0 0 1
    outer loop
      vertex -22.7 5.20151 18
      vertex -28 5.665 18
      vertex -25.695 5.20151 18
    endloop
  endfacet
  facet normal 0 0 1
    outer loop
      vertex -25.695 4.11751 18
      vertex -22.7 4.11751 18
      vertex -25.695 5.20151 18
    endloop
  endfacet
  facet normal 0 0 1
    outer loop
      vertex -22.7 4.11751 18
      vertex -22.7 5.20151 18
      vertex -25.695 5.20151 18
    endloop
  endfacet
  facet normal 0 0 1
    outer loop
      vertex -22.7 5.20151 18
      vertex -18 5.20151 18
      vertex -28 5.665 18
    endloop
  endfacet
  facet normal 0 0 1
    outer loop
      vertex -18 5.20151 18
      vertex -18 5.665 18
      vertex -28 5.665 18
    endloop
  endfacet
  facet normal -8.49728e-17 -0.92388 0.382683
    outer loop
      vertex -25.695 5.03672 17.6021
      vertex -25.695 5.20151 18
      vertex -28 5.20151 18
    endloop
  endfacet
  facet normal -8.49728e-17 -0.92388 0.382683
    outer loop
      vertex -28 5.03672 17.6021
      vertex -25.695 5.03672 17.6021
      vertex -28 5.20151 18
    endloop
  endfacet
  facet normal -1.02529e-16 -0.88701 0.461749
    outer loop
      vertex -25.695 4.71284 16.98
      vertex -25.695 5.03672 17.6021
      vertex -28 5.03672 17.6021
    endloop
  endfacet
  facet normal -1.02529e-16 -0.88701 0.461749
    outer loop
      vertex -28 4.71284 16.98
      vertex -25.695 4.71284 16.98
      vertex -28 5.03672 17.6021
    endloop
  endfacet
  facet normal -1.19304e-16 -0.843392 0.5373
    outer loop
      vertex -25.695 4.33598 16.3884
      vertex -25.695 4.71284 16.98
      vertex -28 4.71284 16.98
    endloop
  endfacet
  facet normal -1.19304e-16 -0.843392 0.5373
    outer loop
      vertex -28 4.33598 16.3884
      vertex -25.695 4.33598 16.3884
      vertex -28 4.71284 16.98
    endloop
  endfacet
  facet normal -1.35172e-16 -0.793353 0.608762
    outer loop
      vertex -25.695 3.909 15.832
      vertex -25.695 4.33598 16.3884
      vertex -28 4.33598 16.3884
    endloop
  endfacet
  facet normal -1.35172e-16 -0.793353 0.608762
    outer loop
      vertex -28 3.909 15.832
      vertex -25.695 3.909 15.832
      vertex -28 4.33598 16.3884
    endloop
  endfacet
  facet normal -1.50011e-16 -0.737278 0.675589
    outer loop
      vertex -25.695 3.43514 15.3149
      vertex -25.695 3.909 15.832
      vertex -28 3.909 15.832
    endloop
  endfacet
  facet normal -1.50011e-16 -0.737278 0.675589
    outer loop
      vertex -28 3.43514 15.3149
      vertex -25.695 3.43514 15.3149
      vertex -28 3.909 15.832
    endloop
  endfacet
  facet normal -1.63709e-16 -0.675589 0.737278
    outer loop
      vertex -25.695 2.91801 14.841
      vertex -25.695 3.43514 15.3149
      vertex -28 3.43514 15.3149
    endloop
  endfacet
  facet normal -1.63709e-16 -0.675589 0.737278
    outer loop
      vertex -28 2.91801 14.841
      vertex -25.695 2.91801 14.841
      vertex -28 3.43514 15.3149
    endloop
  endfacet
  facet normal -1.7616e-16 -0.608762 0.793353
    outer loop
      vertex -25.695 2.36156 14.414
      vertex -25.695 2.91801 14.841
      vertex -28 2.91801 14.841
    endloop
  endfacet
  facet normal -1.7616e-16 -0.608762 0.793353
    outer loop
      vertex -28 2.36156 14.414
      vertex -25.695 2.36156 14.414
      vertex -28 2.91801 14.841
    endloop
  endfacet
  facet normal -1.87271e-16 -0.5373 0.843392
    outer loop
      vertex -25.695 1.77 14.0372
      vertex -25.695 2.36156 14.414
      vertex -28 2.36156 14.414
    endloop
  endfacet
  facet normal -1.87271e-16 -0.5373 0.843392
    outer loop
      vertex -28 1.77 14.0372
      vertex -25.695 1.77 14.0372
      vertex -28 2.36156 14.414
    endloop
  endfacet
  facet normal -1.96956e-16 -0.461749 0.88701
    outer loop
      vertex -25.695 1.14785 13.7133
      vertex -25.695 1.77 14.0372
      vertex -28 1.77 14.0372
    endloop
  endfacet
  facet normal -1.96956e-16 -0.461749 0.88701
    outer loop
      vertex -28 1.14785 13.7133
      vertex -25.695 1.14785 13.7133
      vertex -28 1.77 14.0372
    endloop
  endfacet
  facet normal -2.05142e-16 -0.382683 0.92388
    outer loop
      vertex -25.695 0.499842 13.4449
      vertex -25.695 1.14785 13.7133
      vertex -28 1.14785 13.7133
    endloop
  endfacet
  facet normal -2.05142e-16 -0.382683 0.92388
    outer loop
      vertex -28 0.499842 13.4449
      vertex -25.695 0.499842 13.4449
      vertex -28 1.14785 13.7133
    endloop
  endfacet
  facet normal -2.11768e-16 -0.300706 0.953717
    outer loop
      vertex -25.695 -0.169095 13.234
      vertex -25.695 0.499842 13.4449
      vertex -28 0.499842 13.4449
    endloop
  endfacet
  facet normal -2.11768e-16 -0.300706 0.953717
    outer loop
      vertex -28 -0.169095 13.234
      vertex -25.695 -0.169095 13.234
      vertex -28 0.499842 13.4449
    endloop
  endfacet
  facet normal -2.16781e-16 -0.216439 0.976296
    outer loop
      vertex -25.695 -0.853869 13.0821
      vertex -25.695 -0.169095 13.234
      vertex -28 -0.169095 13.234
    endloop
  endfacet
  facet normal -2.16781e-16 -0.216439 0.976296
    outer loop
      vertex -28 -0.853869 13.0821
      vertex -25.695 -0.853869 13.0821
      vertex -28 -0.169095 13.234
    endloop
  endfacet
  facet normal -2.20145e-16 -0.130526 0.991445
    outer loop
      vertex -25.695 -1.54927 12.9906
      vertex -25.695 -0.853869 13.0821
      vertex -28 -0.853869 13.0821
    endloop
  endfacet
  facet normal -2.20145e-16 -0.130526 0.991445
    outer loop
      vertex -28 -1.54927 12.9906
      vertex -25.695 -1.54927 12.9906
      vertex -28 -0.853869 13.0821
    endloop
  endfacet
  facet normal -2.21833e-16 -0.0436199 0.999048
    outer loop
      vertex -25.695 -2.25 12.96
      vertex -25.695 -1.54927 12.9906
      vertex -28 -1.54927 12.9906
    endloop
  endfacet
  facet normal -2.21833e-16 -0.0436199 0.999048
    outer loop
      vertex -28 -2.25 12.96
      vertex -25.695 -2.25 12.96
      vertex -28 -1.54927 12.9906
    endloop
  endfacet
  facet normal -2.21833e-16 0.0436199 0.999048
    outer loop
      vertex -25.695 -2.95073 12.9906
      vertex -25.695 -2.25 12.96
      vertex -28 -2.25 12.96
    endloop
  endfacet
  facet normal -2.21833e-16 0.0436199 0.999048
    outer loop
      vertex -28 -2.95073 12.9906
      vertex -25.695 -2.95073 12.9906
      vertex -28 -2.25 12.96
    endloop
  endfacet
  facet normal -2.20145e-16 0.130526 0.991445
    outer loop
      vertex -25.695 -3.64613 13.0821
      vertex -25.695 -2.95073 12.9906
      vertex -28 -2.95073 12.9906
    endloop
  endfacet
  facet normal -2.20145e-16 0.130526 0.991445
    outer loop
      vertex -28 -3.64613 13.0821
      vertex -25.695 -3.64613 13.0821
      vertex -28 -2.95073 12.9906
    endloop
  endfacet
  facet normal -2.16781e-16 0.216439 0.976296
    outer loop
      vertex -25.695 -4.3309 13.234
      vertex -25.695 -3.64613 13.0821
      vertex -28 -3.64613 13.0821
    endloop
  endfacet
  facet normal -2.16781e-16 0.216439 0.976296
    outer loop
      vertex -28 -4.3309 13.234
      vertex -25.695 -4.3309 13.234
      vertex -28 -3.64613 13.0821
    endloop
  endfacet
  facet normal -2.11768e-16 0.300706 0.953717
    outer loop
      vertex -25.695 -4.99984 13.4449
      vertex -25.695 -4.3309 13.234
      vertex -28 -4.3309 13.234
    endloop
  endfacet
  facet normal -2.11768e-16 0.300706 0.953717
    outer loop
      vertex -28 -4.99984 13.4449
      vertex -25.695 -4.99984 13.4449
      vertex -28 -4.3309 13.234
    endloop
  endfacet
  facet normal -2.05142e-16 0.382683 0.92388
    outer loop
      vertex -25.695 -5.64785 13.7133
      vertex -25.695 -4.99984 13.4449
      vertex -28 -4.99984 13.4449
    endloop
  endfacet
  facet normal -2.05142e-16 0.382683 0.92388
    outer loop
      vertex -28 -5.64785 13.7133
      vertex -25.695 -5.64785 13.7133
      vertex -28 -4.99984 13.4449
    endloop
  endfacet
  facet normal -1.96956e-16 0.461749 0.88701
    outer loop
      vertex -25.695 -6.27 14.0372
      vertex -25.695 -5.64785 13.7133
      vertex -28 -5.64785 13.7133
    endloop
  endfacet
  facet normal -1.96956e-16 0.461749 0.88701
    outer loop
      vertex -28 -6.27 14.0372
      vertex -25.695 -6.27 14.0372
      vertex -28 -5.64785 13.7133
    endloop
  endfacet
  facet normal -1.87271e-16 0.5373 0.843392
    outer loop
      vertex -25.695 -6.86156 14.414
      vertex -25.695 -6.27 14.0372
      vertex -28 -6.27 14.0372
    endloop
  endfacet
  facet normal -1.87271e-16 0.5373 0.843392
    outer loop
      vertex -28 -6.86156 14.414
      vertex -25.695 -6.86156 14.414
      vertex -28 -6.27 14.0372
    endloop
  endfacet
  facet normal -1.7616e-16 0.608762 0.793353
    outer loop
      vertex -25.695 -7.41801 14.841
      vertex -25.695 -6.86156 14.414
      vertex -28 -6.86156 14.414
    endloop
  endfacet
  facet normal -1.7616e-16 0.608762 0.793353
    outer loop
      vertex -28 -7.41801 14.841
      vertex -25.695 -7.41801 14.841
      vertex -28 -6.86156 14.414
    endloop
  endfacet
  facet normal -1.63709e-16 0.675589 0.737278
    outer loop
      vertex -25.695 -7.93514 15.3149
      vertex -25.695 -7.41801 14.841
      vertex -28 -7.41801 14.841
    endloop
  endfacet
  facet normal -1.63709e-16 0.675589 0.737278
    outer loop
      vertex -28 -7.93514 15.3149
      vertex -25.695 -7.93514 15.3149
      vertex -28 -7.41801 14.841
    endloop
  endfacet
  facet normal -1.50011e-16 0.737278 0.675589
    outer loop
      vertex -25.695 -7.93514 15.3149
      vertex -28 -7.93514 15.3149
      vertex -25.695 -8.409 15.832
    endloop
  endfacet
  facet normal -1.50011e-16 0.737278 0.675589
    outer loop
      vertex -25.695 -8.409 15.832
      vertex -28 -7.93514 15.3149
      vertex -28 -8.409 15.832
    endloop
  endfacet
  facet normal -1.35172e-16 0.793353 0.608762
    outer loop
      vertex -25.695 -8.409 15.832
      vertex -28 -8.409 15.832
      vertex -25.695 -8.83598 16.3884
    endloop
  endfacet
  facet normal -1.35172e-16 0.793353 0.608762
    outer loop
      vertex -25.695 -8.83598 16.3884
      vertex -28 -8.409 15.832
      vertex -28 -8.83598 16.3884
    endloop
  endfacet
  facet normal -1.19304e-16 0.843392 0.5373
    outer loop
      vertex -25.695 -8.83598 16.3884
      vertex -28 -8.83598 16.3884
      vertex -25.695 -9.21284 16.98
    endloop
  endfacet
  facet normal -1.19304e-16 0.843392 0.5373
    outer loop
      vertex -25.695 -9.21284 16.98
      vertex -28 -8.83598 16.3884
      vertex -28 -9.21284 16.98
    endloop
  endfacet
  facet normal -1.02529e-16 0.88701 0.461749
    outer loop
      vertex -25.695 -9.21284 16.98
      vertex -28 -9.21284 16.98
      vertex -25.695 -9.53671 17.6021
    endloop
  endfacet
  facet normal -1.02529e-16 0.88701 0.461749
    outer loop
      vertex -25.695 -9.53671 17.6021
      vertex -28 -9.21284 16.98
      vertex -28 -9.53671 17.6021
    endloop
  endfacet
  facet normal -8.49728e-17 0.92388 0.382683
    outer loop
      vertex -25.695 -9.53671 17.6021
      vertex -28 -9.53671 17.6021
      vertex -25.695 -9.70151 18
    endloop
  endfacet
  facet normal -8.49728e-17 0.92388 0.382683
    outer loop
      vertex -25.695 -9.70151 18
      vertex -28 -9.53671 17.6021
      vertex -28 -9.70151 18
    endloop
  endfacet
  facet normal 0 0 1
    outer loop
      vertex -28 -9.70151 18
      vertex -28 -10.165 18
      vertex -18 -10.165 18
    endloop
  endfacet
  facet normal 0 0 1
    outer loop
      vertex -25.695 -8.61751 18
      vertex -25.695 -9.70151 18
      vertex -22.7 -8.61751 18
    endloop
  endfacet
  facet normal 0 0 1
    outer loop
      vertex -22.7 -9.70151 18
      vertex -28 -9.70151 18
      vertex -18 -10.165 18
    endloop
  endfacet
  facet normal 0 0 1
    outer loop
      vertex -18 -9.70151 18
      vertex -22.7 -9.70151 18
      vertex -18 -10.165 18
    endloop
  endfacet
  facet normal 0 0 1
    outer loop
      vertex -22.7 -9.70151 18
      vertex -25.695 -9.70151 18
      vertex -28 -9.70151 18
    endloop
  endfacet
  facet normal 0 0 1
    outer loop
      vertex -22.7 -9.70151 18
      vertex -22.7 -8.61751 18
      vertex -25.695 -9.70151 18
    endloop
  endfacet
  facet normal 0 -1 0
    outer loop
      vertex -28 -10.165 18
      vertex -28 -10.165 8.5
      vertex -18 -10.165 8.5
    endloop
  endfacet
  facet normal 0 -1 0
    outer loop
      vertex -18 -10.165 18
      vertex -28 -10.165 18
      vertex -18 -10.165 8.5
    endloop
  endfacet
  facet normal 0 0 1
    outer loop
      vertex -23.875 -15.7655 8.5
      vertex -28 -20.5 8.5
      vertex -18 -20.5 8.5
    endloop
  endfacet
  facet normal 0 0 1
    outer loop
      vertex -28 -10.165 8.5
      vertex -28 -20.5 8.5
      vertex -24.5155 -15.125 8.5
    endloop
  endfacet
  facet normal 0 0 1
    outer loop
      vertex -23 -12.5 8.5
      vertex -22.125 -12.7345 8.5
      vertex -18 -10.165 8.5
    endloop
  endfacet
  facet normal 0 0 1
    outer loop
      vertex -28 -10.165 8.5
      vertex -24.5155 -15.125 8.5
      vertex -24.75 -14.25 8.5
    endloop
  endfacet
  facet normal 0 0 1
    outer loop
      vertex -23.875 -12.7345 8.5
      vertex -28 -10.165 8.5
      vertex -24.5155 -13.375 8.5
    endloop
  endfacet
  facet normal 0 0 1
    outer loop
      vertex -18 -10.165 8.5
      vertex -28 -10.165 8.5
      vertex -23.875 -12.7345 8.5
    endloop
  endfacet
  facet normal 0 0 1
    outer loop
      vertex -21.25 -14.25 8.5
      vertex -21.4845 -15.125 8.5
      vertex -18 -20.5 8.5
    endloop
  endfacet
  facet normal 0 0 1
    outer loop
      vertex -18 -10.165 8.5
      vertex -23.875 -12.7345 8.5
      vertex -23 -12.5 8.5
    endloop
  endfacet
  facet normal 0 0 1
    outer loop
      vertex -18 -10.165 8.5
      vertex -21.4845 -13.375 8.5
      vertex -18 -20.5 8.5
    endloop
  endfacet
  facet normal 0 0 1
    outer loop
      vertex -18 -10.165 8.5
      vertex -22.125 -12.7345 8.5
      vertex -21.4845 -13.375 8.5
    endloop
  endfacet
  facet normal 0 0 1
    outer loop
      vertex -21.4845 -13.375 8.5
      vertex -21.25 -14.25 8.5
      vertex -18 -20.5 8.5
    endloop
  endfacet
  facet normal 0 0 1
    outer loop
      vertex -21.4845 -15.125 8.5
      vertex -22.125 -15.7655 8.5
      vertex -18 -20.5 8.5
    endloop
  endfacet
  facet normal 0 0 1
    outer loop
      vertex -24.5155 -15.125 8.5
      vertex -28 -20.5 8.5
      vertex -23.875 -15.7655 8.5
    endloop
  endfacet
  facet normal 0 0 1
    outer loop
      vertex -23 -16 8.5
      vertex -23.875 -15.7655 8.5
      vertex -18 -20.5 8.5
    endloop
  endfacet
  facet normal 0 0 1
    outer loop
      vertex -24.75 -14.25 8.5
      vertex -24.5155 -13.375 8.5
      vertex -28 -10.165 8.5
    endloop
  endfacet
  facet normal 0 0 1
    outer loop
      vertex -22.125 -15.7655 8.5
      vertex -23 -16 8.5
      vertex -18 -20.5 8.5
    endloop
  endfacet
  facet normal 1 0 0
    outer loop
      vertex -18 -20.5 8.5
      vertex -18 -20.5 3.36168
      vertex -18 -18.1461 0
    endloop
  endfacet
  facet normal 1 0 0
    outer loop
      vertex -18 16 3.36168
      vertex -18 -20.5 8.5
      vertex -18 13.6461 0
    endloop
  endfacet
  facet normal 1 0 0
    outer loop
      vertex -18 13.6461 0
      vertex -18 -20.5 8.5
      vertex -18 -18.1461 0
    endloop
  endfacet
  facet normal 1 0 0
    outer loop
      vertex -18 5.665 8.5
      vertex -18 -10.165 8.5
      vertex -18 16 3.36168
    endloop
  endfacet
  facet normal 1 0 0
    outer loop
      vertex -18 -10.165 8.5
      vertex -18 -20.5 8.5
      vertex -18 16 3.36168
    endloop
  endfacet
  facet normal 1 0 0
    outer loop
      vertex -18 16 8.5
      vertex -18 5.665 8.5
      vertex -18 16 3.36168
    endloop
  endfacet
  facet normal 1 0 0
    outer loop
      vertex -18 5.665 18
      vertex -18 5.03672 17.6021
      vertex -18 5.665 8.5
    endloop
  endfacet
  facet normal 1 0 0
    outer loop
      vertex -18 5.03672 17.6021
      vertex -18 4.71284 16.98
      vertex -18 5.665 8.5
    endloop
  endfacet
  facet normal 1 0 0
    outer loop
      vertex -18 4.71284 16.98
      vertex -18 4.33598 16.3884
      vertex -18 5.665 8.5
    endloop
  endfacet
  facet normal 1 0 0
    outer loop
      vertex -18 4.33598 16.3884
      vertex -18 3.909 15.832
      vertex -18 5.665 8.5
    endloop
  endfacet
  facet normal 1 0 0
    outer loop
      vertex -18 3.909 15.832
      vertex -18 3.43514 15.3149
      vertex -18 5.665 8.5
    endloop
  endfacet
  facet normal 1 0 0
    outer loop
      vertex -18 3.43514 15.3149
      vertex -18 2.91801 14.841
      vertex -18 5.665 8.5
    endloop
  endfacet
  facet normal 1 0 0
    outer loop
      vertex -18 2.91801 14.841
      vertex -18 2.36156 14.414
      vertex -18 5.665 8.5
    endloop
  endfacet
  facet normal 1 0 0
    outer loop
      vertex -18 2.36156 14.414
      vertex -18 1.77 14.0372
      vertex -18 5.665 8.5
    endloop
  endfacet
  facet normal 1 0 0
    outer loop
      vertex -18 1.77 14.0372
      vertex -18 1.14785 13.7133
      vertex -18 5.665 8.5
    endloop
  endfacet
  facet normal 1 0 0
    outer loop
      vertex -18 1.14785 13.7133
      vertex -18 0.499842 13.4449
      vertex -18 5.665 8.5
    endloop
  endfacet
  facet normal 1 0 0
    outer loop
      vertex -18 0.499842 13.4449
      vertex -18 -0.169095 13.234
      vertex -18 5.665 8.5
    endloop
  endfacet
  facet normal 1 0 0
    outer loop
      vertex -18 -10.165 18
      vertex -18 -9.21284 16.98
      vertex -18 -9.53671 17.6021
    endloop
  endfacet
  facet normal 1 0 0
    outer loop
      vertex -18 -0.169095 13.234
      vertex -18 -10.165 8.5
      vertex -18 5.665 8.5
    endloop
  endfacet
  facet normal 1 0 0
    outer loop
      vertex -18 -10.165 18
      vertex -18 -9.53671 17.6021
      vertex -18 -9.70151 18
    endloop
  endfacet
  facet normal 1 0 0
    outer loop
      vertex -18 5.20151 18
      vertex -18 5.03672 17.6021
      vertex -18 5.665 18
    endloop
  endfacet
  facet normal 1 0 0
    outer loop
      vertex -18 -10.165 18
      vertex -18 -8.83598 16.3884
      vertex -18 -9.21284 16.98
    endloop
  endfacet
  facet normal 1 0 0
    outer loop
      vertex -18 -10.165 18
      vertex -18 -8.409 15.832
      vertex -18 -8.83598 16.3884
    endloop
  endfacet
  facet normal 1 0 0
    outer loop
      vertex -18 -0.853869 13.0821
      vertex -18 -10.165 8.5
      vertex -18 -0.169095 13.234
    endloop
  endfacet
  facet normal 1 0 0
    outer loop
      vertex -18 -1.54927 12.9906
      vertex -18 -10.165 8.5
      vertex -18 -0.853869 13.0821
    endloop
  endfacet
  facet normal 1 0 0
    outer loop
      vertex -18 -2.25 12.96
      vertex -18 -10.165 8.5
      vertex -18 -1.54927 12.9906
    endloop
  endfacet
  facet normal 1 0 0
    outer loop
      vertex -18 -2.95073 12.9906
      vertex -18 -10.165 8.5
      vertex -18 -2.25 12.96
    endloop
  endfacet
  facet normal 1 0 0
    outer loop
      vertex -18 -3.64613 13.0821
      vertex -18 -10.165 8.5
      vertex -18 -2.95073 12.9906
    endloop
  endfacet
  facet normal 1 0 0
    outer loop
      vertex -18 -4.3309 13.234
      vertex -18 -10.165 8.5
      vertex -18 -3.64613 13.0821
    endloop
  endfacet
  facet normal 1 0 0
    outer loop
      vertex -18 -4.99984 13.4449
      vertex -18 -10.165 8.5
      vertex -18 -4.3309 13.234
    endloop
  endfacet
  facet normal 1 0 0
    outer loop
      vertex -18 -5.64785 13.7133
      vertex -18 -10.165 8.5
      vertex -18 -4.99984 13.4449
    endloop
  endfacet
  facet normal 1 0 0
    outer loop
      vertex -18 -6.27 14.0372
      vertex -18 -10.165 8.5
      vertex -18 -5.64785 13.7133
    endloop
  endfacet
  facet normal 1 0 0
    outer loop
      vertex -18 -6.86156 14.414
      vertex -18 -10.165 8.5
      vertex -18 -6.27 14.0372
    endloop
  endfacet
  facet normal 1 0 0
    outer loop
      vertex -18 -7.41801 14.841
      vertex -18 -10.165 8.5
      vertex -18 -6.86156 14.414
    endloop
  endfacet
  facet normal 1 0 0
    outer loop
      vertex -18 -7.93514 15.3149
      vertex -18 -10.165 8.5
      vertex -18 -7.41801 14.841
    endloop
  endfacet
  facet normal 1 0 0
    outer loop
      vertex -18 -8.409 15.832
      vertex -18 -10.165 8.5
      vertex -18 -7.93514 15.3149
    endloop
  endfacet
  facet normal 1 0 0
    outer loop
      vertex -18 -10.165 18
      vertex -18 -10.165 8.5
      vertex -18 -8.409 15.832
    endloop
  endfacet
  facet normal 0.965926 0.25882 0
    outer loop
      vertex -24.75 -14.25 8.5
      vertex -24.5155 -15.125 8.5
      vertex -24.5155 -15.125 0
    endloop
  endfacet
  facet normal 0.965926 0.25882 0
    outer loop
      vertex -24.75 -14.25 0
      vertex -24.75 -14.25 8.5
      vertex -24.5155 -15.125 0
    endloop
  endfacet
  facet normal 0.965926 -0.25882 0
    outer loop
      vertex -24.5155 -13.375 0
      vertex -24.5155 -13.375 8.5
      vertex -24.75 -14.25 8.5
    endloop
  endfacet
  facet normal 0.965926 -0.25882 0
    outer loop
      vertex -24.75 -14.25 0
      vertex -24.5155 -13.375 0
      vertex -24.75 -14.25 8.5
    endloop
  endfacet
  facet normal 0.707107 -0.707107 0
    outer loop
      vertex -23.875 -12.7345 0
      vertex -23.875 -12.7345 8.5
      vertex -24.5155 -13.375 8.5
    endloop
  endfacet
  facet normal 0.707107 -0.707107 0
    outer loop
      vertex -24.5155 -13.375 0
      vertex -23.875 -12.7345 0
      vertex -24.5155 -13.375 8.5
    endloop
  endfacet
  facet normal 0.25882 -0.965926 0
    outer loop
      vertex -23 -12.5 0
      vertex -23 -12.5 8.5
      vertex -23.875 -12.7345 8.5
    endloop
  endfacet
  facet normal 0.25882 -0.965926 0
    outer loop
      vertex -23.875 -12.7345 0
      vertex -23 -12.5 0
      vertex -23.875 -12.7345 8.5
    endloop
  endfacet
  facet normal -0.25882 -0.965926 0
    outer loop
      vertex -22.125 -12.7345 0
      vertex -22.125 -12.7345 8.5
      vertex -23 -12.5 8.5
    endloop
  endfacet
  facet normal -0.25882 -0.965926 0
    outer loop
      vertex -23 -12.5 0
      vertex -22.125 -12.7345 0
      vertex -23 -12.5 8.5
    endloop
  endfacet
  facet normal -0.707107 -0.707107 0
    outer loop
      vertex -21.4845 -13.375 0
      vertex -21.4845 -13.375 8.5
      vertex -22.125 -12.7345 8.5
    endloop
  endfacet
  facet normal -0.707107 -0.707107 0
    outer loop
      vertex -22.125 -12.7345 0
      vertex -21.4845 -13.375 0
      vertex -22.125 -12.7345 8.5
    endloop
  endfacet
  facet normal -0.965926 -0.25882 0
    outer loop
      vertex -21.25 -14.25 8.5
      vertex -21.4845 -13.375 8.5
      vertex -21.25 -14.25 0
    endloop
  endfacet
  facet normal -0.965926 -0.25882 0
    outer loop
      vertex -21.25 -14.25 0
      vertex -21.4845 -13.375 8.5
      vertex -21.4845 -13.375 0
    endloop
  endfacet
  facet normal -0.965926 0.25882 0
    outer loop
      vertex -21.25 -14.25 8.5
      vertex -21.25 -14.25 0
      vertex -21.4845 -15.125 8.5
    endloop
  endfacet
  facet normal -0.965926 0.25882 0
    outer loop
      vertex -21.4845 -15.125 8.5
      vertex -21.25 -14.25 0
      vertex -21.4845 -15.125 0
    endloop
  endfacet
  facet normal -0.707107 0.707107 0
    outer loop
      vertex -21.4845 -15.125 8.5
      vertex -21.4845 -15.125 0
      vertex -22.125 -15.7655 8.5
    endloop
  endfacet
  facet normal -0.707107 0.707107 0
    outer loop
      vertex -22.125 -15.7655 8.5
      vertex -21.4845 -15.125 0
      vertex -22.125 -15.7655 0
    endloop
  endfacet
  facet normal -0.25882 0.965926 0
    outer loop
      vertex -22.125 -15.7655 8.5
      vertex -22.125 -15.7655 0
      vertex -23 -16 8.5
    endloop
  endfacet
  facet normal -0.25882 0.965926 0
    outer loop
      vertex -23 -16 8.5
      vertex -22.125 -15.7655 0
      vertex -23 -16 0
    endloop
  endfacet
  facet normal 0.25882 0.965926 0
    outer loop
      vertex -23 -16 8.5
      vertex -23 -16 0
      vertex -23.875 -15.7655 8.5
    endloop
  endfacet
  facet normal 0.25882 0.965926 0
    outer loop
      vertex -23.875 -15.7655 8.5
      vertex -23 -16 0
      vertex -23.875 -15.7655 0
    endloop
  endfacet
  facet normal 0.707107 0.707107 0
    outer loop
      vertex -23.875 -15.7655 8.5
      vertex -23.875 -15.7655 0
      vertex -24.5155 -15.125 8.5
    endloop
  endfacet
  facet normal 0.707107 0.707107 0
    outer loop
      vertex -24.5155 -15.125 8.5
      vertex -23.875 -15.7655 0
      vertex -24.5155 -15.125 0
    endloop
  endfacet
  facet normal 0.965926 0.25882 0
    outer loop
      vertex -24.75 9.75 8.5
      vertex -24.5155 8.875 8.5
      vertex -24.5155 8.875 0
    endloop
  endfacet
  facet normal 0.965926 0.25882 0
    outer loop
      vertex -24.75 9.75 0
      vertex -24.75 9.75 8.5
      vertex -24.5155 8.875 0
    endloop
  endfacet
  facet normal 0.965926 -0.25882 0
    outer loop
      vertex -24.5155 10.625 0
      vertex -24.5155 10.625 8.5
      vertex -24.75 9.75 8.5
    endloop
  endfacet
  facet normal 0.965926 -0.25882 0
    outer loop
      vertex -24.75 9.75 0
      vertex -24.5155 10.625 0
      vertex -24.75 9.75 8.5
    endloop
  endfacet
  facet normal 0.707107 -0.707107 0
    outer loop
      vertex -23.875 11.2655 0
      vertex -23.875 11.2655 8.5
      vertex -24.5155 10.625 8.5
    endloop
  endfacet
  facet normal 0.707107 -0.707107 0
    outer loop
      vertex -24.5155 10.625 0
      vertex -23.875 11.2655 0
      vertex -24.5155 10.625 8.5
    endloop
  endfacet
  facet normal 0.25882 -0.965926 0
    outer loop
      vertex -23 11.5 0
      vertex -23 11.5 8.5
      vertex -23.875 11.2655 8.5
    endloop
  endfacet
  facet normal 0.25882 -0.965926 0
    outer loop
      vertex -23.875 11.2655 0
      vertex -23 11.5 0
      vertex -23.875 11.2655 8.5
    endloop
  endfacet
  facet normal -0.25882 -0.965926 0
    outer loop
      vertex -22.125 11.2655 0
      vertex -22.125 11.2655 8.5
      vertex -23 11.5 8.5
    endloop
  endfacet
  facet normal -0.25882 -0.965926 0
    outer loop
      vertex -23 11.5 0
      vertex -22.125 11.2655 0
      vertex -23 11.5 8.5
    endloop
  endfacet
  facet normal -0.707107 -0.707107 0
    outer loop
      vertex -21.4845 10.625 0
      vertex -21.4845 10.625 8.5
      vertex -22.125 11.2655 8.5
    endloop
  endfacet
  facet normal -0.707107 -0.707107 0
    outer loop
      vertex -22.125 11.2655 0
      vertex -21.4845 10.625 0
      vertex -22.125 11.2655 8.5
    endloop
  endfacet
  facet normal -0.965926 -0.25882 0
    outer loop
      vertex -21.25 9.75 8.5
      vertex -21.4845 10.625 8.5
      vertex -21.25 9.75 0
    endloop
  endfacet
  facet normal -0.965926 -0.25882 0
    outer loop
      vertex -21.25 9.75 0
      vertex -21.4845 10.625 8.5
      vertex -21.4845 10.625 0
    endloop
  endfacet
  facet normal -0.965926 0.25882 0
    outer loop
      vertex -21.25 9.75 8.5
      vertex -21.25 9.75 0
      vertex -21.4845 8.875 8.5
    endloop
  endfacet
  facet normal -0.965926 0.25882 0
    outer loop
      vertex -21.4845 8.875 8.5
      vertex -21.25 9.75 0
      vertex -21.4845 8.875 0
    endloop
  endfacet
  facet normal -0.707107 0.707107 0
    outer loop
      vertex -21.4845 8.875 8.5
      vertex -21.4845 8.875 0
      vertex -22.125 8.23446 8.5
    endloop
  endfacet
  facet normal -0.707107 0.707107 0
    outer loop
      vertex -22.125 8.23446 8.5
      vertex -21.4845 8.875 0
      vertex -22.125 8.23446 0
    endloop
  endfacet
  facet normal -0.25882 0.965926 0
    outer loop
      vertex -22.125 8.23446 8.5
      vertex -22.125 8.23446 0
      vertex -23 8 8.5
    endloop
  endfacet
  facet normal -0.25882 0.965926 0
    outer loop
      vertex -23 8 8.5
      vertex -22.125 8.23446 0
      vertex -23 8 0
    endloop
  endfacet
  facet normal 0.25882 0.965926 0
    outer loop
      vertex -23 8 8.5
      vertex -23 8 0
      vertex -23.875 8.23446 8.5
    endloop
  endfacet
  facet normal 0.25882 0.965926 0
    outer loop
      vertex -23.875 8.23446 8.5
      vertex -23 8 0
      vertex -23.875 8.23446 0
    endloop
  endfacet
  facet normal 0.707107 0.707107 0
    outer loop
      vertex -23.875 8.23446 8.5
      vertex -23.875 8.23446 0
      vertex -24.5155 8.875 8.5
    endloop
  endfacet
  facet normal 0.707107 0.707107 0
    outer loop
      vertex -24.5155 8.875 8.5
      vertex -23.875 8.23446 0
      vertex -24.5155 8.875 0
    endloop
  endfacet
  facet normal -8.49728e-17 -0.92388 0.382683
    outer loop
      vertex -22.7 5.03672 17.6021
      vertex -18 5.03672 17.6021
      vertex -18 5.20151 18
    endloop
  endfacet
  facet normal -8.49728e-17 -0.92388 0.382683
    outer loop
      vertex -22.7 5.20151 18
      vertex -22.7 5.03672 17.6021
      vertex -18 5.20151 18
    endloop
  endfacet
  facet normal 1 0 2.22045e-16
    outer loop
      vertex -22.7 -9.53671 17.6021
      vertex -22.7 -9.21284 16.98
      vertex -22.7 -8.83598 16.3884
    endloop
  endfacet
  facet normal 1 0 2.22045e-16
    outer loop
      vertex -22.7 -7.93514 15.3149
      vertex -22.7 -9.53671 17.6021
      vertex -22.7 -8.409 15.832
    endloop
  endfacet
  facet normal 1 0 2.22045e-16
    outer loop
      vertex -22.7 -8.409 15.832
      vertex -22.7 -9.53671 17.6021
      vertex -22.7 -8.83598 16.3884
    endloop
  endfacet
  facet normal 1 0 2.22045e-16
    outer loop
      vertex -22.7 -7.41801 14.841
      vertex -22.7 -9.53671 17.6021
      vertex -22.7 -7.93514 15.3149
    endloop
  endfacet
  facet normal 1 0 2.22045e-16
    outer loop
      vertex -22.7 -6.86156 14.414
      vertex -22.7 -9.53671 17.6021
      vertex -22.7 -7.41801 14.841
    endloop
  endfacet
  facet normal 1 0 2.22045e-16
    outer loop
      vertex -22.7 -6.27 14.0372
      vertex -22.7 -9.53671 17.6021
      vertex -22.7 -6.86156 14.414
    endloop
  endfacet
  facet normal 1 0 2.22045e-16
    outer loop
      vertex -22.7 -5.64785 13.7133
      vertex -22.7 -9.53671 17.6021
      vertex -22.7 -6.27 14.0372
    endloop
  endfacet
  facet normal 1 0 2.22045e-16
    outer loop
      vertex -22.7 -4.99984 13.4449
      vertex -22.7 -9.53671 17.6021
      vertex -22.7 -5.64785 13.7133
    endloop
  endfacet
  facet normal 1 0 2.22045e-16
    outer loop
      vertex -22.7 -4.3309 13.234
      vertex -22.7 -9.53671 17.6021
      vertex -22.7 -4.99984 13.4449
    endloop
  endfacet
  facet normal 1 0 2.22045e-16
    outer loop
      vertex -22.7 -3.64613 13.0821
      vertex -22.7 -9.53671 17.6021
      vertex -22.7 -4.3309 13.234
    endloop
  endfacet
  facet normal 1 0 2.22045e-16
    outer loop
      vertex -22.7 -6.28798 15.2332
      vertex -22.7 -9.53671 17.6021
      vertex -22.7 -3.64613 13.0821
    endloop
  endfacet
  facet normal 1 0 2.22045e-16
    outer loop
      vertex -22.7 -5.22523 14.6196
      vertex -22.7 -5.77 14.9032
      vertex -22.7 -2.95073 12.9906
    endloop
  endfacet
  facet normal 1 0 2.22045e-16
    outer loop
      vertex -22.7 -4.07209 14.1999
      vertex -22.7 -4.65782 14.3846
      vertex -22.7 -2.25 12.96
    endloop
  endfacet
  facet normal 1 0 2.22045e-16
    outer loop
      vertex -22.7 -2.86358 13.9868
      vertex -22.7 -3.47248 14.067
      vertex -22.7 -1.54927 12.9906
    endloop
  endfacet
  facet normal 1 0 2.22045e-16
    outer loop
      vertex -22.7 -2.25 13.96
      vertex -22.7 -2.86358 13.9868
      vertex -22.7 -0.853869 13.0821
    endloop
  endfacet
  facet normal 1 0 2.22045e-16
    outer loop
      vertex -22.7 -1.63642 13.9868
      vertex -22.7 -2.25 13.96
      vertex -22.7 -0.169095 13.234
    endloop
  endfacet
  facet normal 1 0 2.22045e-16
    outer loop
      vertex -22.7 -0.427914 14.1999
      vertex -22.7 -1.02752 14.067
      vertex -22.7 0.499842 13.4449
    endloop
  endfacet
  facet normal 1 0 2.22045e-16
    outer loop
      vertex -22.7 0.157822 14.3846
      vertex -22.7 -0.427914 14.1999
      vertex -22.7 1.14785 13.7133
    endloop
  endfacet
  facet normal 1 0 2.22045e-16
    outer loop
      vertex -22.7 0.725233 14.6196
      vertex -22.7 0.157822 14.3846
      vertex -22.7 1.77 14.0372
    endloop
  endfacet
  facet normal 1 0 2.22045e-16
    outer loop
      vertex -22.7 1.27 14.9032
      vertex -22.7 0.725233 14.6196
      vertex -22.7 2.36156 14.414
    endloop
  endfacet
  facet normal 1 0 2.22045e-16
    outer loop
      vertex -22.7 1.78798 15.2332
      vertex -22.7 1.27 14.9032
      vertex -22.7 2.91801 14.841
    endloop
  endfacet
  facet normal 1 0 2.22045e-16
    outer loop
      vertex -22.7 2.27522 15.607
      vertex -22.7 1.78798 15.2332
      vertex -22.7 3.43514 15.3149
    endloop
  endfacet
  facet normal 1 0 2.22045e-16
    outer loop
      vertex -22.7 2.72803 16.022
      vertex -22.7 2.27522 15.607
      vertex -22.7 3.909 15.832
    endloop
  endfacet
  facet normal 1 0 2.22045e-16
    outer loop
      vertex -22.7 3.51683 16.962
      vertex -22.7 3.14295 16.4748
      vertex -22.7 4.33598 16.3884
    endloop
  endfacet
  facet normal 1 0 2.22045e-16
    outer loop
      vertex -22.7 3.84682 17.48
      vertex -22.7 3.51683 16.962
      vertex -22.7 4.71284 16.98
    endloop
  endfacet
  facet normal 1 0 2.22045e-16
    outer loop
      vertex -22.7 -6.77522 15.607
      vertex -22.7 -7.22803 16.022
      vertex -22.7 -9.53671 17.6021
    endloop
  endfacet
  facet normal 1 0 2.22045e-16
    outer loop
      vertex -22.7 5.03672 17.6021
      vertex -22.7 3.84682 17.48
      vertex -22.7 4.71284 16.98
    endloop
  endfacet
  facet normal 1 0 2.22045e-16
    outer loop
      vertex -22.7 4.71284 16.98
      vertex -22.7 3.51683 16.962
      vertex -22.7 4.33598 16.3884
    endloop
  endfacet
  facet normal 1 0 2.22045e-16
    outer loop
      vertex -22.7 4.33598 16.3884
      vertex -22.7 3.14295 16.4748
      vertex -22.7 3.909 15.832
    endloop
  endfacet
  facet normal 1 0 2.22045e-16
    outer loop
      vertex -22.7 3.14295 16.4748
      vertex -22.7 2.72803 16.022
      vertex -22.7 3.909 15.832
    endloop
  endfacet
  facet normal 1 0 2.22045e-16
    outer loop
      vertex -22.7 3.909 15.832
      vertex -22.7 2.27522 15.607
      vertex -22.7 3.43514 15.3149
    endloop
  endfacet
  facet normal 1 0 2.22045e-16
    outer loop
      vertex -22.7 3.43514 15.3149
      vertex -22.7 1.78798 15.2332
      vertex -22.7 2.91801 14.841
    endloop
  endfacet
  facet normal 1 0 2.22045e-16
    outer loop
      vertex -22.7 2.91801 14.841
      vertex -22.7 1.27 14.9032
      vertex -22.7 2.36156 14.414
    endloop
  endfacet
  facet normal 1 0 2.22045e-16
    outer loop
      vertex -22.7 -8.34682 17.48
      vertex -22.7 -8.61751 18
      vertex -22.7 -9.53671 17.6021
    endloop
  endfacet
  facet normal 1 0 2.22045e-16
    outer loop
      vertex -22.7 2.36156 14.414
      vertex -22.7 0.725233 14.6196
      vertex -22.7 1.77 14.0372
    endloop
  endfacet
  facet normal 1 0 2.22045e-16
    outer loop
      vertex -22.7 1.77 14.0372
      vertex -22.7 0.157822 14.3846
      vertex -22.7 1.14785 13.7133
    endloop
  endfacet
  facet normal 1 0 2.22045e-16
    outer loop
      vertex -22.7 1.14785 13.7133
      vertex -22.7 -0.427914 14.1999
      vertex -22.7 0.499842 13.4449
    endloop
  endfacet
  facet normal 1 0 2.22045e-16
    outer loop
      vertex -22.7 0.499842 13.4449
      vertex -22.7 -1.02752 14.067
      vertex -22.7 -0.169095 13.234
    endloop
  endfacet
  facet normal 1 0 2.22045e-16
    outer loop
      vertex -22.7 -1.02752 14.067
      vertex -22.7 -1.63642 13.9868
      vertex -22.7 -0.169095 13.234
    endloop
  endfacet
  facet normal 1 0 2.22045e-16
    outer loop
      vertex -22.7 -0.169095 13.234
      vertex -22.7 -2.25 13.96
      vertex -22.7 -0.853869 13.0821
    endloop
  endfacet
  facet normal 1 0 2.22045e-16
    outer loop
      vertex -22.7 -0.853869 13.0821
      vertex -22.7 -2.86358 13.9868
      vertex -22.7 -1.54927 12.9906
    endloop
  endfacet
  facet normal 1 0 2.22045e-16
    outer loop
      vertex -22.7 -1.54927 12.9906
      vertex -22.7 -3.47248 14.067
      vertex -22.7 -2.25 12.96
    endloop
  endfacet
  facet normal 1 0 2.22045e-16
    outer loop
      vertex -22.7 -3.47248 14.067
      vertex -22.7 -4.07209 14.1999
      vertex -22.7 -2.25 12.96
    endloop
  endfacet
  facet normal 1 0 2.22045e-16
    outer loop
      vertex -22.7 -2.25 12.96
      vertex -22.7 -4.65782 14.3846
      vertex -22.7 -2.95073 12.9906
    endloop
  endfacet
  facet normal 1 0 2.22045e-16
    outer loop
      vertex -22.7 -4.65782 14.3846
      vertex -22.7 -5.22523 14.6196
      vertex -22.7 -2.95073 12.9906
    endloop
  endfacet
  facet normal 1 0 2.22045e-16
    outer loop
      vertex -22.7 -2.95073 12.9906
      vertex -22.7 -5.77 14.9032
      vertex -22.7 -3.64613 13.0821
    endloop
  endfacet
  facet normal 1 0 2.22045e-16
    outer loop
      vertex -22.7 -5.77 14.9032
      vertex -22.7 -6.28798 15.2332
      vertex -22.7 -3.64613 13.0821
    endloop
  endfacet
  facet normal 1 0 2.22045e-16
    outer loop
      vertex -22.7 -6.77522 15.607
      vertex -22.7 -9.53671 17.6021
      vertex -22.7 -6.28798 15.2332
    endloop
  endfacet
  facet normal 1 0 2.22045e-16
    outer loop
      vertex -22.7 -7.22803 16.022
      vertex -22.7 -7.64295 16.4748
      vertex -22.7 -9.53671 17.6021
    endloop
  endfacet
  facet normal 1 0 2.22045e-16
    outer loop
      vertex -22.7 -9.70151 18
      vertex -22.7 -9.53671 17.6021
      vertex -22.7 -8.61751 18
    endloop
  endfacet
  facet normal 1 0 2.22045e-16
    outer loop
      vertex -22.7 4.11751 18
      vertex -22.7 5.03672 17.6021
      vertex -22.7 5.20151 18
    endloop
  endfacet
  facet normal 1 0 2.22045e-16
    outer loop
      vertex -22.7 4.11751 18
      vertex -22.7 3.84682 17.48
      vertex -22.7 5.03672 17.6021
    endloop
  endfacet
  facet normal 1 0 2.22045e-16
    outer loop
      vertex -22.7 -7.64295 16.4748
      vertex -22.7 -8.01683 16.962
      vertex -22.7 -9.53671 17.6021
    endloop
  endfacet
  facet normal 1 0 2.22045e-16
    outer loop
      vertex -22.7 -8.01683 16.962
      vertex -22.7 -8.34682 17.48
      vertex -22.7 -9.53671 17.6021
    endloop
  endfacet
  facet normal -1.02529e-16 -0.887011 0.461749
    outer loop
      vertex -25.695 3.84682 17.48
      vertex -22.7 3.84682 17.48
      vertex -22.7 4.11751 18
    endloop
  endfacet
  facet normal -1.02529e-16 -0.887011 0.461749
    outer loop
      vertex -25.695 4.11751 18
      vertex -25.695 3.84682 17.48
      vertex -22.7 4.11751 18
    endloop
  endfacet
  facet normal -1 0 -2.22045e-16
    outer loop
      vertex -25.695 -6.27 14.0372
      vertex -25.695 -8.01683 16.962
      vertex -25.695 -5.64785 13.7133
    endloop
  endfacet
  facet normal -1 0 -2.22045e-16
    outer loop
      vertex -25.695 -5.64785 13.7133
      vertex -25.695 -7.64295 16.4748
      vertex -25.695 -4.99984 13.4449
    endloop
  endfacet
  facet normal -1 0 -2.22045e-16
    outer loop
      vertex -25.695 -4.99984 13.4449
      vertex -25.695 -7.22803 16.022
      vertex -25.695 -4.3309 13.234
    endloop
  endfacet
  facet normal -1 0 -2.22045e-16
    outer loop
      vertex -25.695 -4.3309 13.234
      vertex -25.695 -6.77522 15.607
      vertex -25.695 -3.64613 13.0821
    endloop
  endfacet
  facet normal -1 0 -2.22045e-16
    outer loop
      vertex -25.695 -3.64613 13.0821
      vertex -25.695 -6.28798 15.2332
      vertex -25.695 -2.95073 12.9906
    endloop
  endfacet
  facet normal -1 0 -2.22045e-16
    outer loop
      vertex -25.695 -2.95073 12.9906
      vertex -25.695 -5.77 14.9032
      vertex -25.695 -2.25 12.96
    endloop
  endfacet
  facet normal -1 0 -2.22045e-16
    outer loop
      vertex -25.695 -2.25 12.96
      vertex -25.695 -5.22523 14.6196
      vertex -25.695 -1.54927 12.9906
    endloop
  endfacet
  facet normal -1 0 -2.22045e-16
    outer loop
      vertex -25.695 -1.54927 12.9906
      vertex -25.695 -4.65782 14.3846
      vertex -25.695 -0.853869 13.0821
    endloop
  endfacet
  facet normal -1 0 -2.22045e-16
    outer loop
      vertex -25.695 -0.853869 13.0821
      vertex -25.695 -4.07209 14.1999
      vertex -25.695 -0.169095 13.234
    endloop
  endfacet
  facet normal -1 0 -2.22045e-16
    outer loop
      vertex -25.695 -0.169095 13.234
      vertex -25.695 -3.47248 14.067
      vertex -25.695 0.499842 13.4449
    endloop
  endfacet
  facet normal -1 0 -2.22045e-16
    outer loop
      vertex -25.695 0.499842 13.4449
      vertex -25.695 -2.86358 13.9868
      vertex -25.695 1.14785 13.7133
    endloop
  endfacet
  facet normal -1 0 -2.22045e-16
    outer loop
      vertex -25.695 1.14785 13.7133
      vertex -25.695 -2.25 13.96
      vertex -25.695 1.77 14.0372
    endloop
  endfacet
  facet normal -1 0 -2.22045e-16
    outer loop
      vertex -25.695 1.77 14.0372
      vertex -25.695 -1.63642 13.9868
      vertex -25.695 2.36156 14.414
    endloop
  endfacet
  facet normal -1 0 -2.22045e-16
    outer loop
      vertex -25.695 2.36156 14.414
      vertex -25.695 -1.02752 14.067
      vertex -25.695 2.91801 14.841
    endloop
  endfacet
  facet normal -1 0 -2.22045e-16
    outer loop
      vertex -25.695 2.91801 14.841
      vertex -25.695 -0.427914 14.1999
      vertex -25.695 3.43514 15.3149
    endloop
  endfacet
  facet normal -1 0 -2.22045e-16
    outer loop
      vertex -25.695 3.43514 15.3149
      vertex -25.695 0.157822 14.3846
      vertex -25.695 3.909 15.832
    endloop
  endfacet
  facet normal -1 0 -2.22045e-16
    outer loop
      vertex -25.695 3.909 15.832
      vertex -25.695 0.725233 14.6196
      vertex -25.695 4.33598 16.3884
    endloop
  endfacet
  facet normal -1 0 -2.22045e-16
    outer loop
      vertex -25.695 4.33598 16.3884
      vertex -25.695 1.27 14.9032
      vertex -25.695 4.71284 16.98
    endloop
  endfacet
  facet normal -1 0 -2.22045e-16
    outer loop
      vertex -25.695 4.71284 16.98
      vertex -25.695 1.78798 15.2332
      vertex -25.695 5.03672 17.6021
    endloop
  endfacet
  facet normal -1 0 -2.22045e-16
    outer loop
      vertex -25.695 5.03672 17.6021
      vertex -25.695 2.27522 15.607
      vertex -25.695 5.20151 18
    endloop
  endfacet
  facet normal -1 0 -2.22045e-16
    outer loop
      vertex -25.695 2.27522 15.607
      vertex -25.695 2.72803 16.022
      vertex -25.695 5.20151 18
    endloop
  endfacet
  facet normal -1 0 -2.22045e-16
    outer loop
      vertex -25.695 2.72803 16.022
      vertex -25.695 3.14295 16.4748
      vertex -25.695 5.20151 18
    endloop
  endfacet
  facet normal -1 0 -2.22045e-16
    outer loop
      vertex -25.695 3.14295 16.4748
      vertex -25.695 3.51683 16.962
      vertex -25.695 5.20151 18
    endloop
  endfacet
  facet normal -1 0 -2.22045e-16
    outer loop
      vertex -25.695 5.20151 18
      vertex -25.695 3.84682 17.48
      vertex -25.695 4.11751 18
    endloop
  endfacet
  facet normal -1 0 -2.22045e-16
    outer loop
      vertex -25.695 3.51683 16.962
      vertex -25.695 3.84682 17.48
      vertex -25.695 5.20151 18
    endloop
  endfacet
  facet normal -1 0 -2.22045e-16
    outer loop
      vertex -25.695 1.78798 15.2332
      vertex -25.695 2.27522 15.607
      vertex -25.695 5.03672 17.6021
    endloop
  endfacet
  facet normal -1 0 -2.22045e-16
    outer loop
      vertex -25.695 1.27 14.9032
      vertex -25.695 1.78798 15.2332
      vertex -25.695 4.71284 16.98
    endloop
  endfacet
  facet normal -1 0 -2.22045e-16
    outer loop
      vertex -25.695 0.725233 14.6196
      vertex -25.695 1.27 14.9032
      vertex -25.695 4.33598 16.3884
    endloop
  endfacet
  facet normal -1 0 -2.22045e-16
    outer loop
      vertex -25.695 0.157822 14.3846
      vertex -25.695 0.725233 14.6196
      vertex -25.695 3.909 15.832
    endloop
  endfacet
  facet normal -1 0 -2.22045e-16
    outer loop
      vertex -25.695 -0.427914 14.1999
      vertex -25.695 0.157822 14.3846
      vertex -25.695 3.43514 15.3149
    endloop
  endfacet
  facet normal -1 0 -2.22045e-16
    outer loop
      vertex -25.695 -1.02752 14.067
      vertex -25.695 -0.427914 14.1999
      vertex -25.695 2.91801 14.841
    endloop
  endfacet
  facet normal -1 0 -2.22045e-16
    outer loop
      vertex -25.695 -1.63642 13.9868
      vertex -25.695 -1.02752 14.067
      vertex -25.695 2.36156 14.414
    endloop
  endfacet
  facet normal -1 0 -2.22045e-16
    outer loop
      vertex -25.695 -2.25 13.96
      vertex -25.695 -1.63642 13.9868
      vertex -25.695 1.77 14.0372
    endloop
  endfacet
  facet normal -1 0 -2.22045e-16
    outer loop
      vertex -25.695 -2.86358 13.9868
      vertex -25.695 -2.25 13.96
      vertex -25.695 1.14785 13.7133
    endloop
  endfacet
  facet normal -1 0 -2.22045e-16
    outer loop
      vertex -25.695 -3.47248 14.067
      vertex -25.695 -2.86358 13.9868
      vertex -25.695 0.499842 13.4449
    endloop
  endfacet
  facet normal -1 0 -2.22045e-16
    outer loop
      vertex -25.695 -4.07209 14.1999
      vertex -25.695 -3.47248 14.067
      vertex -25.695 -0.169095 13.234
    endloop
  endfacet
  facet normal -1 0 -2.22045e-16
    outer loop
      vertex -25.695 -4.65782 14.3846
      vertex -25.695 -4.07209 14.1999
      vertex -25.695 -0.853869 13.0821
    endloop
  endfacet
  facet normal -1 0 -2.22045e-16
    outer loop
      vertex -25.695 -5.22523 14.6196
      vertex -25.695 -4.65782 14.3846
      vertex -25.695 -1.54927 12.9906
    endloop
  endfacet
  facet normal -1 0 -2.22045e-16
    outer loop
      vertex -25.695 -5.77 14.9032
      vertex -25.695 -5.22523 14.6196
      vertex -25.695 -2.25 12.96
    endloop
  endfacet
  facet normal -1 0 -2.22045e-16
    outer loop
      vertex -25.695 -6.28798 15.2332
      vertex -25.695 -5.77 14.9032
      vertex -25.695 -2.95073 12.9906
    endloop
  endfacet
  facet normal -1 0 -2.22045e-16
    outer loop
      vertex -25.695 -6.77522 15.607
      vertex -25.695 -6.28798 15.2332
      vertex -25.695 -3.64613 13.0821
    endloop
  endfacet
  facet normal -1 0 -2.22045e-16
    outer loop
      vertex -25.695 -7.22803 16.022
      vertex -25.695 -6.77522 15.607
      vertex -25.695 -4.3309 13.234
    endloop
  endfacet
  facet normal -1 0 -2.22045e-16
    outer loop
      vertex -25.695 -7.64295 16.4748
      vertex -25.695 -7.22803 16.022
      vertex -25.695 -4.99984 13.4449
    endloop
  endfacet
  facet normal -1 0 -2.22045e-16
    outer loop
      vertex -25.695 -8.01683 16.962
      vertex -25.695 -7.64295 16.4748
      vertex -25.695 -5.64785 13.7133
    endloop
  endfacet
  facet normal -1 0 -2.22045e-16
    outer loop
      vertex -25.695 -8.34682 17.48
      vertex -25.695 -8.01683 16.962
      vertex -25.695 -6.27 14.0372
    endloop
  endfacet
  facet normal -1 0 -2.22045e-16
    outer loop
      vertex -25.695 -8.34682 17.48
      vertex -25.695 -6.27 14.0372
      vertex -25.695 -6.86156 14.414
    endloop
  endfacet
  facet normal -1 0 -2.22045e-16
    outer loop
      vertex -25.695 -8.34682 17.48
      vertex -25.695 -6.86156 14.414
      vertex -25.695 -8.61751 18
    endloop
  endfacet
  facet normal -1 0 -2.22045e-16
    outer loop
      vertex -25.695 -6.86156 14.414
      vertex -25.695 -7.41801 14.841
      vertex -25.695 -8.61751 18
    endloop
  endfacet
  facet normal -1 0 -2.22045e-16
    outer loop
      vertex -25.695 -7.41801 14.841
      vertex -25.695 -7.93514 15.3149
      vertex -25.695 -8.61751 18
    endloop
  endfacet
  facet normal -1 0 -2.22045e-16
    outer loop
      vertex -25.695 -7.93514 15.3149
      vertex -25.695 -8.409 15.832
      vertex -25.695 -8.61751 18
    endloop
  endfacet
  facet normal -1 0 -2.22045e-16
    outer loop
      vertex -25.695 -8.409 15.832
      vertex -25.695 -8.83598 16.3884
      vertex -25.695 -8.61751 18
    endloop
  endfacet
  facet normal -1 0 -2.22045e-16
    outer loop
      vertex -25.695 -8.83598 16.3884
      vertex -25.695 -9.21284 16.98
      vertex -25.695 -8.61751 18
    endloop
  endfacet
  facet normal -1 0 -2.22045e-16
    outer loop
      vertex -25.695 -9.21284 16.98
      vertex -25.695 -9.53671 17.6021
      vertex -25.695 -8.61751 18
    endloop
  endfacet
  facet normal -1 0 -2.22045e-16
    outer loop
      vertex -25.695 -9.53671 17.6021
      vertex -25.695 -9.70151 18
      vertex -25.695 -8.61751 18
    endloop
  endfacet
  facet normal -1.02529e-16 0.887011 0.461749
    outer loop
      vertex -22.7 -8.34682 17.48
      vertex -25.695 -8.34682 17.48
      vertex -22.7 -8.61751 18
    endloop
  endfacet
  facet normal -1.02529e-16 0.887011 0.461749
    outer loop
      vertex -22.7 -8.61751 18
      vertex -25.695 -8.34682 17.48
      vertex -25.695 -8.61751 18
    endloop
  endfacet
  facet normal -8.49728e-17 0.92388 0.382683
    outer loop
      vertex -18 -9.53671 17.6021
      vertex -22.7 -9.53671 17.6021
      vertex -18 -9.70151 18
    endloop
  endfacet
  facet normal -8.49728e-17 0.92388 0.382683
    outer loop
      vertex -18 -9.70151 18
      vertex -22.7 -9.53671 17.6021
      vertex -22.7 -9.70151 18
    endloop
  endfacet
  facet normal -1.02529e-16 0.88701 0.461749
    outer loop
      vertex -18 -9.21284 16.98
      vertex -22.7 -9.21284 16.98
      vertex -18 -9.53671 17.6021
    endloop
  endfacet
  facet normal -1.02529e-16 0.88701 0.461749
    outer loop
      vertex -18 -9.53671 17.6021
      vertex -22.7 -9.21284 16.98
      vertex -22.7 -9.53671 17.6021
    endloop
  endfacet
  facet normal -1.19304e-16 0.843392 0.5373
    outer loop
      vertex -18 -8.83598 16.3884
      vertex -22.7 -8.83598 16.3884
      vertex -18 -9.21284 16.98
    endloop
  endfacet
  facet normal -1.19304e-16 0.843392 0.5373
    outer loop
      vertex -18 -9.21284 16.98
      vertex -22.7 -8.83598 16.3884
      vertex -22.7 -9.21284 16.98
    endloop
  endfacet
  facet normal -1.35172e-16 0.793353 0.608762
    outer loop
      vertex -18 -8.409 15.832
      vertex -22.7 -8.409 15.832
      vertex -18 -8.83598 16.3884
    endloop
  endfacet
  facet normal -1.35172e-16 0.793353 0.608762
    outer loop
      vertex -18 -8.83598 16.3884
      vertex -22.7 -8.409 15.832
      vertex -22.7 -8.83598 16.3884
    endloop
  endfacet
  facet normal -1.50011e-16 0.737278 0.675589
    outer loop
      vertex -18 -7.93514 15.3149
      vertex -22.7 -7.93514 15.3149
      vertex -18 -8.409 15.832
    endloop
  endfacet
  facet normal -1.50011e-16 0.737278 0.675589
    outer loop
      vertex -18 -8.409 15.832
      vertex -22.7 -7.93514 15.3149
      vertex -22.7 -8.409 15.832
    endloop
  endfacet
  facet normal -1.63709e-16 0.675589 0.737278
    outer loop
      vertex -18 -7.93514 15.3149
      vertex -18 -7.41801 14.841
      vertex -22.7 -7.41801 14.841
    endloop
  endfacet
  facet normal -1.63709e-16 0.675589 0.737278
    outer loop
      vertex -22.7 -7.93514 15.3149
      vertex -18 -7.93514 15.3149
      vertex -22.7 -7.41801 14.841
    endloop
  endfacet
  facet normal -1.7616e-16 0.608762 0.793353
    outer loop
      vertex -18 -7.41801 14.841
      vertex -18 -6.86156 14.414
      vertex -22.7 -6.86156 14.414
    endloop
  endfacet
  facet normal -1.7616e-16 0.608762 0.793353
    outer loop
      vertex -22.7 -7.41801 14.841
      vertex -18 -7.41801 14.841
      vertex -22.7 -6.86156 14.414
    endloop
  endfacet
  facet normal -1.87271e-16 0.5373 0.843392
    outer loop
      vertex -18 -6.86156 14.414
      vertex -18 -6.27 14.0372
      vertex -22.7 -6.27 14.0372
    endloop
  endfacet
  facet normal -1.87271e-16 0.5373 0.843392
    outer loop
      vertex -22.7 -6.86156 14.414
      vertex -18 -6.86156 14.414
      vertex -22.7 -6.27 14.0372
    endloop
  endfacet
  facet normal -1.96956e-16 0.461749 0.88701
    outer loop
      vertex -18 -6.27 14.0372
      vertex -18 -5.64785 13.7133
      vertex -22.7 -5.64785 13.7133
    endloop
  endfacet
  facet normal -1.96956e-16 0.461749 0.88701
    outer loop
      vertex -22.7 -6.27 14.0372
      vertex -18 -6.27 14.0372
      vertex -22.7 -5.64785 13.7133
    endloop
  endfacet
  facet normal -2.05142e-16 0.382683 0.92388
    outer loop
      vertex -18 -5.64785 13.7133
      vertex -18 -4.99984 13.4449
      vertex -22.7 -4.99984 13.4449
    endloop
  endfacet
  facet normal -2.05142e-16 0.382683 0.92388
    outer loop
      vertex -22.7 -5.64785 13.7133
      vertex -18 -5.64785 13.7133
      vertex -22.7 -4.99984 13.4449
    endloop
  endfacet
  facet normal -2.11768e-16 0.300706 0.953717
    outer loop
      vertex -18 -4.99984 13.4449
      vertex -18 -4.3309 13.234
      vertex -22.7 -4.3309 13.234
    endloop
  endfacet
  facet normal -2.11768e-16 0.300706 0.953717
    outer loop
      vertex -22.7 -4.99984 13.4449
      vertex -18 -4.99984 13.4449
      vertex -22.7 -4.3309 13.234
    endloop
  endfacet
  facet normal -2.16781e-16 0.216439 0.976296
    outer loop
      vertex -18 -4.3309 13.234
      vertex -18 -3.64613 13.0821
      vertex -22.7 -3.64613 13.0821
    endloop
  endfacet
  facet normal -2.16781e-16 0.216439 0.976296
    outer loop
      vertex -22.7 -4.3309 13.234
      vertex -18 -4.3309 13.234
      vertex -22.7 -3.64613 13.0821
    endloop
  endfacet
  facet normal -2.20145e-16 0.130526 0.991445
    outer loop
      vertex -18 -3.64613 13.0821
      vertex -18 -2.95073 12.9906
      vertex -22.7 -2.95073 12.9906
    endloop
  endfacet
  facet normal -2.20145e-16 0.130526 0.991445
    outer loop
      vertex -22.7 -3.64613 13.0821
      vertex -18 -3.64613 13.0821
      vertex -22.7 -2.95073 12.9906
    endloop
  endfacet
  facet normal -2.21833e-16 0.0436199 0.999048
    outer loop
      vertex -18 -2.95073 12.9906
      vertex -18 -2.25 12.96
      vertex -22.7 -2.25 12.96
    endloop
  endfacet
  facet normal -2.21833e-16 0.0436199 0.999048
    outer loop
      vertex -22.7 -2.95073 12.9906
      vertex -18 -2.95073 12.9906
      vertex -22.7 -2.25 12.96
    endloop
  endfacet
  facet normal -2.21833e-16 -0.0436199 0.999048
    outer loop
      vertex -22.7 -2.25 12.96
      vertex -18 -2.25 12.96
      vertex -18 -1.54927 12.9906
    endloop
  endfacet
  facet normal -2.21833e-16 -0.0436199 0.999048
    outer loop
      vertex -22.7 -1.54927 12.9906
      vertex -22.7 -2.25 12.96
      vertex -18 -1.54927 12.9906
    endloop
  endfacet
  facet normal -2.20145e-16 -0.130526 0.991445
    outer loop
      vertex -22.7 -1.54927 12.9906
      vertex -18 -1.54927 12.9906
      vertex -18 -0.853869 13.0821
    endloop
  endfacet
  facet normal -2.20145e-16 -0.130526 0.991445
    outer loop
      vertex -22.7 -0.853869 13.0821
      vertex -22.7 -1.54927 12.9906
      vertex -18 -0.853869 13.0821
    endloop
  endfacet
  facet normal -2.16781e-16 -0.216439 0.976296
    outer loop
      vertex -22.7 -0.853869 13.0821
      vertex -18 -0.853869 13.0821
      vertex -18 -0.169095 13.234
    endloop
  endfacet
  facet normal -2.16781e-16 -0.216439 0.976296
    outer loop
      vertex -22.7 -0.169095 13.234
      vertex -22.7 -0.853869 13.0821
      vertex -18 -0.169095 13.234
    endloop
  endfacet
  facet normal -2.11768e-16 -0.300706 0.953717
    outer loop
      vertex -22.7 -0.169095 13.234
      vertex -18 -0.169095 13.234
      vertex -18 0.499842 13.4449
    endloop
  endfacet
  facet normal -2.11768e-16 -0.300706 0.953717
    outer loop
      vertex -22.7 0.499842 13.4449
      vertex -22.7 -0.169095 13.234
      vertex -18 0.499842 13.4449
    endloop
  endfacet
  facet normal -2.05142e-16 -0.382683 0.92388
    outer loop
      vertex -22.7 0.499842 13.4449
      vertex -18 0.499842 13.4449
      vertex -18 1.14785 13.7133
    endloop
  endfacet
  facet normal -2.05142e-16 -0.382683 0.92388
    outer loop
      vertex -22.7 1.14785 13.7133
      vertex -22.7 0.499842 13.4449
      vertex -18 1.14785 13.7133
    endloop
  endfacet
  facet normal -1.96956e-16 -0.461749 0.88701
    outer loop
      vertex -22.7 1.14785 13.7133
      vertex -18 1.14785 13.7133
      vertex -18 1.77 14.0372
    endloop
  endfacet
  facet normal -1.96956e-16 -0.461749 0.88701
    outer loop
      vertex -22.7 1.77 14.0372
      vertex -22.7 1.14785 13.7133
      vertex -18 1.77 14.0372
    endloop
  endfacet
  facet normal -1.87271e-16 -0.5373 0.843392
    outer loop
      vertex -22.7 1.77 14.0372
      vertex -18 1.77 14.0372
      vertex -18 2.36156 14.414
    endloop
  endfacet
  facet normal -1.87271e-16 -0.5373 0.843392
    outer loop
      vertex -22.7 2.36156 14.414
      vertex -22.7 1.77 14.0372
      vertex -18 2.36156 14.414
    endloop
  endfacet
  facet normal -1.7616e-16 -0.608762 0.793353
    outer loop
      vertex -22.7 2.36156 14.414
      vertex -18 2.36156 14.414
      vertex -18 2.91801 14.841
    endloop
  endfacet
  facet normal -1.7616e-16 -0.608762 0.793353
    outer loop
      vertex -22.7 2.91801 14.841
      vertex -22.7 2.36156 14.414
      vertex -18 2.91801 14.841
    endloop
  endfacet
  facet normal -1.63709e-16 -0.675589 0.737278
    outer loop
      vertex -22.7 2.91801 14.841
      vertex -18 2.91801 14.841
      vertex -18 3.43514 15.3149
    endloop
  endfacet
  facet normal -1.63709e-16 -0.675589 0.737278
    outer loop
      vertex -22.7 3.43514 15.3149
      vertex -22.7 2.91801 14.841
      vertex -18 3.43514 15.3149
    endloop
  endfacet
  facet normal -1.50011e-16 -0.737278 0.675589
    outer loop
      vertex -22.7 3.43514 15.3149
      vertex -18 3.43514 15.3149
      vertex -18 3.909 15.832
    endloop
  endfacet
  facet normal -1.50011e-16 -0.737278 0.675589
    outer loop
      vertex -22.7 3.909 15.832
      vertex -22.7 3.43514 15.3149
      vertex -18 3.909 15.832
    endloop
  endfacet
  facet normal -1.35172e-16 -0.793353 0.608762
    outer loop
      vertex -22.7 3.909 15.832
      vertex -18 3.909 15.832
      vertex -18 4.33598 16.3884
    endloop
  endfacet
  facet normal -1.35172e-16 -0.793353 0.608762
    outer loop
      vertex -22.7 4.33598 16.3884
      vertex -22.7 3.909 15.832
      vertex -18 4.33598 16.3884
    endloop
  endfacet
  facet normal -1.19304e-16 -0.843392 0.5373
    outer loop
      vertex -22.7 4.33598 16.3884
      vertex -18 4.33598 16.3884
      vertex -18 4.71284 16.98
    endloop
  endfacet
  facet normal -1.19304e-16 -0.843392 0.5373
    outer loop
      vertex -22.7 4.71284 16.98
      vertex -22.7 4.33598 16.3884
      vertex -18 4.71284 16.98
    endloop
  endfacet
  facet normal -1.02529e-16 -0.88701 0.461749
    outer loop
      vertex -22.7 4.71284 16.98
      vertex -18 4.71284 16.98
      vertex -18 5.03672 17.6021
    endloop
  endfacet
  facet normal -1.02529e-16 -0.88701 0.461749
    outer loop
      vertex -22.7 5.03672 17.6021
      vertex -22.7 4.71284 16.98
      vertex -18 5.03672 17.6021
    endloop
  endfacet
  facet normal -1.19305e-16 0.843391 0.5373
    outer loop
      vertex -22.7 -8.01683 16.962
      vertex -25.695 -8.01683 16.962
      vertex -22.7 -8.34682 17.48
    endloop
  endfacet
  facet normal -1.19305e-16 0.843391 0.5373
    outer loop
      vertex -22.7 -8.34682 17.48
      vertex -25.695 -8.01683 16.962
      vertex -25.695 -8.34682 17.48
    endloop
  endfacet
  facet normal -1.35172e-16 0.793354 0.608761
    outer loop
      vertex -22.7 -7.64295 16.4748
      vertex -25.695 -7.64295 16.4748
      vertex -22.7 -8.01683 16.962
    endloop
  endfacet
  facet normal -1.35172e-16 0.793354 0.608761
    outer loop
      vertex -22.7 -8.01683 16.962
      vertex -25.695 -7.64295 16.4748
      vertex -25.695 -8.01683 16.962
    endloop
  endfacet
  facet normal -1.50011e-16 0.737277 0.67559
    outer loop
      vertex -22.7 -7.22803 16.022
      vertex -25.695 -7.22803 16.022
      vertex -22.7 -7.64295 16.4748
    endloop
  endfacet
  facet normal -1.50011e-16 0.737277 0.67559
    outer loop
      vertex -22.7 -7.64295 16.4748
      vertex -25.695 -7.22803 16.022
      vertex -25.695 -7.64295 16.4748
    endloop
  endfacet
  facet normal -1.63708e-16 0.67559 0.737277
    outer loop
      vertex -22.7 -7.22803 16.022
      vertex -22.7 -6.77522 15.607
      vertex -25.695 -6.77522 15.607
    endloop
  endfacet
  facet normal -1.63708e-16 0.67559 0.737277
    outer loop
      vertex -25.695 -7.22803 16.022
      vertex -22.7 -7.22803 16.022
      vertex -25.695 -6.77522 15.607
    endloop
  endfacet
  facet normal -1.7616e-16 0.608761 0.793354
    outer loop
      vertex -22.7 -6.77522 15.607
      vertex -22.7 -6.28798 15.2332
      vertex -25.695 -6.28798 15.2332
    endloop
  endfacet
  facet normal -1.7616e-16 0.608761 0.793354
    outer loop
      vertex -25.695 -6.77522 15.607
      vertex -22.7 -6.77522 15.607
      vertex -25.695 -6.28798 15.2332
    endloop
  endfacet
  facet normal -1.8727e-16 0.5373 0.843391
    outer loop
      vertex -22.7 -6.28798 15.2332
      vertex -22.7 -5.77 14.9032
      vertex -25.695 -5.77 14.9032
    endloop
  endfacet
  facet normal -1.8727e-16 0.5373 0.843391
    outer loop
      vertex -25.695 -6.28798 15.2332
      vertex -22.7 -6.28798 15.2332
      vertex -25.695 -5.77 14.9032
    endloop
  endfacet
  facet normal -1.96956e-16 0.461749 0.887011
    outer loop
      vertex -22.7 -5.77 14.9032
      vertex -22.7 -5.22523 14.6196
      vertex -25.695 -5.22523 14.6196
    endloop
  endfacet
  facet normal -1.96956e-16 0.461749 0.887011
    outer loop
      vertex -25.695 -5.77 14.9032
      vertex -22.7 -5.77 14.9032
      vertex -25.695 -5.22523 14.6196
    endloop
  endfacet
  facet normal -2.05143e-16 0.382683 0.92388
    outer loop
      vertex -22.7 -5.22523 14.6196
      vertex -22.7 -4.65782 14.3846
      vertex -25.695 -4.65782 14.3846
    endloop
  endfacet
  facet normal -2.05143e-16 0.382683 0.92388
    outer loop
      vertex -25.695 -5.22523 14.6196
      vertex -22.7 -5.22523 14.6196
      vertex -25.695 -4.65782 14.3846
    endloop
  endfacet
  facet normal -2.11768e-16 0.300706 0.953717
    outer loop
      vertex -22.7 -4.65782 14.3846
      vertex -22.7 -4.07209 14.1999
      vertex -25.695 -4.07209 14.1999
    endloop
  endfacet
  facet normal -2.11768e-16 0.300706 0.953717
    outer loop
      vertex -25.695 -4.65782 14.3846
      vertex -22.7 -4.65782 14.3846
      vertex -25.695 -4.07209 14.1999
    endloop
  endfacet
  facet normal -2.16781e-16 0.21644 0.976296
    outer loop
      vertex -22.7 -4.07209 14.1999
      vertex -22.7 -3.47248 14.067
      vertex -25.695 -3.47248 14.067
    endloop
  endfacet
  facet normal -2.16781e-16 0.21644 0.976296
    outer loop
      vertex -25.695 -4.07209 14.1999
      vertex -22.7 -4.07209 14.1999
      vertex -25.695 -3.47248 14.067
    endloop
  endfacet
  facet normal -2.20145e-16 0.130526 0.991445
    outer loop
      vertex -22.7 -3.47248 14.067
      vertex -22.7 -2.86358 13.9868
      vertex -25.695 -2.86358 13.9868
    endloop
  endfacet
  facet normal -2.20145e-16 0.130526 0.991445
    outer loop
      vertex -25.695 -3.47248 14.067
      vertex -22.7 -3.47248 14.067
      vertex -25.695 -2.86358 13.9868
    endloop
  endfacet
  facet normal -2.21833e-16 0.0436189 0.999048
    outer loop
      vertex -22.7 -2.86358 13.9868
      vertex -22.7 -2.25 13.96
      vertex -25.695 -2.25 13.96
    endloop
  endfacet
  facet normal -2.21833e-16 0.0436189 0.999048
    outer loop
      vertex -25.695 -2.86358 13.9868
      vertex -22.7 -2.86358 13.9868
      vertex -25.695 -2.25 13.96
    endloop
  endfacet
  facet normal -2.21833e-16 -0.0436189 0.999048
    outer loop
      vertex -25.695 -2.25 13.96
      vertex -22.7 -2.25 13.96
      vertex -22.7 -1.63642 13.9868
    endloop
  endfacet
  facet normal -2.21833e-16 -0.0436189 0.999048
    outer loop
      vertex -25.695 -1.63642 13.9868
      vertex -25.695 -2.25 13.96
      vertex -22.7 -1.63642 13.9868
    endloop
  endfacet
  facet normal -2.20145e-16 -0.130526 0.991445
    outer loop
      vertex -25.695 -1.63642 13.9868
      vertex -22.7 -1.63642 13.9868
      vertex -22.7 -1.02752 14.067
    endloop
  endfacet
  facet normal -2.20145e-16 -0.130526 0.991445
    outer loop
      vertex -25.695 -1.02752 14.067
      vertex -25.695 -1.63642 13.9868
      vertex -22.7 -1.02752 14.067
    endloop
  endfacet
  facet normal -2.16781e-16 -0.21644 0.976296
    outer loop
      vertex -25.695 -1.02752 14.067
      vertex -22.7 -1.02752 14.067
      vertex -22.7 -0.427914 14.1999
    endloop
  endfacet
  facet normal -2.16781e-16 -0.21644 0.976296
    outer loop
      vertex -25.695 -0.427914 14.1999
      vertex -25.695 -1.02752 14.067
      vertex -22.7 -0.427914 14.1999
    endloop
  endfacet
  facet normal -2.11768e-16 -0.300706 0.953717
    outer loop
      vertex -25.695 -0.427914 14.1999
      vertex -22.7 -0.427914 14.1999
      vertex -22.7 0.157822 14.3846
    endloop
  endfacet
  facet normal -2.11768e-16 -0.300706 0.953717
    outer loop
      vertex -25.695 0.157822 14.3846
      vertex -25.695 -0.427914 14.1999
      vertex -22.7 0.157822 14.3846
    endloop
  endfacet
  facet normal -2.05143e-16 -0.382683 0.92388
    outer loop
      vertex -25.695 0.157822 14.3846
      vertex -22.7 0.157822 14.3846
      vertex -22.7 0.725233 14.6196
    endloop
  endfacet
  facet normal -2.05143e-16 -0.382683 0.92388
    outer loop
      vertex -25.695 0.725233 14.6196
      vertex -25.695 0.157822 14.3846
      vertex -22.7 0.725233 14.6196
    endloop
  endfacet
  facet normal -1.96956e-16 -0.461749 0.887011
    outer loop
      vertex -25.695 0.725233 14.6196
      vertex -22.7 0.725233 14.6196
      vertex -22.7 1.27 14.9032
    endloop
  endfacet
  facet normal -1.96956e-16 -0.461749 0.887011
    outer loop
      vertex -25.695 1.27 14.9032
      vertex -25.695 0.725233 14.6196
      vertex -22.7 1.27 14.9032
    endloop
  endfacet
  facet normal -1.8727e-16 -0.5373 0.843391
    outer loop
      vertex -25.695 1.27 14.9032
      vertex -22.7 1.27 14.9032
      vertex -22.7 1.78798 15.2332
    endloop
  endfacet
  facet normal -1.8727e-16 -0.5373 0.843391
    outer loop
      vertex -25.695 1.78798 15.2332
      vertex -25.695 1.27 14.9032
      vertex -22.7 1.78798 15.2332
    endloop
  endfacet
  facet normal -1.7616e-16 -0.608761 0.793354
    outer loop
      vertex -25.695 1.78798 15.2332
      vertex -22.7 1.78798 15.2332
      vertex -22.7 2.27522 15.607
    endloop
  endfacet
  facet normal -1.7616e-16 -0.608761 0.793354
    outer loop
      vertex -25.695 2.27522 15.607
      vertex -25.695 1.78798 15.2332
      vertex -22.7 2.27522 15.607
    endloop
  endfacet
  facet normal -1.63708e-16 -0.67559 0.737277
    outer loop
      vertex -25.695 2.27522 15.607
      vertex -22.7 2.27522 15.607
      vertex -22.7 2.72803 16.022
    endloop
  endfacet
  facet normal -1.63708e-16 -0.67559 0.737277
    outer loop
      vertex -25.695 2.72803 16.022
      vertex -25.695 2.27522 15.607
      vertex -22.7 2.72803 16.022
    endloop
  endfacet
  facet normal -1.50011e-16 -0.737277 0.67559
    outer loop
      vertex -25.695 2.72803 16.022
      vertex -22.7 2.72803 16.022
      vertex -22.7 3.14295 16.4748
    endloop
  endfacet
  facet normal -1.50011e-16 -0.737277 0.67559
    outer loop
      vertex -25.695 3.14295 16.4748
      vertex -25.695 2.72803 16.022
      vertex -22.7 3.14295 16.4748
    endloop
  endfacet
  facet normal -1.35172e-16 -0.793354 0.608761
    outer loop
      vertex -25.695 3.14295 16.4748
      vertex -22.7 3.14295 16.4748
      vertex -22.7 3.51683 16.962
    endloop
  endfacet
  facet normal -1.35172e-16 -0.793354 0.608761
    outer loop
      vertex -25.695 3.51683 16.962
      vertex -25.695 3.14295 16.4748
      vertex -22.7 3.51683 16.962
    endloop
  endfacet
  facet normal -1.19305e-16 -0.843391 0.5373
    outer loop
      vertex -25.695 3.51683 16.962
      vertex -22.7 3.51683 16.962
      vertex -22.7 3.84682 17.48
    endloop
  endfacet
  facet normal -1.19305e-16 -0.843391 0.5373
    outer loop
      vertex -25.695 3.84682 17.48
      vertex -25.695 3.51683 16.962
      vertex -22.7 3.84682 17.48
    endloop
  endfacet
endsolid OpenSCAD_Model
